<svg width="358" height="229" viewBox="0 0 358 229" fill="none" xmlns="http://www.w3.org/2000/svg">
<mask id="mask0_1_1873" style="mask-type:luminance" maskUnits="userSpaceOnUse" x="0" y="0" width="358" height="229">
<path d="M0 9.64088C119.28 43.0379 238.559 -23.7561 357.839 9.64088C357.839 79.2179 357.839 148.794 357.839 218.371C238.559 184.974 119.28 251.768 0 218.371C0 148.794 0 79.2169 0 9.64088Z" fill="white"/>
</mask>
<g mask="url(#mask0_1_1873)">
<path d="M0 218.371C119.28 251.768 238.559 184.974 357.839 218.371C357.839 148.794 357.839 79.2179 357.839 9.64088C238.559 -23.7561 119.28 43.0379 0 9.64088C0 79.2169 0 148.794 0 218.371Z" fill="white"/>
</g>
<mask id="mask1_1_1873" style="mask-type:luminance" maskUnits="userSpaceOnUse" x="0" y="0" width="358" height="229">
<path d="M0 9.64088C119.28 43.0379 238.559 -23.7561 357.839 9.64088C357.839 79.2179 357.839 148.794 357.839 218.371C238.559 184.974 119.28 251.768 0 218.371C0 148.794 0 79.2169 0 9.64088Z" fill="white"/>
</mask>
<g mask="url(#mask1_1_1873)">
<path d="M0 218.371C34.79 228.112 69.579 229.329 104.369 226.996C104.369 157.419 104.369 87.8429 104.369 18.2659C69.579 20.5999 34.79 19.3819 0 9.64087C0 79.2169 0 148.794 0 218.371Z" fill="#324297"/>
</g>
<mask id="mask2_1_1873" style="mask-type:luminance" maskUnits="userSpaceOnUse" x="0" y="0" width="358" height="229">
<path d="M0 9.64088C119.28 43.0379 238.559 -23.7561 357.839 9.64088C357.839 79.2179 357.839 148.794 357.839 218.371C238.559 184.974 119.28 251.768 0 218.371C0 148.794 0 79.2169 0 9.64088Z" fill="white"/>
</mask>
<g mask="url(#mask2_1_1873)">
<path d="M0 218.371C119.28 251.768 238.559 184.974 357.839 218.371C357.839 183.579 357.839 148.786 357.839 113.993C238.559 80.5959 119.28 147.39 0 113.993C0 148.785 0 183.578 0 218.371Z" fill="#C22828"/>
</g>
<mask id="mask3_1_1873" style="mask-type:luminance" maskUnits="userSpaceOnUse" x="0" y="0" width="358" height="229">
<path d="M0 9.64088C119.28 43.0379 238.559 -23.7561 357.839 9.64088C357.839 79.2179 357.839 148.794 357.839 218.371C238.559 184.974 119.28 251.768 0 218.371C0 148.794 0 79.2169 0 9.64088Z" fill="white"/>
</mask>
<g mask="url(#mask3_1_1873)">
<path d="M52.221 44.5579C49.528 52.6459 46.834 60.6979 44.141 68.7119C48.278 70.4639 52.415 72.1259 56.552 73.7049C55.108 63.9989 53.665 54.2839 52.221 44.5579Z" fill="white"/>
</g>
<mask id="mask4_1_1873" style="mask-type:luminance" maskUnits="userSpaceOnUse" x="0" y="0" width="358" height="229">
<path d="M0 9.64088C119.28 43.0379 238.559 -23.7561 357.839 9.64088C357.839 79.2179 357.839 148.794 357.839 218.371C238.559 184.974 119.28 251.768 0 218.371C0 148.794 0 79.2169 0 9.64088Z" fill="white"/>
</mask>
<g mask="url(#mask4_1_1873)">
<path d="M52.221 44.5579C54.901 53.0249 57.58 61.4569 60.26 69.8549C56.123 71.0159 51.986 72.0959 47.849 73.0889C49.306 63.5899 50.764 54.0789 52.221 44.5579Z" fill="white"/>
</g>
<mask id="mask5_1_1873" style="mask-type:luminance" maskUnits="userSpaceOnUse" x="0" y="0" width="358" height="229">
<path d="M0 9.64088C119.28 43.0379 238.559 -23.7561 357.839 9.64088C357.839 79.2179 357.839 148.794 357.839 218.371C238.559 184.974 119.28 251.768 0 218.371C0 148.794 0 79.2169 0 9.64088Z" fill="white"/>
</mask>
<g mask="url(#mask5_1_1873)">
<path d="M77.006 63.3899C68.321 63.4219 59.638 63.1519 50.954 62.5019C50.954 66.8499 50.954 71.1979 50.954 75.5449C59.638 71.8479 68.322 67.7699 77.006 63.3899Z" fill="white"/>
</g>
<mask id="mask6_1_1873" style="mask-type:luminance" maskUnits="userSpaceOnUse" x="0" y="0" width="358" height="229">
<path d="M0 9.64088C119.28 43.0379 238.559 -23.7561 357.839 9.64088C357.839 79.2179 357.839 148.794 357.839 218.371C238.559 184.974 119.28 251.768 0 218.371C0 148.794 0 79.2169 0 9.64088Z" fill="white"/>
</mask>
<g mask="url(#mask6_1_1873)">
<path d="M77.006 63.3899C69.967 68.5309 62.927 73.4729 55.888 78.1749C53.34 74.5019 50.792 70.7969 48.244 67.0579C57.831 66.2729 67.419 65.0159 77.006 63.3899Z" fill="white"/>
</g>
<mask id="mask7_1_1873" style="mask-type:luminance" maskUnits="userSpaceOnUse" x="0" y="0" width="358" height="229">
<path d="M0 9.64088C119.28 43.0379 238.559 -23.7561 357.839 9.64088C357.839 79.2179 357.839 148.794 357.839 218.371C238.559 184.974 119.28 251.768 0 218.371C0 148.794 0 79.2169 0 9.64088Z" fill="white"/>
</mask>
<g mask="url(#mask7_1_1873)">
<path d="M27.381 59.7469C34.428 65.9979 41.475 71.9529 48.522 77.6529C51.068 74.3409 53.615 70.9939 56.161 67.6169C46.568 65.4739 36.974 62.8849 27.381 59.7469Z" fill="white"/>
</g>
<mask id="mask8_1_1873" style="mask-type:luminance" maskUnits="userSpaceOnUse" x="0" y="0" width="358" height="229">
<path d="M0 9.64088C119.28 43.0379 238.559 -23.7561 357.839 9.64088C357.839 79.2179 357.839 148.794 357.839 218.371C238.559 184.974 119.28 251.768 0 218.371C0 148.794 0 79.2169 0 9.64088Z" fill="white"/>
</mask>
<g mask="url(#mask8_1_1873)">
<path d="M27.381 59.7469C36.086 61.1509 44.791 62.1029 53.496 62.6809C53.496 67.0289 53.496 71.3759 53.496 75.7239C44.791 70.7989 36.086 65.4989 27.381 59.7469Z" fill="white"/>
</g>
<mask id="mask9_1_1873" style="mask-type:luminance" maskUnits="userSpaceOnUse" x="0" y="0" width="358" height="229">
<path d="M0 9.64088C119.28 43.0379 238.559 -23.7561 357.839 9.64088C357.839 79.2179 357.839 148.794 357.839 218.371C238.559 184.974 119.28 251.768 0 218.371C0 148.794 0 79.2169 0 9.64088Z" fill="white"/>
</mask>
<g mask="url(#mask9_1_1873)">
<path d="M67.533 92.4629C64.852 84.1369 62.171 75.7789 59.49 67.3879C55.353 68.5339 51.216 69.5999 47.079 70.5769C53.897 78.1009 60.715 85.3839 67.533 92.4629Z" fill="white"/>
</g>
<mask id="mask10_1_1873" style="mask-type:luminance" maskUnits="userSpaceOnUse" x="0" y="0" width="358" height="229">
<path d="M0 9.64088C119.28 43.0379 238.559 -23.7561 357.839 9.64088C357.839 79.2179 357.839 148.794 357.839 218.371C238.559 184.974 119.28 251.768 0 218.371C0 148.794 0 79.2169 0 9.64088Z" fill="white"/>
</mask>
<g mask="url(#mask10_1_1873)">
<path d="M67.533 92.4629C60.494 87.1919 53.454 81.7049 46.415 75.9579C48.983 72.6759 51.552 69.3599 54.12 66.0109C58.592 74.9229 63.063 83.7369 67.533 92.4629Z" fill="white"/>
</g>
<mask id="mask11_1_1873" style="mask-type:luminance" maskUnits="userSpaceOnUse" x="0" y="0" width="358" height="229">
<path d="M0 9.64088C119.28 43.0379 238.559 -23.7561 357.839 9.64088C357.839 79.2179 357.839 148.794 357.839 218.371C238.559 184.974 119.28 251.768 0 218.371C0 148.794 0 79.2169 0 9.64088Z" fill="white"/>
</mask>
<g mask="url(#mask11_1_1873)">
<path d="M36.877 90.2649C43.917 86.0329 50.956 81.5229 57.995 76.7779C55.426 73.1309 52.858 69.4529 50.289 65.7409C45.819 74.0199 41.348 82.1989 36.877 90.2649Z" fill="white"/>
</g>
<mask id="mask12_1_1873" style="mask-type:luminance" maskUnits="userSpaceOnUse" x="0" y="0" width="358" height="229">
<path d="M0 9.64088C119.28 43.0379 238.559 -23.7561 357.839 9.64088C357.839 79.2179 357.839 148.794 357.839 218.371C238.559 184.974 119.28 251.768 0 218.371C0 148.794 0 79.2169 0 9.64088Z" fill="white"/>
</mask>
<g mask="url(#mask12_1_1873)">
<path d="M36.877 90.2649C39.555 82.3339 42.233 74.3629 44.912 66.3539C49.052 68.0909 53.191 69.7379 57.331 71.3019C50.513 77.8579 43.695 84.1919 36.877 90.2649Z" fill="white"/>
</g>
</svg>
