<svg width="251" height="163" viewBox="0 0 251 163" fill="none" xmlns="http://www.w3.org/2000/svg">
<path d="M140.343 67.5162L208.982 104.307C210.517 105.129 211.095 107.04 210.272 108.575C209.45 110.11 207.538 110.687 206.004 109.864L137.364 73.0732L140.343 67.5162Z" fill="white"/>
<g opacity="0.3">
<path d="M205.411 106.019L138.833 70.3336L137.364 73.0752L206.004 109.866C207.539 110.688 209.449 110.112 210.271 108.577C210.962 107.289 210.656 105.746 209.638 104.792C208.796 106.276 206.923 106.83 205.411 106.019Z" fill="#004F06"/>
</g>
<path d="M212.293 108.433C212.236 108.572 212.172 108.709 212.099 108.843L211.505 109.951C210.394 112.023 207.805 112.805 205.734 111.694L136.54 74.6068C136.135 74.3888 135.831 74.0187 135.698 73.5768C135.565 73.1349 135.613 72.6599 135.83 72.2524L138.81 66.6942C139.263 65.8487 140.317 65.53 141.163 65.9827L210.357 103.07C211.36 103.607 212.094 104.503 212.424 105.593C212.71 106.54 212.661 107.532 212.293 108.433ZM139.717 72.3648L207.378 108.631C207.76 108.836 208.237 108.691 208.442 108.309L209.036 107.202C209.036 107.202 209.036 107.202 209.037 107.201C209.174 106.952 209.132 106.719 209.097 106.603C209.062 106.487 208.965 106.272 208.716 106.138L141.054 69.8718L139.717 72.3648Z" fill="#004F06"/>
<path d="M137.532 20.4075C158.428 31.6077 166.29 57.6318 155.089 78.5294C143.889 99.427 117.865 107.288 96.9687 96.0874C76.0681 84.8841 68.2106 58.8631 79.4112 37.9655C88.0841 21.7836 105.643 13.42 122.829 15.6662C127.249 16.2424 131.643 17.5272 135.857 19.5613C136.418 19.8274 136.976 20.1102 137.532 20.4075Z" fill="#688E6C"/>
<path d="M157.282 74.5608C156.716 75.9485 156.073 77.3175 155.348 78.667C149.894 88.8427 140.804 96.2858 129.751 99.6242C118.697 102.963 107.006 101.799 96.831 96.3447C86.6541 90.8898 79.2103 81.7981 75.8715 70.7459C72.5326 59.6937 73.6976 48.0026 79.1521 37.8268C87.5895 22.0835 105.158 13.0611 122.866 15.3749C127.404 15.9667 131.818 17.2865 135.982 19.2964C136.538 19.5606 137.105 19.8473 137.669 20.1491C157.328 30.6856 165.535 54.352 157.282 74.5608ZM77.7413 42.2002C74.0616 51.2108 73.5789 61.1299 76.4322 70.5777C79.7249 81.4804 87.0679 90.4485 97.1074 95.8295C107.145 101.209 118.677 102.358 129.581 99.0641C140.484 95.7702 149.452 88.4284 154.831 78.3912C165.939 57.6713 158.113 31.7746 137.394 20.666C136.839 20.3692 136.28 20.0859 135.731 19.8246C131.621 17.8413 127.268 16.5403 122.791 15.9559C105.322 13.6741 87.9926 22.5738 79.6697 38.1042C78.9516 39.4452 78.308 40.8125 77.7413 42.2002Z" fill="#34793C"/>
<path d="M134.714 20.0784C135.756 21.0429 136.772 22.0488 137.758 23.0781C142.086 27.6164 145.929 32.7405 148.684 38.5564C150.056 41.4562 151.155 44.5218 151.859 47.7053C152.559 50.8873 152.883 54.1853 152.696 57.4736C152.523 60.7581 151.889 64.0205 150.841 67.1222L150.444 68.2823C150.295 68.6641 150.139 69.0361 149.986 69.4147L149.517 70.5467L148.994 71.6445L148.461 72.7421C148.271 73.107 148.062 73.467 147.867 73.83C147.672 74.1929 147.459 74.5498 147.239 74.8999L146.579 75.9471C142.922 81.4496 137.785 85.8587 131.877 88.7446C125.98 91.6308 119.202 92.9135 112.56 92.0662C109.25 91.6326 105.994 90.7002 102.99 89.2548C101.469 88.5664 100.044 87.7024 98.653 86.8032C97.2725 85.8656 95.9522 84.8343 94.7216 83.7078C89.7937 79.1718 86.3708 73.0375 85.0931 66.4763C83.7876 59.9161 84.6126 52.9449 87.4345 46.8731C88.1469 45.3607 88.9505 43.8911 89.8839 42.5074C90.3601 41.8126 90.8993 41.1352 91.4124 40.4541C91.6536 40.1059 91.9681 39.8069 92.2538 39.4878L93.1251 38.5489C95.5375 36.1185 98.436 34.1739 101.592 32.8552C104.747 31.5365 108.16 30.8453 111.576 30.8257C114.996 30.8081 118.422 31.4639 121.589 32.7707C122.376 33.1046 123.137 33.4908 123.912 33.857C124.663 34.2598 125.377 34.73 126.11 35.1667C126.476 35.374 126.816 35.6723 127.173 35.9294C127.52 36.1923 127.877 36.4493 128.216 36.7306L129.182 37.6215C129.51 37.923 129.828 38.2207 130.113 38.5597C132.478 41.1557 134.273 44.3035 135.118 47.7177C135.994 51.1146 136.082 54.7308 135.229 58.1458L134.904 59.4277L134.46 60.6674C134.196 61.5093 133.766 62.2782 133.4 63.0754C133.226 63.4813 132.964 63.8362 132.744 64.2177C132.516 64.5906 132.297 64.9673 132.051 65.3353C131.505 66.0651 130.977 66.7976 130.332 67.4458C129.091 68.7684 127.655 69.9204 126.054 70.7869C124.463 71.6533 122.756 72.3305 120.972 72.6769C119.189 73.022 117.367 73.111 115.559 72.9391C113.753 72.7347 111.986 72.2482 110.324 71.5392L109.098 70.9476C108.701 70.7347 108.325 70.4837 107.939 70.2505C107.748 70.1258 107.554 70.0162 107.367 69.8837L106.808 69.4519L106.252 69.0228L105.735 68.5423C104.358 67.2608 103.259 65.6934 102.484 63.9929C100.931 60.5904 100.801 56.6104 102.104 53.1732C102.419 52.3092 102.83 51.4915 103.306 50.7145C103.564 50.3359 103.793 49.9595 104.079 49.5908C104.385 49.2336 104.657 48.8511 105.005 48.5273C106.315 47.1915 107.934 46.1592 109.693 45.6201C110.13 45.4921 110.566 45.3528 111.021 45.2828C111.245 45.2435 111.465 45.1919 111.693 45.1655L112.368 45.1044C112.816 45.0481 113.274 45.084 113.722 45.0882C113.948 45.1052 114.173 45.1377 114.394 45.1745C114.614 45.2149 114.836 45.2299 115.053 45.3076C115.485 45.4345 115.913 45.5595 116.311 45.7677C116.51 45.8679 116.706 45.9632 116.9 46.0728C117.085 46.1991 117.268 46.3193 117.446 46.4593C117.808 46.6977 118.111 47.0416 118.404 47.3577C118.551 47.5138 118.67 47.7136 118.783 47.9013C118.906 48.082 119.007 48.2803 119.102 48.4837L119.052 48.5554C118.144 48.5572 117.398 48.5043 116.675 48.5223C116.491 48.5283 116.32 48.519 116.151 48.5159L115.647 48.5434C115.317 48.5314 114.988 48.585 114.67 48.5915C113.415 48.6602 112.198 48.8589 111.11 49.3737C110.011 49.8665 109.096 50.6501 108.373 51.548C108.179 51.7574 108.048 52.0213 107.879 52.2545C107.724 52.5008 107.597 52.7896 107.451 53.0518C107.194 53.605 106.972 54.1617 106.815 54.7421C106.177 57.0478 106.456 59.5422 107.512 61.6077C108.034 62.6403 108.762 63.5574 109.615 64.3223L109.934 64.6091L110.282 64.8612L110.632 65.1198C110.753 65.2008 110.893 65.2701 111.024 65.3514C111.291 65.5001 111.546 65.669 111.817 65.8098L112.645 66.1932C113.769 66.6578 114.947 66.9711 116.158 67.0987C117.368 67.1984 118.591 67.1287 119.78 66.8875C120.976 66.6556 122.113 66.1936 123.175 65.6157C124.244 65.0459 125.193 64.2694 126.017 63.3883C126.454 62.963 126.795 62.4593 127.169 61.9783C127.341 61.7187 127.498 61.4351 127.664 61.1674C127.819 60.8885 128.02 60.634 128.14 60.3407C128.397 59.7584 128.723 59.2029 128.903 58.5905L129.227 57.6989L129.455 56.7719C130.08 54.3057 129.996 51.6846 129.359 49.2242L129.249 48.7641L129.09 48.3116L128.777 47.4086L128.384 46.5442C128.253 46.2545 128.132 45.959 127.956 45.6945L127.477 44.8668C127.329 44.5893 127.11 44.3514 126.934 44.0869C126.744 43.836 126.584 43.5594 126.364 43.325L125.735 42.6144C125.538 42.3663 125.302 42.152 125.063 41.9413L124.366 41.2941C124.116 41.0945 123.857 40.9116 123.606 40.7156C123.342 40.5308 123.124 40.314 122.823 40.1582C122.25 39.824 121.699 39.4573 121.12 39.1464C120.521 38.8689 119.935 38.5717 119.329 38.3079C114.457 36.2896 108.771 36.345 103.916 38.4048C101.486 39.4246 99.26 40.9237 97.4117 42.7942L96.7417 43.5226C96.5223 43.767 96.2736 43.9856 96.0932 44.2624C95.7009 44.7991 95.2889 45.303 94.9087 45.8569C94.1521 46.9829 93.5021 48.184 92.9245 49.4065C90.6497 54.3272 89.9852 59.973 91.0523 65.2964C92.1162 70.6171 94.8427 75.5928 98.8199 79.2898C99.8227 80.2065 100.886 81.0501 102.009 81.8224C103.156 82.5627 104.322 83.2878 105.562 83.8532C108.008 85.0488 110.644 85.8076 113.335 86.1741C118.724 86.8878 124.349 85.8817 129.334 83.4685C134.318 81.0655 138.703 77.3311 141.774 72.7492L142.33 71.8765C142.518 71.5877 142.693 71.2908 142.854 70.9885C143.021 70.6882 143.194 70.396 143.355 70.0864L143.817 69.1427L144.28 68.1989L144.679 67.2269C144.812 66.9086 144.95 66.587 145.082 66.2614L145.42 65.2724C146.328 62.6454 146.895 59.9177 147.069 57.1547C147.429 51.6252 146.136 46.0279 143.755 40.869C141.373 35.693 137.923 30.9498 133.944 26.6915C130.355 22.8561 126.33 19.3814 122.025 16.2835C126.326 16.8455 130.608 18.0965 134.714 20.0784Z" fill="white"/>
<g opacity="0.7">
<path d="M82.1464 43.3776C90.8192 27.1957 108.378 18.8321 125.564 21.0783C129.984 21.6545 134.379 22.9393 138.592 24.9734C139.154 25.2412 139.712 25.5228 140.268 25.8213C147.368 29.6264 152.958 35.1462 156.812 41.5912C153.134 32.8402 146.55 25.2434 137.533 20.4107C136.978 20.1123 136.419 19.8306 135.858 19.5629C131.644 17.5299 127.249 16.2452 122.83 15.6677C105.644 13.4215 88.0855 21.7868 79.412 37.967C72.0169 51.7638 72.9341 67.7936 80.4245 80.3185C75.5774 68.7892 75.7794 55.2561 82.1464 43.3776Z" fill="white"/>
</g>
<path d="M158.641 75.0593C158.047 76.5141 157.375 77.9453 156.621 79.3501C150.985 89.8667 141.59 97.5589 130.167 101.009C118.745 104.46 106.664 103.255 96.1471 97.6184C85.6305 91.9821 77.9382 82.5869 74.4879 71.1648C71.0375 59.7427 72.2413 47.6606 77.8787 37.1445C89.5153 15.4352 116.643 7.23956 138.353 18.8761C148.869 24.5124 156.562 33.9076 160.012 45.3297C163.001 55.226 162.496 65.6199 158.641 75.0593ZM79.0804 42.7441C75.5252 51.4496 75.0604 61.0323 77.8162 70.16C80.9986 80.6933 88.0913 89.3557 97.7899 94.5549C107.488 99.7523 118.629 100.863 129.163 97.6809C139.696 94.4985 148.358 87.4059 153.557 77.7072C158.757 68.0103 159.866 56.8679 156.684 46.3346C153.501 35.8012 146.408 27.1388 136.71 21.9397C127.011 16.7406 115.871 15.6312 105.337 18.8136C94.8038 21.996 86.1414 29.0887 80.9423 38.7873C80.2487 40.0819 79.6283 41.4024 79.0804 42.7441Z" fill="#004F06"/>
<path d="M20.8125 145.172C22.625 143.755 24.2552 142.25 25.7031 140.656C27.1615 139.062 28.3958 137.453 29.4062 135.828C30.4271 134.193 31.2083 132.568 31.75 130.953C32.2917 129.328 32.5625 127.781 32.5625 126.312C32.5625 125.458 32.4688 124.661 32.2812 123.922C32.1042 123.182 31.8438 122.547 31.5 122.016C31.1562 121.474 30.7396 121.052 30.25 120.75C29.7708 120.438 29.2292 120.281 28.625 120.281H28.3281C28.151 120.281 28 120.229 27.875 120.125C27.7604 120.021 27.7031 119.88 27.7031 119.703C27.7031 119.453 27.7917 119.292 27.9688 119.219C28.1562 119.135 28.3646 119.094 28.5938 119.094C29.3542 119.094 30.0521 119.271 30.6875 119.625C31.3229 119.979 31.8646 120.474 32.3125 121.109C32.7604 121.745 33.1094 122.495 33.3594 123.359C33.6094 124.224 33.7344 125.161 33.7344 126.172C33.7344 127.818 33.4479 129.51 32.875 131.25C32.3125 132.979 31.474 134.724 30.3594 136.484C29.2552 138.234 27.8802 139.979 26.2344 141.719C24.599 143.458 22.7135 145.156 20.5781 146.812C20.526 146.854 20.4583 146.901 20.375 146.953C20.2917 147.005 20.1927 147.031 20.0781 147.031C19.8802 147.031 19.7344 146.964 19.6406 146.828C19.5469 146.703 19.5 146.552 19.5 146.375C19.5 146.302 19.5052 146.151 19.5156 145.922C19.5365 145.693 19.5573 145.411 19.5781 145.078C19.599 144.745 19.625 144.38 19.6562 143.984C19.6875 143.578 19.7135 143.172 19.7344 142.766C19.7552 142.349 19.7708 141.948 19.7812 141.562C19.8021 141.177 19.8125 140.833 19.8125 140.531C19.8229 138.25 19.651 136.146 19.2969 134.219C18.9427 132.281 18.3802 130.604 17.6094 129.188C16.8385 127.771 15.8438 126.667 14.625 125.875C13.4167 125.073 11.9531 124.672 10.2344 124.672C8.95312 124.672 7.82292 124.849 6.84375 125.203C5.875 125.547 5.0625 126.005 4.40625 126.578C3.75 127.151 3.25521 127.802 2.92188 128.531C2.58854 129.25 2.42188 129.984 2.42188 130.734C2.42188 131.401 2.53125 132 2.75 132.531C2.97917 133.052 3.28646 133.5 3.67188 133.875C4.06771 134.24 4.53125 134.521 5.0625 134.719C5.59375 134.906 6.16667 135 6.78125 135C7.30208 135 7.77604 134.943 8.20312 134.828C8.63021 134.714 8.99479 134.589 9.29688 134.453C9.59896 134.307 9.83333 134.177 10 134.062C10.1771 133.938 10.276 133.865 10.2969 133.844C10.349 133.792 10.4062 133.76 10.4688 133.75C10.5417 133.729 10.6094 133.719 10.6719 133.719C10.8281 133.719 10.9635 133.771 11.0781 133.875C11.1927 133.969 11.25 134.099 11.25 134.266C11.25 134.464 11.1823 134.615 11.0469 134.719C11.026 134.74 10.9115 134.828 10.7031 134.984C10.4948 135.13 10.2031 135.292 9.82812 135.469C9.46354 135.635 9.02083 135.792 8.5 135.938C7.97917 136.083 7.40104 136.156 6.76562 136.156C5.98438 136.156 5.25521 136.026 4.57812 135.766C3.90104 135.505 3.31771 135.135 2.82812 134.656C2.33854 134.177 1.95312 133.609 1.67188 132.953C1.39062 132.286 1.25 131.552 1.25 130.75C1.25 129.854 1.44271 128.974 1.82812 128.109C2.21354 127.245 2.78125 126.474 3.53125 125.797C4.29167 125.12 5.22396 124.578 6.32812 124.172C7.44271 123.755 8.72917 123.547 10.1875 123.547C12.0729 123.547 13.6927 123.958 15.0469 124.781C16.4115 125.594 17.5312 126.745 18.4062 128.234C19.2917 129.724 19.9427 131.521 20.3594 133.625C20.7865 135.719 21 138.047 21 140.609C21 141.328 20.9844 142.073 20.9531 142.844C20.9219 143.604 20.875 144.38 20.8125 145.172ZM37.5 144.25C37.1354 144.844 36.7083 145.312 36.2188 145.656C35.7396 146 35.2552 146.172 34.7656 146.172C34.3698 146.172 34.0156 146.099 33.7031 145.953C33.3906 145.807 33.1198 145.604 32.8906 145.344C32.6615 145.073 32.4844 144.75 32.3594 144.375C32.2448 144 32.1875 143.578 32.1875 143.109C32.1875 142.38 32.2552 141.734 32.3906 141.172C32.5365 140.609 32.6927 140.141 32.8594 139.766C33.026 139.38 33.1823 139.089 33.3281 138.891C33.474 138.693 33.5469 138.594 33.5469 138.594C33.599 138.531 33.6615 138.484 33.7344 138.453C33.8177 138.422 33.901 138.406 33.9844 138.406C34.151 138.406 34.2865 138.469 34.3906 138.594C34.5052 138.708 34.5625 138.844 34.5625 139C34.5625 139.062 34.5469 139.125 34.5156 139.188C34.4948 139.25 34.4688 139.312 34.4375 139.375C34.3854 139.469 34.3021 139.615 34.1875 139.812C34.0729 140 33.9531 140.25 33.8281 140.562C33.7031 140.875 33.5938 141.245 33.5 141.672C33.4062 142.089 33.3594 142.568 33.3594 143.109C33.3594 143.724 33.4792 144.193 33.7188 144.516C33.9688 144.828 34.3177 144.984 34.7656 144.984C34.9531 144.984 35.1667 144.927 35.4062 144.812C35.6562 144.688 35.8958 144.5 36.125 144.25C36.3646 144 36.5729 143.682 36.75 143.297C36.9271 142.911 37.0417 142.458 37.0938 141.938L37.3281 139.25C37.349 139.094 37.4167 138.964 37.5312 138.859C37.6458 138.755 37.7812 138.703 37.9375 138.703C38.1146 138.703 38.2552 138.771 38.3594 138.906C38.4635 139.031 38.5156 139.177 38.5156 139.344L38.3125 141.938C38.2917 142.156 38.2969 142.443 38.3281 142.797C38.3698 143.151 38.4479 143.5 38.5625 143.844C38.6771 144.188 38.849 144.484 39.0781 144.734C39.3073 144.974 39.6094 145.094 39.9844 145.094C40.2552 145.094 40.5208 145.026 40.7812 144.891C41.0417 144.745 41.2917 144.557 41.5312 144.328C41.7708 144.099 41.9896 143.844 42.1875 143.562C42.3958 143.271 42.5833 142.979 42.75 142.688C42.9271 142.396 43.0781 142.12 43.2031 141.859C43.3281 141.589 43.4323 141.359 43.5156 141.172C43.5677 141.057 43.6406 140.969 43.7344 140.906C43.8281 140.844 43.9323 140.812 44.0469 140.812C44.2344 140.812 44.3802 140.875 44.4844 141C44.5885 141.125 44.6406 141.26 44.6406 141.406C44.6406 141.49 44.625 141.568 44.5938 141.641C44.5521 141.724 44.4688 141.901 44.3438 142.172C44.2292 142.432 44.0729 142.734 43.875 143.078C43.6875 143.411 43.4583 143.766 43.1875 144.141C42.9167 144.516 42.6146 144.865 42.2812 145.188C41.9479 145.5 41.5833 145.76 41.1875 145.969C40.8021 146.167 40.3854 146.266 39.9375 146.266C39.3229 146.266 38.8125 146.094 38.4062 145.75C38 145.396 37.6979 144.896 37.5 144.25ZM45.4062 144.281C45.625 144.583 45.9062 144.828 46.25 145.016C46.5938 145.193 47.0156 145.281 47.5156 145.281C48.026 145.281 48.4896 145.161 48.9062 144.922C49.3229 144.672 49.7031 144.349 50.0469 143.953C50.3906 143.557 50.6979 143.115 50.9688 142.625C51.2396 142.135 51.4844 141.646 51.7031 141.156C51.7552 141.042 51.8281 140.958 51.9219 140.906C52.0156 140.844 52.1198 140.812 52.2344 140.812C52.4115 140.812 52.5521 140.875 52.6562 141C52.7708 141.125 52.8281 141.26 52.8281 141.406C52.8281 141.458 52.8229 141.505 52.8125 141.547C52.8021 141.578 52.7865 141.615 52.7656 141.656C52.0469 143.24 51.2604 144.432 50.4062 145.234C49.5625 146.036 48.6042 146.448 47.5312 146.469C46.8438 146.469 46.25 146.333 45.75 146.062C45.25 145.802 44.8385 145.464 44.5156 145.047C44.1927 144.62 43.9531 144.141 43.7969 143.609C43.6406 143.078 43.5625 142.547 43.5625 142.016C43.5625 141.484 43.625 140.995 43.75 140.547C43.8854 140.099 44.0729 139.708 44.3125 139.375C44.5625 139.042 44.8542 138.781 45.1875 138.594C45.5312 138.406 45.9062 138.312 46.3125 138.312C46.5521 138.312 46.7865 138.365 47.0156 138.469C47.2552 138.562 47.4688 138.703 47.6562 138.891C47.8438 139.068 47.9948 139.286 48.1094 139.547C48.224 139.807 48.2812 140.104 48.2812 140.438C48.2812 140.865 48.2083 141.266 48.0625 141.641C47.9167 142.016 47.7135 142.365 47.4531 142.688C47.2031 143.01 46.901 143.307 46.5469 143.578C46.1927 143.849 45.8125 144.083 45.4062 144.281ZM44.9375 143.266C45.2604 143.13 45.5521 142.958 45.8125 142.75C46.0833 142.542 46.3125 142.312 46.5 142.062C46.6875 141.812 46.8333 141.552 46.9375 141.281C47.0417 141 47.0938 140.719 47.0938 140.438C47.0938 140.125 47.0156 139.891 46.8594 139.734C46.7031 139.568 46.5208 139.484 46.3125 139.484C46.0312 139.484 45.7917 139.562 45.5938 139.719C45.3958 139.875 45.2344 140.078 45.1094 140.328C44.9844 140.578 44.8906 140.859 44.8281 141.172C44.776 141.474 44.75 141.776 44.75 142.078C44.75 142.266 44.7656 142.464 44.7969 142.672C44.8385 142.88 44.8854 143.078 44.9375 143.266ZM71.0625 134.234C71.7708 134.474 72.4427 134.781 73.0781 135.156C73.724 135.521 74.2917 135.958 74.7812 136.469C75.2708 136.969 75.6562 137.552 75.9375 138.219C76.2292 138.875 76.375 139.615 76.375 140.438C76.375 141.302 76.2448 142.083 75.9844 142.781C75.724 143.469 75.3698 144.078 74.9219 144.609C74.474 145.141 73.9531 145.599 73.3594 145.984C72.7656 146.359 72.1354 146.667 71.4688 146.906C70.8021 147.146 70.1146 147.323 69.4062 147.438C68.7083 147.552 68.026 147.609 67.3594 147.609C66.4427 147.609 65.5938 147.531 64.8125 147.375C64.0417 147.229 63.3438 147.042 62.7188 146.812C62.1042 146.594 61.5625 146.354 61.0938 146.094C60.625 145.833 60.2292 145.589 59.9062 145.359C59.5938 145.13 59.3542 144.938 59.1875 144.781C59.0312 144.615 58.9479 144.526 58.9375 144.516C58.8333 144.411 58.7812 144.281 58.7812 144.125C58.7812 143.958 58.8385 143.818 58.9531 143.703C59.0677 143.589 59.2031 143.531 59.3594 143.531C59.5365 143.531 59.6823 143.594 59.7969 143.719C59.7969 143.719 59.8646 143.786 60 143.922C60.1458 144.047 60.3594 144.214 60.6406 144.422C60.9219 144.62 61.276 144.839 61.7031 145.078C62.1302 145.307 62.625 145.526 63.1875 145.734C63.75 145.932 64.3802 146.099 65.0781 146.234C65.776 146.37 66.5417 146.438 67.375 146.438C68.4792 146.438 69.5052 146.302 70.4531 146.031C71.4115 145.771 72.2396 145.385 72.9375 144.875C73.6458 144.365 74.1979 143.74 74.5938 143C74.9896 142.25 75.1875 141.401 75.1875 140.453C75.1875 139.682 75.0312 139 74.7188 138.406C74.4167 137.812 74 137.297 73.4688 136.859C72.9375 136.411 72.3177 136.036 71.6094 135.734C70.901 135.432 70.1458 135.188 69.3438 135C68.6875 135.24 67.9844 135.438 67.2344 135.594C66.4948 135.74 65.7656 135.812 65.0469 135.812C64.2135 135.812 63.6146 135.714 63.25 135.516C62.8958 135.318 62.7188 135.052 62.7188 134.719C62.7188 134.646 62.7396 134.536 62.7812 134.391C62.8229 134.245 62.9427 134.099 63.1406 133.953C63.3385 133.807 63.6406 133.682 64.0469 133.578C64.4531 133.474 65.0208 133.422 65.75 133.422C66.25 133.422 66.8021 133.448 67.4062 133.5C68.0104 133.552 68.6406 133.646 69.2969 133.781C70.0573 133.479 70.724 133.125 71.2969 132.719C71.8802 132.312 72.3646 131.891 72.75 131.453C73.1354 131.005 73.4219 130.557 73.6094 130.109C73.8073 129.661 73.9062 129.245 73.9062 128.859C73.9062 128.193 73.7656 127.604 73.4844 127.094C73.2031 126.573 72.8333 126.135 72.375 125.781C71.9167 125.427 71.3854 125.161 70.7812 124.984C70.1771 124.797 69.5573 124.703 68.9219 124.703C68.026 124.703 67.1927 124.807 66.4219 125.016C65.651 125.224 64.9531 125.484 64.3281 125.797C63.7031 126.109 63.1458 126.453 62.6562 126.828C62.1771 127.193 61.776 127.531 61.4531 127.844C61.1302 128.156 60.8802 128.422 60.7031 128.641C60.5365 128.849 60.4531 128.953 60.4531 128.953C60.401 129.036 60.3281 129.099 60.2344 129.141C60.151 129.182 60.0625 129.203 59.9688 129.203C59.8021 129.203 59.6615 129.146 59.5469 129.031C59.4427 128.906 59.3906 128.771 59.3906 128.625C59.3906 128.5 59.4271 128.385 59.5 128.281C59.5208 128.26 59.625 128.125 59.8125 127.875C60.0104 127.625 60.2917 127.328 60.6562 126.984C61.0208 126.63 61.4635 126.25 61.9844 125.844C62.5156 125.438 63.125 125.062 63.8125 124.719C64.5 124.375 65.2656 124.089 66.1094 123.859C66.9531 123.63 67.875 123.516 68.875 123.516C69.6562 123.516 70.4167 123.63 71.1562 123.859C71.8958 124.089 72.5573 124.432 73.1406 124.891C73.724 125.339 74.1927 125.896 74.5469 126.562C74.901 127.229 75.0781 128 75.0781 128.875C75.0781 129.365 74.9792 129.859 74.7812 130.359C74.5938 130.849 74.3229 131.328 73.9688 131.797C73.625 132.255 73.2031 132.693 72.7031 133.109C72.2135 133.526 71.6667 133.901 71.0625 134.234ZM67.5312 134.469C67.125 134.406 66.6771 134.375 66.1875 134.375C65.7708 134.375 65.3802 134.401 65.0156 134.453C64.651 134.505 64.3906 134.573 64.2344 134.656C64.3385 134.708 64.474 134.745 64.6406 134.766C64.8073 134.776 64.9948 134.781 65.2031 134.781C65.5677 134.781 65.9583 134.755 66.375 134.703C66.8021 134.641 67.1875 134.562 67.5312 134.469ZM112.688 129.594C112.656 129.74 112.589 129.854 112.484 129.938C112.38 130.021 112.266 130.062 112.141 130.062C111.953 130.062 111.802 130.005 111.688 129.891C111.573 129.766 111.516 129.625 111.516 129.469C111.516 129.312 111.531 129.161 111.562 129.016C111.594 128.859 111.609 128.708 111.609 128.562C111.609 127.802 111.375 127.12 110.906 126.516C110.438 125.911 109.771 125.406 108.906 125C108.052 124.583 107.01 124.266 105.781 124.047C104.552 123.828 103.182 123.719 101.672 123.719C100.516 123.719 99.349 123.797 98.1719 123.953C97.0052 124.099 95.8802 124.318 94.7969 124.609C93.724 124.891 92.7188 125.25 91.7812 125.688C90.8438 126.115 90.026 126.615 89.3281 127.188C88.6406 127.75 88.099 128.38 87.7031 129.078C87.3073 129.766 87.1094 130.521 87.1094 131.344C87.1094 131.979 87.2448 132.542 87.5156 133.031C87.7969 133.51 88.1771 133.932 88.6562 134.297C89.1354 134.651 89.6979 134.958 90.3438 135.219C91 135.469 91.7083 135.682 92.4688 135.859C93.2292 136.026 94.0208 136.167 94.8438 136.281C95.6667 136.385 96.4948 136.474 97.3281 136.547L99.7344 136.75C100.932 136.854 102.005 136.964 102.953 137.078C103.901 137.193 104.734 137.339 105.453 137.516C106.651 137.818 107.536 138.25 108.109 138.812C108.682 139.375 108.969 140.125 108.969 141.062C108.969 141.969 108.719 142.766 108.219 143.453C107.719 144.141 107.036 144.719 106.172 145.188C105.307 145.656 104.297 146.01 103.141 146.25C101.984 146.49 100.745 146.609 99.4219 146.609C97.9844 146.609 96.7188 146.51 95.625 146.312C94.5417 146.125 93.6302 145.917 92.8906 145.688C92.1615 145.448 91.6042 145.229 91.2188 145.031C90.8333 144.833 90.625 144.724 90.5938 144.703C90.4062 144.599 90.3125 144.432 90.3125 144.203C90.3125 144.026 90.375 143.885 90.5 143.781C90.625 143.667 90.7604 143.609 90.9062 143.609C91.0208 143.609 91.125 143.641 91.2188 143.703C91.2292 143.703 91.4062 143.797 91.75 143.984C92.1042 144.161 92.625 144.359 93.3125 144.578C94.0104 144.797 94.8698 144.995 95.8906 145.172C96.9115 145.349 98.099 145.438 99.4531 145.438C100.797 145.438 101.984 145.328 103.016 145.109C104.047 144.891 104.911 144.589 105.609 144.203C106.318 143.807 106.849 143.349 107.203 142.828C107.568 142.297 107.75 141.724 107.75 141.109C107.75 140.745 107.682 140.432 107.547 140.172C107.422 139.901 107.245 139.672 107.016 139.484C106.786 139.286 106.51 139.12 106.188 138.984C105.875 138.849 105.531 138.734 105.156 138.641C104.76 138.536 104.333 138.448 103.875 138.375C103.427 138.302 102.964 138.24 102.484 138.188C102.005 138.135 101.521 138.089 101.031 138.047C100.552 138.005 100.078 137.964 99.6094 137.922L97.2031 137.719C95.3073 137.562 93.651 137.323 92.2344 137C90.8281 136.667 89.6562 136.245 88.7188 135.734C87.7812 135.214 87.0781 134.594 86.6094 133.875C86.1406 133.156 85.9062 132.318 85.9062 131.359C85.9062 130.38 86.125 129.484 86.5625 128.672C87.0104 127.849 87.6146 127.109 88.375 126.453C89.1458 125.797 90.0417 125.229 91.0625 124.75C92.0938 124.26 93.1927 123.854 94.3594 123.531C95.526 123.208 96.7344 122.969 97.9844 122.812C99.2344 122.646 100.464 122.562 101.672 122.562C103.182 122.562 104.495 122.656 105.609 122.844C106.734 123.021 107.693 123.255 108.484 123.547C109.286 123.828 109.943 124.151 110.453 124.516C110.964 124.88 111.375 125.24 111.688 125.594C112.427 126.458 112.797 127.443 112.797 128.547C112.797 128.911 112.76 129.26 112.688 129.594ZM122.453 141.672C122.339 141.911 122.193 142.198 122.016 142.531C121.849 142.854 121.656 143.193 121.438 143.547C121.219 143.901 120.974 144.255 120.703 144.609C120.432 144.953 120.135 145.266 119.812 145.547C119.5 145.818 119.161 146.036 118.797 146.203C118.443 146.38 118.062 146.469 117.656 146.469C117.031 146.469 116.495 146.276 116.047 145.891C115.599 145.505 115.219 145 114.906 144.375C114.594 143.75 114.339 143.042 114.141 142.25C113.953 141.448 113.807 140.635 113.703 139.812C113.599 138.979 113.526 138.172 113.484 137.391C113.453 136.609 113.438 135.917 113.438 135.312C113.438 134.438 113.464 133.531 113.516 132.594C113.578 131.656 113.672 130.74 113.797 129.844C113.922 128.948 114.078 128.099 114.266 127.297C114.464 126.495 114.693 125.792 114.953 125.188C115.224 124.583 115.531 124.104 115.875 123.75C116.219 123.396 116.609 123.219 117.047 123.219C117.391 123.219 117.698 123.302 117.969 123.469C118.25 123.625 118.484 123.885 118.672 124.25C118.859 124.615 119.005 125.089 119.109 125.672C119.214 126.255 119.266 126.969 119.266 127.812C119.266 128.854 119.156 129.932 118.938 131.047C118.719 132.151 118.422 133.266 118.047 134.391C117.672 135.516 117.229 136.641 116.719 137.766C116.208 138.88 115.661 139.969 115.078 141.031C115.339 142.354 115.688 143.396 116.125 144.156C116.562 144.906 117.089 145.281 117.703 145.281C118.12 145.281 118.521 145.12 118.906 144.797C119.292 144.464 119.646 144.073 119.969 143.625C120.292 143.177 120.573 142.724 120.812 142.266C121.062 141.797 121.255 141.422 121.391 141.141C121.443 141.036 121.516 140.958 121.609 140.906C121.703 140.844 121.807 140.812 121.922 140.812C122.099 140.812 122.24 140.875 122.344 141C122.458 141.125 122.516 141.266 122.516 141.422C122.516 141.484 122.495 141.568 122.453 141.672ZM114.625 135.391C114.625 136.057 114.641 136.698 114.672 137.312C114.703 137.927 114.745 138.516 114.797 139.078C115.234 138.234 115.651 137.339 116.047 136.391C116.443 135.432 116.792 134.469 117.094 133.5C117.396 132.521 117.635 131.552 117.812 130.594C118 129.625 118.094 128.703 118.094 127.828C118.094 126.599 117.995 125.719 117.797 125.188C117.599 124.656 117.333 124.391 117 124.391C116.781 124.391 116.568 124.542 116.359 124.844C116.161 125.146 115.974 125.557 115.797 126.078C115.62 126.599 115.458 127.214 115.312 127.922C115.167 128.63 115.042 129.391 114.938 130.203C114.844 131.016 114.766 131.865 114.703 132.75C114.651 133.635 114.625 134.516 114.625 135.391ZM123.953 133.734C123.953 134.13 123.812 134.469 123.531 134.75C123.26 135.021 122.927 135.156 122.531 135.156C122.135 135.156 121.797 135.021 121.516 134.75C121.245 134.469 121.109 134.13 121.109 133.734C121.109 133.536 121.146 133.354 121.219 133.188C121.292 133.01 121.391 132.859 121.516 132.734C121.651 132.599 121.802 132.495 121.969 132.422C122.146 132.349 122.333 132.312 122.531 132.312C122.729 132.312 122.911 132.349 123.078 132.422C123.255 132.495 123.406 132.599 123.531 132.734C123.667 132.859 123.771 133.01 123.844 133.188C123.917 133.354 123.953 133.536 123.953 133.734ZM121.422 142.891C121.422 141.391 121.516 139.896 121.703 138.406C121.724 138.26 121.786 138.135 121.891 138.031C122.005 137.917 122.151 137.859 122.328 137.859C122.484 137.859 122.615 137.922 122.719 138.047C122.823 138.161 122.875 138.297 122.875 138.453C122.875 138.516 122.859 138.703 122.828 139.016C122.807 139.328 122.776 139.703 122.734 140.141C122.703 140.568 122.672 141.026 122.641 141.516C122.62 141.995 122.609 142.438 122.609 142.844C122.609 143.396 122.661 143.844 122.766 144.188C122.88 144.521 123.021 144.781 123.188 144.969C123.365 145.156 123.547 145.281 123.734 145.344C123.932 145.406 124.12 145.438 124.297 145.438C124.589 145.438 124.891 145.333 125.203 145.125C125.516 144.917 125.833 144.625 126.156 144.25C126.49 143.875 126.823 143.427 127.156 142.906C127.49 142.375 127.818 141.786 128.141 141.141C128.193 141.036 128.266 140.958 128.359 140.906C128.453 140.844 128.557 140.812 128.672 140.812C128.839 140.812 128.974 140.875 129.078 141C129.193 141.125 129.25 141.26 129.25 141.406C129.25 141.51 129.229 141.599 129.188 141.672C129.062 141.911 128.906 142.203 128.719 142.547C128.531 142.891 128.318 143.245 128.078 143.609C127.839 143.974 127.573 144.339 127.281 144.703C127 145.057 126.698 145.38 126.375 145.672C126.052 145.953 125.714 146.182 125.359 146.359C125.005 146.536 124.646 146.625 124.281 146.625C123.812 146.625 123.401 146.526 123.047 146.328C122.693 146.13 122.391 145.865 122.141 145.531C121.901 145.198 121.719 144.807 121.594 144.359C121.479 143.901 121.422 143.411 121.422 142.891ZM123.078 133.734C123.078 133.589 123.021 133.464 122.906 133.359C122.802 133.245 122.677 133.188 122.531 133.188C122.385 133.188 122.26 133.245 122.156 133.359C122.052 133.464 122 133.589 122 133.734C122 133.88 122.052 134.005 122.156 134.109C122.26 134.214 122.385 134.266 122.531 134.266C122.677 134.266 122.802 134.214 122.906 134.109C123.021 134.005 123.078 133.88 123.078 133.734ZM138.344 141.672C138.281 141.786 138.172 141.995 138.016 142.297C137.87 142.599 137.667 142.943 137.406 143.328C137.156 143.703 136.854 144.094 136.5 144.5C136.146 144.906 135.74 145.281 135.281 145.625C134.823 145.958 134.307 146.234 133.734 146.453C133.172 146.672 132.557 146.781 131.891 146.781C131.297 146.781 130.771 146.672 130.312 146.453C129.854 146.245 129.464 145.948 129.141 145.562C128.818 145.167 128.573 144.703 128.406 144.172C128.24 143.641 128.156 143.052 128.156 142.406C128.156 141.781 128.245 141.198 128.422 140.656C128.599 140.104 128.839 139.625 129.141 139.219C129.453 138.812 129.812 138.495 130.219 138.266C130.625 138.026 131.057 137.906 131.516 137.906C131.859 137.906 132.172 137.969 132.453 138.094C132.734 138.208 132.969 138.365 133.156 138.562C133.354 138.76 133.505 138.979 133.609 139.219C133.724 139.458 133.781 139.698 133.781 139.938C133.781 140.167 133.75 140.38 133.688 140.578C133.635 140.776 133.562 140.953 133.469 141.109C133.385 141.255 133.286 141.375 133.172 141.469C133.057 141.552 132.943 141.594 132.828 141.594C132.651 141.594 132.505 141.536 132.391 141.422C132.286 141.307 132.234 141.167 132.234 141C132.234 140.917 132.25 140.844 132.281 140.781C132.323 140.719 132.365 140.656 132.406 140.594C132.458 140.521 132.5 140.438 132.531 140.344C132.573 140.24 132.594 140.109 132.594 139.953C132.594 139.734 132.49 139.536 132.281 139.359C132.083 139.182 131.828 139.094 131.516 139.094C131.224 139.094 130.943 139.182 130.672 139.359C130.411 139.536 130.182 139.776 129.984 140.078C129.786 140.37 129.625 140.719 129.5 141.125C129.385 141.521 129.328 141.943 129.328 142.391C129.328 142.818 129.38 143.224 129.484 143.609C129.589 143.995 129.745 144.339 129.953 144.641C130.161 144.932 130.422 145.167 130.734 145.344C131.057 145.521 131.438 145.609 131.875 145.609C132.438 145.609 132.958 145.51 133.438 145.312C133.917 145.104 134.354 144.844 134.75 144.531C135.146 144.219 135.495 143.88 135.797 143.516C136.099 143.141 136.354 142.792 136.562 142.469C136.781 142.135 136.948 141.849 137.062 141.609C137.188 141.359 137.26 141.203 137.281 141.141C137.323 141.036 137.391 140.958 137.484 140.906C137.589 140.844 137.698 140.812 137.812 140.812C137.99 140.812 138.13 140.875 138.234 141C138.349 141.125 138.406 141.266 138.406 141.422C138.406 141.484 138.385 141.568 138.344 141.672ZM141.219 144.078C141.396 144.474 141.688 144.792 142.094 145.031C142.5 145.26 142.958 145.375 143.469 145.375C143.625 145.375 143.88 145.354 144.234 145.312C144.589 145.26 144.995 145.104 145.453 144.844C145.922 144.573 146.417 144.151 146.938 143.578C147.458 143.005 147.964 142.198 148.453 141.156C148.505 141.042 148.578 140.958 148.672 140.906C148.766 140.844 148.87 140.812 148.984 140.812C149.161 140.812 149.302 140.875 149.406 141C149.521 141.125 149.578 141.26 149.578 141.406C149.578 141.469 149.557 141.552 149.516 141.656C149.151 142.417 148.745 143.099 148.297 143.703C147.849 144.297 147.365 144.807 146.844 145.234C146.323 145.651 145.776 145.969 145.203 146.188C144.641 146.417 144.062 146.531 143.469 146.531C143 146.531 142.557 146.458 142.141 146.312C141.734 146.167 141.38 145.974 141.078 145.734C140.786 145.484 140.552 145.208 140.375 144.906C140.208 144.594 140.125 144.276 140.125 143.953C140.125 143.911 140.13 143.854 140.141 143.781C140.151 143.708 140.177 143.63 140.219 143.547C140.271 143.453 140.339 143.37 140.422 143.297C140.516 143.214 140.641 143.146 140.797 143.094C141.224 142.969 141.615 142.818 141.969 142.641C142.333 142.453 142.646 142.245 142.906 142.016C143.167 141.786 143.37 141.536 143.516 141.266C143.661 140.984 143.734 140.682 143.734 140.359C143.734 140.078 143.641 139.849 143.453 139.672C143.266 139.495 143.036 139.406 142.766 139.406C142.484 139.406 142.208 139.505 141.938 139.703C141.667 139.891 141.401 140.146 141.141 140.469C140.891 140.781 140.651 141.146 140.422 141.562C140.193 141.969 139.979 142.396 139.781 142.844C139.594 143.292 139.427 143.74 139.281 144.188C139.135 144.625 139.016 145.031 138.922 145.406C138.891 145.521 138.854 145.646 138.812 145.781C138.781 145.917 138.729 146.042 138.656 146.156C138.583 146.281 138.495 146.38 138.391 146.453C138.286 146.536 138.151 146.578 137.984 146.578C137.828 146.578 137.677 146.51 137.531 146.375C137.385 146.25 137.312 146.031 137.312 145.719C137.312 145.656 137.312 145.417 137.312 145C137.323 144.583 137.333 144.042 137.344 143.375C137.354 142.698 137.365 141.927 137.375 141.062C137.396 140.188 137.411 139.266 137.422 138.297C137.432 137.318 137.448 136.312 137.469 135.281C137.49 134.25 137.505 133.245 137.516 132.266C137.526 131.286 137.536 130.359 137.547 129.484C137.568 128.599 137.583 127.818 137.594 127.141C137.604 126.453 137.609 125.896 137.609 125.469C137.62 125.031 137.625 124.771 137.625 124.688C137.625 124.521 137.688 124.385 137.812 124.281C137.938 124.167 138.073 124.109 138.219 124.109C138.385 124.109 138.526 124.167 138.641 124.281C138.755 124.385 138.812 124.526 138.812 124.703C138.812 124.724 138.807 124.932 138.797 125.328C138.797 125.714 138.792 126.234 138.781 126.891C138.771 127.547 138.755 128.312 138.734 129.188C138.724 130.062 138.708 130.995 138.688 131.984C138.677 132.964 138.661 133.974 138.641 135.016C138.63 136.057 138.615 137.073 138.594 138.062C138.583 139.052 138.573 139.995 138.562 140.891C138.552 141.786 138.542 142.578 138.531 143.266C138.698 142.734 138.911 142.177 139.172 141.594C139.432 141 139.74 140.453 140.094 139.953C140.448 139.453 140.844 139.042 141.281 138.719C141.729 138.396 142.224 138.234 142.766 138.234C143.068 138.234 143.349 138.292 143.609 138.406C143.87 138.51 144.094 138.661 144.281 138.859C144.479 139.047 144.63 139.271 144.734 139.531C144.849 139.792 144.906 140.073 144.906 140.375C144.906 140.844 144.802 141.276 144.594 141.672C144.385 142.057 144.109 142.406 143.766 142.719C143.422 143.021 143.026 143.286 142.578 143.516C142.141 143.745 141.688 143.932 141.219 144.078ZM181.062 140.203C180.573 140.995 179.911 141.781 179.078 142.562C178.245 143.333 177.292 144.031 176.219 144.656C175.156 145.271 173.995 145.766 172.734 146.141C171.474 146.526 170.172 146.719 168.828 146.719C167.776 146.719 166.724 146.625 165.672 146.438C164.63 146.25 163.625 145.964 162.656 145.578C161.698 145.193 160.802 144.708 159.969 144.125C159.146 143.531 158.427 142.833 157.812 142.031C157.198 141.229 156.714 140.318 156.359 139.297C156.016 138.276 155.844 137.141 155.844 135.891C155.844 134.672 156.021 133.516 156.375 132.422C156.74 131.328 157.245 130.318 157.891 129.391C158.536 128.453 159.302 127.609 160.188 126.859C161.073 126.109 162.042 125.474 163.094 124.953C164.146 124.422 165.255 124.016 166.422 123.734C167.589 123.453 168.781 123.312 170 123.312C171.344 123.312 172.604 123.474 173.781 123.797C174.969 124.109 176.005 124.557 176.891 125.141C177.776 125.714 178.474 126.406 178.984 127.219C179.505 128.021 179.766 128.917 179.766 129.906C179.766 130.823 179.552 131.698 179.125 132.531C178.698 133.354 178.109 134.078 177.359 134.703C176.62 135.328 175.75 135.823 174.75 136.188C173.76 136.552 172.703 136.734 171.578 136.734C170.672 136.734 169.87 136.625 169.172 136.406C168.474 136.177 167.891 135.865 167.422 135.469C166.953 135.073 166.599 134.609 166.359 134.078C166.12 133.547 166 132.974 166 132.359C166 131.849 166.078 131.385 166.234 130.969C166.401 130.542 166.578 130.177 166.766 129.875C166.964 129.573 167.146 129.339 167.312 129.172C167.49 128.995 167.589 128.896 167.609 128.875C167.661 128.823 167.719 128.792 167.781 128.781C167.854 128.76 167.922 128.75 167.984 128.75C168.151 128.75 168.292 128.802 168.406 128.906C168.521 129.01 168.578 129.146 168.578 129.312C168.578 129.5 168.51 129.656 168.375 129.781C168.354 129.792 168.281 129.865 168.156 130C168.031 130.125 167.896 130.302 167.75 130.531C167.604 130.75 167.469 131.016 167.344 131.328C167.229 131.641 167.172 131.984 167.172 132.359C167.172 132.953 167.302 133.453 167.562 133.859C167.833 134.266 168.182 134.599 168.609 134.859C169.036 135.109 169.51 135.292 170.031 135.406C170.552 135.51 171.073 135.562 171.594 135.562C172.562 135.562 173.469 135.406 174.312 135.094C175.167 134.781 175.911 134.365 176.547 133.844C177.182 133.323 177.682 132.724 178.047 132.047C178.411 131.37 178.594 130.661 178.594 129.922C178.594 129.109 178.365 128.37 177.906 127.703C177.448 127.026 176.828 126.453 176.047 125.984C175.266 125.505 174.349 125.135 173.297 124.875C172.255 124.615 171.141 124.484 169.953 124.484C169.057 124.484 168.115 124.594 167.125 124.812C166.146 125.021 165.177 125.339 164.219 125.766C163.26 126.193 162.344 126.724 161.469 127.359C160.604 127.995 159.844 128.74 159.188 129.594C158.531 130.438 158.005 131.385 157.609 132.438C157.224 133.49 157.031 134.641 157.031 135.891C157.031 137.026 157.188 138.052 157.5 138.969C157.823 139.885 158.266 140.703 158.828 141.422C159.391 142.13 160.047 142.745 160.797 143.266C161.557 143.786 162.37 144.219 163.234 144.562C164.109 144.896 165.021 145.146 165.969 145.312C166.917 145.469 167.859 145.547 168.797 145.547C170.047 145.547 171.25 145.375 172.406 145.031C173.562 144.677 174.63 144.219 175.609 143.656C176.599 143.083 177.474 142.443 178.234 141.734C178.995 141.026 179.599 140.312 180.047 139.594C180.099 139.5 180.172 139.432 180.266 139.391C180.359 139.339 180.458 139.312 180.562 139.312C180.74 139.312 180.88 139.375 180.984 139.5C181.089 139.615 181.141 139.745 181.141 139.891C181.141 139.943 181.135 139.995 181.125 140.047C181.115 140.099 181.094 140.151 181.062 140.203ZM194.766 141.641C194.724 141.724 194.635 141.901 194.5 142.172C194.375 142.432 194.208 142.734 194 143.078C193.802 143.422 193.568 143.781 193.297 144.156C193.026 144.531 192.724 144.875 192.391 145.188C192.057 145.5 191.698 145.76 191.312 145.969C190.927 146.167 190.521 146.266 190.094 146.266C189.49 146.266 188.979 146.073 188.562 145.688C188.156 145.302 187.859 144.818 187.672 144.234C187.318 144.828 186.896 145.302 186.406 145.656C185.917 146 185.427 146.172 184.938 146.172C184.552 146.172 184.203 146.104 183.891 145.969C183.578 145.823 183.312 145.625 183.094 145.375C182.875 145.115 182.703 144.812 182.578 144.469C182.464 144.125 182.406 143.75 182.406 143.344C182.406 142.531 182.542 141.818 182.812 141.203C183.094 140.578 183.448 140.057 183.875 139.641C184.302 139.224 184.771 138.911 185.281 138.703C185.802 138.495 186.302 138.391 186.781 138.391C187.104 138.391 187.401 138.438 187.672 138.531C187.943 138.615 188.172 138.708 188.359 138.812C188.557 138.917 188.708 139.016 188.812 139.109C188.917 139.193 188.974 139.24 188.984 139.25C189.099 139.385 189.156 139.526 189.156 139.672C189.156 139.828 189.099 139.969 188.984 140.094C188.87 140.208 188.734 140.266 188.578 140.266C188.411 140.266 188.271 140.208 188.156 140.094C188.135 140.073 188.089 140.036 188.016 139.984C187.943 139.922 187.844 139.859 187.719 139.797C187.594 139.734 187.443 139.682 187.266 139.641C187.099 139.589 186.906 139.562 186.688 139.562C186.365 139.562 186.021 139.635 185.656 139.781C185.292 139.927 184.958 140.156 184.656 140.469C184.354 140.771 184.099 141.156 183.891 141.625C183.693 142.083 183.594 142.63 183.594 143.266C183.594 143.464 183.615 143.667 183.656 143.875C183.698 144.073 183.771 144.255 183.875 144.422C183.979 144.589 184.12 144.724 184.297 144.828C184.474 144.932 184.693 144.984 184.953 144.984C185.141 144.984 185.354 144.922 185.594 144.797C185.844 144.672 186.078 144.479 186.297 144.219C186.526 143.958 186.729 143.63 186.906 143.234C187.094 142.839 187.224 142.37 187.297 141.828C187.318 141.682 187.385 141.562 187.5 141.469C187.615 141.365 187.75 141.312 187.906 141.312C188.052 141.312 188.177 141.37 188.281 141.484C188.396 141.599 188.458 141.729 188.469 141.875C188.479 142.073 188.5 142.354 188.531 142.719C188.562 143.073 188.63 143.427 188.734 143.781C188.849 144.135 189.016 144.443 189.234 144.703C189.453 144.964 189.755 145.094 190.141 145.094C190.391 145.094 190.635 145.026 190.875 144.891C191.125 144.755 191.365 144.578 191.594 144.359C191.833 144.13 192.057 143.875 192.266 143.594C192.484 143.302 192.682 143.01 192.859 142.719C193.036 142.427 193.193 142.146 193.328 141.875C193.464 141.604 193.578 141.37 193.672 141.172C193.724 141.057 193.797 140.969 193.891 140.906C193.995 140.844 194.104 140.812 194.219 140.812C194.396 140.812 194.536 140.88 194.641 141.016C194.755 141.141 194.812 141.276 194.812 141.422C194.812 141.495 194.797 141.568 194.766 141.641ZM195.328 139.578C195.286 139.859 195.234 140.125 195.172 140.375C195.109 140.615 195.047 140.828 194.984 141.016C194.932 141.193 194.885 141.339 194.844 141.453C194.802 141.568 194.776 141.63 194.766 141.641C194.661 141.88 194.479 142 194.219 142C194.073 142 193.938 141.948 193.812 141.844C193.688 141.729 193.625 141.589 193.625 141.422C193.625 141.359 193.635 141.312 193.656 141.281C193.677 141.25 193.708 141.188 193.75 141.094C193.792 141 193.844 140.844 193.906 140.625C193.969 140.406 194.047 140.068 194.141 139.609C193.964 139.609 193.781 139.604 193.594 139.594C193.406 139.583 193.234 139.547 193.078 139.484C192.911 139.422 192.776 139.323 192.672 139.188C192.568 139.052 192.516 138.865 192.516 138.625C192.516 138.448 192.568 138.208 192.672 137.906C192.766 137.604 192.896 137.307 193.062 137.016C193.229 136.724 193.417 136.474 193.625 136.266C193.833 136.047 194.042 135.938 194.25 135.938C194.49 135.938 194.682 136.026 194.828 136.203C194.984 136.38 195.104 136.599 195.188 136.859C195.271 137.109 195.328 137.375 195.359 137.656C195.401 137.938 195.422 138.182 195.422 138.391C195.599 138.391 195.771 138.391 195.938 138.391C196.115 138.38 196.281 138.375 196.438 138.375C197.031 138.375 197.484 138.505 197.797 138.766C198.109 139.026 198.266 139.453 198.266 140.047C198.266 140.286 198.25 140.536 198.219 140.797C198.188 141.057 198.151 141.328 198.109 141.609C198.068 141.88 198.031 142.151 198 142.422C197.969 142.693 197.953 142.958 197.953 143.219C197.953 143.594 198.005 143.906 198.109 144.156C198.214 144.396 198.344 144.589 198.5 144.734C198.656 144.88 198.823 144.984 199 145.047C199.177 145.099 199.339 145.125 199.484 145.125C199.932 145.125 200.354 144.979 200.75 144.688C201.146 144.396 201.51 144.047 201.844 143.641C202.177 143.224 202.474 142.786 202.734 142.328C203.005 141.87 203.229 141.469 203.406 141.125C203.458 141.031 203.531 140.958 203.625 140.906C203.719 140.854 203.818 140.828 203.922 140.828C204.109 140.828 204.255 140.891 204.359 141.016C204.464 141.13 204.516 141.26 204.516 141.406C204.516 141.51 204.495 141.604 204.453 141.688C204.214 142.115 203.932 142.599 203.609 143.141C203.297 143.672 202.938 144.172 202.531 144.641C202.125 145.109 201.667 145.505 201.156 145.828C200.656 146.151 200.104 146.312 199.5 146.312C199.125 146.312 198.771 146.24 198.438 146.094C198.104 145.958 197.812 145.76 197.562 145.5C197.323 145.229 197.13 144.901 196.984 144.516C196.839 144.12 196.766 143.677 196.766 143.188C196.766 142.667 196.818 142.151 196.922 141.641C197.026 141.12 197.078 140.625 197.078 140.156C197.078 139.958 197.031 139.812 196.938 139.719C196.854 139.615 196.661 139.562 196.359 139.562C196.214 139.562 196.052 139.562 195.875 139.562C195.708 139.562 195.526 139.568 195.328 139.578ZM194.281 138.422C194.281 138.349 194.276 138.255 194.266 138.141C194.266 138.016 194.255 137.896 194.234 137.781C194.224 137.667 194.203 137.568 194.172 137.484C194.151 137.401 194.125 137.359 194.094 137.359C194.062 137.359 194.021 137.401 193.969 137.484C193.927 137.557 193.88 137.651 193.828 137.766C193.776 137.87 193.729 137.984 193.688 138.109C193.646 138.234 193.615 138.339 193.594 138.422H194.281ZM210.609 144.281C210.349 144.281 210.12 144.26 209.922 144.219C209.766 144.531 209.578 144.823 209.359 145.094C209.141 145.354 208.885 145.583 208.594 145.781C208.312 145.979 207.995 146.135 207.641 146.25C207.286 146.365 206.901 146.422 206.484 146.422C205.995 146.422 205.547 146.333 205.141 146.156C204.734 145.99 204.38 145.755 204.078 145.453C203.776 145.141 203.542 144.771 203.375 144.344C203.208 143.906 203.125 143.427 203.125 142.906C203.125 142.24 203.245 141.661 203.484 141.172C203.724 140.672 204 140.26 204.312 139.938C204.625 139.604 204.938 139.359 205.25 139.203C205.562 139.036 205.797 138.953 205.953 138.953C206.13 138.953 206.26 139 206.344 139.094C206.438 139.188 206.484 139.312 206.484 139.469C206.484 139.646 206.427 139.781 206.312 139.875C206.208 139.958 206.073 140.042 205.906 140.125C205.74 140.208 205.562 140.328 205.375 140.484C205.188 140.63 205.01 140.818 204.844 141.047C204.688 141.276 204.557 141.547 204.453 141.859C204.349 142.172 204.297 142.521 204.297 142.906C204.297 143.25 204.349 143.573 204.453 143.875C204.557 144.167 204.708 144.422 204.906 144.641C205.104 144.849 205.339 145.016 205.609 145.141C205.88 145.255 206.182 145.312 206.516 145.312C207.109 145.312 207.599 145.177 207.984 144.906C208.38 144.625 208.682 144.271 208.891 143.844C208.276 143.521 207.771 143.062 207.375 142.469C206.979 141.875 206.781 141.208 206.781 140.469C206.781 139.875 206.922 139.391 207.203 139.016C207.495 138.641 207.875 138.453 208.344 138.453C208.625 138.453 208.891 138.521 209.141 138.656C209.391 138.792 209.609 139.005 209.797 139.297C209.995 139.589 210.151 139.964 210.266 140.422C210.38 140.88 210.438 141.427 210.438 142.062C210.438 142.396 210.396 142.745 210.312 143.109C210.375 143.12 210.438 143.125 210.5 143.125C210.562 143.125 210.63 143.125 210.703 143.125C211.057 143.125 211.375 143.083 211.656 143C211.938 142.917 212.193 142.792 212.422 142.625C212.651 142.458 212.854 142.245 213.031 141.984C213.219 141.724 213.396 141.422 213.562 141.078C213.594 141.016 213.661 140.958 213.766 140.906C213.87 140.844 213.974 140.812 214.078 140.812C214.214 140.812 214.339 140.87 214.453 140.984C214.578 141.089 214.641 141.229 214.641 141.406C214.641 141.49 214.62 141.583 214.578 141.688C214.536 141.781 214.495 141.87 214.453 141.953C214.276 142.266 214.068 142.568 213.828 142.859C213.599 143.141 213.323 143.391 213 143.609C212.688 143.818 212.333 143.984 211.938 144.109C211.542 144.234 211.099 144.292 210.609 144.281ZM207.938 140.344C207.938 140.542 207.964 140.75 208.016 140.969C208.068 141.188 208.146 141.406 208.25 141.625C208.365 141.833 208.5 142.036 208.656 142.234C208.823 142.422 209.016 142.583 209.234 142.719C209.266 142.5 209.281 142.286 209.281 142.078C209.281 141.797 209.26 141.51 209.219 141.219C209.177 140.927 209.115 140.661 209.031 140.422C208.958 140.172 208.865 139.974 208.75 139.828C208.635 139.672 208.5 139.594 208.344 139.594C208.281 139.594 208.198 139.641 208.094 139.734C207.99 139.828 207.938 140.031 207.938 140.344ZM218.719 144.25C218.354 144.844 217.927 145.312 217.438 145.656C216.958 146 216.474 146.172 215.984 146.172C215.589 146.172 215.234 146.099 214.922 145.953C214.609 145.807 214.339 145.604 214.109 145.344C213.88 145.073 213.703 144.75 213.578 144.375C213.464 144 213.406 143.578 213.406 143.109C213.406 142.38 213.474 141.734 213.609 141.172C213.755 140.609 213.911 140.141 214.078 139.766C214.245 139.38 214.401 139.089 214.547 138.891C214.693 138.693 214.766 138.594 214.766 138.594C214.818 138.531 214.88 138.484 214.953 138.453C215.036 138.422 215.12 138.406 215.203 138.406C215.37 138.406 215.505 138.469 215.609 138.594C215.724 138.708 215.781 138.844 215.781 139C215.781 139.062 215.766 139.125 215.734 139.188C215.714 139.25 215.688 139.312 215.656 139.375C215.604 139.469 215.521 139.615 215.406 139.812C215.292 140 215.172 140.25 215.047 140.562C214.922 140.875 214.812 141.245 214.719 141.672C214.625 142.089 214.578 142.568 214.578 143.109C214.578 143.724 214.698 144.193 214.938 144.516C215.188 144.828 215.536 144.984 215.984 144.984C216.172 144.984 216.385 144.927 216.625 144.812C216.875 144.688 217.115 144.5 217.344 144.25C217.583 144 217.792 143.682 217.969 143.297C218.146 142.911 218.26 142.458 218.312 141.938L218.547 139.25C218.568 139.094 218.635 138.964 218.75 138.859C218.865 138.755 219 138.703 219.156 138.703C219.333 138.703 219.474 138.771 219.578 138.906C219.682 139.031 219.734 139.177 219.734 139.344L219.531 141.938C219.51 142.156 219.516 142.443 219.547 142.797C219.589 143.151 219.667 143.5 219.781 143.844C219.896 144.188 220.068 144.484 220.297 144.734C220.526 144.974 220.828 145.094 221.203 145.094C221.474 145.094 221.74 145.026 222 144.891C222.26 144.745 222.51 144.557 222.75 144.328C222.99 144.099 223.208 143.844 223.406 143.562C223.615 143.271 223.802 142.979 223.969 142.688C224.146 142.396 224.297 142.12 224.422 141.859C224.547 141.589 224.651 141.359 224.734 141.172C224.786 141.057 224.859 140.969 224.953 140.906C225.047 140.844 225.151 140.812 225.266 140.812C225.453 140.812 225.599 140.875 225.703 141C225.807 141.125 225.859 141.26 225.859 141.406C225.859 141.49 225.844 141.568 225.812 141.641C225.771 141.724 225.688 141.901 225.562 142.172C225.448 142.432 225.292 142.734 225.094 143.078C224.906 143.411 224.677 143.766 224.406 144.141C224.135 144.516 223.833 144.865 223.5 145.188C223.167 145.5 222.802 145.76 222.406 145.969C222.021 146.167 221.604 146.266 221.156 146.266C220.542 146.266 220.031 146.094 219.625 145.75C219.219 145.396 218.917 144.896 218.719 144.25ZM226.484 140.219C226.422 140.385 226.344 140.573 226.25 140.781C226.167 140.99 226.068 141.208 225.953 141.438C225.859 141.615 225.76 141.755 225.656 141.859C225.562 141.953 225.438 142 225.281 142C225.104 142 224.964 141.948 224.859 141.844C224.755 141.729 224.703 141.599 224.703 141.453C224.703 141.401 224.708 141.359 224.719 141.328C224.729 141.286 224.755 141.224 224.797 141.141C225.068 140.62 225.266 140.167 225.391 139.781C225.526 139.385 225.635 138.974 225.719 138.547C225.646 138.307 225.594 138.104 225.562 137.938C225.531 137.771 225.516 137.599 225.516 137.422C225.516 137.078 225.589 136.802 225.734 136.594C225.88 136.375 226.083 136.266 226.344 136.266C226.583 136.266 226.771 136.37 226.906 136.578C227.052 136.786 227.125 137.042 227.125 137.344C227.125 137.51 227.109 137.677 227.078 137.844C227.047 138.01 227.005 138.219 226.953 138.469C227.193 139.062 227.432 139.589 227.672 140.047C227.911 140.505 228.125 140.927 228.312 141.312C228.5 141.688 228.651 142.042 228.766 142.375C228.891 142.708 228.953 143.042 228.953 143.375C228.953 143.812 228.865 144.229 228.688 144.625C228.51 145.021 228.219 145.354 227.812 145.625C227.865 145.635 227.917 145.641 227.969 145.641C228.021 145.641 228.073 145.641 228.125 145.641C228.719 145.641 229.266 145.505 229.766 145.234C230.266 144.964 230.714 144.615 231.109 144.188C231.516 143.75 231.875 143.271 232.188 142.75C232.5 142.219 232.771 141.693 233 141.172C233.104 140.932 233.25 140.812 233.438 140.812C233.615 140.812 233.75 140.875 233.844 141C233.948 141.125 234 141.26 234 141.406C234 141.49 233.984 141.568 233.953 141.641C233.839 141.922 233.688 142.245 233.5 142.609C233.323 142.964 233.104 143.333 232.844 143.719C232.594 144.094 232.302 144.464 231.969 144.828C231.635 145.193 231.26 145.521 230.844 145.812C230.438 146.094 229.99 146.318 229.5 146.484C229.01 146.661 228.474 146.75 227.891 146.75C227.193 146.75 226.542 146.625 225.938 146.375C225.344 146.135 224.859 145.734 224.484 145.172C224.422 145.078 224.391 144.979 224.391 144.875C224.391 144.719 224.448 144.583 224.562 144.469C224.688 144.344 224.828 144.281 224.984 144.281C225.151 144.281 225.292 144.339 225.406 144.453C225.417 144.474 225.453 144.51 225.516 144.562C225.578 144.604 225.651 144.656 225.734 144.719C225.828 144.771 225.932 144.818 226.047 144.859C226.172 144.901 226.297 144.922 226.422 144.922C226.672 144.922 226.88 144.87 227.047 144.766C227.224 144.661 227.365 144.536 227.469 144.391C227.573 144.234 227.646 144.073 227.688 143.906C227.74 143.729 227.766 143.578 227.766 143.453C227.766 143.193 227.724 142.932 227.641 142.672C227.557 142.411 227.448 142.151 227.312 141.891C227.188 141.63 227.047 141.365 226.891 141.094C226.745 140.812 226.609 140.521 226.484 140.219ZM234.75 144.281C234.969 144.583 235.25 144.828 235.594 145.016C235.938 145.193 236.359 145.281 236.859 145.281C237.37 145.281 237.833 145.161 238.25 144.922C238.667 144.672 239.047 144.349 239.391 143.953C239.734 143.557 240.042 143.115 240.312 142.625C240.583 142.135 240.828 141.646 241.047 141.156C241.099 141.042 241.172 140.958 241.266 140.906C241.359 140.844 241.464 140.812 241.578 140.812C241.755 140.812 241.896 140.875 242 141C242.115 141.125 242.172 141.26 242.172 141.406C242.172 141.458 242.167 141.505 242.156 141.547C242.146 141.578 242.13 141.615 242.109 141.656C241.391 143.24 240.604 144.432 239.75 145.234C238.906 146.036 237.948 146.448 236.875 146.469C236.188 146.469 235.594 146.333 235.094 146.062C234.594 145.802 234.182 145.464 233.859 145.047C233.536 144.62 233.297 144.141 233.141 143.609C232.984 143.078 232.906 142.547 232.906 142.016C232.906 141.484 232.969 140.995 233.094 140.547C233.229 140.099 233.417 139.708 233.656 139.375C233.906 139.042 234.198 138.781 234.531 138.594C234.875 138.406 235.25 138.312 235.656 138.312C235.896 138.312 236.13 138.365 236.359 138.469C236.599 138.562 236.812 138.703 237 138.891C237.188 139.068 237.339 139.286 237.453 139.547C237.568 139.807 237.625 140.104 237.625 140.438C237.625 140.865 237.552 141.266 237.406 141.641C237.26 142.016 237.057 142.365 236.797 142.688C236.547 143.01 236.245 143.307 235.891 143.578C235.536 143.849 235.156 144.083 234.75 144.281ZM234.281 143.266C234.604 143.13 234.896 142.958 235.156 142.75C235.427 142.542 235.656 142.312 235.844 142.062C236.031 141.812 236.177 141.552 236.281 141.281C236.385 141 236.438 140.719 236.438 140.438C236.438 140.125 236.359 139.891 236.203 139.734C236.047 139.568 235.865 139.484 235.656 139.484C235.375 139.484 235.135 139.562 234.938 139.719C234.74 139.875 234.578 140.078 234.453 140.328C234.328 140.578 234.234 140.859 234.172 141.172C234.12 141.474 234.094 141.776 234.094 142.078C234.094 142.266 234.109 142.464 234.141 142.672C234.182 142.88 234.229 143.078 234.281 143.266ZM249.953 141.672C249.839 141.911 249.693 142.198 249.516 142.531C249.349 142.854 249.156 143.193 248.938 143.547C248.719 143.901 248.474 144.255 248.203 144.609C247.932 144.953 247.635 145.266 247.312 145.547C247 145.818 246.661 146.036 246.297 146.203C245.943 146.38 245.562 146.469 245.156 146.469C244.531 146.469 243.995 146.276 243.547 145.891C243.099 145.505 242.719 145 242.406 144.375C242.094 143.75 241.839 143.042 241.641 142.25C241.453 141.448 241.307 140.635 241.203 139.812C241.099 138.979 241.026 138.172 240.984 137.391C240.953 136.609 240.938 135.917 240.938 135.312C240.938 134.438 240.964 133.531 241.016 132.594C241.078 131.656 241.172 130.74 241.297 129.844C241.422 128.948 241.578 128.099 241.766 127.297C241.964 126.495 242.193 125.792 242.453 125.188C242.724 124.583 243.031 124.104 243.375 123.75C243.719 123.396 244.109 123.219 244.547 123.219C244.891 123.219 245.198 123.302 245.469 123.469C245.75 123.625 245.984 123.885 246.172 124.25C246.359 124.615 246.505 125.089 246.609 125.672C246.714 126.255 246.766 126.969 246.766 127.812C246.766 128.854 246.656 129.932 246.438 131.047C246.219 132.151 245.922 133.266 245.547 134.391C245.172 135.516 244.729 136.641 244.219 137.766C243.708 138.88 243.161 139.969 242.578 141.031C242.839 142.354 243.188 143.396 243.625 144.156C244.062 144.906 244.589 145.281 245.203 145.281C245.62 145.281 246.021 145.12 246.406 144.797C246.792 144.464 247.146 144.073 247.469 143.625C247.792 143.177 248.073 142.724 248.312 142.266C248.562 141.797 248.755 141.422 248.891 141.141C248.943 141.036 249.016 140.958 249.109 140.906C249.203 140.844 249.307 140.812 249.422 140.812C249.599 140.812 249.74 140.875 249.844 141C249.958 141.125 250.016 141.266 250.016 141.422C250.016 141.484 249.995 141.568 249.953 141.672ZM242.125 135.391C242.125 136.057 242.141 136.698 242.172 137.312C242.203 137.927 242.245 138.516 242.297 139.078C242.734 138.234 243.151 137.339 243.547 136.391C243.943 135.432 244.292 134.469 244.594 133.5C244.896 132.521 245.135 131.552 245.312 130.594C245.5 129.625 245.594 128.703 245.594 127.828C245.594 126.599 245.495 125.719 245.297 125.188C245.099 124.656 244.833 124.391 244.5 124.391C244.281 124.391 244.068 124.542 243.859 124.844C243.661 125.146 243.474 125.557 243.297 126.078C243.12 126.599 242.958 127.214 242.812 127.922C242.667 128.63 242.542 129.391 242.438 130.203C242.344 131.016 242.266 131.865 242.203 132.75C242.151 133.635 242.125 134.516 242.125 135.391Z" fill="#34793C"/>
</svg>
