<svg width="206" height="163" viewBox="0 0 206 163" fill="none" xmlns="http://www.w3.org/2000/svg">
<path d="M118.343 67.5162L186.982 104.307C188.517 105.129 189.095 107.04 188.272 108.575C187.45 110.11 185.538 110.687 184.004 109.864L115.364 73.0732L118.343 67.5162Z" fill="white"/>
<g opacity="0.3">
<path d="M183.411 106.019L116.833 70.3336L115.364 73.0752L184.004 109.866C185.539 110.688 187.449 110.112 188.271 108.577C188.962 107.289 188.656 105.746 187.638 104.792C186.796 106.276 184.923 106.83 183.411 106.019Z" fill="#004F06"/>
</g>
<path d="M190.293 108.433C190.236 108.572 190.172 108.709 190.099 108.843L189.505 109.951C188.394 112.023 185.805 112.805 183.734 111.694L114.54 74.6068C114.135 74.3888 113.831 74.0187 113.698 73.5768C113.565 73.1349 113.613 72.6599 113.83 72.2524L116.81 66.6942C117.263 65.8487 118.317 65.53 119.163 65.9827L188.357 103.07C189.36 103.607 190.094 104.503 190.424 105.593C190.71 106.54 190.661 107.532 190.293 108.433ZM117.717 72.3648L185.378 108.631C185.76 108.836 186.237 108.691 186.442 108.309L187.036 107.202C187.036 107.202 187.036 107.202 187.037 107.201C187.174 106.952 187.132 106.719 187.097 106.603C187.062 106.487 186.965 106.272 186.716 106.138L119.054 69.8718L117.717 72.3648Z" fill="#004F06"/>
<path d="M115.532 20.4075C136.428 31.6077 144.29 57.6318 133.089 78.5294C121.889 99.427 95.8652 107.288 74.9687 96.0874C54.0681 84.8841 46.2106 58.8631 57.4112 37.9655C66.0841 21.7836 83.6429 13.42 100.829 15.6662C105.249 16.2424 109.643 17.5272 113.857 19.5613C114.418 19.8274 114.976 20.1102 115.532 20.4075Z" fill="#688E6C"/>
<path d="M135.282 74.5608C134.716 75.9485 134.073 77.3175 133.348 78.667C127.894 88.8427 118.804 96.2858 107.751 99.6242C96.6971 102.963 85.0056 101.799 74.831 96.3447C64.6541 90.8898 57.2103 81.7981 53.8715 70.7459C50.5326 59.6937 51.6976 48.0026 57.1521 37.8268C65.5895 22.0835 83.1576 13.0611 100.866 15.3749C105.404 15.9667 109.818 17.2865 113.982 19.2964C114.538 19.5606 115.105 19.8473 115.669 20.1491C135.328 30.6856 143.535 54.352 135.282 74.5608ZM55.7413 42.2002C52.0616 51.2108 51.5789 61.1299 54.4322 70.5777C57.7249 81.4804 65.0679 90.4485 75.1074 95.8295C85.1445 101.209 96.6774 102.358 107.581 99.0641C118.484 95.7702 127.452 88.4284 132.831 78.3912C143.939 57.6713 136.113 31.7746 115.394 20.666C114.839 20.3692 114.28 20.0859 113.731 19.8246C109.621 17.8413 105.268 16.5403 100.791 15.9559C83.3223 13.6741 65.9926 22.5738 57.6697 38.1042C56.9516 39.4452 56.308 40.8125 55.7413 42.2002Z" fill="#34793C"/>
<path d="M112.714 20.0784C113.756 21.0429 114.772 22.0488 115.758 23.0781C120.086 27.6164 123.929 32.7405 126.684 38.5564C128.056 41.4562 129.155 44.5218 129.859 47.7053C130.559 50.8873 130.883 54.1853 130.696 57.4736C130.523 60.7581 129.889 64.0205 128.841 67.1222L128.444 68.2823C128.295 68.6641 128.139 69.0361 127.986 69.4147L127.517 70.5467L126.994 71.6445L126.461 72.7421C126.271 73.107 126.062 73.467 125.867 73.83C125.672 74.1929 125.459 74.5498 125.239 74.8999L124.579 75.9471C120.922 81.4496 115.785 85.8587 109.877 88.7446C103.98 91.6308 97.2022 92.9135 90.5603 92.0662C87.2504 91.6326 83.9943 90.7002 80.9903 89.2548C79.4695 88.5664 78.0438 87.7024 76.653 86.8032C75.2725 85.8656 73.9522 84.8343 72.7216 83.7078C67.7937 79.1718 64.3708 73.0375 63.0931 66.4763C61.7876 59.9161 62.6126 52.9449 65.4345 46.8731C66.1469 45.3607 66.9505 43.8911 67.8839 42.5074C68.3601 41.8126 68.8993 41.1352 69.4124 40.4541C69.6536 40.1059 69.9681 39.8069 70.2538 39.4878L71.1251 38.5489C73.5375 36.1185 76.436 34.1739 79.5915 32.8552C82.747 31.5365 86.1603 30.8453 89.5757 30.8257C92.9957 30.8081 96.4225 31.4639 99.5889 32.7707C100.376 33.1046 101.137 33.4908 101.912 33.857C102.663 34.2598 103.377 34.73 104.11 35.1667C104.476 35.374 104.816 35.6723 105.173 35.9294C105.52 36.1923 105.877 36.4493 106.216 36.7306L107.182 37.6215C107.51 37.923 107.828 38.2207 108.113 38.5597C110.478 41.1557 112.273 44.3035 113.118 47.7177C113.994 51.1146 114.082 54.7308 113.229 58.1458L112.904 59.4277L112.46 60.6674C112.196 61.5093 111.766 62.2782 111.4 63.0754C111.226 63.4813 110.964 63.8362 110.744 64.2177C110.516 64.5906 110.297 64.9673 110.051 65.3353C109.505 66.0651 108.977 66.7976 108.332 67.4458C107.091 68.7684 105.655 69.9204 104.054 70.7869C102.463 71.6533 100.756 72.3305 98.972 72.6769C97.1886 73.022 95.3668 73.111 93.5594 72.9391C91.753 72.7347 89.9862 72.2482 88.324 71.5392L87.0976 70.9476C86.7008 70.7347 86.325 70.4837 85.9391 70.2505C85.7481 70.1258 85.5537 70.0162 85.3673 69.8837L84.8083 69.4519L84.2523 69.0228L83.7352 68.5423C82.3576 67.2608 81.259 65.6934 80.4842 63.9929C78.9309 60.5904 78.8011 56.6104 80.1044 53.1732C80.4188 52.3092 80.8297 51.4915 81.3064 50.7145C81.5641 50.3359 81.7934 49.9595 82.0787 49.5908C82.3854 49.2336 82.6571 48.8511 83.0051 48.5273C84.3148 47.1915 85.9335 46.1592 87.6931 45.6201C88.1302 45.4921 88.5665 45.3528 89.0211 45.2828C89.2447 45.2435 89.4651 45.1919 89.6931 45.1655L90.3681 45.1044C90.8159 45.0481 91.274 45.084 91.7218 45.0882C91.9485 45.1052 92.173 45.1377 92.3943 45.1745C92.6143 45.2149 92.8363 45.2299 93.0534 45.3076C93.4853 45.4345 93.9126 45.5595 94.3114 45.7677C94.5096 45.8679 94.7058 45.9632 94.9002 46.0728C95.085 46.1991 95.2682 46.3193 95.4461 46.4593C95.8078 46.6977 96.1113 47.0416 96.4041 47.3577C96.5507 47.5138 96.6698 47.7136 96.7828 47.9013C96.9055 48.082 97.0074 48.2803 97.1016 48.4837L97.0517 48.5554C96.1439 48.5572 95.3985 48.5043 94.6751 48.5223C94.4912 48.5283 94.3204 48.519 94.1512 48.5159L93.6465 48.5434C93.3175 48.5314 92.9877 48.585 92.6703 48.5915C91.4148 48.6602 90.1984 48.8589 89.1098 49.3737C88.011 49.8665 87.0959 50.6501 86.3732 51.548C86.1791 51.7574 86.048 52.0213 85.8785 52.2545C85.7243 52.5008 85.5968 52.7896 85.4512 53.0518C85.1937 53.605 84.9718 54.1617 84.8145 54.7421C84.1767 57.0478 84.4555 59.5422 85.5115 61.6077C86.0341 62.6403 86.7619 63.5574 87.6151 64.3223L87.9337 64.6091L88.2816 64.8612L88.6323 65.1198C88.7531 65.2008 88.8925 65.2701 89.0243 65.3514C89.2907 65.5001 89.5461 65.669 89.817 65.8098L90.6446 66.1932C91.7689 66.6578 92.9467 66.9711 94.1577 67.0987C95.3678 67.1984 96.5907 67.1287 97.7805 66.8875C98.9762 66.6556 100.113 66.1936 101.175 65.6157C102.244 65.0459 103.193 64.2694 104.017 63.3883C104.454 62.963 104.795 62.4593 105.169 61.9783C105.341 61.7187 105.498 61.4351 105.664 61.1674C105.819 60.8885 106.02 60.634 106.14 60.3407C106.397 59.7584 106.723 59.2029 106.903 58.5905L107.227 57.6989L107.455 56.7719C108.08 54.3057 107.996 51.6846 107.359 49.2242L107.249 48.7641L107.09 48.3116L106.777 47.4086L106.384 46.5442C106.253 46.2545 106.132 45.959 105.956 45.6945L105.477 44.8668C105.329 44.5893 105.11 44.3514 104.934 44.0869C104.744 43.836 104.584 43.5594 104.364 43.325L103.735 42.6144C103.538 42.3663 103.302 42.152 103.063 41.9413L102.366 41.2941C102.116 41.0945 101.857 40.9116 101.606 40.7156C101.342 40.5308 101.124 40.314 100.823 40.1582C100.25 39.824 99.6992 39.4573 99.1197 39.1464C98.5211 38.8689 97.9346 38.5717 97.329 38.3079C92.4574 36.2896 86.7705 36.345 81.9159 38.4048C79.4858 39.4246 77.26 40.9237 75.4117 42.7942L74.7417 43.5226C74.5223 43.767 74.2736 43.9856 74.0932 44.2624C73.7009 44.7991 73.2889 45.303 72.9087 45.8569C72.1521 46.9829 71.5021 48.184 70.9245 49.4065C68.6497 54.3272 67.9852 59.973 69.0523 65.2964C70.1162 70.6171 72.8427 75.5928 76.8199 79.2898C77.8227 80.2065 78.8856 81.0501 80.0093 81.8224C81.1557 82.5627 82.322 83.2878 83.5618 83.8532C86.0081 85.0488 88.6437 85.8076 91.3351 86.1741C96.7243 86.8878 102.349 85.8817 107.334 83.4685C112.318 81.0655 116.703 77.3311 119.774 72.7492L120.33 71.8765C120.518 71.5877 120.693 71.2908 120.854 70.9885C121.021 70.6882 121.194 70.396 121.355 70.0864L121.817 69.1427L122.28 68.1989L122.679 67.2269C122.812 66.9086 122.95 66.587 123.082 66.2614L123.42 65.2724C124.328 62.6454 124.895 59.9177 125.069 57.1547C125.429 51.6252 124.136 46.0279 121.755 40.869C119.373 35.693 115.923 30.9498 111.944 26.6915C108.355 22.8561 104.33 19.3814 100.025 16.2835C104.326 16.8455 108.608 18.0965 112.714 20.0784Z" fill="white"/>
<g opacity="0.7">
<path d="M60.1464 43.3776C68.8192 27.1957 86.3781 18.8321 103.564 21.0783C107.984 21.6545 112.379 22.9393 116.592 24.9734C117.154 25.2412 117.712 25.5228 118.268 25.8213C125.368 29.6264 130.958 35.1462 134.812 41.5912C131.134 32.8402 124.55 25.2434 115.533 20.4107C114.978 20.1123 114.419 19.8306 113.858 19.5629C109.644 17.5299 105.249 16.2452 100.83 15.6677C83.6437 13.4215 66.0855 21.7868 57.412 37.967C50.0169 51.7638 50.9341 67.7936 58.4245 80.3185C53.5774 68.7892 53.7794 55.2561 60.1464 43.3776Z" fill="white"/>
</g>
<path d="M136.641 75.0593C136.047 76.5141 135.375 77.9453 134.621 79.3501C128.985 89.8667 119.59 97.5589 108.167 101.009C96.7453 104.46 84.6637 103.255 74.1471 97.6184C63.6305 91.9821 55.9382 82.5869 52.4879 71.1648C49.0375 59.7427 50.2413 47.6606 55.8787 37.1445C67.5153 15.4352 94.6434 7.23956 116.353 18.8761C126.869 24.5124 134.562 33.9076 138.012 45.3297C141.001 55.226 140.496 65.6199 136.641 75.0593ZM57.0804 42.7441C53.5252 51.4496 53.0604 61.0323 55.8162 70.16C58.9986 80.6933 66.0913 89.3557 75.7899 94.5549C85.4878 99.7523 96.6292 100.863 107.163 97.6809C117.696 94.4985 126.358 87.4059 131.557 77.7072C136.757 68.0103 137.866 56.8679 134.684 46.3346C131.501 35.8012 124.408 27.1388 114.71 21.9397C105.011 16.7406 93.8705 15.6312 83.3372 18.8136C72.8038 21.996 64.1414 29.0887 58.9423 38.7873C58.2487 40.0819 57.6283 41.4024 57.0804 42.7441Z" fill="#004F06"/>
<path d="M20.8125 145.172C22.625 143.755 24.2552 142.25 25.7031 140.656C27.1615 139.062 28.3958 137.453 29.4062 135.828C30.4271 134.193 31.2083 132.568 31.75 130.953C32.2917 129.328 32.5625 127.781 32.5625 126.312C32.5625 125.458 32.4688 124.661 32.2812 123.922C32.1042 123.182 31.8438 122.547 31.5 122.016C31.1562 121.474 30.7396 121.052 30.25 120.75C29.7708 120.438 29.2292 120.281 28.625 120.281H28.3281C28.151 120.281 28 120.229 27.875 120.125C27.7604 120.021 27.7031 119.88 27.7031 119.703C27.7031 119.453 27.7917 119.292 27.9688 119.219C28.1562 119.135 28.3646 119.094 28.5938 119.094C29.3542 119.094 30.0521 119.271 30.6875 119.625C31.3229 119.979 31.8646 120.474 32.3125 121.109C32.7604 121.745 33.1094 122.495 33.3594 123.359C33.6094 124.224 33.7344 125.161 33.7344 126.172C33.7344 127.818 33.4479 129.51 32.875 131.25C32.3125 132.979 31.474 134.724 30.3594 136.484C29.2552 138.234 27.8802 139.979 26.2344 141.719C24.599 143.458 22.7135 145.156 20.5781 146.812C20.526 146.854 20.4583 146.901 20.375 146.953C20.2917 147.005 20.1927 147.031 20.0781 147.031C19.8802 147.031 19.7344 146.964 19.6406 146.828C19.5469 146.703 19.5 146.552 19.5 146.375C19.5 146.302 19.5052 146.151 19.5156 145.922C19.5365 145.693 19.5573 145.411 19.5781 145.078C19.599 144.745 19.625 144.38 19.6562 143.984C19.6875 143.578 19.7135 143.172 19.7344 142.766C19.7552 142.349 19.7708 141.948 19.7812 141.562C19.8021 141.177 19.8125 140.833 19.8125 140.531C19.8229 138.25 19.651 136.146 19.2969 134.219C18.9427 132.281 18.3802 130.604 17.6094 129.188C16.8385 127.771 15.8438 126.667 14.625 125.875C13.4167 125.073 11.9531 124.672 10.2344 124.672C8.95312 124.672 7.82292 124.849 6.84375 125.203C5.875 125.547 5.0625 126.005 4.40625 126.578C3.75 127.151 3.25521 127.802 2.92188 128.531C2.58854 129.25 2.42188 129.984 2.42188 130.734C2.42188 131.401 2.53125 132 2.75 132.531C2.97917 133.052 3.28646 133.5 3.67188 133.875C4.06771 134.24 4.53125 134.521 5.0625 134.719C5.59375 134.906 6.16667 135 6.78125 135C7.30208 135 7.77604 134.943 8.20312 134.828C8.63021 134.714 8.99479 134.589 9.29688 134.453C9.59896 134.307 9.83333 134.177 10 134.062C10.1771 133.938 10.276 133.865 10.2969 133.844C10.349 133.792 10.4062 133.76 10.4688 133.75C10.5417 133.729 10.6094 133.719 10.6719 133.719C10.8281 133.719 10.9635 133.771 11.0781 133.875C11.1927 133.969 11.25 134.099 11.25 134.266C11.25 134.464 11.1823 134.615 11.0469 134.719C11.026 134.74 10.9115 134.828 10.7031 134.984C10.4948 135.13 10.2031 135.292 9.82812 135.469C9.46354 135.635 9.02083 135.792 8.5 135.938C7.97917 136.083 7.40104 136.156 6.76562 136.156C5.98438 136.156 5.25521 136.026 4.57812 135.766C3.90104 135.505 3.31771 135.135 2.82812 134.656C2.33854 134.177 1.95312 133.609 1.67188 132.953C1.39062 132.286 1.25 131.552 1.25 130.75C1.25 129.854 1.44271 128.974 1.82812 128.109C2.21354 127.245 2.78125 126.474 3.53125 125.797C4.29167 125.12 5.22396 124.578 6.32812 124.172C7.44271 123.755 8.72917 123.547 10.1875 123.547C12.0729 123.547 13.6927 123.958 15.0469 124.781C16.4115 125.594 17.5312 126.745 18.4062 128.234C19.2917 129.724 19.9427 131.521 20.3594 133.625C20.7865 135.719 21 138.047 21 140.609C21 141.328 20.9844 142.073 20.9531 142.844C20.9219 143.604 20.875 144.38 20.8125 145.172ZM68.5 129.594C68.4688 129.74 68.401 129.854 68.2969 129.938C68.1927 130.021 68.0781 130.062 67.9531 130.062C67.7656 130.062 67.6146 130.005 67.5 129.891C67.3854 129.766 67.3281 129.625 67.3281 129.469C67.3281 129.312 67.3438 129.161 67.375 129.016C67.4062 128.859 67.4219 128.708 67.4219 128.562C67.4219 127.802 67.1875 127.12 66.7188 126.516C66.25 125.911 65.5833 125.406 64.7188 125C63.8646 124.583 62.8229 124.266 61.5938 124.047C60.3646 123.828 58.9948 123.719 57.4844 123.719C56.3281 123.719 55.1615 123.797 53.9844 123.953C52.8177 124.099 51.6927 124.318 50.6094 124.609C49.5365 124.891 48.5312 125.25 47.5938 125.688C46.6562 126.115 45.8385 126.615 45.1406 127.188C44.4531 127.75 43.9115 128.38 43.5156 129.078C43.1198 129.766 42.9219 130.521 42.9219 131.344C42.9219 131.979 43.0573 132.542 43.3281 133.031C43.6094 133.51 43.9896 133.932 44.4688 134.297C44.9479 134.651 45.5104 134.958 46.1562 135.219C46.8125 135.469 47.5208 135.682 48.2812 135.859C49.0417 136.026 49.8333 136.167 50.6562 136.281C51.4792 136.385 52.3073 136.474 53.1406 136.547L55.5469 136.75C56.7448 136.854 57.8177 136.964 58.7656 137.078C59.7135 137.193 60.5469 137.339 61.2656 137.516C62.4635 137.818 63.349 138.25 63.9219 138.812C64.4948 139.375 64.7812 140.125 64.7812 141.062C64.7812 141.969 64.5312 142.766 64.0312 143.453C63.5312 144.141 62.849 144.719 61.9844 145.188C61.1198 145.656 60.1094 146.01 58.9531 146.25C57.7969 146.49 56.5573 146.609 55.2344 146.609C53.7969 146.609 52.5312 146.51 51.4375 146.312C50.3542 146.125 49.4427 145.917 48.7031 145.688C47.974 145.448 47.4167 145.229 47.0312 145.031C46.6458 144.833 46.4375 144.724 46.4062 144.703C46.2188 144.599 46.125 144.432 46.125 144.203C46.125 144.026 46.1875 143.885 46.3125 143.781C46.4375 143.667 46.5729 143.609 46.7188 143.609C46.8333 143.609 46.9375 143.641 47.0312 143.703C47.0417 143.703 47.2188 143.797 47.5625 143.984C47.9167 144.161 48.4375 144.359 49.125 144.578C49.8229 144.797 50.6823 144.995 51.7031 145.172C52.724 145.349 53.9115 145.438 55.2656 145.438C56.6094 145.438 57.7969 145.328 58.8281 145.109C59.8594 144.891 60.724 144.589 61.4219 144.203C62.1302 143.807 62.6615 143.349 63.0156 142.828C63.3802 142.297 63.5625 141.724 63.5625 141.109C63.5625 140.745 63.4948 140.432 63.3594 140.172C63.2344 139.901 63.0573 139.672 62.8281 139.484C62.599 139.286 62.3229 139.12 62 138.984C61.6875 138.849 61.3438 138.734 60.9688 138.641C60.5729 138.536 60.1458 138.448 59.6875 138.375C59.2396 138.302 58.776 138.24 58.2969 138.188C57.8177 138.135 57.3333 138.089 56.8438 138.047C56.3646 138.005 55.8906 137.964 55.4219 137.922L53.0156 137.719C51.1198 137.562 49.4635 137.323 48.0469 137C46.6406 136.667 45.4688 136.245 44.5312 135.734C43.5938 135.214 42.8906 134.594 42.4219 133.875C41.9531 133.156 41.7188 132.318 41.7188 131.359C41.7188 130.38 41.9375 129.484 42.375 128.672C42.8229 127.849 43.4271 127.109 44.1875 126.453C44.9583 125.797 45.8542 125.229 46.875 124.75C47.9062 124.26 49.0052 123.854 50.1719 123.531C51.3385 123.208 52.5469 122.969 53.7969 122.812C55.0469 122.646 56.276 122.562 57.4844 122.562C58.9948 122.562 60.3073 122.656 61.4219 122.844C62.5469 123.021 63.5052 123.255 64.2969 123.547C65.099 123.828 65.7552 124.151 66.2656 124.516C66.776 124.88 67.1875 125.24 67.5 125.594C68.2396 126.458 68.6094 127.443 68.6094 128.547C68.6094 128.911 68.5729 129.26 68.5 129.594ZM78.2656 141.672C78.151 141.911 78.0052 142.198 77.8281 142.531C77.6615 142.854 77.4688 143.193 77.25 143.547C77.0312 143.901 76.7865 144.255 76.5156 144.609C76.2448 144.953 75.9479 145.266 75.625 145.547C75.3125 145.818 74.974 146.036 74.6094 146.203C74.2552 146.38 73.875 146.469 73.4688 146.469C72.8438 146.469 72.3073 146.276 71.8594 145.891C71.4115 145.505 71.0312 145 70.7188 144.375C70.4062 143.75 70.151 143.042 69.9531 142.25C69.7656 141.448 69.6198 140.635 69.5156 139.812C69.4115 138.979 69.3385 138.172 69.2969 137.391C69.2656 136.609 69.25 135.917 69.25 135.312C69.25 134.438 69.276 133.531 69.3281 132.594C69.3906 131.656 69.4844 130.74 69.6094 129.844C69.7344 128.948 69.8906 128.099 70.0781 127.297C70.276 126.495 70.5052 125.792 70.7656 125.188C71.0365 124.583 71.3438 124.104 71.6875 123.75C72.0312 123.396 72.4219 123.219 72.8594 123.219C73.2031 123.219 73.5104 123.302 73.7812 123.469C74.0625 123.625 74.2969 123.885 74.4844 124.25C74.6719 124.615 74.8177 125.089 74.9219 125.672C75.026 126.255 75.0781 126.969 75.0781 127.812C75.0781 128.854 74.9688 129.932 74.75 131.047C74.5312 132.151 74.2344 133.266 73.8594 134.391C73.4844 135.516 73.0417 136.641 72.5312 137.766C72.0208 138.88 71.474 139.969 70.8906 141.031C71.151 142.354 71.5 143.396 71.9375 144.156C72.375 144.906 72.901 145.281 73.5156 145.281C73.9323 145.281 74.3333 145.12 74.7188 144.797C75.1042 144.464 75.4583 144.073 75.7812 143.625C76.1042 143.177 76.3854 142.724 76.625 142.266C76.875 141.797 77.0677 141.422 77.2031 141.141C77.2552 141.036 77.3281 140.958 77.4219 140.906C77.5156 140.844 77.6198 140.812 77.7344 140.812C77.9115 140.812 78.0521 140.875 78.1562 141C78.2708 141.125 78.3281 141.266 78.3281 141.422C78.3281 141.484 78.3073 141.568 78.2656 141.672ZM70.4375 135.391C70.4375 136.057 70.4531 136.698 70.4844 137.312C70.5156 137.927 70.5573 138.516 70.6094 139.078C71.0469 138.234 71.4635 137.339 71.8594 136.391C72.2552 135.432 72.6042 134.469 72.9062 133.5C73.2083 132.521 73.4479 131.552 73.625 130.594C73.8125 129.625 73.9062 128.703 73.9062 127.828C73.9062 126.599 73.8073 125.719 73.6094 125.188C73.4115 124.656 73.1458 124.391 72.8125 124.391C72.5938 124.391 72.3802 124.542 72.1719 124.844C71.974 125.146 71.7865 125.557 71.6094 126.078C71.4323 126.599 71.2708 127.214 71.125 127.922C70.9792 128.63 70.8542 129.391 70.75 130.203C70.6562 131.016 70.5781 131.865 70.5156 132.75C70.4635 133.635 70.4375 134.516 70.4375 135.391ZM79.7656 133.734C79.7656 134.13 79.625 134.469 79.3438 134.75C79.0729 135.021 78.7396 135.156 78.3438 135.156C77.9479 135.156 77.6094 135.021 77.3281 134.75C77.0573 134.469 76.9219 134.13 76.9219 133.734C76.9219 133.536 76.9583 133.354 77.0312 133.188C77.1042 133.01 77.2031 132.859 77.3281 132.734C77.4635 132.599 77.6146 132.495 77.7812 132.422C77.9583 132.349 78.1458 132.312 78.3438 132.312C78.5417 132.312 78.724 132.349 78.8906 132.422C79.0677 132.495 79.2188 132.599 79.3438 132.734C79.4792 132.859 79.5833 133.01 79.6562 133.188C79.7292 133.354 79.7656 133.536 79.7656 133.734ZM77.2344 142.891C77.2344 141.391 77.3281 139.896 77.5156 138.406C77.5365 138.26 77.599 138.135 77.7031 138.031C77.8177 137.917 77.9635 137.859 78.1406 137.859C78.2969 137.859 78.4271 137.922 78.5312 138.047C78.6354 138.161 78.6875 138.297 78.6875 138.453C78.6875 138.516 78.6719 138.703 78.6406 139.016C78.6198 139.328 78.5885 139.703 78.5469 140.141C78.5156 140.568 78.4844 141.026 78.4531 141.516C78.4323 141.995 78.4219 142.438 78.4219 142.844C78.4219 143.396 78.474 143.844 78.5781 144.188C78.6927 144.521 78.8333 144.781 79 144.969C79.1771 145.156 79.3594 145.281 79.5469 145.344C79.7448 145.406 79.9323 145.438 80.1094 145.438C80.401 145.438 80.7031 145.333 81.0156 145.125C81.3281 144.917 81.6458 144.625 81.9688 144.25C82.3021 143.875 82.6354 143.427 82.9688 142.906C83.3021 142.375 83.6302 141.786 83.9531 141.141C84.0052 141.036 84.0781 140.958 84.1719 140.906C84.2656 140.844 84.3698 140.812 84.4844 140.812C84.651 140.812 84.7865 140.875 84.8906 141C85.0052 141.125 85.0625 141.26 85.0625 141.406C85.0625 141.51 85.0417 141.599 85 141.672C84.875 141.911 84.7188 142.203 84.5312 142.547C84.3438 142.891 84.1302 143.245 83.8906 143.609C83.651 143.974 83.3854 144.339 83.0938 144.703C82.8125 145.057 82.5104 145.38 82.1875 145.672C81.8646 145.953 81.526 146.182 81.1719 146.359C80.8177 146.536 80.4583 146.625 80.0938 146.625C79.625 146.625 79.2135 146.526 78.8594 146.328C78.5052 146.13 78.2031 145.865 77.9531 145.531C77.7135 145.198 77.5312 144.807 77.4062 144.359C77.2917 143.901 77.2344 143.411 77.2344 142.891ZM78.8906 133.734C78.8906 133.589 78.8333 133.464 78.7188 133.359C78.6146 133.245 78.4896 133.188 78.3438 133.188C78.1979 133.188 78.0729 133.245 77.9688 133.359C77.8646 133.464 77.8125 133.589 77.8125 133.734C77.8125 133.88 77.8646 134.005 77.9688 134.109C78.0729 134.214 78.1979 134.266 78.3438 134.266C78.4896 134.266 78.6146 134.214 78.7188 134.109C78.8333 134.005 78.8906 133.88 78.8906 133.734ZM94.1562 141.672C94.0938 141.786 93.9844 141.995 93.8281 142.297C93.6823 142.599 93.4792 142.943 93.2188 143.328C92.9688 143.703 92.6667 144.094 92.3125 144.5C91.9583 144.906 91.5521 145.281 91.0938 145.625C90.6354 145.958 90.1198 146.234 89.5469 146.453C88.9844 146.672 88.3698 146.781 87.7031 146.781C87.1094 146.781 86.5833 146.672 86.125 146.453C85.6667 146.245 85.276 145.948 84.9531 145.562C84.6302 145.167 84.3854 144.703 84.2188 144.172C84.0521 143.641 83.9688 143.052 83.9688 142.406C83.9688 141.781 84.0573 141.198 84.2344 140.656C84.4115 140.104 84.651 139.625 84.9531 139.219C85.2656 138.812 85.625 138.495 86.0312 138.266C86.4375 138.026 86.8698 137.906 87.3281 137.906C87.6719 137.906 87.9844 137.969 88.2656 138.094C88.5469 138.208 88.7812 138.365 88.9688 138.562C89.1667 138.76 89.3177 138.979 89.4219 139.219C89.5365 139.458 89.5938 139.698 89.5938 139.938C89.5938 140.167 89.5625 140.38 89.5 140.578C89.4479 140.776 89.375 140.953 89.2812 141.109C89.1979 141.255 89.099 141.375 88.9844 141.469C88.8698 141.552 88.7552 141.594 88.6406 141.594C88.4635 141.594 88.3177 141.536 88.2031 141.422C88.099 141.307 88.0469 141.167 88.0469 141C88.0469 140.917 88.0625 140.844 88.0938 140.781C88.1354 140.719 88.1771 140.656 88.2188 140.594C88.2708 140.521 88.3125 140.438 88.3438 140.344C88.3854 140.24 88.4062 140.109 88.4062 139.953C88.4062 139.734 88.3021 139.536 88.0938 139.359C87.8958 139.182 87.6406 139.094 87.3281 139.094C87.0365 139.094 86.7552 139.182 86.4844 139.359C86.224 139.536 85.9948 139.776 85.7969 140.078C85.599 140.37 85.4375 140.719 85.3125 141.125C85.1979 141.521 85.1406 141.943 85.1406 142.391C85.1406 142.818 85.1927 143.224 85.2969 143.609C85.401 143.995 85.5573 144.339 85.7656 144.641C85.974 144.932 86.2344 145.167 86.5469 145.344C86.8698 145.521 87.25 145.609 87.6875 145.609C88.25 145.609 88.7708 145.51 89.25 145.312C89.7292 145.104 90.1667 144.844 90.5625 144.531C90.9583 144.219 91.3073 143.88 91.6094 143.516C91.9115 143.141 92.1667 142.792 92.375 142.469C92.5938 142.135 92.7604 141.849 92.875 141.609C93 141.359 93.0729 141.203 93.0938 141.141C93.1354 141.036 93.2031 140.958 93.2969 140.906C93.401 140.844 93.5104 140.812 93.625 140.812C93.8021 140.812 93.9427 140.875 94.0469 141C94.1615 141.125 94.2188 141.266 94.2188 141.422C94.2188 141.484 94.1979 141.568 94.1562 141.672ZM97.0312 144.078C97.2083 144.474 97.5 144.792 97.9062 145.031C98.3125 145.26 98.7708 145.375 99.2812 145.375C99.4375 145.375 99.6927 145.354 100.047 145.312C100.401 145.26 100.807 145.104 101.266 144.844C101.734 144.573 102.229 144.151 102.75 143.578C103.271 143.005 103.776 142.198 104.266 141.156C104.318 141.042 104.391 140.958 104.484 140.906C104.578 140.844 104.682 140.812 104.797 140.812C104.974 140.812 105.115 140.875 105.219 141C105.333 141.125 105.391 141.26 105.391 141.406C105.391 141.469 105.37 141.552 105.328 141.656C104.964 142.417 104.557 143.099 104.109 143.703C103.661 144.297 103.177 144.807 102.656 145.234C102.135 145.651 101.589 145.969 101.016 146.188C100.453 146.417 99.875 146.531 99.2812 146.531C98.8125 146.531 98.3698 146.458 97.9531 146.312C97.5469 146.167 97.1927 145.974 96.8906 145.734C96.599 145.484 96.3646 145.208 96.1875 144.906C96.0208 144.594 95.9375 144.276 95.9375 143.953C95.9375 143.911 95.9427 143.854 95.9531 143.781C95.9635 143.708 95.9896 143.63 96.0312 143.547C96.0833 143.453 96.151 143.37 96.2344 143.297C96.3281 143.214 96.4531 143.146 96.6094 143.094C97.0365 142.969 97.4271 142.818 97.7812 142.641C98.1458 142.453 98.4583 142.245 98.7188 142.016C98.9792 141.786 99.1823 141.536 99.3281 141.266C99.474 140.984 99.5469 140.682 99.5469 140.359C99.5469 140.078 99.4531 139.849 99.2656 139.672C99.0781 139.495 98.849 139.406 98.5781 139.406C98.2969 139.406 98.0208 139.505 97.75 139.703C97.4792 139.891 97.2135 140.146 96.9531 140.469C96.7031 140.781 96.4635 141.146 96.2344 141.562C96.0052 141.969 95.7917 142.396 95.5938 142.844C95.4062 143.292 95.2396 143.74 95.0938 144.188C94.9479 144.625 94.8281 145.031 94.7344 145.406C94.7031 145.521 94.6667 145.646 94.625 145.781C94.5938 145.917 94.5417 146.042 94.4688 146.156C94.3958 146.281 94.3073 146.38 94.2031 146.453C94.099 146.536 93.9635 146.578 93.7969 146.578C93.6406 146.578 93.4896 146.51 93.3438 146.375C93.1979 146.25 93.125 146.031 93.125 145.719C93.125 145.656 93.125 145.417 93.125 145C93.1354 144.583 93.1458 144.042 93.1562 143.375C93.1667 142.698 93.1771 141.927 93.1875 141.062C93.2083 140.188 93.224 139.266 93.2344 138.297C93.2448 137.318 93.2604 136.312 93.2812 135.281C93.3021 134.25 93.3177 133.245 93.3281 132.266C93.3385 131.286 93.349 130.359 93.3594 129.484C93.3802 128.599 93.3958 127.818 93.4062 127.141C93.4167 126.453 93.4219 125.896 93.4219 125.469C93.4323 125.031 93.4375 124.771 93.4375 124.688C93.4375 124.521 93.5 124.385 93.625 124.281C93.75 124.167 93.8854 124.109 94.0312 124.109C94.1979 124.109 94.3385 124.167 94.4531 124.281C94.5677 124.385 94.625 124.526 94.625 124.703C94.625 124.724 94.6198 124.932 94.6094 125.328C94.6094 125.714 94.6042 126.234 94.5938 126.891C94.5833 127.547 94.5677 128.312 94.5469 129.188C94.5365 130.062 94.5208 130.995 94.5 131.984C94.4896 132.964 94.474 133.974 94.4531 135.016C94.4427 136.057 94.4271 137.073 94.4062 138.062C94.3958 139.052 94.3854 139.995 94.375 140.891C94.3646 141.786 94.3542 142.578 94.3438 143.266C94.5104 142.734 94.724 142.177 94.9844 141.594C95.2448 141 95.5521 140.453 95.9062 139.953C96.2604 139.453 96.6562 139.042 97.0938 138.719C97.5417 138.396 98.0365 138.234 98.5781 138.234C98.8802 138.234 99.1615 138.292 99.4219 138.406C99.6823 138.51 99.9062 138.661 100.094 138.859C100.292 139.047 100.443 139.271 100.547 139.531C100.661 139.792 100.719 140.073 100.719 140.375C100.719 140.844 100.615 141.276 100.406 141.672C100.198 142.057 99.9219 142.406 99.5781 142.719C99.2344 143.021 98.8385 143.286 98.3906 143.516C97.9531 143.745 97.5 143.932 97.0312 144.078ZM136.875 140.203C136.385 140.995 135.724 141.781 134.891 142.562C134.057 143.333 133.104 144.031 132.031 144.656C130.969 145.271 129.807 145.766 128.547 146.141C127.286 146.526 125.984 146.719 124.641 146.719C123.589 146.719 122.536 146.625 121.484 146.438C120.443 146.25 119.438 145.964 118.469 145.578C117.51 145.193 116.615 144.708 115.781 144.125C114.958 143.531 114.24 142.833 113.625 142.031C113.01 141.229 112.526 140.318 112.172 139.297C111.828 138.276 111.656 137.141 111.656 135.891C111.656 134.672 111.833 133.516 112.188 132.422C112.552 131.328 113.057 130.318 113.703 129.391C114.349 128.453 115.115 127.609 116 126.859C116.885 126.109 117.854 125.474 118.906 124.953C119.958 124.422 121.068 124.016 122.234 123.734C123.401 123.453 124.594 123.312 125.812 123.312C127.156 123.312 128.417 123.474 129.594 123.797C130.781 124.109 131.818 124.557 132.703 125.141C133.589 125.714 134.286 126.406 134.797 127.219C135.318 128.021 135.578 128.917 135.578 129.906C135.578 130.823 135.365 131.698 134.938 132.531C134.51 133.354 133.922 134.078 133.172 134.703C132.432 135.328 131.562 135.823 130.562 136.188C129.573 136.552 128.516 136.734 127.391 136.734C126.484 136.734 125.682 136.625 124.984 136.406C124.286 136.177 123.703 135.865 123.234 135.469C122.766 135.073 122.411 134.609 122.172 134.078C121.932 133.547 121.812 132.974 121.812 132.359C121.812 131.849 121.891 131.385 122.047 130.969C122.214 130.542 122.391 130.177 122.578 129.875C122.776 129.573 122.958 129.339 123.125 129.172C123.302 128.995 123.401 128.896 123.422 128.875C123.474 128.823 123.531 128.792 123.594 128.781C123.667 128.76 123.734 128.75 123.797 128.75C123.964 128.75 124.104 128.802 124.219 128.906C124.333 129.01 124.391 129.146 124.391 129.312C124.391 129.5 124.323 129.656 124.188 129.781C124.167 129.792 124.094 129.865 123.969 130C123.844 130.125 123.708 130.302 123.562 130.531C123.417 130.75 123.281 131.016 123.156 131.328C123.042 131.641 122.984 131.984 122.984 132.359C122.984 132.953 123.115 133.453 123.375 133.859C123.646 134.266 123.995 134.599 124.422 134.859C124.849 135.109 125.323 135.292 125.844 135.406C126.365 135.51 126.885 135.562 127.406 135.562C128.375 135.562 129.281 135.406 130.125 135.094C130.979 134.781 131.724 134.365 132.359 133.844C132.995 133.323 133.495 132.724 133.859 132.047C134.224 131.37 134.406 130.661 134.406 129.922C134.406 129.109 134.177 128.37 133.719 127.703C133.26 127.026 132.641 126.453 131.859 125.984C131.078 125.505 130.161 125.135 129.109 124.875C128.068 124.615 126.953 124.484 125.766 124.484C124.87 124.484 123.927 124.594 122.938 124.812C121.958 125.021 120.99 125.339 120.031 125.766C119.073 126.193 118.156 126.724 117.281 127.359C116.417 127.995 115.656 128.74 115 129.594C114.344 130.438 113.818 131.385 113.422 132.438C113.036 133.49 112.844 134.641 112.844 135.891C112.844 137.026 113 138.052 113.312 138.969C113.635 139.885 114.078 140.703 114.641 141.422C115.203 142.13 115.859 142.745 116.609 143.266C117.37 143.786 118.182 144.219 119.047 144.562C119.922 144.896 120.833 145.146 121.781 145.312C122.729 145.469 123.672 145.547 124.609 145.547C125.859 145.547 127.062 145.375 128.219 145.031C129.375 144.677 130.443 144.219 131.422 143.656C132.411 143.083 133.286 142.443 134.047 141.734C134.807 141.026 135.411 140.312 135.859 139.594C135.911 139.5 135.984 139.432 136.078 139.391C136.172 139.339 136.271 139.312 136.375 139.312C136.552 139.312 136.693 139.375 136.797 139.5C136.901 139.615 136.953 139.745 136.953 139.891C136.953 139.943 136.948 139.995 136.938 140.047C136.927 140.099 136.906 140.151 136.875 140.203ZM150.578 141.641C150.536 141.724 150.448 141.901 150.312 142.172C150.188 142.432 150.021 142.734 149.812 143.078C149.615 143.422 149.38 143.781 149.109 144.156C148.839 144.531 148.536 144.875 148.203 145.188C147.87 145.5 147.51 145.76 147.125 145.969C146.74 146.167 146.333 146.266 145.906 146.266C145.302 146.266 144.792 146.073 144.375 145.688C143.969 145.302 143.672 144.818 143.484 144.234C143.13 144.828 142.708 145.302 142.219 145.656C141.729 146 141.24 146.172 140.75 146.172C140.365 146.172 140.016 146.104 139.703 145.969C139.391 145.823 139.125 145.625 138.906 145.375C138.688 145.115 138.516 144.812 138.391 144.469C138.276 144.125 138.219 143.75 138.219 143.344C138.219 142.531 138.354 141.818 138.625 141.203C138.906 140.578 139.26 140.057 139.688 139.641C140.115 139.224 140.583 138.911 141.094 138.703C141.615 138.495 142.115 138.391 142.594 138.391C142.917 138.391 143.214 138.438 143.484 138.531C143.755 138.615 143.984 138.708 144.172 138.812C144.37 138.917 144.521 139.016 144.625 139.109C144.729 139.193 144.786 139.24 144.797 139.25C144.911 139.385 144.969 139.526 144.969 139.672C144.969 139.828 144.911 139.969 144.797 140.094C144.682 140.208 144.547 140.266 144.391 140.266C144.224 140.266 144.083 140.208 143.969 140.094C143.948 140.073 143.901 140.036 143.828 139.984C143.755 139.922 143.656 139.859 143.531 139.797C143.406 139.734 143.255 139.682 143.078 139.641C142.911 139.589 142.719 139.562 142.5 139.562C142.177 139.562 141.833 139.635 141.469 139.781C141.104 139.927 140.771 140.156 140.469 140.469C140.167 140.771 139.911 141.156 139.703 141.625C139.505 142.083 139.406 142.63 139.406 143.266C139.406 143.464 139.427 143.667 139.469 143.875C139.51 144.073 139.583 144.255 139.688 144.422C139.792 144.589 139.932 144.724 140.109 144.828C140.286 144.932 140.505 144.984 140.766 144.984C140.953 144.984 141.167 144.922 141.406 144.797C141.656 144.672 141.891 144.479 142.109 144.219C142.339 143.958 142.542 143.63 142.719 143.234C142.906 142.839 143.036 142.37 143.109 141.828C143.13 141.682 143.198 141.562 143.312 141.469C143.427 141.365 143.562 141.312 143.719 141.312C143.865 141.312 143.99 141.37 144.094 141.484C144.208 141.599 144.271 141.729 144.281 141.875C144.292 142.073 144.312 142.354 144.344 142.719C144.375 143.073 144.443 143.427 144.547 143.781C144.661 144.135 144.828 144.443 145.047 144.703C145.266 144.964 145.568 145.094 145.953 145.094C146.203 145.094 146.448 145.026 146.688 144.891C146.938 144.755 147.177 144.578 147.406 144.359C147.646 144.13 147.87 143.875 148.078 143.594C148.297 143.302 148.495 143.01 148.672 142.719C148.849 142.427 149.005 142.146 149.141 141.875C149.276 141.604 149.391 141.37 149.484 141.172C149.536 141.057 149.609 140.969 149.703 140.906C149.807 140.844 149.917 140.812 150.031 140.812C150.208 140.812 150.349 140.88 150.453 141.016C150.568 141.141 150.625 141.276 150.625 141.422C150.625 141.495 150.609 141.568 150.578 141.641ZM151.141 139.578C151.099 139.859 151.047 140.125 150.984 140.375C150.922 140.615 150.859 140.828 150.797 141.016C150.745 141.193 150.698 141.339 150.656 141.453C150.615 141.568 150.589 141.63 150.578 141.641C150.474 141.88 150.292 142 150.031 142C149.885 142 149.75 141.948 149.625 141.844C149.5 141.729 149.438 141.589 149.438 141.422C149.438 141.359 149.448 141.312 149.469 141.281C149.49 141.25 149.521 141.188 149.562 141.094C149.604 141 149.656 140.844 149.719 140.625C149.781 140.406 149.859 140.068 149.953 139.609C149.776 139.609 149.594 139.604 149.406 139.594C149.219 139.583 149.047 139.547 148.891 139.484C148.724 139.422 148.589 139.323 148.484 139.188C148.38 139.052 148.328 138.865 148.328 138.625C148.328 138.448 148.38 138.208 148.484 137.906C148.578 137.604 148.708 137.307 148.875 137.016C149.042 136.724 149.229 136.474 149.438 136.266C149.646 136.047 149.854 135.938 150.062 135.938C150.302 135.938 150.495 136.026 150.641 136.203C150.797 136.38 150.917 136.599 151 136.859C151.083 137.109 151.141 137.375 151.172 137.656C151.214 137.938 151.234 138.182 151.234 138.391C151.411 138.391 151.583 138.391 151.75 138.391C151.927 138.38 152.094 138.375 152.25 138.375C152.844 138.375 153.297 138.505 153.609 138.766C153.922 139.026 154.078 139.453 154.078 140.047C154.078 140.286 154.062 140.536 154.031 140.797C154 141.057 153.964 141.328 153.922 141.609C153.88 141.88 153.844 142.151 153.812 142.422C153.781 142.693 153.766 142.958 153.766 143.219C153.766 143.594 153.818 143.906 153.922 144.156C154.026 144.396 154.156 144.589 154.312 144.734C154.469 144.88 154.635 144.984 154.812 145.047C154.99 145.099 155.151 145.125 155.297 145.125C155.745 145.125 156.167 144.979 156.562 144.688C156.958 144.396 157.323 144.047 157.656 143.641C157.99 143.224 158.286 142.786 158.547 142.328C158.818 141.87 159.042 141.469 159.219 141.125C159.271 141.031 159.344 140.958 159.438 140.906C159.531 140.854 159.63 140.828 159.734 140.828C159.922 140.828 160.068 140.891 160.172 141.016C160.276 141.13 160.328 141.26 160.328 141.406C160.328 141.51 160.307 141.604 160.266 141.688C160.026 142.115 159.745 142.599 159.422 143.141C159.109 143.672 158.75 144.172 158.344 144.641C157.938 145.109 157.479 145.505 156.969 145.828C156.469 146.151 155.917 146.312 155.312 146.312C154.938 146.312 154.583 146.24 154.25 146.094C153.917 145.958 153.625 145.76 153.375 145.5C153.135 145.229 152.943 144.901 152.797 144.516C152.651 144.12 152.578 143.677 152.578 143.188C152.578 142.667 152.63 142.151 152.734 141.641C152.839 141.12 152.891 140.625 152.891 140.156C152.891 139.958 152.844 139.812 152.75 139.719C152.667 139.615 152.474 139.562 152.172 139.562C152.026 139.562 151.865 139.562 151.688 139.562C151.521 139.562 151.339 139.568 151.141 139.578ZM150.094 138.422C150.094 138.349 150.089 138.255 150.078 138.141C150.078 138.016 150.068 137.896 150.047 137.781C150.036 137.667 150.016 137.568 149.984 137.484C149.964 137.401 149.938 137.359 149.906 137.359C149.875 137.359 149.833 137.401 149.781 137.484C149.74 137.557 149.693 137.651 149.641 137.766C149.589 137.87 149.542 137.984 149.5 138.109C149.458 138.234 149.427 138.339 149.406 138.422H150.094ZM166.422 144.281C166.161 144.281 165.932 144.26 165.734 144.219C165.578 144.531 165.391 144.823 165.172 145.094C164.953 145.354 164.698 145.583 164.406 145.781C164.125 145.979 163.807 146.135 163.453 146.25C163.099 146.365 162.714 146.422 162.297 146.422C161.807 146.422 161.359 146.333 160.953 146.156C160.547 145.99 160.193 145.755 159.891 145.453C159.589 145.141 159.354 144.771 159.188 144.344C159.021 143.906 158.938 143.427 158.938 142.906C158.938 142.24 159.057 141.661 159.297 141.172C159.536 140.672 159.812 140.26 160.125 139.938C160.438 139.604 160.75 139.359 161.062 139.203C161.375 139.036 161.609 138.953 161.766 138.953C161.943 138.953 162.073 139 162.156 139.094C162.25 139.188 162.297 139.312 162.297 139.469C162.297 139.646 162.24 139.781 162.125 139.875C162.021 139.958 161.885 140.042 161.719 140.125C161.552 140.208 161.375 140.328 161.188 140.484C161 140.63 160.823 140.818 160.656 141.047C160.5 141.276 160.37 141.547 160.266 141.859C160.161 142.172 160.109 142.521 160.109 142.906C160.109 143.25 160.161 143.573 160.266 143.875C160.37 144.167 160.521 144.422 160.719 144.641C160.917 144.849 161.151 145.016 161.422 145.141C161.693 145.255 161.995 145.312 162.328 145.312C162.922 145.312 163.411 145.177 163.797 144.906C164.193 144.625 164.495 144.271 164.703 143.844C164.089 143.521 163.583 143.062 163.188 142.469C162.792 141.875 162.594 141.208 162.594 140.469C162.594 139.875 162.734 139.391 163.016 139.016C163.307 138.641 163.688 138.453 164.156 138.453C164.438 138.453 164.703 138.521 164.953 138.656C165.203 138.792 165.422 139.005 165.609 139.297C165.807 139.589 165.964 139.964 166.078 140.422C166.193 140.88 166.25 141.427 166.25 142.062C166.25 142.396 166.208 142.745 166.125 143.109C166.188 143.12 166.25 143.125 166.312 143.125C166.375 143.125 166.443 143.125 166.516 143.125C166.87 143.125 167.188 143.083 167.469 143C167.75 142.917 168.005 142.792 168.234 142.625C168.464 142.458 168.667 142.245 168.844 141.984C169.031 141.724 169.208 141.422 169.375 141.078C169.406 141.016 169.474 140.958 169.578 140.906C169.682 140.844 169.786 140.812 169.891 140.812C170.026 140.812 170.151 140.87 170.266 140.984C170.391 141.089 170.453 141.229 170.453 141.406C170.453 141.49 170.432 141.583 170.391 141.688C170.349 141.781 170.307 141.87 170.266 141.953C170.089 142.266 169.88 142.568 169.641 142.859C169.411 143.141 169.135 143.391 168.812 143.609C168.5 143.818 168.146 143.984 167.75 144.109C167.354 144.234 166.911 144.292 166.422 144.281ZM163.75 140.344C163.75 140.542 163.776 140.75 163.828 140.969C163.88 141.188 163.958 141.406 164.062 141.625C164.177 141.833 164.312 142.036 164.469 142.234C164.635 142.422 164.828 142.583 165.047 142.719C165.078 142.5 165.094 142.286 165.094 142.078C165.094 141.797 165.073 141.51 165.031 141.219C164.99 140.927 164.927 140.661 164.844 140.422C164.771 140.172 164.677 139.974 164.562 139.828C164.448 139.672 164.312 139.594 164.156 139.594C164.094 139.594 164.01 139.641 163.906 139.734C163.802 139.828 163.75 140.031 163.75 140.344ZM174.531 144.25C174.167 144.844 173.74 145.312 173.25 145.656C172.771 146 172.286 146.172 171.797 146.172C171.401 146.172 171.047 146.099 170.734 145.953C170.422 145.807 170.151 145.604 169.922 145.344C169.693 145.073 169.516 144.75 169.391 144.375C169.276 144 169.219 143.578 169.219 143.109C169.219 142.38 169.286 141.734 169.422 141.172C169.568 140.609 169.724 140.141 169.891 139.766C170.057 139.38 170.214 139.089 170.359 138.891C170.505 138.693 170.578 138.594 170.578 138.594C170.63 138.531 170.693 138.484 170.766 138.453C170.849 138.422 170.932 138.406 171.016 138.406C171.182 138.406 171.318 138.469 171.422 138.594C171.536 138.708 171.594 138.844 171.594 139C171.594 139.062 171.578 139.125 171.547 139.188C171.526 139.25 171.5 139.312 171.469 139.375C171.417 139.469 171.333 139.615 171.219 139.812C171.104 140 170.984 140.25 170.859 140.562C170.734 140.875 170.625 141.245 170.531 141.672C170.438 142.089 170.391 142.568 170.391 143.109C170.391 143.724 170.51 144.193 170.75 144.516C171 144.828 171.349 144.984 171.797 144.984C171.984 144.984 172.198 144.927 172.438 144.812C172.688 144.688 172.927 144.5 173.156 144.25C173.396 144 173.604 143.682 173.781 143.297C173.958 142.911 174.073 142.458 174.125 141.938L174.359 139.25C174.38 139.094 174.448 138.964 174.562 138.859C174.677 138.755 174.812 138.703 174.969 138.703C175.146 138.703 175.286 138.771 175.391 138.906C175.495 139.031 175.547 139.177 175.547 139.344L175.344 141.938C175.323 142.156 175.328 142.443 175.359 142.797C175.401 143.151 175.479 143.5 175.594 143.844C175.708 144.188 175.88 144.484 176.109 144.734C176.339 144.974 176.641 145.094 177.016 145.094C177.286 145.094 177.552 145.026 177.812 144.891C178.073 144.745 178.323 144.557 178.562 144.328C178.802 144.099 179.021 143.844 179.219 143.562C179.427 143.271 179.615 142.979 179.781 142.688C179.958 142.396 180.109 142.12 180.234 141.859C180.359 141.589 180.464 141.359 180.547 141.172C180.599 141.057 180.672 140.969 180.766 140.906C180.859 140.844 180.964 140.812 181.078 140.812C181.266 140.812 181.411 140.875 181.516 141C181.62 141.125 181.672 141.26 181.672 141.406C181.672 141.49 181.656 141.568 181.625 141.641C181.583 141.724 181.5 141.901 181.375 142.172C181.26 142.432 181.104 142.734 180.906 143.078C180.719 143.411 180.49 143.766 180.219 144.141C179.948 144.516 179.646 144.865 179.312 145.188C178.979 145.5 178.615 145.76 178.219 145.969C177.833 146.167 177.417 146.266 176.969 146.266C176.354 146.266 175.844 146.094 175.438 145.75C175.031 145.396 174.729 144.896 174.531 144.25ZM182.297 140.219C182.234 140.385 182.156 140.573 182.062 140.781C181.979 140.99 181.88 141.208 181.766 141.438C181.672 141.615 181.573 141.755 181.469 141.859C181.375 141.953 181.25 142 181.094 142C180.917 142 180.776 141.948 180.672 141.844C180.568 141.729 180.516 141.599 180.516 141.453C180.516 141.401 180.521 141.359 180.531 141.328C180.542 141.286 180.568 141.224 180.609 141.141C180.88 140.62 181.078 140.167 181.203 139.781C181.339 139.385 181.448 138.974 181.531 138.547C181.458 138.307 181.406 138.104 181.375 137.938C181.344 137.771 181.328 137.599 181.328 137.422C181.328 137.078 181.401 136.802 181.547 136.594C181.693 136.375 181.896 136.266 182.156 136.266C182.396 136.266 182.583 136.37 182.719 136.578C182.865 136.786 182.938 137.042 182.938 137.344C182.938 137.51 182.922 137.677 182.891 137.844C182.859 138.01 182.818 138.219 182.766 138.469C183.005 139.062 183.245 139.589 183.484 140.047C183.724 140.505 183.938 140.927 184.125 141.312C184.312 141.688 184.464 142.042 184.578 142.375C184.703 142.708 184.766 143.042 184.766 143.375C184.766 143.812 184.677 144.229 184.5 144.625C184.323 145.021 184.031 145.354 183.625 145.625C183.677 145.635 183.729 145.641 183.781 145.641C183.833 145.641 183.885 145.641 183.938 145.641C184.531 145.641 185.078 145.505 185.578 145.234C186.078 144.964 186.526 144.615 186.922 144.188C187.328 143.75 187.688 143.271 188 142.75C188.312 142.219 188.583 141.693 188.812 141.172C188.917 140.932 189.062 140.812 189.25 140.812C189.427 140.812 189.562 140.875 189.656 141C189.76 141.125 189.812 141.26 189.812 141.406C189.812 141.49 189.797 141.568 189.766 141.641C189.651 141.922 189.5 142.245 189.312 142.609C189.135 142.964 188.917 143.333 188.656 143.719C188.406 144.094 188.115 144.464 187.781 144.828C187.448 145.193 187.073 145.521 186.656 145.812C186.25 146.094 185.802 146.318 185.312 146.484C184.823 146.661 184.286 146.75 183.703 146.75C183.005 146.75 182.354 146.625 181.75 146.375C181.156 146.135 180.672 145.734 180.297 145.172C180.234 145.078 180.203 144.979 180.203 144.875C180.203 144.719 180.26 144.583 180.375 144.469C180.5 144.344 180.641 144.281 180.797 144.281C180.964 144.281 181.104 144.339 181.219 144.453C181.229 144.474 181.266 144.51 181.328 144.562C181.391 144.604 181.464 144.656 181.547 144.719C181.641 144.771 181.745 144.818 181.859 144.859C181.984 144.901 182.109 144.922 182.234 144.922C182.484 144.922 182.693 144.87 182.859 144.766C183.036 144.661 183.177 144.536 183.281 144.391C183.385 144.234 183.458 144.073 183.5 143.906C183.552 143.729 183.578 143.578 183.578 143.453C183.578 143.193 183.536 142.932 183.453 142.672C183.37 142.411 183.26 142.151 183.125 141.891C183 141.63 182.859 141.365 182.703 141.094C182.557 140.812 182.422 140.521 182.297 140.219ZM190.562 144.281C190.781 144.583 191.062 144.828 191.406 145.016C191.75 145.193 192.172 145.281 192.672 145.281C193.182 145.281 193.646 145.161 194.062 144.922C194.479 144.672 194.859 144.349 195.203 143.953C195.547 143.557 195.854 143.115 196.125 142.625C196.396 142.135 196.641 141.646 196.859 141.156C196.911 141.042 196.984 140.958 197.078 140.906C197.172 140.844 197.276 140.812 197.391 140.812C197.568 140.812 197.708 140.875 197.812 141C197.927 141.125 197.984 141.26 197.984 141.406C197.984 141.458 197.979 141.505 197.969 141.547C197.958 141.578 197.943 141.615 197.922 141.656C197.203 143.24 196.417 144.432 195.562 145.234C194.719 146.036 193.76 146.448 192.688 146.469C192 146.469 191.406 146.333 190.906 146.062C190.406 145.802 189.995 145.464 189.672 145.047C189.349 144.62 189.109 144.141 188.953 143.609C188.797 143.078 188.719 142.547 188.719 142.016C188.719 141.484 188.781 140.995 188.906 140.547C189.042 140.099 189.229 139.708 189.469 139.375C189.719 139.042 190.01 138.781 190.344 138.594C190.688 138.406 191.062 138.312 191.469 138.312C191.708 138.312 191.943 138.365 192.172 138.469C192.411 138.562 192.625 138.703 192.812 138.891C193 139.068 193.151 139.286 193.266 139.547C193.38 139.807 193.438 140.104 193.438 140.438C193.438 140.865 193.365 141.266 193.219 141.641C193.073 142.016 192.87 142.365 192.609 142.688C192.359 143.01 192.057 143.307 191.703 143.578C191.349 143.849 190.969 144.083 190.562 144.281ZM190.094 143.266C190.417 143.13 190.708 142.958 190.969 142.75C191.24 142.542 191.469 142.312 191.656 142.062C191.844 141.812 191.99 141.552 192.094 141.281C192.198 141 192.25 140.719 192.25 140.438C192.25 140.125 192.172 139.891 192.016 139.734C191.859 139.568 191.677 139.484 191.469 139.484C191.188 139.484 190.948 139.562 190.75 139.719C190.552 139.875 190.391 140.078 190.266 140.328C190.141 140.578 190.047 140.859 189.984 141.172C189.932 141.474 189.906 141.776 189.906 142.078C189.906 142.266 189.922 142.464 189.953 142.672C189.995 142.88 190.042 143.078 190.094 143.266ZM205.766 141.672C205.651 141.911 205.505 142.198 205.328 142.531C205.161 142.854 204.969 143.193 204.75 143.547C204.531 143.901 204.286 144.255 204.016 144.609C203.745 144.953 203.448 145.266 203.125 145.547C202.812 145.818 202.474 146.036 202.109 146.203C201.755 146.38 201.375 146.469 200.969 146.469C200.344 146.469 199.807 146.276 199.359 145.891C198.911 145.505 198.531 145 198.219 144.375C197.906 143.75 197.651 143.042 197.453 142.25C197.266 141.448 197.12 140.635 197.016 139.812C196.911 138.979 196.839 138.172 196.797 137.391C196.766 136.609 196.75 135.917 196.75 135.312C196.75 134.438 196.776 133.531 196.828 132.594C196.891 131.656 196.984 130.74 197.109 129.844C197.234 128.948 197.391 128.099 197.578 127.297C197.776 126.495 198.005 125.792 198.266 125.188C198.536 124.583 198.844 124.104 199.188 123.75C199.531 123.396 199.922 123.219 200.359 123.219C200.703 123.219 201.01 123.302 201.281 123.469C201.562 123.625 201.797 123.885 201.984 124.25C202.172 124.615 202.318 125.089 202.422 125.672C202.526 126.255 202.578 126.969 202.578 127.812C202.578 128.854 202.469 129.932 202.25 131.047C202.031 132.151 201.734 133.266 201.359 134.391C200.984 135.516 200.542 136.641 200.031 137.766C199.521 138.88 198.974 139.969 198.391 141.031C198.651 142.354 199 143.396 199.438 144.156C199.875 144.906 200.401 145.281 201.016 145.281C201.432 145.281 201.833 145.12 202.219 144.797C202.604 144.464 202.958 144.073 203.281 143.625C203.604 143.177 203.885 142.724 204.125 142.266C204.375 141.797 204.568 141.422 204.703 141.141C204.755 141.036 204.828 140.958 204.922 140.906C205.016 140.844 205.12 140.812 205.234 140.812C205.411 140.812 205.552 140.875 205.656 141C205.771 141.125 205.828 141.266 205.828 141.422C205.828 141.484 205.807 141.568 205.766 141.672ZM197.938 135.391C197.938 136.057 197.953 136.698 197.984 137.312C198.016 137.927 198.057 138.516 198.109 139.078C198.547 138.234 198.964 137.339 199.359 136.391C199.755 135.432 200.104 134.469 200.406 133.5C200.708 132.521 200.948 131.552 201.125 130.594C201.312 129.625 201.406 128.703 201.406 127.828C201.406 126.599 201.307 125.719 201.109 125.188C200.911 124.656 200.646 124.391 200.312 124.391C200.094 124.391 199.88 124.542 199.672 124.844C199.474 125.146 199.286 125.557 199.109 126.078C198.932 126.599 198.771 127.214 198.625 127.922C198.479 128.63 198.354 129.391 198.25 130.203C198.156 131.016 198.078 131.865 198.016 132.75C197.964 133.635 197.938 134.516 197.938 135.391Z" fill="#34793C"/>
</svg>
