<svg width="358" height="228" viewBox="0 0 358 228" fill="none" xmlns="http://www.w3.org/2000/svg">
<mask id="mask0_3_4025" style="mask-type:luminance" maskUnits="userSpaceOnUse" x="0" y="0" width="358" height="228">
<path d="M0 9.64031C119.274 43.0353 238.55 -23.7547 357.825 9.64031C357.825 79.2123 357.825 148.785 357.825 218.357C238.551 184.962 119.275 251.752 0 218.357C0 148.785 0 79.2123 0 9.64031Z" fill="white"/>
</mask>
<g mask="url(#mask0_3_4025)">
<path d="M0 148.805C119.274 182.2 238.55 115.41 357.825 148.805C357.825 125.61 357.825 102.414 357.825 79.2193C238.551 45.8243 119.275 112.614 0 79.2193C0 102.413 0 125.609 0 148.805Z" fill="white"/>
</g>
<mask id="mask1_3_4025" style="mask-type:luminance" maskUnits="userSpaceOnUse" x="0" y="0" width="358" height="228">
<path d="M0 9.64031C119.274 43.0353 238.55 -23.7547 357.825 9.64031C357.825 79.2123 357.825 148.785 357.825 218.357C238.551 184.962 119.275 251.752 0 218.357C0 148.785 0 79.2123 0 9.64031Z" fill="white"/>
</mask>
<g mask="url(#mask1_3_4025)">
<path d="M0 79.2183C119.274 112.613 238.55 45.8233 357.825 79.2183C357.825 56.0253 357.825 32.8323 357.825 9.63931C238.551 -23.7557 119.275 43.0343 0 9.63931C0 32.8323 0 56.0253 0 79.2183Z" fill="#7DA5D7"/>
</g>
<mask id="mask2_3_4025" style="mask-type:luminance" maskUnits="userSpaceOnUse" x="0" y="0" width="358" height="228">
<path d="M0 9.64031C119.274 43.0353 238.55 -23.7547 357.825 9.64031C357.825 79.2123 357.825 148.785 357.825 218.357C238.551 184.962 119.275 251.752 0 218.357C0 148.785 0 79.2123 0 9.64031Z" fill="white"/>
</mask>
<g mask="url(#mask2_3_4025)">
<path d="M0 218.357C119.274 251.752 238.55 184.962 357.825 218.357C357.825 195.173 357.825 171.989 357.825 148.805C238.551 115.41 119.275 182.2 0 148.805C0 171.989 0 195.173 0 218.357Z" fill="#7DA5D7"/>
</g>
<mask id="mask3_3_4025" style="mask-type:luminance" maskUnits="userSpaceOnUse" x="0" y="0" width="358" height="228">
<path d="M0 9.64031C119.274 43.0353 238.55 -23.7547 357.825 9.64031C357.825 79.2123 357.825 148.785 357.825 218.357C238.551 184.962 119.275 251.752 0 218.357C0 148.785 0 79.2123 0 9.64031Z" fill="white"/>
</mask>
<g mask="url(#mask3_3_4025)">
<mask id="mask4_3_4025" style="mask-type:luminance" maskUnits="userSpaceOnUse" x="0" y="0" width="358" height="228">
<path d="M0 9.64031C119.274 43.0353 238.55 -23.7547 357.825 9.64031C357.825 79.2123 357.825 148.785 357.825 218.357C238.551 184.962 119.275 251.752 0 218.357C0 148.785 0 79.2123 0 9.64031Z" fill="white"/>
</mask>
<g mask="url(#mask4_3_4025)">
<path d="M177.497 114.163C177.854 123.609 178.213 133.055 178.57 142.501C178.57 142.501 178.57 143.043 178.93 142.992C179.255 142.947 179.255 142.405 179.255 142.405C179.616 132.858 179.977 123.311 180.337 113.764C179.391 113.898 178.445 114.031 177.497 114.163Z" fill="#F0BC50"/>
</g>
<mask id="mask5_3_4025" style="mask-type:luminance" maskUnits="userSpaceOnUse" x="0" y="0" width="358" height="228">
<path d="M0 9.64031C119.274 43.0353 238.55 -23.7547 357.825 9.64031C357.825 79.2123 357.825 148.785 357.825 218.357C238.551 184.962 119.275 251.752 0 218.357C0 148.785 0 79.2123 0 9.64031Z" fill="white"/>
</mask>
<g mask="url(#mask5_3_4025)">
<path d="M178.931 143.072C178.572 143.122 178.501 142.71 178.499 142.512C178.136 133.075 177.772 123.638 177.409 114.202C177.473 114.184 177.538 114.166 177.602 114.149C177.942 123.598 178.282 133.046 178.622 142.495C178.622 142.495 178.62 142.931 178.931 142.888C179.186 142.852 179.187 142.416 179.187 142.416C179.544 132.87 179.902 123.323 180.258 113.777C179.968 123.314 179.678 132.851 179.388 142.388C179.388 142.586 179.257 143.027 178.931 143.072Z" fill="#7C381D"/>
</g>
<mask id="mask6_3_4025" style="mask-type:luminance" maskUnits="userSpaceOnUse" x="0" y="0" width="358" height="228">
<path d="M0 9.64031C119.274 43.0353 238.55 -23.7547 357.825 9.64031C357.825 79.2123 357.825 148.785 357.825 218.357C238.551 184.962 119.275 251.752 0 218.357C0 148.785 0 79.2123 0 9.64031Z" fill="white"/>
</mask>
<g mask="url(#mask6_3_4025)">
<path d="M178.218 114.062C178.455 120.551 178.694 127.04 178.931 133.528C179.157 126.974 179.383 120.421 179.609 113.867C179.146 113.932 178.681 113.997 178.218 114.062Z" fill="#7C381D"/>
</g>
<mask id="mask7_3_4025" style="mask-type:luminance" maskUnits="userSpaceOnUse" x="0" y="0" width="358" height="228">
<path d="M0 9.64031C119.274 43.0353 238.55 -23.7547 357.825 9.64031C357.825 79.2123 357.825 148.785 357.825 218.357C238.551 184.962 119.275 251.752 0 218.357C0 148.785 0 79.2123 0 9.64031Z" fill="white"/>
</mask>
<g mask="url(#mask7_3_4025)">
<path d="M176.23 123.558C174.615 127.372 175.966 130.104 174.392 133.451C172.729 136.814 173.736 139.252 173.662 140.69C173.521 142.144 172.396 142.71 172.66 143.003C172.975 143.284 174.206 142.47 174.656 140.49C175.132 138.502 174.012 137.58 175.931 133.473C177.9 129.358 176.372 127.835 178.341 124.142C177.637 123.948 176.934 123.753 176.23 123.558Z" fill="#F0BC50"/>
</g>
<mask id="mask8_3_4025" style="mask-type:luminance" maskUnits="userSpaceOnUse" x="0" y="0" width="358" height="228">
<path d="M0 9.64031C119.274 43.0353 238.55 -23.7547 357.825 9.64031C357.825 79.2123 357.825 148.785 357.825 218.357C238.551 184.962 119.275 251.752 0 218.357C0 148.785 0 79.2123 0 9.64031Z" fill="white"/>
</mask>
<g mask="url(#mask8_3_4025)">
<path d="M172.976 143.117C172.843 143.1 172.712 143.084 172.58 143.067C172.424 142.878 172.58 142.658 172.801 142.403C173.081 142.047 173.514 141.516 173.522 140.702C173.576 140.298 173.523 139.857 173.469 139.315C173.302 137.878 173.081 135.908 174.305 133.438C175.106 131.747 175.131 130.274 175.211 128.684C175.238 127.115 175.334 125.457 176.179 123.539C176.229 123.554 176.279 123.569 176.328 123.584C175.509 125.47 175.432 127.101 175.394 128.684C175.333 130.258 175.235 131.807 174.472 133.466C173.259 135.896 173.511 137.875 173.661 139.287C173.714 139.829 173.734 140.276 173.732 140.68C173.661 141.548 173.22 142.106 172.922 142.491C172.729 142.755 172.66 142.845 172.729 142.94C173.416 142.739 174.232 141.938 174.602 140.47C174.735 139.819 174.734 139.264 174.708 138.678C174.609 137.495 174.604 136.169 175.895 133.437C176.863 131.397 176.967 130.015 177.047 128.688C177.128 127.296 177.259 125.976 178.252 124.1C177.41 126.008 177.319 127.309 177.215 128.665C177.127 130.006 177.006 131.453 176.054 133.48C174.787 136.182 174.824 137.492 174.84 138.646C174.893 139.259 174.893 139.809 174.735 140.503C174.391 141.941 173.616 142.867 173.028 143.107C173.011 143.112 172.993 143.115 172.976 143.117Z" fill="#7C381D"/>
</g>
<mask id="mask9_3_4025" style="mask-type:luminance" maskUnits="userSpaceOnUse" x="0" y="0" width="358" height="228">
<path d="M0 9.64031C119.274 43.0353 238.55 -23.7547 357.825 9.64031C357.825 79.2123 357.825 148.785 357.825 218.357C238.551 184.962 119.275 251.752 0 218.357C0 148.785 0 79.2123 0 9.64031Z" fill="white"/>
</mask>
<g mask="url(#mask9_3_4025)">
<path d="M176.723 124.396C175.431 128.152 176.759 130.306 175.051 133.597C176.943 131.151 175.704 128.536 177.321 124.616C177.121 124.542 176.922 124.469 176.723 124.396Z" fill="#7C381D"/>
</g>
<mask id="mask10_3_4025" style="mask-type:luminance" maskUnits="userSpaceOnUse" x="0" y="0" width="358" height="228">
<path d="M0 9.64031C119.274 43.0353 238.55 -23.7547 357.825 9.64031C357.825 79.2123 357.825 148.785 357.825 218.357C238.551 184.962 119.275 251.752 0 218.357C0 148.785 0 79.2123 0 9.64031Z" fill="white"/>
</mask>
<g mask="url(#mask10_3_4025)">
<path d="M180.338 113.766C179.978 104.342 179.616 94.9183 179.256 85.4953C179.256 85.4953 179.255 84.9673 178.931 85.0133C178.57 85.0633 178.571 85.5913 178.571 85.5913C178.213 95.1153 177.855 104.64 177.498 114.165C178.444 114.031 179.391 113.898 180.338 113.766Z" fill="#F0BC50"/>
</g>
<mask id="mask11_3_4025" style="mask-type:luminance" maskUnits="userSpaceOnUse" x="0" y="0" width="358" height="228">
<path d="M0 9.64031C119.274 43.0353 238.55 -23.7547 357.825 9.64031C357.825 79.2123 357.825 148.785 357.825 218.357C238.551 184.962 119.275 251.752 0 218.357C0 148.785 0 79.2123 0 9.64031Z" fill="white"/>
</mask>
<g mask="url(#mask11_3_4025)">
<path d="M180.258 113.803C179.902 104.37 179.544 94.9373 179.187 85.5043C179.187 85.5043 179.185 85.0553 178.931 85.0913C178.622 85.1343 178.622 85.5823 178.622 85.5823C178.282 95.1133 177.942 104.644 177.602 114.175C177.901 104.65 178.2 95.1253 178.498 85.6003C178.498 85.3623 178.57 84.9433 178.93 84.8933C179.258 84.8483 179.387 85.2383 179.387 85.4763C179.747 94.9003 180.109 104.324 180.469 113.748C180.4 113.766 180.328 113.785 180.258 113.803V113.803Z" fill="#7C381D"/>
</g>
<mask id="mask12_3_4025" style="mask-type:luminance" maskUnits="userSpaceOnUse" x="0" y="0" width="358" height="228">
<path d="M0 9.64031C119.274 43.0353 238.55 -23.7547 357.825 9.64031C357.825 79.2123 357.825 148.785 357.825 218.357C238.551 184.962 119.275 251.752 0 218.357C0 148.785 0 79.2123 0 9.64031Z" fill="white"/>
</mask>
<g mask="url(#mask12_3_4025)">
<path d="M179.609 113.868C179.383 107.401 179.157 100.934 178.931 94.4673C178.694 100.999 178.455 107.53 178.218 114.062C178.681 113.997 179.146 113.932 179.609 113.868Z" fill="#7C381D"/>
</g>
<mask id="mask13_3_4025" style="mask-type:luminance" maskUnits="userSpaceOnUse" x="0" y="0" width="358" height="228">
<path d="M0 9.64031C119.274 43.0353 238.55 -23.7547 357.825 9.64031C357.825 79.2123 357.825 148.785 357.825 218.357C238.551 184.962 119.275 251.752 0 218.357C0 148.785 0 79.2123 0 9.64031Z" fill="white"/>
</mask>
<g mask="url(#mask13_3_4025)">
<path d="M181.613 104.413C183.233 100.62 181.831 97.8873 183.461 94.5273C185.131 91.1673 184.096 88.7353 184.182 87.3023C184.307 85.8513 185.494 85.2763 185.177 84.9823C184.91 84.7023 183.672 85.5303 183.18 87.4953C182.704 89.4533 183.865 90.3943 181.887 94.5103C179.928 98.6233 181.507 100.113 179.538 103.832C180.229 104.026 180.921 104.22 181.613 104.413Z" fill="#F0BC50"/>
</g>
<mask id="mask14_3_4025" style="mask-type:luminance" maskUnits="userSpaceOnUse" x="0" y="0" width="358" height="228">
<path d="M0 9.64031C119.274 43.0353 238.55 -23.7547 357.825 9.64031C357.825 79.2123 357.825 148.785 357.825 218.357C238.551 184.962 119.275 251.752 0 218.357C0 148.785 0 79.2123 0 9.64031Z" fill="white"/>
</mask>
<g mask="url(#mask14_3_4025)">
<path d="M181.7 104.436C181.647 104.423 181.595 104.41 181.542 104.396C182.334 102.521 182.388 100.896 182.466 99.3243C182.52 97.7113 182.601 96.1873 183.408 94.4953C184.539 92.0773 184.356 90.1593 184.18 88.7093C184.179 88.1683 184.092 87.6843 184.136 87.3083C184.18 86.4093 184.637 85.8563 184.91 85.4893C185.132 85.1953 185.174 85.1093 185.13 85.0533C184.435 85.1863 183.637 86.0103 183.283 87.4923C183.099 88.1733 183.133 88.7223 183.178 89.2803C183.212 90.4853 183.284 91.7893 181.963 94.5373C181.006 96.5673 180.89 97.9643 180.803 99.3183C180.699 100.7 180.612 101.988 179.608 103.848C180.431 101.947 180.531 100.671 180.61 99.3183C180.714 97.9633 180.803 96.5563 181.806 94.4673C183.098 91.8153 183.044 90.4813 182.967 89.3093C182.966 88.7463 182.933 88.1573 183.098 87.5053C183.459 85.9023 184.325 85.0603 184.815 84.8863C184.829 84.8803 184.844 84.8733 184.858 84.8673C184.991 84.8883 185.122 84.9093 185.254 84.9303C185.436 85.0903 185.255 85.3213 185.042 85.5753C184.804 85.9253 184.32 86.4673 184.304 87.2843C184.252 87.6873 184.303 88.1503 184.356 88.6713C184.514 90.1353 184.754 92.0853 183.547 94.5543C182.729 96.2073 182.701 97.7113 182.633 99.3003C182.6 100.88 182.521 102.523 181.7 104.436Z" fill="#7C381D"/>
</g>
<mask id="mask15_3_4025" style="mask-type:luminance" maskUnits="userSpaceOnUse" x="0" y="0" width="358" height="228">
<path d="M0 9.64031C119.274 43.0353 238.55 -23.7547 357.825 9.64031C357.825 79.2123 357.825 148.785 357.825 218.357C238.551 184.962 119.275 251.752 0 218.357C0 148.785 0 79.2123 0 9.64031Z" fill="white"/>
</mask>
<g mask="url(#mask15_3_4025)">
<path d="M181.156 103.567C182.466 99.8343 181.07 97.6503 182.827 94.3793C180.928 96.8303 182.142 99.4443 180.506 103.345C180.722 103.42 180.939 103.494 181.156 103.567Z" fill="#7C381D"/>
</g>
<mask id="mask16_3_4025" style="mask-type:luminance" maskUnits="userSpaceOnUse" x="0" y="0" width="358" height="228">
<path d="M0 9.64031C119.274 43.0353 238.55 -23.7547 357.825 9.64031C357.825 79.2123 357.825 148.785 357.825 218.357C238.551 184.962 119.275 251.752 0 218.357C0 148.785 0 79.2123 0 9.64031Z" fill="white"/>
</mask>
<g mask="url(#mask16_3_4025)">
<path d="M178.931 112.569C169.444 114.247 159.955 115.926 150.468 117.504C150.468 117.504 149.913 117.575 149.913 117.919C149.913 118.315 150.468 118.243 150.468 118.243C159.955 117.366 169.444 116.388 178.931 115.41C178.931 114.463 178.931 113.516 178.931 112.569Z" fill="#F0BC50"/>
</g>
<mask id="mask17_3_4025" style="mask-type:luminance" maskUnits="userSpaceOnUse" x="0" y="0" width="358" height="228">
<path d="M0 9.64031C119.274 43.0353 238.55 -23.7547 357.825 9.64031C357.825 79.2123 357.825 148.785 357.825 218.357C238.551 184.962 119.275 251.752 0 218.357C0 148.785 0 79.2123 0 9.64031Z" fill="white"/>
</mask>
<g mask="url(#mask17_3_4025)">
<path d="M178.94 115.329C169.449 116.356 159.96 117.382 150.468 118.308C150.28 118.332 149.862 118.308 149.861 117.925C149.861 117.608 150.283 117.452 150.468 117.428C159.955 115.845 169.444 114.16 178.931 112.475C178.934 112.532 178.937 112.588 178.94 112.645C169.449 114.333 159.96 116.021 150.468 117.608C150.47 117.608 149.999 117.669 150.001 117.906C150 118.196 150.468 118.135 150.468 118.135C159.958 117.268 169.449 116.299 178.94 115.329Z" fill="#7C381D"/>
</g>
<mask id="mask18_3_4025" style="mask-type:luminance" maskUnits="userSpaceOnUse" x="0" y="0" width="358" height="228">
<path d="M0 9.64031C119.274 43.0353 238.55 -23.7547 357.825 9.64031C357.825 79.2123 357.825 148.785 357.825 218.357C238.551 184.962 119.275 251.752 0 218.357C0 148.785 0 79.2123 0 9.64031Z" fill="white"/>
</mask>
<g mask="url(#mask18_3_4025)">
<path d="M178.931 113.268C172.419 114.411 165.908 115.555 159.395 116.665C165.908 116.032 172.418 115.367 178.931 114.702C178.931 114.224 178.931 113.745 178.931 113.268Z" fill="#7C381D"/>
</g>
<mask id="mask19_3_4025" style="mask-type:luminance" maskUnits="userSpaceOnUse" x="0" y="0" width="358" height="228">
<path d="M0 9.64031C119.274 43.0353 238.55 -23.7547 357.825 9.64031C357.825 79.2123 357.825 148.785 357.825 218.357C238.551 184.962 119.275 251.752 0 218.357C0 148.785 0 79.2123 0 9.64031Z" fill="white"/>
</mask>
<g mask="url(#mask19_3_4025)">
<path d="M169.722 112.592C166.168 111.432 163.213 113.228 160.117 112.033C156.96 110.842 154.401 112.192 152.939 112.278C151.515 112.346 151.127 111.213 150.776 111.575C150.468 111.905 151.127 113.031 153.01 113.272C154.936 113.502 156.019 112.23 159.853 113.662C163.689 115.139 165.428 113.319 168.876 114.817C169.158 114.075 169.44 113.333 169.722 112.592Z" fill="#F0BC50"/>
</g>
<mask id="mask20_3_4025" style="mask-type:luminance" maskUnits="userSpaceOnUse" x="0" y="0" width="358" height="228">
<path d="M0 9.64031C119.274 43.0353 238.55 -23.7547 357.825 9.64031C357.825 79.2123 357.825 148.785 357.825 218.357C238.551 184.962 119.275 251.752 0 218.357C0 148.785 0 79.2123 0 9.64031Z" fill="white"/>
</mask>
<g mask="url(#mask20_3_4025)">
<path d="M168.912 114.705C167.117 114.163 165.808 114.237 164.497 114.303C163.143 114.397 161.743 114.483 159.817 113.741C157.318 112.803 155.999 113.022 154.83 113.225C154.212 113.36 153.679 113.431 153.01 113.365C151.586 113.182 150.777 112.508 150.653 111.961C150.641 111.94 150.63 111.92 150.618 111.899C150.653 111.767 150.688 111.635 150.723 111.503C150.978 111.286 151.184 111.444 151.4 111.627C151.674 111.882 152.173 112.234 152.993 112.179C153.308 112.164 153.838 112.042 154.33 111.915C155.809 111.575 157.859 111.064 160.17 111.935C161.719 112.539 163.195 112.416 164.771 112.239C166.347 112.063 167.929 111.923 169.766 112.482C169.751 112.545 169.738 112.609 169.723 112.672C167.902 112.111 166.31 112.279 164.771 112.411C163.143 112.581 161.639 112.761 160.065 112.134C157.815 111.256 155.807 111.73 154.383 112.089C153.838 112.227 153.362 112.329 152.94 112.345C152.077 112.405 151.586 112.025 151.287 111.773C151.04 111.62 150.935 111.555 150.865 111.643C150.936 112.32 151.588 113.01 153.063 113.186C153.679 113.25 154.213 113.166 154.832 113.071C156.004 112.864 157.353 112.618 159.89 113.577C161.798 114.304 163.198 114.204 164.499 114.132C165.851 114.051 167.163 113.958 168.912 114.705Z" fill="#7C381D"/>
</g>
<mask id="mask21_3_4025" style="mask-type:luminance" maskUnits="userSpaceOnUse" x="0" y="0" width="358" height="228">
<path d="M0 9.64031C119.274 43.0353 238.55 -23.7547 357.825 9.64031C357.825 79.2123 357.825 148.785 357.825 218.357C238.551 184.962 119.275 251.752 0 218.357C0 148.785 0 79.2123 0 9.64031Z" fill="white"/>
</mask>
<g mask="url(#mask21_3_4025)">
<path d="M168.825 113.152C165.272 112.395 162.912 114.047 159.853 112.763C162.009 114.367 164.849 112.718 168.517 113.863C168.619 113.626 168.722 113.389 168.825 113.152Z" fill="#7C381D"/>
</g>
<mask id="mask22_3_4025" style="mask-type:luminance" maskUnits="userSpaceOnUse" x="0" y="0" width="358" height="228">
<path d="M0 9.64031C119.274 43.0353 238.55 -23.7547 357.825 9.64031C357.825 79.2123 357.825 148.785 357.825 218.357C238.551 184.962 119.275 251.752 0 218.357C0 148.785 0 79.2123 0 9.64031Z" fill="white"/>
</mask>
<g mask="url(#mask22_3_4025)">
<path d="M178.931 115.41C188.418 113.731 197.906 112.053 207.393 110.476C207.393 110.476 207.921 110.408 207.921 110.012C207.922 109.668 207.393 109.737 207.393 109.737C197.906 110.614 188.418 111.591 178.931 112.57C178.931 113.516 178.931 114.462 178.931 115.41Z" fill="#F0BC50"/>
</g>
<mask id="mask23_3_4025" style="mask-type:luminance" maskUnits="userSpaceOnUse" x="0" y="0" width="358" height="228">
<path d="M0 9.64031C119.274 43.0353 238.55 -23.7547 357.825 9.64031C357.825 79.2123 357.825 148.785 357.825 218.357C238.551 184.962 119.275 251.752 0 218.357C0 148.785 0 79.2123 0 9.64031Z" fill="white"/>
</mask>
<g mask="url(#mask23_3_4025)">
<path d="M178.94 115.514C178.937 115.453 178.934 115.392 178.931 115.331C188.418 113.643 197.906 111.956 207.393 110.37C207.393 110.37 207.843 110.312 207.842 110.022C207.842 109.784 207.393 109.842 207.393 109.842C197.906 110.71 188.418 111.679 178.931 112.648C188.418 111.619 197.906 110.59 207.393 109.662C207.58 109.638 207.976 109.688 207.974 110.005C207.974 110.388 207.578 110.518 207.393 110.542C197.908 112.131 188.424 113.822 178.94 115.514Z" fill="#7C381D"/>
</g>
<mask id="mask24_3_4025" style="mask-type:luminance" maskUnits="userSpaceOnUse" x="0" y="0" width="358" height="228">
<path d="M0 9.64031C119.274 43.0353 238.55 -23.7547 357.825 9.64031C357.825 79.2123 357.825 148.785 357.825 218.357C238.551 184.962 119.275 251.752 0 218.357C0 148.785 0 79.2123 0 9.64031Z" fill="white"/>
</mask>
<g mask="url(#mask24_3_4025)">
<path d="M178.931 114.702C185.437 113.545 191.943 112.388 198.449 111.264C191.943 111.91 185.437 112.59 178.931 113.269C178.931 113.746 178.931 114.224 178.931 114.702Z" fill="#7C381D"/>
</g>
<mask id="mask25_3_4025" style="mask-type:luminance" maskUnits="userSpaceOnUse" x="0" y="0" width="358" height="228">
<path d="M0 9.64031C119.274 43.0353 238.55 -23.7547 357.825 9.64031C357.825 79.2123 357.825 148.785 357.825 218.357C238.551 184.962 119.275 251.752 0 218.357C0 148.785 0 79.2123 0 9.64031Z" fill="white"/>
</mask>
<g mask="url(#mask25_3_4025)">
<path d="M188.122 115.389C191.726 116.52 194.641 114.725 197.77 115.947C200.874 117.167 203.444 115.777 204.895 115.718C206.309 115.638 206.717 116.769 207.049 116.409C207.393 116.074 206.714 114.925 204.816 114.703C202.925 114.477 201.792 115.782 198.007 114.322C194.136 112.872 192.406 114.69 189.018 113.176C188.72 113.913 188.421 114.651 188.122 115.389Z" fill="#F0BC50"/>
</g>
<mask id="mask26_3_4025" style="mask-type:luminance" maskUnits="userSpaceOnUse" x="0" y="0" width="358" height="228">
<path d="M0 9.64031C119.274 43.0353 238.55 -23.7547 357.825 9.64031C357.825 79.2123 357.825 148.785 357.825 218.357C238.551 184.962 119.275 251.752 0 218.357C0 148.785 0 79.2123 0 9.64031Z" fill="white"/>
</mask>
<g mask="url(#mask26_3_4025)">
<path d="M206.937 116.568C206.786 116.588 206.627 116.489 206.47 116.351C206.154 116.115 205.712 115.768 204.896 115.822C204.5 115.821 204.042 115.934 203.498 116.085C202.004 116.441 200.031 116.915 197.728 116.012C196.155 115.412 194.693 115.558 193.091 115.725C191.517 115.889 189.881 116.048 188.07 115.474C188.093 115.418 188.117 115.362 188.14 115.306C189.916 115.872 191.518 115.704 193.091 115.554C194.695 115.4 196.198 115.248 197.823 115.845C200.055 116.726 202.028 116.252 203.443 115.907C204.041 115.775 204.499 115.636 204.895 115.636C205.749 115.577 206.249 115.947 206.575 116.191C206.856 116.379 206.936 116.395 206.971 116.364C206.938 115.687 206.248 114.984 204.817 114.806C204.167 114.734 203.637 114.804 203.041 114.908C201.836 115.148 200.532 115.372 197.956 114.406C196.048 113.688 194.693 113.773 193.383 113.86C192.009 113.93 190.73 114.027 188.967 113.246C190.738 113.841 192.011 113.745 193.383 113.675C194.695 113.601 196.093 113.528 198.044 114.249C200.532 115.187 201.833 114.962 203.041 114.723C203.637 114.631 204.186 114.533 204.852 114.617C206.356 114.803 207.081 115.563 207.21 116.029C207.211 116.047 207.211 116.064 207.21 116.081C207.166 116.214 207.123 116.348 207.078 116.481C207.048 116.54 207.023 116.557 206.937 116.568Z" fill="#7C381D"/>
</g>
<mask id="mask27_3_4025" style="mask-type:luminance" maskUnits="userSpaceOnUse" x="0" y="0" width="358" height="228">
<path d="M0 9.64031C119.274 43.0353 238.55 -23.7547 357.825 9.64031C357.825 79.2123 357.825 148.785 357.825 218.357C238.551 184.962 119.275 251.752 0 218.357C0 148.785 0 79.2123 0 9.64031Z" fill="white"/>
</mask>
<g mask="url(#mask27_3_4025)">
<path d="M189.019 114.816C192.59 115.609 194.956 113.943 198.008 115.215C195.835 113.631 193.02 115.264 189.344 114.116C189.236 114.349 189.127 114.582 189.019 114.816Z" fill="#7C381D"/>
</g>
<mask id="mask28_3_4025" style="mask-type:luminance" maskUnits="userSpaceOnUse" x="0" y="0" width="358" height="228">
<path d="M0 9.64031C119.274 43.0353 238.55 -23.7547 357.825 9.64031C357.825 79.2123 357.825 148.785 357.825 218.357C238.551 184.962 119.275 251.752 0 218.357C0 148.785 0 79.2123 0 9.64031Z" fill="white"/>
</mask>
<g mask="url(#mask28_3_4025)">
<path d="M177.902 113.121C171.446 120.988 164.989 128.853 158.533 136.685C158.53 136.685 158.199 137.1 158.429 137.332C158.676 137.537 159.045 137.104 159.045 137.104C166.005 129.709 172.965 122.277 179.925 114.847C179.249 114.273 178.576 113.697 177.902 113.121Z" fill="#F0BC50"/>
</g>
<mask id="mask29_3_4025" style="mask-type:luminance" maskUnits="userSpaceOnUse" x="0" y="0" width="358" height="228">
<path d="M0 9.64031C119.274 43.0353 238.55 -23.7547 357.825 9.64031C357.825 79.2123 357.825 148.785 357.825 218.357C238.551 184.962 119.275 251.752 0 218.357C0 148.785 0 79.2123 0 9.64031Z" fill="white"/>
</mask>
<g mask="url(#mask29_3_4025)">
<path d="M158.622 137.492C158.11 137.191 158.357 136.788 158.48 136.614C164.933 128.791 171.385 120.935 177.838 113.077C177.891 113.109 177.944 113.141 177.997 113.173C171.539 121.036 165.08 128.898 158.621 136.726C158.583 136.731 158.311 137.084 158.479 137.247C158.673 137.432 159.007 137.044 159.007 137.044C165.967 129.654 172.927 122.226 179.887 114.8C172.962 122.265 166.037 129.732 159.113 137.161C159.113 137.161 158.894 137.429 158.622 137.492Z" fill="#7C381D"/>
</g>
<mask id="mask30_3_4025" style="mask-type:luminance" maskUnits="userSpaceOnUse" x="0" y="0" width="358" height="228">
<path d="M0 9.64031C119.274 43.0353 238.55 -23.7547 357.825 9.64031C357.825 79.2123 357.825 148.785 357.825 218.357C238.551 184.962 119.275 251.752 0 218.357C0 148.785 0 79.2123 0 9.64031Z" fill="white"/>
</mask>
<g mask="url(#mask30_3_4025)">
<path d="M178.403 113.553C173.973 118.945 169.544 124.336 165.114 129.717C169.889 124.626 174.665 119.523 179.441 114.42C179.095 114.13 178.749 113.842 178.403 113.553Z" fill="#7C381D"/>
</g>
<mask id="mask31_3_4025" style="mask-type:luminance" maskUnits="userSpaceOnUse" x="0" y="0" width="358" height="228">
<path d="M0 9.64031C119.274 43.0353 238.55 -23.7547 357.825 9.64031C357.825 79.2123 357.825 148.785 357.825 218.357C238.551 184.962 119.275 251.752 0 218.357C0 148.785 0 79.2123 0 9.64031Z" fill="white"/>
</mask>
<g mask="url(#mask31_3_4025)">
<path d="M170.513 119.765C166.8 121.647 165.711 124.877 162.421 126.378C159.009 127.907 157.937 130.56 156.853 131.655C155.772 132.746 154.648 132.341 154.611 132.794C154.611 133.225 155.911 133.462 157.619 132.209C159.274 131.001 159.22 129.419 163.318 127.544C167.479 125.645 167.556 123.306 171.393 121.775C171.099 121.105 170.807 120.435 170.513 119.765Z" fill="#F0BC50"/>
</g>
<mask id="mask32_3_4025" style="mask-type:luminance" maskUnits="userSpaceOnUse" x="0" y="0" width="358" height="228">
<path d="M0 9.64031C119.274 43.0353 238.55 -23.7547 357.825 9.64031C357.825 79.2123 357.825 148.785 357.825 218.357C238.551 184.962 119.275 251.752 0 218.357C0 148.785 0 79.2123 0 9.64031Z" fill="white"/>
</mask>
<g mask="url(#mask32_3_4025)">
<path d="M155.561 133.217C155.227 133.261 154.936 133.225 154.751 133.144C154.672 133.031 154.593 132.919 154.514 132.806C154.513 132.515 154.785 132.48 155.103 132.424C155.507 132.331 156.14 132.194 156.775 131.599C157.091 131.319 157.355 130.914 157.645 130.467C158.584 129.184 159.852 127.414 162.377 126.278C164.041 125.528 165.141 124.374 166.274 123.153C167.425 121.903 168.629 120.633 170.503 119.704C170.518 119.753 170.532 119.803 170.547 119.852C168.735 120.777 167.558 122.044 166.397 123.255C165.217 124.521 164.133 125.687 162.42 126.443C159.984 127.549 158.69 129.302 157.811 130.55C157.461 131.019 157.18 131.426 156.897 131.697C156.229 132.367 155.558 132.508 155.102 132.609C154.831 132.645 154.68 132.678 154.68 132.784C155.277 133.154 156.299 133.066 157.538 132.165C158.107 131.746 158.478 131.278 158.892 130.801C159.665 129.829 160.6 128.702 163.316 127.451C165.349 126.531 166.397 125.462 167.398 124.484C168.418 123.45 169.403 122.461 171.391 121.67C169.508 122.613 168.56 123.563 167.521 124.599C166.517 125.604 165.481 126.658 163.369 127.615C160.703 128.846 159.818 129.941 159.008 130.904C158.621 131.391 158.216 131.863 157.644 132.283C156.853 132.865 156.14 133.14 155.561 133.217Z" fill="#7C381D"/>
</g>
<mask id="mask33_3_4025" style="mask-type:luminance" maskUnits="userSpaceOnUse" x="0" y="0" width="358" height="228">
<path d="M0 9.64031C119.274 43.0353 238.55 -23.7547 357.825 9.64031C357.825 79.2123 357.825 148.785 357.825 218.357C238.551 184.962 119.275 251.752 0 218.357C0 148.785 0 79.2123 0 9.64031Z" fill="white"/>
</mask>
<g mask="url(#mask33_3_4025)">
<path d="M170.187 120.787C166.767 122.862 166.028 125.581 162.72 126.984C165.587 126.394 166.66 123.379 170.451 121.432C170.363 121.217 170.275 121.001 170.187 120.787Z" fill="#7C381D"/>
</g>
<mask id="mask34_3_4025" style="mask-type:luminance" maskUnits="userSpaceOnUse" x="0" y="0" width="358" height="228">
<path d="M0 9.64031C119.274 43.0353 238.55 -23.7547 357.825 9.64031C357.825 79.2123 357.825 148.785 357.825 218.357C238.551 184.962 119.275 251.752 0 218.357C0 148.785 0 79.2123 0 9.64031Z" fill="white"/>
</mask>
<g mask="url(#mask34_3_4025)">
<path d="M179.924 114.849C186.38 106.995 192.836 99.1433 199.292 91.3243C199.292 91.3243 199.662 90.8793 199.434 90.6453C199.168 90.4483 198.8 90.8503 198.8 90.8503C191.834 98.2493 184.867 105.686 177.902 113.122C178.575 113.697 179.249 114.273 179.924 114.849Z" fill="#F0BC50"/>
</g>
<mask id="mask35_3_4025" style="mask-type:luminance" maskUnits="userSpaceOnUse" x="0" y="0" width="358" height="228">
<path d="M0 9.64031C119.274 43.0353 238.55 -23.7547 357.825 9.64031C357.825 79.2123 357.825 148.785 357.825 218.357C238.551 184.962 119.275 251.752 0 218.357C0 148.785 0 79.2123 0 9.64031Z" fill="white"/>
</mask>
<g mask="url(#mask35_3_4025)">
<path d="M179.995 114.891C179.96 114.87 179.925 114.848 179.889 114.827C186.345 106.96 192.802 99.0953 199.258 91.2633C199.258 91.2633 199.53 90.8963 199.345 90.7373C199.169 90.5803 198.853 90.9083 198.853 90.9083C191.884 98.3083 184.915 105.745 177.946 113.181C184.881 105.706 191.813 98.2293 198.748 90.7903C198.855 90.6483 199.26 90.3833 199.477 90.5913C199.716 90.8193 199.476 91.1943 199.345 91.3693C192.896 99.1873 186.446 107.038 179.995 114.891Z" fill="#7C381D"/>
</g>
<mask id="mask36_3_4025" style="mask-type:luminance" maskUnits="userSpaceOnUse" x="0" y="0" width="358" height="228">
<path d="M0 9.64031C119.274 43.0353 238.55 -23.7547 357.825 9.64031C357.825 79.2123 357.825 148.785 357.825 218.357C238.551 184.962 119.275 251.752 0 218.357C0 148.785 0 79.2123 0 9.64031Z" fill="white"/>
</mask>
<g mask="url(#mask36_3_4025)">
<path d="M179.441 114.419C183.878 109.029 188.313 103.64 192.749 98.2613C187.967 103.35 183.186 108.451 178.403 113.552C178.749 113.842 179.094 114.13 179.441 114.419Z" fill="#7C381D"/>
</g>
<mask id="mask37_3_4025" style="mask-type:luminance" maskUnits="userSpaceOnUse" x="0" y="0" width="358" height="228">
<path d="M0 9.64031C119.274 43.0353 238.55 -23.7547 357.825 9.64031C357.825 79.2123 357.825 148.785 357.825 218.357C238.551 184.962 119.275 251.752 0 218.357C0 148.785 0 79.2123 0 9.64031Z" fill="white"/>
</mask>
<g mask="url(#mask37_3_4025)">
<path d="M187.349 108.213C191.008 106.338 192.091 103.109 195.458 101.598C198.817 100.089 199.942 97.3893 201.033 96.3103C202.106 95.2343 203.234 95.6353 203.233 95.1863C203.267 94.7373 201.947 94.5153 200.26 95.7673C198.543 97.0013 198.588 98.5673 194.507 100.452C190.406 102.343 190.276 104.689 186.485 106.257C186.774 106.909 187.061 107.561 187.349 108.213Z" fill="#F0BC50"/>
</g>
<mask id="mask38_3_4025" style="mask-type:luminance" maskUnits="userSpaceOnUse" x="0" y="0" width="358" height="228">
<path d="M0 9.64031C119.274 43.0353 238.55 -23.7547 357.825 9.64031C357.825 79.2123 357.825 148.785 357.825 218.357C238.551 184.962 119.275 251.752 0 218.357C0 148.785 0 79.2123 0 9.64031Z" fill="white"/>
</mask>
<g mask="url(#mask38_3_4025)">
<path d="M187.349 108.292C187.334 108.241 187.319 108.19 187.304 108.14C189.133 107.212 190.28 105.937 191.447 104.724C192.59 103.475 193.717 102.283 195.459 101.517C197.852 100.443 199.125 98.7193 200.032 97.4553C200.376 96.9603 200.665 96.5563 200.982 96.2503C201.619 95.6113 202.291 95.4693 202.723 95.3853C203.041 95.3173 203.147 95.2893 203.145 95.2893C202.611 94.8233 201.559 94.9103 200.296 95.8273C199.75 96.2303 199.344 96.7073 198.976 97.1743C198.165 98.1683 197.234 99.2783 194.525 100.553C192.485 101.479 191.449 102.489 190.427 103.496C189.381 104.538 188.422 105.537 186.486 106.317C188.342 105.39 189.318 104.415 190.322 103.379C191.324 102.375 192.407 101.332 194.509 100.384C197.161 99.1293 198.045 98.0383 198.819 97.0903C199.26 96.5863 199.628 96.1143 200.217 95.6793C201.457 94.7653 202.557 94.6193 203.085 94.8403C203.167 94.9603 203.248 95.0793 203.33 95.1993C203.289 95.4423 203.041 95.5013 202.724 95.5703C202.338 95.6343 201.687 95.7603 201.106 96.3653C200.79 96.6713 200.532 97.0443 200.165 97.5293C199.256 98.8213 197.958 100.588 195.513 101.668C193.806 102.429 192.722 103.616 191.536 104.843C190.41 106.064 189.195 107.349 187.349 108.292Z" fill="#7C381D"/>
</g>
<mask id="mask39_3_4025" style="mask-type:luminance" maskUnits="userSpaceOnUse" x="0" y="0" width="358" height="228">
<path d="M0 9.64031C119.274 43.0353 238.55 -23.7547 357.825 9.64031C357.825 79.2123 357.825 148.785 357.825 218.357C238.551 184.962 119.275 251.752 0 218.357C0 148.785 0 79.2123 0 9.64031Z" fill="white"/>
</mask>
<g mask="url(#mask39_3_4025)">
<path d="M187.648 107.2C191.093 105.09 191.825 102.386 195.141 101.012C192.3 101.586 191.164 104.604 187.418 106.545C187.495 106.764 187.572 106.981 187.648 107.2Z" fill="#7C381D"/>
</g>
<mask id="mask40_3_4025" style="mask-type:luminance" maskUnits="userSpaceOnUse" x="0" y="0" width="358" height="228">
<path d="M0 9.64031C119.274 43.0353 238.55 -23.7547 357.825 9.64031C357.825 79.2123 357.825 148.785 357.825 218.357C238.551 184.962 119.275 251.752 0 218.357C0 148.785 0 79.2123 0 9.64031Z" fill="white"/>
</mask>
<g mask="url(#mask40_3_4025)">
<path d="M179.924 112.838C172.964 107.352 166.004 101.868 159.044 96.3463C159.046 96.3463 158.673 96.0443 158.428 96.3103C158.199 96.6043 158.532 96.9563 158.532 96.9563C164.988 103.038 171.445 109.086 177.901 115.132C178.575 114.367 179.249 113.603 179.924 112.838Z" fill="#F0BC50"/>
</g>
<mask id="mask41_3_4025" style="mask-type:luminance" maskUnits="userSpaceOnUse" x="0" y="0" width="358" height="228">
<path d="M0 9.64031C119.274 43.0353 238.55 -23.7547 357.825 9.64031C357.825 79.2123 357.825 148.785 357.825 218.357C238.551 184.962 119.275 251.752 0 218.357C0 148.785 0 79.2123 0 9.64031Z" fill="white"/>
</mask>
<g mask="url(#mask41_3_4025)">
<path d="M177.998 115.091C171.492 109.078 164.986 103.064 158.48 97.0153C158.358 96.8733 158.111 96.5633 158.392 96.2663C158.619 95.9973 158.992 96.1593 159.114 96.2703C166.075 101.792 173.035 107.276 179.995 112.762C179.96 112.811 179.925 112.86 179.889 112.908C172.929 107.426 165.969 101.946 159.009 96.4293C159.009 96.4293 158.673 96.1753 158.481 96.3813C158.315 96.5893 158.585 96.8683 158.623 96.8633C165.081 102.963 171.539 109.028 177.998 115.091Z" fill="#7C381D"/>
</g>
<mask id="mask42_3_4025" style="mask-type:luminance" maskUnits="userSpaceOnUse" x="0" y="0" width="358" height="228">
<path d="M0 9.64031C119.274 43.0353 238.55 -23.7547 357.825 9.64031C357.825 79.2123 357.825 148.785 357.825 218.357C238.551 184.962 119.275 251.752 0 218.357C0 148.785 0 79.2123 0 9.64031Z" fill="white"/>
</mask>
<g mask="url(#mask42_3_4025)">
<path d="M179.441 113.408C174.666 109.645 169.89 105.883 165.114 102.108C169.544 106.268 173.973 110.417 178.403 114.565C178.749 114.179 179.094 113.793 179.441 113.408Z" fill="#7C381D"/>
</g>
<mask id="mask43_3_4025" style="mask-type:luminance" maskUnits="userSpaceOnUse" x="0" y="0" width="358" height="228">
<path d="M0 9.64031C119.274 43.0353 238.55 -23.7547 357.825 9.64031C357.825 79.2123 357.825 148.785 357.825 218.357C238.551 184.962 119.275 251.752 0 218.357C0 148.785 0 79.2123 0 9.64031Z" fill="white"/>
</mask>
<g mask="url(#mask43_3_4025)">
<path d="M174.304 106.25C172.976 102.728 169.916 102.09 168.825 98.8723C167.797 95.6243 165.269 94.9083 164.304 93.9363C163.371 92.9873 163.915 91.7823 163.459 91.8183C163.019 91.8523 162.642 93.2413 163.6 94.7933C164.638 96.3363 166.221 96.0783 167.558 99.9973C168.874 103.9 171.18 103.712 172.219 107.406C172.913 107.021 173.609 106.636 174.304 106.25Z" fill="#F0BC50"/>
</g>
<mask id="mask44_3_4025" style="mask-type:luminance" maskUnits="userSpaceOnUse" x="0" y="0" width="358" height="228">
<path d="M0 9.64031C119.274 43.0353 238.55 -23.7547 357.825 9.64031C357.825 79.2123 357.825 148.785 357.825 218.357C238.551 184.962 119.275 251.752 0 218.357C0 148.785 0 79.2123 0 9.64031Z" fill="white"/>
</mask>
<g mask="url(#mask44_3_4025)">
<path d="M172.307 107.355C171.605 105.589 170.804 104.737 169.914 103.822C169.017 102.936 168.135 101.98 167.478 100.048C166.589 97.4623 165.622 96.7113 164.769 96.0413C164.305 95.7093 163.879 95.3893 163.529 94.8443C162.771 93.6063 162.825 92.4823 163.097 92.0223C163.229 91.9183 163.361 91.8133 163.493 91.7093C163.722 91.7043 163.776 91.9703 163.775 92.2733C163.811 92.6903 163.844 93.3153 164.347 93.8523C164.604 94.1213 164.989 94.3673 165.428 94.6493C166.589 95.4093 168.138 96.4303 168.911 98.8213C169.449 100.43 170.451 101.369 171.533 102.375C172.579 103.386 173.713 104.437 174.417 106.181C174.355 106.212 174.294 106.243 174.232 106.273C173.576 104.562 172.47 103.506 171.391 102.513C170.3 101.495 169.289 100.532 168.735 98.8843C167.979 96.5833 166.428 95.5623 165.304 94.7983C164.899 94.4973 164.493 94.2543 164.214 94.0023C163.685 93.4153 163.631 92.7403 163.598 92.3233C163.564 92.0113 163.562 91.8933 163.457 91.8983C163.017 92.5083 162.956 93.5413 163.686 94.7433C164.037 95.2633 164.452 95.5443 164.9 95.9053C165.71 96.5863 166.739 97.3623 167.635 99.9473C168.243 101.886 169.181 102.807 170.019 103.716C170.908 104.62 171.763 105.474 172.307 107.355Z" fill="#7C381D"/>
</g>
<mask id="mask45_3_4025" style="mask-type:luminance" maskUnits="userSpaceOnUse" x="0" y="0" width="358" height="228">
<path d="M0 9.64031C119.274 43.0353 238.55 -23.7547 357.825 9.64031C357.825 79.2123 357.825 148.785 357.825 218.357C238.551 184.962 119.275 251.752 0 218.357C0 148.785 0 79.2123 0 9.64031Z" fill="white"/>
</mask>
<g mask="url(#mask45_3_4025)">
<path d="M173.398 106.033C171.727 102.849 169.098 102.489 168.156 99.2823C168.367 102.108 171.269 102.808 172.66 106.387C172.906 106.269 173.152 106.151 173.398 106.033Z" fill="#7C381D"/>
</g>
<mask id="mask46_3_4025" style="mask-type:luminance" maskUnits="userSpaceOnUse" x="0" y="0" width="358" height="228">
<path d="M0 9.64031C119.274 43.0353 238.55 -23.7547 357.825 9.64031C357.825 79.2123 357.825 148.785 357.825 218.357C238.551 184.962 119.275 251.752 0 218.357C0 148.785 0 79.2123 0 9.64031Z" fill="white"/>
</mask>
<g mask="url(#mask46_3_4025)">
<path d="M177.902 115.132C184.868 120.613 191.835 126.092 198.8 131.609C198.8 131.609 199.169 131.942 199.434 131.668C199.66 131.374 199.292 131.054 199.292 131.054C192.836 124.959 186.38 118.898 179.924 112.839C179.249 113.603 178.576 114.367 177.902 115.132Z" fill="#F0BC50"/>
</g>
<mask id="mask47_3_4025" style="mask-type:luminance" maskUnits="userSpaceOnUse" x="0" y="0" width="358" height="228">
<path d="M0 9.64031C119.274 43.0353 238.55 -23.7547 357.825 9.64031C357.825 79.2123 357.825 148.785 357.825 218.357C238.551 184.962 119.275 251.752 0 218.357C0 148.785 0 79.2123 0 9.64031Z" fill="white"/>
</mask>
<g mask="url(#mask47_3_4025)">
<path d="M199.222 131.776C198.907 131.819 198.747 131.681 198.747 131.681C191.777 126.169 184.809 120.695 177.839 115.219C177.874 115.17 177.91 115.121 177.945 115.072C184.915 120.548 191.883 126.023 198.852 131.535C198.852 131.535 199.166 131.835 199.344 131.6C199.53 131.391 199.254 131.111 199.257 131.111C192.801 125.021 186.344 118.964 179.888 112.909C186.373 118.916 192.859 124.925 199.344 130.968C199.53 131.128 199.713 131.446 199.476 131.702C199.398 131.752 199.335 131.761 199.222 131.776Z" fill="#7C381D"/>
</g>
<mask id="mask48_3_4025" style="mask-type:luminance" maskUnits="userSpaceOnUse" x="0" y="0" width="358" height="228">
<path d="M0 9.64031C119.274 43.0353 238.55 -23.7547 357.825 9.64031C357.825 79.2123 357.825 148.785 357.825 218.357C238.551 184.962 119.275 251.752 0 218.357C0 148.785 0 79.2123 0 9.64031Z" fill="white"/>
</mask>
<g mask="url(#mask48_3_4025)">
<path d="M178.403 114.564C183.185 118.329 187.966 122.094 192.749 125.871C188.313 121.709 183.877 117.558 179.441 113.408C179.095 113.793 178.749 114.179 178.403 114.564Z" fill="#7C381D"/>
</g>
<mask id="mask49_3_4025" style="mask-type:luminance" maskUnits="userSpaceOnUse" x="0" y="0" width="358" height="228">
<path d="M0 9.64031C119.274 43.0353 238.55 -23.7547 357.825 9.64031C357.825 79.2123 357.825 148.785 357.825 218.357C238.551 184.962 119.275 251.752 0 218.357C0 148.785 0 79.2123 0 9.64031Z" fill="white"/>
</mask>
<g mask="url(#mask49_3_4025)">
<path d="M183.513 121.766C184.911 125.251 187.964 125.891 189.019 129.122C190.04 132.344 192.592 133.096 193.523 134.05C194.508 135.019 193.918 136.203 194.377 136.168C194.798 136.136 195.228 134.762 194.227 133.189C193.225 131.646 191.633 131.887 190.323 127.995C188.969 124.053 186.637 124.258 185.635 120.599C184.927 120.987 184.219 121.376 183.513 121.766Z" fill="#F0BC50"/>
</g>
<mask id="mask50_3_4025" style="mask-type:luminance" maskUnits="userSpaceOnUse" x="0" y="0" width="358" height="228">
<path d="M0 9.64031C119.274 43.0353 238.55 -23.7547 357.825 9.64031C357.825 79.2123 357.825 148.785 357.825 218.357C238.551 184.962 119.275 251.752 0 218.357C0 148.785 0 79.2123 0 9.64031Z" fill="white"/>
</mask>
<g mask="url(#mask50_3_4025)">
<path d="M194.376 136.247C194.12 136.282 194.122 135.991 194.067 135.682C194.023 135.297 193.977 134.67 193.487 134.108C193.221 133.867 192.88 133.611 192.449 133.354C191.269 132.597 189.696 131.552 188.922 129.149C188.425 127.547 187.38 126.601 186.31 125.581C185.253 124.571 184.135 123.544 183.425 121.801C183.484 121.768 183.542 121.735 183.601 121.702C184.306 123.428 185.359 124.451 186.433 125.459C187.524 126.49 188.599 127.431 189.09 129.087C189.856 131.413 191.448 132.442 192.537 133.211C192.987 133.493 193.382 133.702 193.61 134.001C194.172 134.566 194.226 135.231 194.225 135.663C194.241 136.004 194.299 136.089 194.375 136.078C194.84 135.46 194.928 134.411 194.137 133.256C193.802 132.752 193.415 132.409 192.986 132.073C192.088 131.408 191.131 130.622 190.232 128.037C189.59 126.099 188.702 125.17 187.805 124.271C186.923 123.368 186.064 122.503 185.571 120.637C186.214 122.389 187.03 123.248 187.963 124.143C188.808 125.05 189.741 125.972 190.409 127.96C191.254 130.499 192.246 131.255 193.091 131.926C193.521 132.289 193.96 132.598 194.297 133.128C195.054 134.3 195.06 135.403 194.745 135.961C194.622 136.055 194.499 136.151 194.376 136.247Z" fill="#7C381D"/>
</g>
<mask id="mask51_3_4025" style="mask-type:luminance" maskUnits="userSpaceOnUse" x="0" y="0" width="358" height="228">
<path d="M0 9.64031C119.274 43.0353 238.55 -23.7547 357.825 9.64031C357.825 79.2123 357.825 148.785 357.825 218.357C238.551 184.962 119.275 251.752 0 218.357C0 148.785 0 79.2123 0 9.64031Z" fill="white"/>
</mask>
<g mask="url(#mask51_3_4025)">
<path d="M184.49 121.941C186.099 125.133 188.739 125.479 189.671 128.701C189.46 125.853 186.629 125.152 185.177 121.608C184.948 121.719 184.718 121.83 184.49 121.941Z" fill="#7C381D"/>
</g>
<mask id="mask52_3_4025" style="mask-type:luminance" maskUnits="userSpaceOnUse" x="0" y="0" width="358" height="228">
<path d="M0 9.64031C119.274 43.0353 238.55 -23.7547 357.825 9.64031C357.825 79.2123 357.825 148.785 357.825 218.357C238.551 184.962 119.275 251.752 0 218.357C0 148.785 0 79.2123 0 9.64031Z" fill="white"/>
</mask>
<g mask="url(#mask52_3_4025)">
<path d="M177.603 113.625C174.301 122.991 171 132.356 167.699 141.718C167.699 141.718 167.523 142.244 167.822 142.322C168.155 142.421 168.367 141.89 168.367 141.89C172.32 132.719 176.271 123.54 180.224 114.363C179.351 114.117 178.477 113.87 177.603 113.625Z" fill="#F0BC50"/>
</g>
<mask id="mask53_3_4025" style="mask-type:luminance" maskUnits="userSpaceOnUse" x="0" y="0" width="358" height="228">
<path d="M0 9.64031C119.274 43.0353 238.55 -23.7547 357.825 9.64031C357.825 79.2123 357.825 148.785 357.825 218.357C238.551 184.962 119.275 251.752 0 218.357C0 148.785 0 79.2123 0 9.64031Z" fill="white"/>
</mask>
<g mask="url(#mask53_3_4025)">
<path d="M168.051 142.382C167.48 142.316 167.558 141.896 167.637 141.687C170.929 132.332 174.222 122.972 177.515 113.611C177.571 113.625 177.626 113.639 177.682 113.653C174.386 123.014 171.091 132.374 167.796 141.73C167.796 141.73 167.636 142.174 167.848 142.237C167.997 142.107 168.147 141.976 168.296 141.845C172.249 132.674 176.2 123.495 180.153 114.318C176.242 123.525 172.33 132.733 168.419 141.934C168.421 141.935 168.314 142.24 168.051 142.382V142.382Z" fill="#7C381D"/>
</g>
<mask id="mask54_3_4025" style="mask-type:luminance" maskUnits="userSpaceOnUse" x="0" y="0" width="358" height="228">
<path d="M0 9.64031C119.274 43.0353 238.55 -23.7547 357.825 9.64031C357.825 79.2123 357.825 148.785 357.825 218.357C238.551 184.962 119.275 251.752 0 218.357C0 148.785 0 79.2123 0 9.64031Z" fill="white"/>
</mask>
<g mask="url(#mask54_3_4025)">
<path d="M178.306 113.812C176.019 120.238 173.732 126.664 171.445 133.087C174.154 126.78 176.864 120.471 179.573 114.162C179.15 114.046 178.729 113.929 178.306 113.812Z" fill="#7C381D"/>
</g>
<mask id="mask55_3_4025" style="mask-type:luminance" maskUnits="userSpaceOnUse" x="0" y="0" width="358" height="228">
<path d="M0 9.64031C119.274 43.0353 238.55 -23.7547 357.825 9.64031C357.825 79.2123 357.825 148.785 357.825 218.357C238.551 184.962 119.275 251.752 0 218.357C0 148.785 0 79.2123 0 9.64031Z" fill="white"/>
</mask>
<g mask="url(#mask55_3_4025)">
<path d="M172.923 122.297C170.055 125.379 170.231 128.591 167.523 131.227C164.814 133.874 164.769 136.655 164.102 138.022C163.458 139.385 162.221 139.489 162.377 139.872C162.509 140.277 163.915 139.94 165.086 138.212C166.221 136.482 165.622 135.091 168.912 131.848C172.184 128.606 171.394 126.535 174.506 123.681C173.979 123.22 173.45 122.758 172.923 122.297Z" fill="#F0BC50"/>
</g>
<mask id="mask56_3_4025" style="mask-type:luminance" maskUnits="userSpaceOnUse" x="0" y="0" width="358" height="228">
<path d="M0 9.64031C119.274 43.0353 238.55 -23.7547 357.825 9.64031C357.825 79.2123 357.825 148.785 357.825 218.357C238.551 184.962 119.275 251.752 0 218.357C0 148.785 0 79.2123 0 9.64031Z" fill="white"/>
</mask>
<g mask="url(#mask56_3_4025)">
<path d="M162.825 140.101C162.775 140.108 162.721 140.116 162.694 140.106C162.561 140.045 162.43 139.983 162.298 139.922C162.194 139.69 162.459 139.522 162.72 139.367C163.099 139.091 163.689 138.746 164.039 137.99C164.215 137.61 164.349 137.13 164.497 136.586C164.9 135.136 165.481 133.122 167.478 131.179C168.785 129.868 169.403 128.415 170.108 126.896C170.726 125.364 171.412 123.794 172.843 122.24C172.887 122.282 172.931 122.324 172.975 122.366C171.585 123.875 170.864 125.449 170.231 126.931C169.553 128.498 168.93 129.952 167.557 131.273C165.622 133.193 165.086 135.162 164.637 136.618C164.496 137.187 164.346 137.669 164.188 138.048C163.809 138.86 163.195 139.261 162.798 139.486C162.507 139.671 162.419 139.745 162.455 139.832C163.143 139.95 164.101 139.48 164.988 138.17C165.4 137.589 165.585 137.036 165.761 136.462C166.202 135.284 166.658 133.973 168.823 131.804C170.451 130.21 171.054 128.89 171.681 127.607C172.304 126.297 172.894 125.059 174.47 123.629C173.009 125.149 172.472 126.379 171.839 127.65C171.225 128.945 170.601 130.268 168.928 131.921C166.798 134.046 166.342 135.357 165.92 136.493C165.708 137.085 165.534 137.65 165.138 138.254C164.347 139.432 163.373 140.027 162.825 140.101Z" fill="#7C381D"/>
</g>
<mask id="mask57_3_4025" style="mask-type:luminance" maskUnits="userSpaceOnUse" x="0" y="0" width="358" height="228">
<path d="M0 9.64031C119.274 43.0353 238.55 -23.7547 357.825 9.64031C357.825 79.2123 357.825 148.785 357.825 218.357C238.551 184.962 119.275 251.752 0 218.357C0 148.785 0 79.2123 0 9.64031Z" fill="white"/>
</mask>
<g mask="url(#mask57_3_4025)">
<path d="M173.011 123.309C170.453 126.454 170.802 129.114 168.051 131.624C170.636 130.003 170.547 126.941 173.468 123.799C173.316 123.636 173.163 123.473 173.011 123.309Z" fill="#7C381D"/>
</g>
<mask id="mask58_3_4025" style="mask-type:luminance" maskUnits="userSpaceOnUse" x="0" y="0" width="358" height="228">
<path d="M0 9.64031C119.274 43.0353 238.55 -23.7547 357.825 9.64031C357.825 79.2123 357.825 148.785 357.825 218.357C238.551 184.962 119.275 251.752 0 218.357C0 148.785 0 79.2123 0 9.64031Z" fill="white"/>
</mask>
<g mask="url(#mask58_3_4025)">
<path d="M180.224 114.362C183.54 104.992 186.856 95.6233 190.172 86.2593C190.174 86.2593 190.353 85.7593 190.013 85.6783C189.696 85.5643 189.512 86.0863 189.512 86.0863C185.542 95.2613 181.573 104.443 177.603 113.625C178.477 113.87 179.35 114.117 180.224 114.362Z" fill="#F0BC50"/>
</g>
<mask id="mask59_3_4025" style="mask-type:luminance" maskUnits="userSpaceOnUse" x="0" y="0" width="358" height="228">
<path d="M0 9.64031C119.274 43.0353 238.55 -23.7547 357.825 9.64031C357.825 79.2123 357.825 148.785 357.825 218.357C238.551 184.962 119.275 251.752 0 218.357C0 148.785 0 79.2123 0 9.64031Z" fill="white"/>
</mask>
<g mask="url(#mask59_3_4025)">
<path d="M180.338 114.346C180.276 114.337 180.215 114.328 180.153 114.319C183.449 104.961 186.745 95.6033 190.04 86.2503C190.04 86.2503 190.23 85.8153 190.013 85.7523C189.872 85.8683 189.732 85.9843 189.591 86.1013C185.621 95.2813 181.652 104.468 177.682 113.653C181.581 104.46 185.481 95.2653 189.38 86.0773C189.38 86.0773 189.538 85.7433 189.776 85.6313C189.943 85.6683 190.11 85.7053 190.277 85.7423C190.356 85.9693 190.233 86.2763 190.233 86.2763C186.934 95.6303 183.636 104.988 180.338 114.346Z" fill="#7C381D"/>
</g>
<mask id="mask60_3_4025" style="mask-type:luminance" maskUnits="userSpaceOnUse" x="0" y="0" width="358" height="228">
<path d="M0 9.64031C119.274 43.0353 238.55 -23.7547 357.825 9.64031C357.825 79.2123 357.825 148.785 357.825 218.357C238.551 184.962 119.275 251.752 0 218.357C0 148.785 0 79.2123 0 9.64031Z" fill="white"/>
</mask>
<g mask="url(#mask60_3_4025)">
<path d="M179.573 114.163C181.857 107.744 184.141 101.324 186.426 94.9063C183.72 101.207 181.013 107.51 178.307 113.812C178.728 113.929 179.151 114.046 179.573 114.163Z" fill="#7C381D"/>
</g>
<mask id="mask61_3_4025" style="mask-type:luminance" maskUnits="userSpaceOnUse" x="0" y="0" width="358" height="228">
<path d="M0 9.64031C119.274 43.0353 238.55 -23.7547 357.825 9.64031C357.825 79.2123 357.825 148.785 357.825 218.357C238.551 184.962 119.275 251.752 0 218.357C0 148.785 0 79.2123 0 9.64031Z" fill="white"/>
</mask>
<g mask="url(#mask61_3_4025)">
<path d="M184.939 105.681C187.805 102.599 187.648 99.3893 190.356 96.7533C193.067 94.1143 193.091 91.3413 193.716 89.9663C194.428 88.5933 195.643 88.5073 195.511 88.1023C195.3 87.7093 193.961 88.0233 192.801 89.7623C191.587 91.5093 192.247 92.8723 188.966 96.1153C185.677 99.3733 186.432 101.449 183.32 104.303C183.859 104.762 184.4 105.222 184.939 105.681Z" fill="#F0BC50"/>
</g>
<mask id="mask62_3_4025" style="mask-type:luminance" maskUnits="userSpaceOnUse" x="0" y="0" width="358" height="228">
<path d="M0 9.64031C119.274 43.0353 238.55 -23.7547 357.825 9.64031C357.825 79.2123 357.825 148.785 357.825 218.357C238.551 184.962 119.275 251.752 0 218.357C0 148.785 0 79.2123 0 9.64031Z" fill="white"/>
</mask>
<g mask="url(#mask62_3_4025)">
<path d="M184.992 105.753C184.947 105.715 184.904 105.678 184.859 105.64C186.311 104.096 186.961 102.559 187.621 101.025C188.247 99.4913 188.88 98.0363 190.277 96.6983C192.246 94.8073 192.803 92.7973 193.224 91.3623C193.384 90.8003 193.488 90.3233 193.663 89.9613C194.067 89.1013 194.691 88.7303 195.053 88.4823C195.302 88.3163 195.458 88.2293 195.432 88.1403C194.694 88.0303 193.716 88.5203 192.88 89.8053C192.448 90.3913 192.299 90.9493 192.035 91.5263C191.675 92.7063 191.165 94.0383 189.018 96.2003C187.415 97.7773 186.75 99.0933 186.168 100.369C185.571 101.674 184.99 102.912 183.407 104.343C184.814 102.805 185.412 101.592 186.027 100.296C186.625 99.0043 187.252 97.6813 188.878 96.0733C191.039 93.9483 191.464 92.6553 191.903 91.4903C192.131 90.8783 192.343 90.3253 192.72 89.7193C193.555 88.4483 194.558 87.8363 195.192 87.8553C195.315 87.9263 195.438 87.9973 195.561 88.0683C195.641 88.2953 195.43 88.4553 195.139 88.6273C194.744 88.8613 194.172 89.2033 193.837 89.9883C193.628 90.3563 193.521 90.8193 193.38 91.3663C192.984 92.8503 192.404 94.8643 190.407 96.8113C189.036 98.1183 188.452 99.5663 187.751 101.084C187.118 102.616 186.432 104.184 184.992 105.753Z" fill="#7C381D"/>
</g>
<mask id="mask63_3_4025" style="mask-type:luminance" maskUnits="userSpaceOnUse" x="0" y="0" width="358" height="228">
<path d="M0 9.64031C119.274 43.0353 238.55 -23.7547 357.825 9.64031C357.825 79.2123 357.825 148.785 357.825 218.357C238.551 184.962 119.275 251.752 0 218.357C0 148.785 0 79.2123 0 9.64031Z" fill="white"/>
</mask>
<g mask="url(#mask63_3_4025)">
<path d="M184.859 104.681C187.416 101.536 187.068 98.8753 189.811 96.3533C187.207 98.0023 187.304 101.041 184.357 104.21C184.524 104.367 184.692 104.524 184.859 104.681Z" fill="#7C381D"/>
</g>
<mask id="mask64_3_4025" style="mask-type:luminance" maskUnits="userSpaceOnUse" x="0" y="0" width="358" height="228">
<path d="M0 9.64031C119.274 43.0353 238.55 -23.7547 357.825 9.64031C357.825 79.2123 357.825 148.785 357.825 218.357C238.551 184.962 119.275 251.752 0 218.357C0 148.785 0 79.2123 0 9.64031Z" fill="white"/>
</mask>
<g mask="url(#mask64_3_4025)">
<path d="M179.441 112.602C170.545 110.547 161.65 108.495 152.754 106.36C152.754 106.36 152.28 106.211 152.121 106.562C152.015 106.919 152.517 107.051 152.517 107.051C161.143 109.879 169.768 112.63 178.394 115.379C178.742 114.453 179.092 113.528 179.441 112.602Z" fill="#F0BC50"/>
</g>
<mask id="mask65_3_4025" style="mask-type:luminance" maskUnits="userSpaceOnUse" x="0" y="0" width="358" height="228">
<path d="M0 9.64031C119.274 43.0353 238.55 -23.7547 357.825 9.64031C357.825 79.2123 357.825 148.785 357.825 218.357C238.551 184.962 119.275 251.752 0 218.357C0 148.785 0 79.2123 0 9.64031Z" fill="white"/>
</mask>
<g mask="url(#mask65_3_4025)">
<path d="M178.403 115.312C169.766 112.613 161.129 109.912 152.492 107.134C152.28 107.07 151.936 106.877 152.042 106.52C152.202 106.209 152.623 106.207 152.8 106.263C161.697 108.397 170.596 110.45 179.494 112.504C179.476 112.563 179.459 112.623 179.441 112.683C170.545 110.624 161.65 108.567 152.754 106.428C152.703 106.435 152.304 106.329 152.201 106.579C152.12 106.853 152.516 106.987 152.516 106.987C161.146 109.813 169.774 112.563 178.403 115.312Z" fill="#7C381D"/>
</g>
<mask id="mask66_3_4025" style="mask-type:luminance" maskUnits="userSpaceOnUse" x="0" y="0" width="358" height="228">
<path d="M0 9.64031C119.274 43.0353 238.55 -23.7547 357.825 9.64031C357.825 79.2123 357.825 148.785 357.825 218.357C238.551 184.962 119.275 251.752 0 218.357C0 148.785 0 79.2123 0 9.64031Z" fill="white"/>
</mask>
<g mask="url(#mask66_3_4025)">
<path d="M179.187 113.311C173.076 111.883 166.965 110.455 160.855 109C166.777 110.914 172.701 112.803 178.623 114.691C178.81 114.231 178.998 113.771 179.187 113.311Z" fill="#7C381D"/>
</g>
<mask id="mask67_3_4025" style="mask-type:luminance" maskUnits="userSpaceOnUse" x="0" y="0" width="358" height="228">
<path d="M0 9.64031C119.274 43.0353 238.55 -23.7547 357.825 9.64031C357.825 79.2123 357.825 148.785 357.825 218.357C238.551 184.962 119.275 251.752 0 218.357C0 148.785 0 79.2123 0 9.64031Z" fill="white"/>
</mask>
<g mask="url(#mask67_3_4025)">
<path d="M171.445 109.04C168.791 106.517 165.536 107.152 163.266 104.739C161.014 102.352 158.269 102.674 156.959 102.215C155.682 101.726 155.772 100.483 155.331 100.669C154.909 100.87 155.015 102.251 156.642 103.203C158.198 104.178 159.666 103.352 162.456 106.231C165.271 109.163 167.425 108.073 169.871 110.839C170.396 110.239 170.92 109.64 171.445 109.04Z" fill="#F0BC50"/>
</g>
<mask id="mask68_3_4025" style="mask-type:luminance" maskUnits="userSpaceOnUse" x="0" y="0" width="358" height="228">
<path d="M0 9.64031C119.274 43.0353 238.55 -23.7547 357.825 9.64031C357.825 79.2123 357.825 148.785 357.825 218.357C238.551 184.962 119.275 251.752 0 218.357C0 148.785 0 79.2123 0 9.64031Z" fill="white"/>
</mask>
<g mask="url(#mask68_3_4025)">
<path d="M169.914 110.793C168.56 109.521 167.425 109.098 166.221 108.688C164.989 108.225 163.776 107.763 162.377 106.309C160.556 104.429 159.31 104.135 158.217 103.877C157.647 103.769 157.144 103.612 156.564 103.294C155.411 102.581 154.935 101.606 155.016 101.015C155.109 100.884 155.203 100.753 155.296 100.621C155.506 100.492 155.681 100.701 155.807 100.975C155.999 101.318 156.281 101.857 157.002 102.13C157.318 102.246 157.775 102.317 158.27 102.383C159.712 102.607 161.691 102.892 163.318 104.693C164.454 105.88 165.808 106.3 167.242 106.757C168.701 107.215 170.187 107.69 171.535 108.963C171.488 109.009 171.44 109.055 171.393 109.101C170.056 107.867 168.595 107.388 167.206 106.92C165.694 106.46 164.347 106.012 163.194 104.815C161.561 103.068 159.616 102.777 158.216 102.574C157.701 102.485 157.274 102.41 156.904 102.301C156.138 101.994 155.825 101.447 155.647 101.074C155.506 100.829 155.462 100.689 155.33 100.76C155.143 101.458 155.49 102.411 156.685 103.131C157.22 103.442 157.722 103.56 158.268 103.697C159.392 103.964 160.663 104.241 162.507 106.17C163.88 107.628 165.112 108.047 166.307 108.49C167.56 108.948 168.7 109.37 169.914 110.793Z" fill="#7C381D"/>
</g>
<mask id="mask69_3_4025" style="mask-type:luminance" maskUnits="userSpaceOnUse" x="0" y="0" width="358" height="228">
<path d="M0 9.64031C119.274 43.0353 238.55 -23.7547 357.825 9.64031C357.825 79.2123 357.825 148.785 357.825 218.357C238.551 184.962 119.275 251.752 0 218.357C0 148.785 0 79.2123 0 9.64031Z" fill="white"/>
</mask>
<g mask="url(#mask69_3_4025)">
<path d="M170.451 109.232C167.636 107.112 164.927 107.79 162.799 105.371C164.056 107.777 167.118 107.251 169.914 109.804C170.093 109.613 170.273 109.423 170.451 109.232Z" fill="#7C381D"/>
</g>
<mask id="mask70_3_4025" style="mask-type:luminance" maskUnits="userSpaceOnUse" x="0" y="0" width="358" height="228">
<path d="M0 9.64031C119.274 43.0353 238.55 -23.7547 357.825 9.64031C357.825 79.2123 357.825 148.785 357.825 218.357C238.551 184.962 119.275 251.752 0 218.357C0 148.785 0 79.2123 0 9.64031Z" fill="white"/>
</mask>
<g mask="url(#mask70_3_4025)">
<path d="M178.394 115.379C187.29 117.433 196.185 119.486 205.081 121.62C205.081 121.62 205.538 121.785 205.714 121.419C205.856 121.062 205.362 120.941 205.362 120.941C196.722 118.109 188.082 115.355 179.441 112.602C179.092 113.528 178.742 114.453 178.394 115.379Z" fill="#F0BC50"/>
</g>
<mask id="mask71_3_4025" style="mask-type:luminance" maskUnits="userSpaceOnUse" x="0" y="0" width="358" height="228">
<path d="M0 9.64031C119.274 43.0353 238.55 -23.7547 357.825 9.64031C357.825 79.2123 357.825 148.785 357.825 218.357C238.551 184.962 119.275 251.752 0 218.357C0 148.785 0 79.2123 0 9.64031Z" fill="white"/>
</mask>
<g mask="url(#mask71_3_4025)">
<path d="M205.397 121.724C205.258 121.743 205.16 121.729 205.044 121.705C196.144 119.576 187.241 117.528 178.341 115.478C178.362 115.422 178.382 115.367 178.403 115.311C187.314 117.364 196.223 119.415 205.134 121.547C205.134 121.547 205.504 121.644 205.634 121.402C205.747 121.154 205.318 121.026 205.318 121.026C196.69 118.192 188.061 115.436 179.433 112.681C188.087 115.379 196.742 118.079 205.397 120.856C205.582 120.911 205.933 121.103 205.784 121.435C205.713 121.631 205.537 121.706 205.397 121.724Z" fill="#7C381D"/>
</g>
<mask id="mask72_3_4025" style="mask-type:luminance" maskUnits="userSpaceOnUse" x="0" y="0" width="358" height="228">
<path d="M0 9.64031C119.274 43.0353 238.55 -23.7547 357.825 9.64031C357.825 79.2123 357.825 148.785 357.825 218.357C238.551 184.962 119.275 251.752 0 218.357C0 148.785 0 79.2123 0 9.64031Z" fill="white"/>
</mask>
<g mask="url(#mask72_3_4025)">
<path d="M178.622 114.691C184.732 116.105 190.843 117.519 196.953 118.959C191.03 117.06 185.108 115.185 179.186 113.311C178.998 113.771 178.811 114.231 178.622 114.691Z" fill="#7C381D"/>
</g>
<mask id="mask73_3_4025" style="mask-type:luminance" maskUnits="userSpaceOnUse" x="0" y="0" width="358" height="228">
<path d="M0 9.64031C119.274 43.0353 238.55 -23.7547 357.825 9.64031C357.825 79.2123 357.825 148.785 357.825 218.357C238.551 184.962 119.275 251.752 0 218.357C0 148.785 0 79.2123 0 9.64031Z" fill="white"/>
</mask>
<g mask="url(#mask73_3_4025)">
<path d="M186.38 118.955C189.091 121.458 192.344 120.823 194.561 123.23C196.84 125.653 199.583 125.309 200.875 125.766C202.187 126.251 202.056 127.505 202.547 127.294C202.925 127.099 202.791 125.722 201.21 124.749C199.626 123.804 198.218 124.652 195.432 121.743C192.592 118.846 190.41 119.934 188.017 117.127C187.471 117.736 186.925 118.346 186.38 118.955Z" fill="#F0BC50"/>
</g>
<mask id="mask74_3_4025" style="mask-type:luminance" maskUnits="userSpaceOnUse" x="0" y="0" width="358" height="228">
<path d="M0 9.64031C119.274 43.0353 238.55 -23.7547 357.825 9.64031C357.825 79.2123 357.825 148.785 357.825 218.357C238.551 184.962 119.275 251.752 0 218.357C0 148.785 0 79.2123 0 9.64031Z" fill="white"/>
</mask>
<g mask="url(#mask74_3_4025)">
<path d="M202.45 127.426C202.249 127.453 202.139 127.229 202.028 127.007C201.834 126.655 201.561 126.124 200.875 125.846C200.532 125.72 200.058 125.669 199.53 125.582C198.124 125.375 196.153 125.062 194.524 123.288C193.416 122.111 192.007 121.676 190.593 121.226C189.143 120.758 187.647 120.279 186.326 119.03C186.361 118.986 186.396 118.941 186.431 118.896C187.751 120.146 189.241 120.6 190.671 121.057C192.132 121.515 193.483 121.958 194.637 123.155C196.267 124.92 198.215 125.192 199.581 125.418C200.136 125.502 200.56 125.564 200.927 125.682C201.685 125.977 202.001 126.542 202.185 126.895C202.333 127.205 202.371 127.253 202.501 127.209C202.684 126.529 202.371 125.568 201.155 124.838C200.634 124.538 200.135 124.398 199.536 124.294C198.437 124.033 197.188 123.74 195.298 121.816C193.959 120.367 192.719 119.921 191.515 119.494C190.321 119.031 189.14 118.614 187.961 117.189C189.273 118.467 190.405 118.86 191.63 119.32C192.834 119.761 194.065 120.225 195.456 121.689C197.268 123.571 198.499 123.853 199.624 124.124C200.214 124.23 200.716 124.347 201.252 124.694C202.544 125.454 202.869 126.506 202.791 126.987C202.712 127.121 202.633 127.254 202.554 127.388C202.546 127.386 202.503 127.419 202.45 127.426Z" fill="#7C381D"/>
</g>
<mask id="mask75_3_4025" style="mask-type:luminance" maskUnits="userSpaceOnUse" x="0" y="0" width="358" height="228">
<path d="M0 9.64031C119.274 43.0353 238.55 -23.7547 357.825 9.64031C357.825 79.2123 357.825 148.785 357.825 218.357C238.551 184.962 119.275 251.752 0 218.357C0 148.785 0 79.2123 0 9.64031Z" fill="white"/>
</mask>
<g mask="url(#mask75_3_4025)">
<path d="M187.418 118.745C190.198 120.883 192.906 120.17 195.053 122.64C193.753 120.24 190.727 120.709 187.963 118.186C187.782 118.372 187.6 118.558 187.418 118.745Z" fill="#7C381D"/>
</g>
<mask id="mask76_3_4025" style="mask-type:luminance" maskUnits="userSpaceOnUse" x="0" y="0" width="358" height="228">
<path d="M0 9.64031C119.274 43.0353 238.55 -23.7547 357.825 9.64031C357.825 79.2123 357.825 148.785 357.825 218.357C238.551 184.962 119.275 251.752 0 218.357C0 148.785 0 79.2123 0 9.64031Z" fill="white"/>
</mask>
<g mask="url(#mask76_3_4025)">
<path d="M178.394 112.749C169.769 117.919 161.142 123.087 152.517 128.178C152.517 128.178 152.016 128.428 152.121 128.754C152.28 129.076 152.752 128.79 152.754 128.789C161.65 124.324 170.545 119.778 179.441 115.233C179.092 114.405 178.742 113.577 178.394 112.749Z" fill="#F0BC50"/>
</g>
<mask id="mask77_3_4025" style="mask-type:luminance" maskUnits="userSpaceOnUse" x="0" y="0" width="358" height="228">
<path d="M0 9.64031C119.274 43.0353 238.55 -23.7547 357.825 9.64031C357.825 79.2123 357.825 148.785 357.825 218.357C238.551 184.962 119.275 251.752 0 218.357C0 148.785 0 79.2123 0 9.64031Z" fill="white"/>
</mask>
<g mask="url(#mask77_3_4025)">
<path d="M152.492 128.969C152.308 128.993 152.122 128.965 152.042 128.79C151.937 128.491 152.281 128.209 152.492 128.102C161.108 123.012 169.725 117.845 178.342 112.677C178.363 112.727 178.383 112.777 178.404 112.826C169.776 117.996 161.146 123.165 152.518 128.257C152.52 128.257 152.12 128.493 152.203 128.715C152.307 128.94 152.703 128.729 152.756 128.722C161.652 124.257 170.547 119.71 179.443 115.165C170.562 119.756 161.681 124.35 152.801 128.861C152.702 128.915 152.586 128.956 152.492 128.969Z" fill="#7C381D"/>
</g>
<mask id="mask78_3_4025" style="mask-type:luminance" maskUnits="userSpaceOnUse" x="0" y="0" width="358" height="228">
<path d="M0 9.64031C119.274 43.0353 238.55 -23.7547 357.825 9.64031C357.825 79.2123 357.825 148.785 357.825 218.357C238.551 184.962 119.275 251.752 0 218.357C0 148.785 0 79.2123 0 9.64031Z" fill="white"/>
</mask>
<g mask="url(#mask78_3_4025)">
<path d="M178.622 113.39C172.699 116.923 166.777 120.454 160.854 123.962C166.965 120.863 173.075 117.737 179.186 114.612C178.998 114.205 178.811 113.798 178.622 113.39Z" fill="#7C381D"/>
</g>
<mask id="mask79_3_4025" style="mask-type:luminance" maskUnits="userSpaceOnUse" x="0" y="0" width="358" height="228">
<path d="M0 9.64031C119.274 43.0353 238.55 -23.7547 357.825 9.64031C357.825 79.2123 357.825 148.785 357.825 218.357C238.551 184.962 119.275 251.752 0 218.357C0 148.785 0 79.2123 0 9.64031Z" fill="white"/>
</mask>
<g mask="url(#mask79_3_4025)">
<path d="M169.405 116.357C165.483 116.76 163.31 119.478 159.774 119.64C156.282 119.795 154.295 121.973 152.939 122.614C151.55 123.258 150.723 122.406 150.548 122.846C150.311 123.259 151.444 124.007 153.362 123.464C155.296 122.922 155.913 121.371 160.169 121.127C164.452 120.897 165.48 118.652 169.404 118.636C169.405 117.875 169.405 117.116 169.405 116.357Z" fill="#F0BC50"/>
</g>
<mask id="mask80_3_4025" style="mask-type:luminance" maskUnits="userSpaceOnUse" x="0" y="0" width="358" height="228">
<path d="M0 9.64031C119.274 43.0353 238.55 -23.7547 357.825 9.64031C357.825 79.2123 357.825 148.785 357.825 218.357C238.551 184.962 119.275 251.752 0 218.357C0 148.785 0 79.2123 0 9.64031Z" fill="white"/>
</mask>
<g mask="url(#mask80_3_4025)">
<path d="M152.623 123.705C151.477 123.855 150.775 123.528 150.548 123.228C150.513 123.092 150.477 122.956 150.442 122.819C150.583 122.55 150.811 122.613 151.128 122.677C151.515 122.759 152.122 122.891 152.861 122.543C153.257 122.373 153.679 122.08 154.145 121.758C155.464 120.872 157.179 119.673 159.774 119.546C161.505 119.483 162.959 118.744 164.409 117.995C165.907 117.249 167.4 116.466 169.405 116.263C169.405 116.325 169.405 116.387 169.405 116.448C167.523 116.63 165.923 117.431 164.453 118.148C162.997 118.91 161.56 119.608 159.774 119.717C157.276 119.831 155.493 121.027 154.214 121.921C153.751 122.229 153.308 122.497 152.939 122.691C152.123 123.049 151.48 122.947 151.084 122.855C150.725 122.782 150.654 122.792 150.618 122.849C150.978 123.45 151.858 123.793 153.363 123.362C153.994 123.199 154.515 122.893 155.016 122.59C156.106 121.931 157.319 121.207 160.169 121.046C162.298 120.942 163.601 120.329 164.901 119.727C166.202 119.131 167.426 118.553 169.404 118.529C167.343 118.709 166.22 119.295 164.926 119.895C163.634 120.508 162.323 121.092 160.168 121.213C157.355 121.374 156.14 122.11 155.102 122.736C154.567 123.045 154.063 123.357 153.396 123.564C153.115 123.601 152.861 123.674 152.623 123.705Z" fill="#7C381D"/>
</g>
<mask id="mask81_3_4025" style="mask-type:luminance" maskUnits="userSpaceOnUse" x="0" y="0" width="358" height="228">
<path d="M0 9.64031C119.274 43.0353 238.55 -23.7547 357.825 9.64031C357.825 79.2123 357.825 148.785 357.825 218.357C238.551 184.962 119.275 251.752 0 218.357C0 148.785 0 79.2123 0 9.64031Z" fill="white"/>
</mask>
<g mask="url(#mask81_3_4025)">
<path d="M168.737 117.202C164.955 117.923 163.31 120.291 159.818 120.342C162.562 120.89 164.638 118.399 168.702 117.955C168.713 117.703 168.725 117.453 168.737 117.202Z" fill="#7C381D"/>
</g>
<mask id="mask82_3_4025" style="mask-type:luminance" maskUnits="userSpaceOnUse" x="0" y="0" width="358" height="228">
<path d="M0 9.64031C119.274 43.0353 238.55 -23.7547 357.825 9.64031C357.825 79.2123 357.825 148.785 357.825 218.357C238.551 184.962 119.275 251.752 0 218.357C0 148.785 0 79.2123 0 9.64031Z" fill="white"/>
</mask>
<g mask="url(#mask82_3_4025)">
<path d="M179.441 115.233C188.082 110.067 196.721 104.902 205.362 99.8163C205.362 99.8163 205.856 99.5543 205.714 99.2293C205.541 98.9223 205.081 99.1933 205.081 99.1933C196.185 103.658 187.29 108.205 178.394 112.75C178.742 113.577 179.092 114.405 179.441 115.233Z" fill="#F0BC50"/>
</g>
<mask id="mask83_3_4025" style="mask-type:luminance" maskUnits="userSpaceOnUse" x="0" y="0" width="358" height="228">
<path d="M0 9.64031C119.274 43.0353 238.55 -23.7547 357.825 9.64031C357.825 79.2123 357.825 148.785 357.825 218.357C238.551 184.962 119.275 251.752 0 218.357C0 148.785 0 79.2123 0 9.64031Z" fill="white"/>
</mask>
<g mask="url(#mask83_3_4025)">
<path d="M179.493 115.318C179.472 115.268 179.453 115.218 179.432 115.168C188.06 110.003 196.689 104.841 205.317 99.7553C205.317 99.7553 205.75 99.5133 205.633 99.2653C205.502 99.0453 205.133 99.2513 205.133 99.2513C196.223 103.722 187.312 108.275 178.402 112.827C187.282 108.227 196.163 103.625 205.044 99.1053C205.256 98.9983 205.659 98.8923 205.783 99.1673C205.932 99.4903 205.581 99.7743 205.396 99.8903C196.763 104.979 188.128 110.148 179.493 115.318Z" fill="#7C381D"/>
</g>
<mask id="mask84_3_4025" style="mask-type:luminance" maskUnits="userSpaceOnUse" x="0" y="0" width="358" height="228">
<path d="M0 9.64031C119.274 43.0353 238.55 -23.7547 357.825 9.64031C357.825 79.2123 357.825 148.785 357.825 218.357C238.551 184.962 119.275 251.752 0 218.357C0 148.785 0 79.2123 0 9.64031Z" fill="white"/>
</mask>
<g mask="url(#mask84_3_4025)">
<path d="M179.187 114.612C185.109 111.066 191.031 107.519 196.954 103.998C190.844 107.111 184.733 110.251 178.623 113.39C178.81 113.798 178.998 114.205 179.187 114.612Z" fill="#7C381D"/>
</g>
<mask id="mask85_3_4025" style="mask-type:luminance" maskUnits="userSpaceOnUse" x="0" y="0" width="358" height="228">
<path d="M0 9.64031C119.274 43.0353 238.55 -23.7547 357.825 9.64031C357.825 79.2123 357.825 148.785 357.825 218.357C238.551 184.962 119.275 251.752 0 218.357C0 148.785 0 79.2123 0 9.64031Z" fill="white"/>
</mask>
<g mask="url(#mask85_3_4025)">
<path d="M188.456 111.608C192.352 111.226 194.562 108.491 198.088 108.343C201.616 108.179 203.584 105.989 204.921 105.365C206.309 104.752 207.13 105.566 207.34 105.142C207.528 104.722 206.433 103.97 204.446 104.521C202.546 105.075 201.95 106.611 197.665 106.847C193.384 107.085 192.352 109.318 188.456 109.334C188.456 110.093 188.456 110.85 188.456 111.608Z" fill="#F0BC50"/>
</g>
<mask id="mask86_3_4025" style="mask-type:luminance" maskUnits="userSpaceOnUse" x="0" y="0" width="358" height="228">
<path d="M0 9.64031C119.274 43.0353 238.55 -23.7547 357.825 9.64031C357.825 79.2123 357.825 148.785 357.825 218.357C238.551 184.962 119.275 251.752 0 218.357C0 148.785 0 79.2123 0 9.64031Z" fill="white"/>
</mask>
<g mask="url(#mask86_3_4025)">
<path d="M188.808 111.665C188.702 111.68 188.597 111.694 188.456 111.714C188.456 111.652 188.456 111.59 188.456 111.529C190.409 111.324 191.905 110.577 193.382 109.824C194.878 109.052 196.32 108.345 198.088 108.264C200.611 108.142 202.37 106.951 203.647 106.074C204.132 105.733 204.536 105.456 204.921 105.273C205.747 104.901 206.356 105.034 206.786 105.136C207.077 105.203 207.21 105.213 207.209 105.12C206.891 104.546 205.978 104.189 204.499 104.594C203.829 104.787 203.331 105.065 202.828 105.391C201.721 106.052 200.533 106.777 197.665 106.927C195.561 107.027 194.226 107.659 192.986 108.247C191.673 108.849 190.425 109.417 188.456 109.44C190.426 109.259 191.631 108.67 192.907 108.072C194.172 107.507 195.508 106.888 197.665 106.742C200.479 106.598 201.684 105.885 202.723 105.263C203.268 104.914 203.814 104.604 204.447 104.429C205.935 104.01 206.971 104.297 207.341 104.746C207.359 104.893 207.376 105.04 207.394 105.188C207.29 105.413 207.025 105.368 206.717 105.302C206.312 105.223 205.748 105.085 204.948 105.454C204.634 105.614 204.182 105.871 203.744 106.219C202.426 107.128 200.665 108.307 198.044 108.441C196.32 108.502 194.932 109.242 193.443 110C192.035 110.691 190.629 111.412 188.808 111.665Z" fill="#7C381D"/>
</g>
<mask id="mask87_3_4025" style="mask-type:luminance" maskUnits="userSpaceOnUse" x="0" y="0" width="358" height="228">
<path d="M0 9.64031C119.274 43.0353 238.55 -23.7547 357.825 9.64031C357.825 79.2123 357.825 148.785 357.825 218.357C238.551 184.962 119.275 251.752 0 218.357C0 148.785 0 79.2123 0 9.64031Z" fill="white"/>
</mask>
<g mask="url(#mask87_3_4025)">
<path d="M189.133 110.753C192.905 110.072 194.561 107.69 198.008 107.628C195.3 107.063 193.17 109.613 189.142 110.04C189.139 110.278 189.136 110.516 189.133 110.753Z" fill="#7C381D"/>
</g>
<mask id="mask88_3_4025" style="mask-type:luminance" maskUnits="userSpaceOnUse" x="0" y="0" width="358" height="228">
<path d="M0 9.64031C119.274 43.0353 238.55 -23.7547 357.825 9.64031C357.825 79.2123 357.825 148.785 357.825 218.357C238.551 184.962 119.275 251.752 0 218.357C0 148.785 0 79.2123 0 9.64031Z" fill="white"/>
</mask>
<g mask="url(#mask88_3_4025)">
<path d="M180.224 113.258C176.272 105.186 172.319 97.1143 168.367 89.0363C168.367 89.0363 168.156 88.5693 167.822 88.7733C167.524 88.9423 167.699 89.3933 167.699 89.3933C171.001 97.8423 174.303 106.286 177.603 114.729C178.477 114.239 179.35 113.748 180.224 113.258Z" fill="#F0BC50"/>
</g>
<mask id="mask89_3_4025" style="mask-type:luminance" maskUnits="userSpaceOnUse" x="0" y="0" width="358" height="228">
<path d="M0 9.64031C119.274 43.0353 238.55 -23.7547 357.825 9.64031C357.825 79.2123 357.825 148.785 357.825 218.357C238.551 184.962 119.275 251.752 0 218.357C0 148.785 0 79.2123 0 9.64031Z" fill="white"/>
</mask>
<g mask="url(#mask89_3_4025)">
<path d="M177.682 114.665C174.333 106.259 170.986 97.8523 167.637 89.4403C167.637 89.4403 167.523 89.1523 167.593 88.9323C167.745 88.8423 167.899 88.7523 168.051 88.6623C168.314 88.7043 168.419 89.0023 168.419 89.0023C172.383 97.0793 176.348 105.148 180.312 113.219C180.259 113.248 180.207 113.278 180.154 113.307C176.12 105.12 172.086 96.9333 168.051 88.7413C167.983 88.7753 167.915 88.8093 167.848 88.8443C167.83 89.0133 167.813 89.1833 167.796 89.3533C171.091 97.7933 174.387 106.23 177.682 114.665Z" fill="#7C381D"/>
</g>
<mask id="mask90_3_4025" style="mask-type:luminance" maskUnits="userSpaceOnUse" x="0" y="0" width="358" height="228">
<path d="M0 9.64031C119.274 43.0353 238.55 -23.7547 357.825 9.64031C357.825 79.2123 357.825 148.785 357.825 218.357C238.551 184.962 119.275 251.752 0 218.357C0 148.785 0 79.2123 0 9.64031Z" fill="white"/>
</mask>
<g mask="url(#mask90_3_4025)">
<path d="M179.573 113.635C176.863 108.091 174.155 102.546 171.445 96.9993C173.732 102.78 176.019 108.56 178.306 114.34C178.728 114.105 179.151 113.87 179.573 113.635Z" fill="#7C381D"/>
</g>
<mask id="mask91_3_4025" style="mask-type:luminance" maskUnits="userSpaceOnUse" x="0" y="0" width="358" height="228">
<path d="M0 9.64031C119.274 43.0353 238.55 -23.7547 357.825 9.64031C357.825 79.2123 357.825 148.785 357.825 218.357C238.551 184.962 119.275 251.752 0 218.357C0 148.785 0 79.2123 0 9.64031Z" fill="white"/>
</mask>
<g mask="url(#mask91_3_4025)">
<path d="M177.902 104.616C178.052 100.65 175.631 98.8203 175.931 95.2653C176.231 91.7013 174.303 90.0003 173.837 88.6973C173.416 87.3763 174.339 86.4593 173.979 86.2983C173.522 86.1773 172.66 87.3623 172.976 89.2663C173.257 91.1713 174.736 91.5453 174.392 95.8763C174.05 100.238 176.124 100.919 175.632 104.92C176.389 104.819 177.145 104.718 177.902 104.616Z" fill="#F0BC50"/>
</g>
<mask id="mask92_3_4025" style="mask-type:luminance" maskUnits="userSpaceOnUse" x="0" y="0" width="358" height="228">
<path d="M0 9.64031C119.274 43.0353 238.55 -23.7547 357.825 9.64031C357.825 79.2123 357.825 148.785 357.825 218.357C238.551 184.962 119.275 251.752 0 218.357C0 148.785 0 79.2123 0 9.64031Z" fill="white"/>
</mask>
<g mask="url(#mask92_3_4025)">
<path d="M177.998 104.602C177.936 104.611 177.875 104.619 177.813 104.628C177.866 102.672 177.311 101.242 176.784 99.8553C176.222 98.4083 175.683 97.0893 175.825 95.2793C176.053 92.7013 175.104 91.0973 174.391 89.9343C174.12 89.4713 173.889 89.0853 173.766 88.7593C173.52 87.9543 173.732 87.2903 173.889 86.8463C173.977 86.5343 174.012 86.4113 173.924 86.3973C173.255 86.8023 172.843 87.7973 173.028 89.2313C173.152 89.8693 173.398 90.3363 173.617 90.8423C174.12 91.8633 174.708 92.9893 174.471 95.8633C174.301 98.0153 174.735 99.2703 175.13 100.477C175.551 101.733 175.968 102.885 175.701 104.909C175.79 102.935 175.392 101.782 174.971 100.552C174.548 99.3233 174.12 98.0683 174.285 95.8893C174.505 93.0443 173.976 91.9093 173.467 90.9293C173.222 90.4403 172.974 89.9473 172.896 89.2983C172.661 87.8753 173.079 86.7743 173.52 86.3743C173.684 86.3163 173.848 86.2583 174.012 86.2003C174.234 86.3023 174.154 86.5633 174.047 86.8893C173.889 87.3073 173.715 87.9263 173.924 88.6573C174.049 89.0093 174.303 89.3653 174.549 89.8183C175.235 90.9983 176.23 92.6493 176.009 95.2653C175.863 97.0363 176.371 98.3593 176.942 99.7793C177.496 101.163 178.052 102.62 177.998 104.602Z" fill="#7C381D"/>
</g>
<mask id="mask93_3_4025" style="mask-type:luminance" maskUnits="userSpaceOnUse" x="0" y="0" width="358" height="228">
<path d="M0 9.64031C119.274 43.0353 238.55 -23.7547 357.825 9.64031C357.825 79.2123 357.825 148.785 357.825 218.357C238.551 184.962 119.275 251.752 0 218.357C0 148.785 0 79.2123 0 9.64031Z" fill="white"/>
</mask>
<g mask="url(#mask93_3_4025)">
<path d="M177.128 104.065C176.94 100.291 174.823 98.9203 175.21 95.4193C174.286 98.2713 176.512 100.079 176.405 104.127C176.647 104.106 176.887 104.085 177.128 104.065Z" fill="#7C381D"/>
</g>
<mask id="mask94_3_4025" style="mask-type:luminance" maskUnits="userSpaceOnUse" x="0" y="0" width="358" height="228">
<path d="M0 9.64031C119.274 43.0353 238.55 -23.7547 357.825 9.64031C357.825 79.2123 357.825 148.785 357.825 218.357C238.551 184.962 119.275 251.752 0 218.357C0 148.785 0 79.2123 0 9.64031Z" fill="white"/>
</mask>
<g mask="url(#mask94_3_4025)">
<path d="M177.603 114.729C181.573 122.797 185.542 130.865 189.512 138.939C189.512 138.939 189.696 139.415 190.013 139.226C190.357 139.06 190.172 138.583 190.172 138.583C186.856 130.138 183.54 121.697 180.224 113.257C179.351 113.748 178.477 114.239 177.603 114.729Z" fill="#F0BC50"/>
</g>
<mask id="mask95_3_4025" style="mask-type:luminance" maskUnits="userSpaceOnUse" x="0" y="0" width="358" height="228">
<path d="M0 9.64031C119.274 43.0353 238.55 -23.7547 357.825 9.64031C357.825 79.2123 357.825 148.785 357.825 218.357C238.551 184.962 119.275 251.752 0 218.357C0 148.785 0 79.2123 0 9.64031Z" fill="white"/>
</mask>
<g mask="url(#mask95_3_4025)">
<path d="M190.04 139.315C189.54 139.279 189.378 139.011 189.38 139.011C185.425 130.926 181.47 122.847 177.515 114.768C177.571 114.734 177.626 114.7 177.682 114.665C181.652 122.733 185.621 130.801 189.591 138.875C189.591 138.875 189.777 139.298 190.013 139.146C190.234 139.023 190.04 138.627 190.04 138.627C186.744 130.183 183.449 121.744 180.153 113.306C183.512 121.714 186.873 130.122 190.232 138.535C190.321 138.722 190.41 139.119 190.04 139.315Z" fill="#7C381D"/>
</g>
<mask id="mask96_3_4025" style="mask-type:luminance" maskUnits="userSpaceOnUse" x="0" y="0" width="358" height="228">
<path d="M0 9.64031C119.274 43.0353 238.55 -23.7547 357.825 9.64031C357.825 79.2123 357.825 148.785 357.825 218.357C238.551 184.962 119.275 251.752 0 218.357C0 148.785 0 79.2123 0 9.64031Z" fill="white"/>
</mask>
<g mask="url(#mask96_3_4025)">
<path d="M178.306 114.34C181.012 119.891 183.719 125.442 186.425 130.994C184.141 125.206 181.857 119.42 179.572 113.635C179.15 113.87 178.729 114.105 178.306 114.34Z" fill="#7C381D"/>
</g>
<mask id="mask97_3_4025" style="mask-type:luminance" maskUnits="userSpaceOnUse" x="0" y="0" width="358" height="228">
<path d="M0 9.64031C119.274 43.0353 238.55 -23.7547 357.825 9.64031C357.825 79.2123 357.825 148.785 357.825 218.357C238.551 184.962 119.275 251.752 0 218.357C0 148.785 0 79.2123 0 9.64031Z" fill="white"/>
</mask>
<g mask="url(#mask97_3_4025)">
<path d="M179.968 123.365C179.806 127.314 182.231 129.148 181.93 132.713C181.613 136.254 183.548 137.971 183.97 139.315C184.436 140.618 183.459 141.545 183.918 141.692C184.306 141.818 185.176 140.593 184.911 138.713C184.595 136.823 183.132 136.437 183.46 132.103C183.821 127.77 181.728 127.046 182.229 123.075C181.476 123.172 180.722 123.268 179.968 123.365Z" fill="#F0BC50"/>
</g>
<mask id="mask98_3_4025" style="mask-type:luminance" maskUnits="userSpaceOnUse" x="0" y="0" width="358" height="228">
<path d="M0 9.64031C119.274 43.0353 238.55 -23.7547 357.825 9.64031C357.825 79.2123 357.825 148.785 357.825 218.357C238.551 184.962 119.275 251.752 0 218.357C0 148.785 0 79.2123 0 9.64031Z" fill="white"/>
</mask>
<g mask="url(#mask98_3_4025)">
<path d="M183.865 141.779C183.602 141.697 183.716 141.404 183.822 141.112C183.933 140.687 184.181 140.063 183.919 139.321C183.779 138.975 183.549 138.599 183.285 138.147C182.599 136.959 181.613 135.333 181.807 132.703C181.964 130.944 181.472 129.632 180.927 128.226C180.392 126.801 179.757 125.364 179.836 123.382C179.901 123.373 179.966 123.364 180.03 123.355C179.967 125.307 180.531 126.754 181.067 128.14C181.648 129.545 182.149 130.905 182.017 132.7C181.781 135.258 182.729 136.888 183.424 138.067C183.715 138.51 183.934 138.902 184.04 139.256C184.321 140.044 184.136 140.686 183.969 141.144C183.864 141.462 183.862 141.555 183.934 141.61C184.541 141.182 185.026 140.196 184.805 138.727C184.707 138.107 184.489 137.642 184.216 137.125C183.759 136.125 183.177 134.996 183.407 132.109C183.546 129.961 183.133 128.731 182.702 127.503C182.28 126.26 181.885 125.093 182.14 123.06C182.043 125.044 182.464 126.208 182.888 127.424C183.282 128.657 183.76 129.919 183.547 132.09C183.318 134.937 183.918 136.063 184.356 137.053C184.639 137.554 184.858 138.033 184.991 138.701C185.177 140.122 184.751 141.193 184.304 141.638C184.158 141.685 184.011 141.732 183.865 141.779Z" fill="#7C381D"/>
</g>
<mask id="mask99_3_4025" style="mask-type:luminance" maskUnits="userSpaceOnUse" x="0" y="0" width="358" height="228">
<path d="M0 9.64031C119.274 43.0353 238.55 -23.7547 357.825 9.64031C357.825 79.2123 357.825 148.785 357.825 218.357C238.551 184.962 119.275 251.752 0 218.357C0 148.785 0 79.2123 0 9.64031Z" fill="white"/>
</mask>
<g mask="url(#mask99_3_4025)">
<path d="M180.716 123.929C180.929 127.673 183.048 129.061 182.634 132.562C183.546 129.699 181.331 127.906 181.473 123.875C181.221 123.893 180.968 123.911 180.716 123.929Z" fill="#7C381D"/>
</g>
<mask id="mask100_3_4025" style="mask-type:luminance" maskUnits="userSpaceOnUse" x="0" y="0" width="358" height="228">
<path d="M0 9.64031C119.274 43.0353 238.55 -23.7547 357.825 9.64031C357.825 79.2123 357.825 148.785 357.825 218.357C238.551 184.962 119.275 251.752 0 218.357C0 148.785 0 79.2123 0 9.64031Z" fill="white"/>
</mask>
<g mask="url(#mask100_3_4025)">
<path d="M178.931 102.392C185.334 101.494 190.513 105.957 190.514 112.348C190.513 118.777 185.335 124.688 178.931 125.586C172.501 126.487 167.313 122.013 167.312 115.583C167.311 109.193 172.499 103.294 178.931 102.392Z" fill="#F0BC50"/>
</g>
<mask id="mask101_3_4025" style="mask-type:luminance" maskUnits="userSpaceOnUse" x="0" y="0" width="358" height="228">
<path d="M0 9.64031C119.274 43.0353 238.55 -23.7547 357.825 9.64031C357.825 79.2123 357.825 148.785 357.825 218.357C238.551 184.962 119.275 251.752 0 218.357C0 148.785 0 79.2123 0 9.64031Z" fill="white"/>
</mask>
<g mask="url(#mask101_3_4025)">
<path d="M178.931 125.665C172.474 126.57 167.243 122.062 167.242 115.592C167.243 109.176 172.473 103.222 178.931 102.317C185.358 101.415 190.628 105.915 190.628 112.333C190.627 118.801 185.361 124.764 178.931 125.665ZM178.931 102.484C172.579 103.375 167.4 109.26 167.4 115.57C167.4 121.947 172.58 126.398 178.931 125.507C185.308 124.613 190.428 118.736 190.427 112.36C190.427 106.048 185.306 101.59 178.931 102.484Z" fill="#7C381D"/>
</g>
<mask id="mask102_3_4025" style="mask-type:luminance" maskUnits="userSpaceOnUse" x="0" y="0" width="358" height="228">
<path d="M0 9.64031C119.274 43.0353 238.55 -23.7547 357.825 9.64031C357.825 79.2123 357.825 148.785 357.825 218.357C238.551 184.962 119.275 251.752 0 218.357C0 148.785 0 79.2123 0 9.64031Z" fill="white"/>
</mask>
<g mask="url(#mask102_3_4025)">
<path d="M186.257 110.467C184.18 108.984 181.611 109.066 180.153 110.637C179.132 112.122 179.217 113.763 180.469 115.299C180.337 115.317 180.152 115.448 180.073 115.512C179.184 113.926 179.034 112.188 179.607 110.502C181.611 108.618 184.302 108.069 186.257 110.467Z" fill="#7C381D"/>
</g>
<mask id="mask103_3_4025" style="mask-type:luminance" maskUnits="userSpaceOnUse" x="0" y="0" width="358" height="228">
<path d="M0 9.64031C119.274 43.0353 238.55 -23.7547 357.825 9.64031C357.825 79.2123 357.825 148.785 357.825 218.357C238.551 184.962 119.275 251.752 0 218.357C0 148.785 0 79.2123 0 9.64031Z" fill="white"/>
</mask>
<g mask="url(#mask103_3_4025)">
<path d="M183.046 110.366C181.832 110.535 181.613 110.852 181.067 111.377C180.531 111.901 180.256 111.834 180.153 111.954C180.073 112.044 180.153 112.306 180.338 112.188C180.528 112.06 180.893 111.851 181.429 111.327C181.926 110.808 182.52 110.725 183.046 110.652C184.639 110.429 185.527 111.647 185.712 111.528C185.888 111.412 184.804 110.12 183.046 110.366Z" fill="#7C381D"/>
</g>
<mask id="mask104_3_4025" style="mask-type:luminance" maskUnits="userSpaceOnUse" x="0" y="0" width="358" height="228">
<path d="M0 9.64031C119.274 43.0353 238.55 -23.7547 357.825 9.64031C357.825 79.2123 357.825 148.785 357.825 218.357C238.551 184.962 119.275 251.752 0 218.357C0 148.785 0 79.2123 0 9.64031Z" fill="white"/>
</mask>
<g mask="url(#mask104_3_4025)">
<path d="M185.043 111.621C183.935 110.527 181.781 110.736 180.892 112.294C181.003 112.278 181.116 112.263 181.227 112.247C182.142 110.685 184.306 110.99 184.437 111.614C184.437 111.676 184.437 111.737 184.437 111.799C184.639 111.74 184.841 111.681 185.043 111.621Z" fill="#7C381D"/>
</g>
<mask id="mask105_3_4025" style="mask-type:luminance" maskUnits="userSpaceOnUse" x="0" y="0" width="358" height="228">
<path d="M0 9.64031C119.274 43.0353 238.55 -23.7547 357.825 9.64031C357.825 79.2123 357.825 148.785 357.825 218.357C238.551 184.962 119.275 251.752 0 218.357C0 148.785 0 79.2123 0 9.64031Z" fill="white"/>
</mask>
<g mask="url(#mask105_3_4025)">
<path d="M182.863 111.02C183.286 110.961 183.67 111.277 183.672 111.721C183.671 112.156 183.287 112.58 182.863 112.638C182.422 112.7 182.045 112.383 182.045 111.948C182.045 111.504 182.423 111.081 182.863 111.02Z" fill="#7C381D"/>
</g>
<mask id="mask106_3_4025" style="mask-type:luminance" maskUnits="userSpaceOnUse" x="0" y="0" width="358" height="228">
<path d="M0 9.64031C119.274 43.0353 238.55 -23.7547 357.825 9.64031C357.825 79.2123 357.825 148.785 357.825 218.357C238.551 184.962 119.275 251.752 0 218.357C0 148.785 0 79.2123 0 9.64031Z" fill="white"/>
</mask>
<g mask="url(#mask106_3_4025)">
<path d="M180.892 112.294C181.782 112.961 183.759 112.79 185.043 111.621C184.841 111.619 184.639 111.617 184.437 111.614C183.546 112.714 182.14 112.818 181.227 112.247C181.227 112.185 181.227 112.124 181.227 112.062C181.116 112.14 181.003 112.217 180.892 112.294Z" fill="#7C381D"/>
</g>
<mask id="mask107_3_4025" style="mask-type:luminance" maskUnits="userSpaceOnUse" x="0" y="0" width="358" height="228">
<path d="M0 9.64031C119.274 43.0353 238.55 -23.7547 357.825 9.64031C357.825 79.2123 357.825 148.785 357.825 218.357C238.551 184.962 119.275 251.752 0 218.357C0 148.785 0 79.2123 0 9.64031Z" fill="white"/>
</mask>
<g mask="url(#mask107_3_4025)">
<path d="M185.176 112.038C183.673 113.431 182.144 113.513 181.227 113.144C180.34 112.714 180.339 112.556 180.531 112.529C180.701 112.506 180.892 112.637 181.613 112.892C182.316 113.145 183.409 112.993 185.176 112.038Z" fill="#7C381D"/>
</g>
<mask id="mask108_3_4025" style="mask-type:luminance" maskUnits="userSpaceOnUse" x="0" y="0" width="358" height="228">
<path d="M0 9.64031C119.274 43.0353 238.55 -23.7547 357.825 9.64031C357.825 79.2123 357.825 148.785 357.825 218.357C238.551 184.962 119.275 251.752 0 218.357C0 148.785 0 79.2123 0 9.64031Z" fill="white"/>
</mask>
<g mask="url(#mask108_3_4025)">
<path d="M180.804 115.358C181.069 115.387 181.228 115.694 181.113 115.97C181.006 116.276 180.701 116.477 180.47 116.377C180.223 116.358 180.118 116.188 180.074 115.975C179.996 116.152 179.608 116.748 178.93 116.843C178.874 116.851 178.818 116.859 178.762 116.866C178.818 116.95 178.874 117.035 178.93 117.12C179.116 117.094 179.608 117.025 179.994 116.694C180.256 117.013 180.715 117.055 181.111 116.761C181.47 116.434 181.595 115.915 181.312 115.577C181.21 115.42 181.005 115.343 180.804 115.358Z" fill="#7C381D"/>
</g>
<mask id="mask109_3_4025" style="mask-type:luminance" maskUnits="userSpaceOnUse" x="0" y="0" width="358" height="228">
<path d="M0 9.64031C119.274 43.0353 238.55 -23.7547 357.825 9.64031C357.825 79.2123 357.825 148.785 357.825 218.357C238.551 184.962 119.275 251.752 0 218.357C0 148.785 0 79.2123 0 9.64031Z" fill="white"/>
</mask>
<g mask="url(#mask109_3_4025)">
<path d="M181.833 118.922C181.066 118.501 180.697 117.753 179.81 117.877C179.61 117.905 179.255 118.047 178.931 118.277C178.875 118.285 178.819 118.293 178.763 118.3C178.819 118.376 178.875 118.452 178.931 118.528C179.254 118.483 179.811 117.969 180.47 118.233C181.068 118.501 181.431 118.794 181.833 118.922Z" fill="#7C381D"/>
</g>
<mask id="mask110_3_4025" style="mask-type:luminance" maskUnits="userSpaceOnUse" x="0" y="0" width="358" height="228">
<path d="M0 9.64031C119.274 43.0353 238.55 -23.7547 357.825 9.64031C357.825 79.2123 357.825 148.785 357.825 218.357C238.551 184.962 119.275 251.752 0 218.357C0 148.785 0 79.2123 0 9.64031Z" fill="white"/>
</mask>
<g mask="url(#mask110_3_4025)">
<path d="M181.613 118.953C179.81 118.678 179.44 119.073 178.931 119.144C178.875 119.152 178.819 119.16 178.763 119.167C178.819 119.287 178.875 119.407 178.931 119.526C179.609 119.432 179.997 118.835 181.613 118.953Z" fill="#7C381D"/>
</g>
<mask id="mask111_3_4025" style="mask-type:luminance" maskUnits="userSpaceOnUse" x="0" y="0" width="358" height="228">
<path d="M0 9.64031C119.274 43.0353 238.55 -23.7547 357.825 9.64031C357.825 79.2123 357.825 148.785 357.825 218.357C238.551 184.962 119.275 251.752 0 218.357C0 148.785 0 79.2123 0 9.64031Z" fill="white"/>
</mask>
<g mask="url(#mask111_3_4025)">
<path d="M181.833 118.922C179.923 119.005 180.528 120.102 178.931 120.326C178.875 120.334 178.819 120.342 178.763 120.349C178.819 120.429 178.875 120.51 178.931 120.59C180.891 120.316 179.996 119.377 181.833 118.922Z" fill="#7C381D"/>
</g>
<mask id="mask112_3_4025" style="mask-type:luminance" maskUnits="userSpaceOnUse" x="0" y="0" width="358" height="228">
<path d="M0 9.64031C119.274 43.0353 238.55 -23.7547 357.825 9.64031C357.825 79.2123 357.825 148.785 357.825 218.357C238.551 184.962 119.275 251.752 0 218.357C0 148.785 0 79.2123 0 9.64031Z" fill="white"/>
</mask>
<g mask="url(#mask112_3_4025)">
<path d="M180.531 121.958C180.529 121.074 179.81 120.467 178.931 120.59C178.051 120.713 177.314 121.525 177.313 122.408C177.513 121.496 178.402 120.822 179.31 120.932C179.924 120.974 180.392 121.371 180.531 121.958Z" fill="#7C381D"/>
</g>
<mask id="mask113_3_4025" style="mask-type:luminance" maskUnits="userSpaceOnUse" x="0" y="0" width="358" height="228">
<path d="M0 9.64031C119.274 43.0353 238.55 -23.7547 357.825 9.64031C357.825 79.2123 357.825 148.785 357.825 218.357C238.551 184.962 119.275 251.752 0 218.357C0 148.785 0 79.2123 0 9.64031Z" fill="white"/>
</mask>
<g mask="url(#mask113_3_4025)">
<path d="M171.604 112.515C173.66 110.456 176.23 109.82 177.682 110.984C178.722 112.181 178.605 113.85 177.41 115.728C177.5 115.716 177.682 115.795 177.762 115.837C178.622 114.006 178.837 112.217 178.219 110.698C176.23 109.371 173.575 109.571 171.604 112.515Z" fill="#7C381D"/>
</g>
<mask id="mask114_3_4025" style="mask-type:luminance" maskUnits="userSpaceOnUse" x="0" y="0" width="358" height="228">
<path d="M0 9.64031C119.274 43.0353 238.55 -23.7547 357.825 9.64031C357.825 79.2123 357.825 148.785 357.825 218.357C238.551 184.962 119.275 251.752 0 218.357C0 148.785 0 79.2123 0 9.64031Z" fill="white"/>
</mask>
<g mask="url(#mask114_3_4025)">
<path d="M174.824 111.516C175.967 111.356 176.23 111.605 176.785 111.976C177.312 112.351 177.552 112.212 177.682 112.299C177.761 112.367 177.682 112.651 177.497 112.585C177.313 112.509 176.969 112.399 176.405 112.029C175.894 111.652 175.342 111.729 174.823 111.801C173.223 112.025 172.343 113.489 172.132 113.426C171.946 113.36 173.03 111.767 174.824 111.516Z" fill="#7C381D"/>
</g>
<mask id="mask115_3_4025" style="mask-type:luminance" maskUnits="userSpaceOnUse" x="0" y="0" width="358" height="228">
<path d="M0 9.64031C119.274 43.0353 238.55 -23.7547 357.825 9.64031C357.825 79.2123 357.825 148.785 357.825 218.357C238.551 184.962 119.275 251.752 0 218.357C0 148.785 0 79.2123 0 9.64031Z" fill="white"/>
</mask>
<g mask="url(#mask115_3_4025)">
<path d="M172.765 113.338C173.926 111.927 176.054 111.537 176.969 112.843C176.846 112.86 176.723 112.878 176.6 112.895C175.702 111.586 173.576 112.491 173.415 113.156C173.415 113.218 173.415 113.279 173.415 113.341C173.199 113.339 172.982 113.339 172.765 113.338Z" fill="#7C381D"/>
</g>
<mask id="mask116_3_4025" style="mask-type:luminance" maskUnits="userSpaceOnUse" x="0" y="0" width="358" height="228">
<path d="M0 9.64031C119.274 43.0353 238.55 -23.7547 357.825 9.64031C357.825 79.2123 357.825 148.785 357.825 218.357C238.551 184.962 119.275 251.752 0 218.357C0 148.785 0 79.2123 0 9.64031Z" fill="white"/>
</mask>
<g mask="url(#mask116_3_4025)">
<path d="M175.017 112.118C174.55 112.183 174.206 112.601 174.207 113.045C174.207 113.48 174.549 113.802 175.017 113.736C175.43 113.678 175.789 113.258 175.79 112.823C175.79 112.379 175.429 112.06 175.017 112.118Z" fill="#7C381D"/>
</g>
<mask id="mask117_3_4025" style="mask-type:luminance" maskUnits="userSpaceOnUse" x="0" y="0" width="358" height="228">
<path d="M0 9.64031C119.274 43.0353 238.55 -23.7547 357.825 9.64031C357.825 79.2123 357.825 148.785 357.825 218.357C238.551 184.962 119.275 251.752 0 218.357C0 148.785 0 79.2123 0 9.64031Z" fill="white"/>
</mask>
<g mask="url(#mask117_3_4025)">
<path d="M176.969 112.843C176.052 113.762 174.119 114.139 172.765 113.338C172.982 113.277 173.199 113.216 173.415 113.155C174.284 114.009 175.704 113.719 176.6 112.894C176.601 112.832 176.601 112.771 176.6 112.709C176.723 112.755 176.846 112.799 176.969 112.843Z" fill="#7C381D"/>
</g>
<mask id="mask118_3_4025" style="mask-type:luminance" maskUnits="userSpaceOnUse" x="0" y="0" width="358" height="228">
<path d="M0 9.64031C119.274 43.0353 238.55 -23.7547 357.825 9.64031C357.825 79.2123 357.825 148.785 357.825 218.357C238.551 184.962 119.275 251.752 0 218.357C0 148.785 0 79.2123 0 9.64031Z" fill="white"/>
</mask>
<g mask="url(#mask118_3_4025)">
<path d="M172.659 113.788C174.207 114.755 175.702 114.414 176.599 113.791C177.496 113.111 177.498 112.953 177.312 112.979C177.127 113.005 176.969 113.185 176.229 113.645C175.509 114.098 174.472 114.244 172.659 113.788Z" fill="#7C381D"/>
</g>
<mask id="mask119_3_4025" style="mask-type:luminance" maskUnits="userSpaceOnUse" x="0" y="0" width="358" height="228">
<path d="M0 9.64031C119.274 43.0353 238.55 -23.7547 357.825 9.64031C357.825 79.2123 357.825 148.785 357.825 218.357C238.551 184.962 119.275 251.752 0 218.357C0 148.785 0 79.2123 0 9.64031Z" fill="white"/>
</mask>
<g mask="url(#mask119_3_4025)">
<path d="M177.048 115.884C176.786 115.987 176.634 116.338 176.758 116.58C176.827 116.861 177.127 116.977 177.409 116.806C177.6 116.726 177.762 116.519 177.761 116.3C177.838 116.456 178.218 116.944 178.931 116.844C178.993 116.835 179.054 116.827 179.116 116.818C179.054 116.919 178.993 117.02 178.931 117.121C178.765 117.144 178.218 117.221 177.839 116.996C177.603 117.386 177.103 117.561 176.758 117.371C176.368 117.148 176.283 116.659 176.512 116.249C176.678 116.054 176.864 115.923 177.048 115.884Z" fill="#7C381D"/>
</g>
<mask id="mask120_3_4025" style="mask-type:luminance" maskUnits="userSpaceOnUse" x="0" y="0" width="358" height="228">
<path d="M0 9.64031C119.274 43.0353 238.55 -23.7547 357.825 9.64031C357.825 79.2123 357.825 148.785 357.825 218.357C238.551 184.962 119.275 251.752 0 218.357C0 148.785 0 79.2123 0 9.64031Z" fill="white"/>
</mask>
<g mask="url(#mask120_3_4025)">
<path d="M175.967 119.743C176.785 119.101 177.13 118.253 178.033 118.126C178.22 118.1 178.569 118.143 178.93 118.277C178.992 118.268 179.053 118.26 179.115 118.251C179.053 118.343 178.992 118.436 178.93 118.528C178.571 118.578 178.034 118.218 177.409 118.661C176.785 119.1 176.407 119.497 175.967 119.743Z" fill="#7C381D"/>
</g>
<mask id="mask121_3_4025" style="mask-type:luminance" maskUnits="userSpaceOnUse" x="0" y="0" width="358" height="228">
<path d="M0 9.64031C119.274 43.0353 238.55 -23.7547 357.825 9.64031C357.825 79.2123 357.825 148.785 357.825 218.357C238.551 184.962 119.275 251.752 0 218.357C0 148.785 0 79.2123 0 9.64031Z" fill="white"/>
</mask>
<g mask="url(#mask121_3_4025)">
<path d="M176.23 119.706C178.035 118.926 178.394 119.219 178.931 119.144C178.993 119.135 179.054 119.127 179.116 119.118C179.054 119.254 178.993 119.39 178.931 119.527C178.216 119.626 177.839 119.138 176.23 119.706Z" fill="#7C381D"/>
</g>
<mask id="mask122_3_4025" style="mask-type:luminance" maskUnits="userSpaceOnUse" x="0" y="0" width="358" height="228">
<path d="M0 9.64031C119.274 43.0353 238.55 -23.7547 357.825 9.64031C357.825 79.2123 357.825 148.785 357.825 218.357C238.551 184.962 119.275 251.752 0 218.357C0 148.785 0 79.2123 0 9.64031Z" fill="white"/>
</mask>
<g mask="url(#mask122_3_4025)">
<path d="M175.967 119.743C177.943 119.282 177.313 120.553 178.931 120.326C178.993 120.317 179.054 120.309 179.116 120.3C179.054 120.397 178.993 120.493 178.931 120.59C176.97 120.865 177.839 119.679 175.967 119.743Z" fill="#7C381D"/>
</g>
<mask id="mask123_3_4025" style="mask-type:luminance" maskUnits="userSpaceOnUse" x="0" y="0" width="358" height="228">
<path d="M0 9.64031C119.274 43.0353 238.55 -23.7547 357.825 9.64031C357.825 79.2123 357.825 148.785 357.825 218.357C238.551 184.962 119.275 251.752 0 218.357C0 148.785 0 79.2123 0 9.64031Z" fill="white"/>
</mask>
<g mask="url(#mask123_3_4025)">
<path d="M177.313 122.409C177.313 121.525 178.05 120.714 178.931 120.591C179.81 120.468 180.531 121.075 180.531 121.959C180.34 121.102 179.441 120.678 178.536 121.042C177.947 121.251 177.445 121.784 177.313 122.409Z" fill="#7C381D"/>
</g>
</g>
</svg>
