<svg width="358" height="229" viewBox="0 0 358 229" fill="none" xmlns="http://www.w3.org/2000/svg">
<mask id="mask0_12_5933" style="mask-type:luminance" maskUnits="userSpaceOnUse" x="0" y="0" width="358" height="229">
<path d="M0 9.64204C119.28 43.043 238.562 -23.759 357.842 9.64204C357.842 79.227 357.842 148.813 357.842 218.399C238.562 184.998 119.28 251.8 0 218.399C0 148.814 0 79.228 0 9.64204Z" fill="white"/>
</mask>
<g mask="url(#mask0_12_5933)">
<path d="M0 218.399C119.28 251.8 238.562 184.998 357.842 218.399C357.842 148.814 357.842 79.228 357.842 9.64204C238.562 -23.759 119.28 43.043 0 9.64204C0 79.228 0 148.814 0 218.399Z" fill="#2F2E7A"/>
</g>
<mask id="mask1_12_5933" style="mask-type:luminance" maskUnits="userSpaceOnUse" x="0" y="0" width="358" height="229">
<path d="M0 9.64204C119.28 43.043 238.562 -23.759 357.842 9.64204C357.842 79.227 357.842 148.813 357.842 218.399C238.562 184.998 119.28 251.8 0 218.399C0 148.814 0 79.228 0 9.64204Z" fill="white"/>
</mask>
<g mask="url(#mask1_12_5933)">
<path d="M94.105 146.734C95.937 152.304 97.769 157.864 99.601 163.413C105.142 160.996 110.684 158.482 116.226 155.892C112.953 161.121 109.681 166.322 106.408 171.493C111.492 174.157 116.577 176.746 121.662 179.277C115.763 180.366 109.864 181.378 103.965 182.286C104.779 188.096 105.594 193.904 106.408 199.709C102.307 195.709 98.206 191.662 94.105 187.559C90.032 192.036 85.959 196.456 81.886 200.814C82.698 194.937 83.511 189.058 84.324 183.175C78.41 182.791 72.496 182.278 66.582 181.609C71.684 178.715 76.785 175.706 81.887 172.597C78.607 167.712 75.325 162.786 72.045 157.815C77.598 159.969 83.15 161.993 88.703 163.908C90.504 158.196 92.305 152.471 94.105 146.734Z" fill="white"/>
</g>
<mask id="mask2_12_5933" style="mask-type:luminance" maskUnits="userSpaceOnUse" x="0" y="0" width="358" height="229">
<path d="M0 9.64204C119.28 43.043 238.562 -23.759 357.842 9.64204C357.842 79.227 357.842 148.813 357.842 218.399C238.562 184.998 119.28 251.8 0 218.399C0 148.814 0 79.228 0 9.64204Z" fill="white"/>
</mask>
<g mask="url(#mask2_12_5933)">
<path d="M282.375 158.389C283.252 161.077 284.129 163.767 285.006 166.461C287.645 165.486 290.283 164.54 292.922 163.625C291.37 165.931 289.819 168.247 288.268 170.573C290.687 172.056 293.107 173.565 295.526 175.1C292.703 175.232 289.879 175.4 287.055 175.603C287.459 178.401 287.864 181.2 288.268 183.999C286.304 181.92 284.339 179.857 282.375 177.81C280.444 179.855 278.513 181.916 276.58 183.991C276.97 181.193 277.358 178.395 277.748 175.598C274.934 175.391 272.119 175.215 269.305 175.067C271.73 173.545 274.156 172.044 276.58 170.565C275.022 168.235 273.466 165.915 271.908 163.604C274.547 164.529 277.185 165.48 279.824 166.458C280.675 163.765 281.524 161.076 282.375 158.389Z" fill="white"/>
</g>
<mask id="mask3_12_5933" style="mask-type:luminance" maskUnits="userSpaceOnUse" x="0" y="0" width="358" height="229">
<path d="M0 9.64204C119.28 43.043 238.562 -23.759 357.842 9.64204C357.842 79.227 357.842 148.813 357.842 218.399C238.562 184.998 119.28 251.8 0 218.399C0 148.814 0 79.228 0 9.64204Z" fill="white"/>
</mask>
<g mask="url(#mask3_12_5933)">
<path d="M235.353 86.394C236.215 88.992 237.077 91.592 237.939 94.193C240.572 92.945 243.205 91.714 245.837 90.5C244.283 92.985 242.73 95.477 241.177 97.974C243.598 99.195 246.02 100.43 248.441 101.681C245.632 102.134 242.824 102.608 240.015 103.101C240.403 105.87 240.789 108.639 241.177 111.409C239.236 109.531 237.294 107.663 235.353 105.803C233.401 108.046 231.448 110.297 229.496 112.555C229.883 109.709 230.27 106.865 230.658 104.019C227.848 104.076 225.04 104.149 222.23 104.236C224.652 102.52 227.074 100.814 229.496 99.12C227.942 96.927 226.388 94.738 224.834 92.554C227.473 93.257 230.111 93.973 232.75 94.703C233.618 91.932 234.485 89.162 235.353 86.394Z" fill="white"/>
</g>
<mask id="mask4_12_5933" style="mask-type:luminance" maskUnits="userSpaceOnUse" x="0" y="0" width="358" height="229">
<path d="M0 9.64204C119.28 43.043 238.562 -23.759 357.842 9.64204C357.842 79.227 357.842 148.813 357.842 218.399C238.562 184.998 119.28 251.8 0 218.399C0 148.814 0 79.228 0 9.64204Z" fill="white"/>
</mask>
<g mask="url(#mask4_12_5933)">
<path d="M282.375 32.8571C283.252 35.5491 284.129 38.2441 285.006 40.9421C287.645 39.9661 290.283 39.0211 292.922 38.1061C291.37 40.4041 289.819 42.7131 288.268 45.0321C290.687 46.5181 293.107 48.0301 295.526 49.5681C292.703 49.7051 289.879 49.8781 287.055 50.0851C287.459 52.8781 287.864 55.6731 288.268 58.4681C286.304 56.3981 284.339 54.3431 282.375 52.3051C280.444 54.3421 278.513 56.3941 276.58 58.4601C276.97 55.6661 277.358 52.8721 277.748 50.0801C274.934 49.8691 272.119 49.6881 269.305 49.5361C271.73 48.0111 274.156 46.5071 276.58 45.0251C275.022 42.7031 273.466 40.3891 271.908 38.0861C274.547 39.0111 277.185 39.9621 279.824 40.9401C280.675 38.2421 281.524 35.5481 282.375 32.8571Z" fill="white"/>
</g>
<mask id="mask5_12_5933" style="mask-type:luminance" maskUnits="userSpaceOnUse" x="0" y="0" width="358" height="229">
<path d="M0 9.64204C119.28 43.043 238.562 -23.759 357.842 9.64204C357.842 79.227 357.842 148.813 357.842 218.399C238.562 184.998 119.28 251.8 0 218.399C0 148.814 0 79.228 0 9.64204Z" fill="white"/>
</mask>
<g mask="url(#mask5_12_5933)">
<path d="M324.26 74.036C325.116 76.839 325.972 79.646 326.828 82.457C329.491 81.849 332.153 81.282 334.816 80.758C333.236 82.83 331.655 84.917 330.074 87.019C332.511 88.84 334.948 90.697 337.385 92.591C334.564 92.307 331.742 92.073 328.922 91.886C329.321 94.748 329.721 97.611 330.119 100.474C328.165 98.111 326.212 95.77 324.26 93.452C322.316 95.236 320.372 97.042 318.43 98.869C318.826 96.115 319.222 93.361 319.618 90.609C316.794 90.02 313.971 89.476 311.147 88.972C313.574 87.757 316.001 86.573 318.43 85.421C316.878 82.887 315.327 80.367 313.776 77.859C316.415 79.119 319.053 80.416 321.692 81.752C322.548 79.177 323.403 76.605 324.26 74.036Z" fill="white"/>
</g>
<mask id="mask6_12_5933" style="mask-type:luminance" maskUnits="userSpaceOnUse" x="0" y="0" width="358" height="229">
<path d="M0 9.64204C119.28 43.043 238.562 -23.759 357.842 9.64204C357.842 79.227 357.842 148.813 357.842 218.399C238.562 184.998 119.28 251.8 0 218.399C0 148.814 0 79.228 0 9.64204Z" fill="white"/>
</mask>
<g mask="url(#mask6_12_5933)">
<path d="M301.234 109.592C301.921 111.309 302.606 113.029 303.293 114.75C305.093 114.995 306.892 115.256 308.691 115.534C307.319 116.588 305.948 117.652 304.576 118.725C304.996 120.511 305.415 122.298 305.834 124.086C304.301 123.016 302.768 121.958 301.234 120.912C299.71 121.787 298.184 122.672 296.66 123.569C297.08 121.829 297.499 120.089 297.918 118.351C296.543 117.122 295.168 115.903 293.793 114.692C295.593 114.62 297.394 114.562 299.193 114.52C299.874 112.874 300.554 111.232 301.234 109.592Z" fill="white"/>
</g>
<mask id="mask7_12_5933" style="mask-type:luminance" maskUnits="userSpaceOnUse" x="0" y="0" width="358" height="229">
<path d="M0 9.64204C119.28 43.043 238.562 -23.759 357.842 9.64204C357.842 79.227 357.842 148.813 357.842 218.399C238.562 184.998 119.28 251.8 0 218.399C0 148.814 0 79.228 0 9.64204Z" fill="white"/>
</mask>
<g mask="url(#mask7_12_5933)">
<path d="M78.457 19.274C78.457 29.739 78.457 40.205 78.457 50.67C52.305 50.868 26.152 48.362 0 41.039C0 51.5 0 61.961 0 72.422C26.152 79.745 52.305 82.252 78.457 82.053C78.457 92.51 78.457 102.966 78.457 113.423C88.906 113.344 99.355 112.833 109.805 112.025C109.805 101.568 109.805 91.112 109.805 80.655C135.972 78.632 162.14 74.745 188.307 71.112C188.307 60.651 188.307 50.19 188.307 39.729C162.14 43.363 135.972 47.249 109.805 49.272C109.805 38.807 109.805 28.341 109.805 17.876C99.355 18.683 88.906 19.195 78.457 19.274Z" fill="white"/>
</g>
<mask id="mask8_12_5933" style="mask-type:luminance" maskUnits="userSpaceOnUse" x="0" y="0" width="358" height="229">
<path d="M0 9.64204C119.28 43.043 238.562 -23.759 357.842 9.64204C357.842 79.227 357.842 148.813 357.842 218.399C238.562 184.998 119.28 251.8 0 218.399C0 148.814 0 79.228 0 9.64204Z" fill="white"/>
</mask>
<g mask="url(#mask8_12_5933)">
<path d="M0 9.64203C0 13.153 0 16.664 0 20.175C55.744 63.656 111.488 85.254 167.232 105.421C174.242 104.452 181.252 103.461 188.261 102.487C188.261 98.982 188.261 95.477 188.261 91.972C132.523 71.834 76.784 52.838 21.046 14.536C14.031 13.225 7.015 11.607 0 9.64203Z" fill="white"/>
</g>
<mask id="mask9_12_5933" style="mask-type:luminance" maskUnits="userSpaceOnUse" x="0" y="0" width="358" height="229">
<path d="M0 9.64204C119.28 43.043 238.562 -23.759 357.842 9.64204C357.842 79.227 357.842 148.813 357.842 218.399C238.562 184.998 119.28 251.8 0 218.399C0 148.814 0 79.228 0 9.64204Z" fill="white"/>
</mask>
<g mask="url(#mask9_12_5933)">
<path d="M167.232 11.272C111.488 46.855 55.744 81.008 0 93.277C0 96.782 0 100.287 0 103.792C7.016 105.756 14.031 107.375 21.047 108.687C76.785 91.239 132.524 54.484 188.262 18.872C188.262 15.361 188.262 11.8501 188.262 8.33905C181.251 9.31105 174.241 10.303 167.232 11.272Z" fill="white"/>
</g>
<mask id="mask10_12_5933" style="mask-type:luminance" maskUnits="userSpaceOnUse" x="0" y="0" width="358" height="229">
<path d="M0 9.64204C119.28 43.043 238.562 -23.759 357.842 9.64204C357.842 79.227 357.842 148.813 357.842 218.399C238.562 184.998 119.28 251.8 0 218.399C0 148.814 0 79.228 0 9.64204Z" fill="white"/>
</mask>
<g mask="url(#mask10_12_5933)">
<path d="M84.701 19.1761C84.7 31.7321 84.7 44.2881 84.701 56.8441C56.468 57.5091 28.233 55.2171 0 47.3101C0 53.5851 0 59.8611 0 66.1371C28.233 74.0431 56.468 76.3351 84.701 75.6711C84.7 88.2231 84.7 100.774 84.701 113.326C90.977 113.178 97.255 112.884 103.533 112.473C103.533 99.9221 103.533 87.3701 103.533 74.8181C131.776 72.9701 160.018 68.7551 188.262 64.8331C188.262 58.5581 188.262 52.2821 188.262 46.0061C160.019 49.9281 131.776 54.1431 103.533 55.9911C103.533 43.4351 103.533 30.8791 103.533 18.3231C97.255 18.7341 90.977 19.0281 84.701 19.1761Z" fill="#E62328"/>
</g>
<mask id="mask11_12_5933" style="mask-type:luminance" maskUnits="userSpaceOnUse" x="0" y="0" width="358" height="229">
<path d="M0 9.64204C119.28 43.043 238.562 -23.759 357.842 9.64204C357.842 79.227 357.842 148.813 357.842 218.399C238.562 184.998 119.28 251.8 0 218.399C0 148.814 0 79.228 0 9.64204Z" fill="white"/>
</mask>
<g mask="url(#mask11_12_5933)">
<path d="M0 9.64205C0 11.9881 0 14.333 0 16.679C16.228 29.343 32.456 40.1521 48.684 49.6121C53.378 49.9991 58.072 50.274 62.766 50.447C41.844 39.208 20.922 25.9671 0 9.64205ZM174.224 10.3C153.311 23.687 132.397 36.9941 111.484 49.1401C116.167 48.7641 120.848 48.3291 125.531 47.8491C146.441 35.2381 167.351 21.7081 188.261 8.33905C183.583 8.98805 178.903 9.64605 174.224 10.3Z" fill="#E62328"/>
</g>
<mask id="mask12_12_5933" style="mask-type:luminance" maskUnits="userSpaceOnUse" x="0" y="0" width="358" height="229">
<path d="M0 9.64204C119.28 43.043 238.562 -23.759 357.842 9.64204C357.842 79.227 357.842 148.813 357.842 218.399C238.562 184.998 119.28 251.8 0 218.399C0 148.814 0 79.228 0 9.64204Z" fill="white"/>
</mask>
<g mask="url(#mask12_12_5933)">
<path d="M62.765 81.831C41.843 91.513 20.921 99.194 -0.000976562 103.792C4.67202 105.101 9.34602 106.255 14.019 107.269C34.941 101.348 55.863 92.585 76.785 82.063C72.112 82.077 67.438 82.004 62.765 81.831ZM125.531 79.232C146.456 87.542 167.382 94.931 188.306 102.482C188.306 100.147 188.306 97.812 188.306 95.476C172.054 89.611 155.802 83.845 139.55 77.668C134.878 78.227 130.204 78.752 125.531 79.232Z" fill="#E62328"/>
</g>
</svg>
