<svg width="128" height="128" viewBox="0 0 128 128" fill="none" xmlns="http://www.w3.org/2000/svg">
<path d="M114 54C114 26.3858 91.6142 4 64 4C36.3858 4 14 26.3858 14 54V74C14 101.614 36.3858 124 64 124C91.6142 124 114 101.614 114 74V54Z" fill="#F1F2F2"/>
<path d="M85 90C82.02 90 79.27 91.07 77 92.88V76H51V92.88C48.73 91.07 45.98 90 43 90C35.27 90 29 97.16 29 106C29 107.45 29.17 108.85 29.48 110.18C34.56 115.02 40.65 118.81 47.41 121.18C48.59 121.59 49.78 121.96 51 122.29C53.59 122.98 56.26 123.48 59 123.75C60.64 123.92 62.31 124 64 124C65.69 124 67.36 123.92 69 123.75C71.74 123.48 74.41 122.98 77 122.29C78.22 121.96 79.41 121.59 80.59 121.18C87.35 118.81 93.44 115.02 98.52 110.18C98.83 108.85 99 107.45 99 106C99 97.16 92.73 90 85 90Z" fill="#D87A1D"/>
<path d="M82.85 74C82.85 74 96.69 91 82.85 119H70V74H82.85Z" fill="#EA9232"/>
<path d="M45.15 74C45.15 74 31.31 91 45.15 119H58V74H45.15Z" fill="#EA9232"/>
<path d="M73 116H81C84.31 116 87 118.69 87 122C87 123.1 86.1 124 85 124H69C67.9 124 67 123.1 67 122C67 118.69 69.69 116 73 116Z" fill="#F3A950"/>
<path d="M59 124H43C41.9 124 41 123.1 41 122C41 118.69 43.69 116 47 116H55C58.31 116 61 118.69 61 122C61 123.1 60.1 124 59 124Z" fill="#F3A950"/>
<path d="M100.75 40.64C96.43 38.45 87.08 35.86 83.06 51.54C80.58 49.52 79 46.45 79 43C79 36.92 83.92 32 90 32C95.27 32 99.67 35.7 100.75 40.64Z" fill="#EA9232"/>
<path d="M101 43C101 43.14 101 43.29 100.99 43.43C100.77 49.31 95.9401 54 90.0001 54C88.9001 54 87.8401 53.84 86.8401 53.54C85.4401 53.12 84.1601 52.43 83.0601 51.54C87.0801 35.86 96.4301 38.45 100.75 40.64C100.91 41.4 101 42.19 101 43Z" fill="#D87A1D"/>
<path d="M27.25 40.64C31.57 38.45 40.92 35.86 44.94 51.54C47.42 49.52 49 46.45 49 43C49 36.92 44.08 32 38 32C32.73 32 28.33 35.7 27.25 40.64Z" fill="#EA9232"/>
<path d="M27 43C27 43.14 27 43.29 27.01 43.43C27.23 49.31 32.06 54 38 54C39.1 54 40.16 53.84 41.16 53.54C42.56 53.12 43.84 52.43 44.94 51.54C40.92 35.86 31.57 38.45 27.25 40.64C27.09 41.4 27 42.19 27 43Z" fill="#D87A1D"/>
<path d="M64 81C80.0163 81 93 70.2548 93 57C93 43.7452 80.0163 33 64 33C47.9837 33 35 43.7452 35 57C35 70.2548 47.9837 81 64 81Z" fill="#F3A950"/>
<path d="M64 75.5C72.2843 75.5 79 71.0228 79 65.5C79 59.9772 72.2843 55.5 64 55.5C55.7157 55.5 49 59.9772 49 65.5C49 71.0228 55.7157 75.5 64 75.5Z" fill="#EBC9A0"/>
<path d="M64 61C67.3137 61 70 59.2091 70 57C70 54.7909 67.3137 53 64 53C60.6863 53 58 54.7909 58 57C58 59.2091 60.6863 61 64 61Z" fill="#D87A1D"/>
<path d="M64.5 69C62.57 69 60.84 67.99 60.1 66.43C59.86 65.93 60.08 65.33 60.57 65.1C61.07 64.86 61.66 65.08 61.9 65.57C62.31 66.42 63.35 67 64.5 67C65.65 67 66.69 66.43 67.1 65.57C67.34 65.07 67.94 64.86 68.43 65.1C68.93 65.34 69.14 65.93 68.9 66.43C68.16 67.99 66.43 69 64.5 69Z" fill="#414042"/>
<path d="M74.5 50C73.67 50 73 50.67 73 51.5V53.5C73 54.33 73.67 55 74.5 55C75.33 55 76 54.33 76 53.5V51.5C76 50.67 75.33 50 74.5 50Z" fill="#414042"/>
<path d="M53.5 50C52.67 50 52 50.67 52 51.5V53.5C52 54.33 52.67 55 53.5 55C54.33 55 55 54.33 55 53.5V51.5C55 50.67 54.33 50 53.5 50Z" fill="#414042"/>
</svg>
