<svg width="128" height="128" viewBox="0 0 128 128" fill="none" xmlns="http://www.w3.org/2000/svg">
<path d="M114 54C114 26.3858 91.6142 4 64 4C36.3858 4 14 26.3858 14 54V74C14 101.614 36.3858 124 64 124C91.6142 124 114 101.614 114 74V54Z" fill="#F1F2F2"/>
<path d="M87.4299 78.03L78.6899 82.19L85.4399 96.39L94.5399 101.43C97.9599 103.36 101.48 103.73 104.69 103.04H104.7C109.26 96.66 112.36 89.17 113.5 81.05C105.57 73.86 87.4299 78.03 87.4299 78.03Z" fill="#E22B2B"/>
<path d="M99.4 103.17C101.22 103.47 103.01 103.4 104.71 103.03C106 101.22 107.18 99.3201 108.22 97.3401C105.96 100.02 102.87 102.14 99.4 103.17Z" fill="#D32424"/>
<path d="M107.96 78.04C108.9 78.87 109.73 79.84 110.41 80.96C111.64 83.01 112.19 85.2 112.18 87.39C112.76 85.33 113.2 83.22 113.5 81.06C111.97 79.66 110.05 78.7 107.96 78.04Z" fill="#D32424"/>
<path d="M56.45 111.52C52.35 100.08 69.94 86.3499 69.94 86.3499L78.69 82.1899L85.44 96.3899L83.61 106.63C81.15 121.19 60.55 122.96 56.44 111.52H56.45Z" fill="#E22B2B"/>
<path d="M56.45 111.53C55.37 108.52 55.79 105.35 57 102.29C57.05 103.55 57.28 104.8 57.72 106.04C61.06 115.32 73.72 117.1 81.89 111.5C76.25 121.44 60.03 121.53 56.44 111.53H56.45Z" fill="#D32424"/>
<path d="M100.7 89.8701C96.48 88.3701 90.05 89.7401 90.05 89.7401C90.05 89.7401 94.15 94.8601 98.37 96.3601C100.12 96.9801 102.05 96.0301 102.7 94.2401C103.34 92.4501 102.45 90.4901 100.7 89.8701Z" fill="#FFB0B0"/>
<path d="M106.7 82.69C103.89 81.69 99.6 82.6 99.6 82.6C99.6 82.6 102.34 86.01 105.15 87.01C106.31 87.42 107.61 86.79 108.04 85.6C108.47 84.41 107.87 83.1 106.71 82.69H106.7Z" fill="#F99393"/>
<path d="M106.73 92.1501C106.73 92.1501 108.02 93.7501 109.54 94.6601C109.94 93.7901 110.31 92.9101 110.65 92.0101C108.86 91.7001 106.73 92.1501 106.73 92.1501Z" fill="#FFB0B0"/>
<path d="M88.24 46.5699C78.4 59.3099 77.04 78.7499 77.04 78.7499L80.69 86.4099L94.74 79.7199C113.11 70.9799 111.59 64.9899 108.98 59.5099C106.37 54.0299 102.61 54.4799 101.69 44.1799C100.77 33.8799 98.08 33.8099 88.24 46.5499V46.5699Z" fill="#F34141"/>
<path d="M95.41 38.42C96.07 39.83 96.53 42.05 96.91 45.03C98.36 56.42 102.19 56.12 105.11 62.27C106.7 65.62 107.98 69.11 105.86 73.01C112.18 67.68 110.86 63.47 108.98 59.52C106.37 54.04 102.61 54.5 101.69 44.19C101.04 37.03 99.56 34.81 95.41 38.41V38.42Z" fill="#E22B2B"/>
<path d="M87.8259 57.1221L89.6589 56.2498L90.5312 58.0828C93.376 64.0604 90.83 71.2302 84.8524 74.075L83.0194 74.9473L82.147 73.1143C79.3023 67.1367 81.8483 59.9669 87.8259 57.1221Z" fill="#FFB0B0"/>
<path d="M83.01 74.95C84.67 78.45 90.28 79.26 95.53 76.76C93.87 73.26 88.26 72.45 83.01 74.95Z" fill="#F99393"/>
<path d="M105.5 63.2899C104.13 62.4199 102.14 62.8099 101.06 64.1699C98.4601 67.4499 97.6901 73.1399 97.6901 73.1399C97.6901 73.1399 103.43 70.6099 106.03 67.3299C107.11 65.9699 106.87 64.1599 105.5 63.2899Z" fill="#FFB0B0"/>
<path d="M97.4201 43.5899C96.1701 42.7899 94.5401 43.1499 93.7601 44.3999C91.8901 47.4199 91.8201 52.6299 91.8201 52.6299C91.8201 52.6299 96.4101 50.3099 98.2801 47.2899C99.0501 46.0399 98.6701 44.3799 97.4201 43.5799V43.5899Z" fill="#FFB0B0"/>
<path d="M99.27 55.42C98.29 54.73 97.05 54.97 96.5 55.97C95.17 58.38 95.28 62.64 95.28 62.64C95.28 62.64 98.7201 60.89 100.05 58.48C100.6 57.48 100.25 56.11 99.28 55.42H99.27Z" fill="#F99393"/>
<path d="M45.01 67.1399C61.11 67.5399 77.05 78.7499 77.05 78.7499L80.7 86.4099L66.65 93.0999C48.28 101.84 44.59 96.8799 41.99 91.4099C39.39 85.9399 42.11 83.2999 34.7 76.0799C27.29 68.8599 28.93 66.7399 45.03 67.1399H45.01Z" fill="#F34141"/>
<path d="M34.17 67.5598C34.85 68.9598 36.28 70.7098 38.35 72.8998C46.28 81.2098 43.63 83.9898 46.55 90.1398C48.14 93.4898 50.05 96.6798 54.41 97.4998C46.29 99.0498 43.85 95.3598 41.97 91.4198C39.36 85.9398 42.09 83.3098 34.68 76.0898C29.53 71.0698 28.75 68.5198 34.16 67.5698L34.17 67.5598Z" fill="#E22B2B"/>
<path d="M70.3282 80.9822L68.4952 81.8545C62.5176 84.6993 55.3478 82.1533 52.503 76.1757L51.6307 74.3427L53.4637 73.4703C59.4413 70.6256 66.6111 73.1716 69.4559 79.1492L70.3282 80.9822Z" fill="#FFB0B0"/>
<path d="M70.34 80.98C72 84.48 69.1 89.34 63.85 91.84C62.19 88.34 65.09 83.48 70.34 80.98Z" fill="#F99393"/>
<path d="M47.11 91.0699C47.3 89.4499 48.86 88.1599 50.6 88.1799C54.79 88.2299 59.69 91.2199 59.69 91.2199C59.69 91.2199 54.11 94.0799 49.92 94.0299C48.18 94.0099 46.93 92.6799 47.12 91.0699H47.11Z" fill="#FFB0B0"/>
<path d="M36.92 72.38C37.09 70.91 38.4 69.87 39.86 70.06C43.38 70.51 47.4701 73.74 47.4701 73.74C47.4701 73.74 42.77 75.84 39.26 75.38C37.8 75.19 36.76 73.85 36.92 72.38Z" fill="#FFB0B0"/>
<path d="M44.93 81.2798C45.01 80.0798 45.98 79.2698 47.1 79.4698C49.81 79.9498 53.05 82.7298 53.05 82.7298C53.05 82.7298 49.52 84.2898 46.82 83.8098C45.7 83.6098 44.85 82.4798 44.93 81.2798Z" fill="#F99393"/>
<path d="M70.76 104.11C72.25 99.89 77.38 95.76 77.38 95.76C77.38 95.76 78.76 102.18 77.27 106.39C76.65 108.14 74.69 109.04 72.9 108.41C71.1 107.78 70.15 105.85 70.77 104.1L70.76 104.11Z" fill="#FFB0B0"/>
<path d="M61.4 104.24C62.4 101.43 65.81 98.6699 65.81 98.6699C65.81 98.6699 66.73 102.95 65.74 105.76C65.33 106.92 64.02 107.53 62.82 107.11C61.62 106.69 60.99 105.4 61.4 104.24Z" fill="#F99393"/>
<path d="M65.78 113.95C66.44 112.08 68.72 110.24 68.72 110.24C68.72 110.24 69.34 113.09 68.67 114.97C68.39 115.75 67.52 116.15 66.73 115.87C65.93 115.59 65.51 114.73 65.78 113.96V113.95Z" fill="#FFB0B0"/>
<path d="M89.7326 105.403C91.483 104.57 90.4278 98.6956 87.3758 92.2824C84.3237 85.8693 80.4305 81.3457 78.6801 82.1787C76.9297 83.0117 77.9849 88.8859 81.037 95.2991C84.089 101.712 87.9822 106.236 89.7326 105.403Z" fill="#BF1B1B"/>
<path d="M82.2081 89.5656C83.9585 88.7326 83.8037 84.7504 81.8623 80.6711C79.921 76.5918 76.9282 73.9602 75.1778 74.7932C73.4274 75.6262 73.5822 79.6084 75.5236 83.6877C77.4649 87.767 80.4577 90.3986 82.2081 89.5656Z" fill="#D32424"/>
<path d="M76.25 72.9901C75.67 73.2701 74.97 73.0201 74.7 72.4401C74.58 72.1801 71.77 66.1101 76.08 60.2801C76.46 59.7601 77.2 59.6501 77.72 60.0301C78.24 60.4101 78.35 61.1501 77.97 61.6701C74.51 66.3401 76.73 71.2301 76.83 71.4301C77.1 72.0101 76.85 72.7101 76.27 72.9801L76.25 72.9901Z" fill="#E22B2B"/>
<path d="M73.08 74.4999C73.66 74.2199 73.91 73.5299 73.63 72.9399C73.51 72.6799 70.57 66.6699 63.33 66.3399C62.68 66.3099 62.14 66.8099 62.11 67.4499C62.08 68.0999 62.58 68.6399 63.22 68.6699C69.03 68.9399 71.42 73.7399 71.52 73.9399C71.8 74.5199 72.5 74.7599 73.08 74.4899V74.4999Z" fill="#E22B2B"/>
<path d="M74.67 77.25C76.6085 77.25 78.18 75.6785 78.18 73.74C78.18 71.8015 76.6085 70.23 74.67 70.23C72.7315 70.23 71.16 71.8015 71.16 73.74C71.16 75.6785 72.7315 77.25 74.67 77.25Z" fill="#FFB0B0"/>
<path d="M52.22 55.7198C56.04 51.0498 50.09 41.7098 50.09 41.7098L46.69 38.3098L41.17 43.8298L40.32 48.9298C39.05 56.1498 48.39 60.3998 52.21 55.7298L52.22 55.7198Z" fill="#E22B2B"/>
<path d="M52.22 55.7198C53.23 54.4898 53.56 52.9398 53.5 51.3098C53.27 51.8898 52.95 52.4398 52.54 52.9398C49.44 56.7198 43.22 55.4598 40.33 51.4798C41.32 57.0698 48.89 59.7998 52.23 55.7198H52.22Z" fill="#D32424"/>
<path d="M29.28 32.7799C33.95 28.9599 43.29 34.9099 43.29 34.9099L46.69 38.3099L41.17 43.8299L36.07 44.6799C28.85 45.9499 24.6 36.6099 29.27 32.7899L29.28 32.7799Z" fill="#E22B2B"/>
<path d="M29.28 32.78C30.51 31.77 32.06 31.44 33.69 31.5C33.11 31.73 32.56 32.05 32.06 32.46C28.28 35.56 29.54 41.78 33.52 44.67C27.93 43.68 25.2 36.11 29.28 32.77V32.78Z" fill="#D32424"/>
<path d="M46.76 49.8799C46.76 47.6599 45.05 44.8799 45.05 44.8799C45.05 44.8799 43.34 47.6499 43.34 49.8699C43.34 50.7899 44.1 51.5399 45.05 51.5399C46 51.5399 46.76 50.7999 46.76 49.8799Z" fill="#FFB0B0"/>
<path d="M51.12 51.4899C51.12 50.0099 49.98 48.1499 49.98 48.1499C49.98 48.1499 48.84 49.9999 48.84 51.4799C48.84 52.0899 49.35 52.5899 49.98 52.5899C50.61 52.5899 51.12 52.0999 51.12 51.4799V51.4899Z" fill="#F99393"/>
<path d="M47.4501 55.2998C47.4501 54.3098 46.6901 53.0798 46.6901 53.0798C46.6901 53.0798 45.9301 54.3098 45.9301 55.2998C45.9301 55.7098 46.2701 56.0398 46.6901 56.0398C47.1101 56.0398 47.4501 55.7098 47.4501 55.2998Z" fill="#FFB0B0"/>
<path d="M64.9401 36.8599C57.3501 34.3699 48.03 36.9699 48.03 36.9699L45.05 39.9499L50.51 45.4099C57.65 52.5499 60.2001 50.8399 62.3301 48.7199C64.4601 46.5999 63.6201 44.9099 68.2901 42.7599C72.9601 40.6099 72.54 39.3499 64.95 36.8599H64.9401Z" fill="#F34141"/>
<path d="M69.95 38.8599C69.4 39.3999 68.44 39.9799 67.11 40.6599C62.02 43.2299 62.8 44.9699 60.41 47.3599C59.11 48.6599 57.69 49.8399 55.51 49.4899C59.05 51.5599 60.8 50.2499 62.34 48.7099C64.47 46.5799 63.63 44.8999 68.3 42.7499C71.54 41.2599 72.33 40.1899 69.96 38.8499L69.95 38.8599Z" fill="#E22B2B"/>
<path d="M50.8 39.1298C53.52 36.4098 57.9301 36.4098 60.6501 39.1298C57.9301 41.8498 53.52 41.8498 50.8 39.1298Z" fill="#FFB0B0"/>
<path d="M50.8 39.1299C49.44 40.4899 49.99 43.2499 52.03 45.2899C53.39 43.9299 52.84 41.1699 50.8 39.1299Z" fill="#F99393"/>
<path d="M59.9901 47.7098C60.1701 46.9198 59.6501 46.0598 58.8401 45.7798C56.8701 45.1098 54.0901 45.6898 54.0901 45.6898C54.0901 45.6898 56.2301 47.9598 58.1901 48.6298C59.0101 48.9098 59.8101 48.4998 59.9901 47.7098Z" fill="#FFB0B0"/>
<path d="M67.8601 40.6499C68.0301 39.9299 67.5801 39.2299 66.8701 39.0799C65.1501 38.7099 62.7001 39.5399 62.7001 39.5399C62.7001 39.5399 64.5501 41.2999 66.2701 41.6699C66.9801 41.8199 67.7001 41.3699 67.8601 40.6499Z" fill="#FFB0B0"/>
<path d="M62.6301 43.49C62.7901 42.92 62.4701 42.38 61.9101 42.28C60.5601 42.06 58.5901 42.82 58.5901 42.82C58.5901 42.82 59.9801 44.14 61.3301 44.36C61.8901 44.45 62.4701 44.06 62.6301 43.49Z" fill="#F99393"/>
<path d="M48.1401 20.0599C50.6301 27.6499 48.0301 36.9699 48.0301 36.9699L45.0501 39.9499L39.5901 34.4899C32.4501 27.3499 34.1601 24.7999 36.2801 22.6699C38.4001 20.5399 40.0901 21.3799 42.2401 16.7099C44.3901 12.0399 45.6501 12.4599 48.1401 20.0499V20.0599Z" fill="#F34141"/>
<path d="M46.14 15.0499C45.6 15.5999 45.02 16.5599 44.34 17.8899C41.77 22.9799 40.03 22.1999 37.64 24.5899C36.34 25.8899 35.16 27.3099 35.51 29.4899C33.44 25.9499 34.75 24.1999 36.29 22.6599C38.42 20.5299 40.1 21.3699 42.25 16.6999C43.74 13.4599 44.81 12.6699 46.15 15.0399L46.14 15.0499Z" fill="#E22B2B"/>
<path d="M45.8701 34.1999C48.5901 31.4799 48.5901 27.0699 45.8701 24.3499C43.1501 27.0699 43.1501 31.4799 45.8701 34.1999Z" fill="#FFB0B0"/>
<path d="M45.8701 34.1998C44.5101 35.5598 41.7501 35.0098 39.7101 32.9698C41.0701 31.6098 43.8301 32.1598 45.8701 34.1998Z" fill="#F99393"/>
<path d="M37.2901 25.01C38.0801 24.83 38.9401 25.35 39.2201 26.16C39.8901 28.13 39.3101 30.91 39.3101 30.91C39.3101 30.91 37.0401 28.77 36.3701 26.81C36.0901 25.99 36.5001 25.19 37.2901 25.01Z" fill="#FFB0B0"/>
<path d="M44.3501 17.14C45.0701 16.97 45.7701 17.42 45.9201 18.13C46.2901 19.85 45.4601 22.3 45.4601 22.3C45.4601 22.3 43.7001 20.45 43.3301 18.73C43.1801 18.02 43.6301 17.3 44.3501 17.14Z" fill="#FFB0B0"/>
<path d="M41.5101 22.3698C42.0801 22.2098 42.6201 22.5298 42.7201 23.0898C42.9401 24.4398 42.1801 26.4098 42.1801 26.4098C42.1801 26.4098 40.8601 25.0198 40.6401 23.6698C40.5501 23.1098 40.9401 22.5298 41.5101 22.3698Z" fill="#F99393"/>
<path d="M35.12 38.24C37.34 38.24 40.12 39.95 40.12 39.95C40.12 39.95 37.35 41.66 35.13 41.66C34.21 41.66 33.46 40.9 33.46 39.95C33.46 39 34.2 38.24 35.12 38.24Z" fill="#FFB0B0"/>
<path d="M33.51 33.8799C34.99 33.8799 36.85 35.0199 36.85 35.0199C36.85 35.0199 35 36.1599 33.52 36.1599C32.91 36.1599 32.41 35.6499 32.41 35.0199C32.41 34.3899 32.9 33.8799 33.52 33.8799H33.51Z" fill="#F99393"/>
<path d="M29.7 37.5498C30.69 37.5498 31.92 38.3098 31.92 38.3098C31.92 38.3098 30.69 39.0698 29.7 39.0698C29.29 39.0698 28.96 38.7298 28.96 38.3098C28.96 37.8898 29.29 37.5498 29.7 37.5498Z" fill="#FFB0B0"/>
<path d="M43.4145 44.0529C45.906 41.5614 47.3749 38.9907 46.6954 38.3112C46.0159 37.6317 43.4453 39.1006 40.9537 41.5922C38.4622 44.0837 36.9932 46.6544 37.6727 47.3339C38.3523 48.0134 40.9229 46.5444 43.4145 44.0529Z" fill="#BF1B1B"/>
<path d="M47.9245 39.5447C49.51 37.9592 50.2445 36.123 49.565 35.4435C48.8855 34.764 47.0493 35.4985 45.4637 37.084C43.8782 38.6695 43.1438 40.5057 43.8233 41.1852C44.5028 41.8647 46.3389 41.1302 47.9245 39.5447Z" fill="#D32424"/>
<path d="M50.59 35.64C50.36 35.41 50.36 35.05 50.59 34.82C50.69 34.72 53.06 32.4 56.5 33.44C56.81 33.53 56.98 33.86 56.89 34.16C56.8 34.47 56.47 34.64 56.17 34.55C53.41 33.71 51.49 35.56 51.41 35.64C51.18 35.86 50.82 35.86 50.59 35.64Z" fill="#E22B2B"/>
<path d="M49.3599 34.41C49.5899 34.64 49.9499 34.64 50.1799 34.41C50.2799 34.31 52.5999 31.94 51.5599 28.5C51.4699 28.19 51.1399 28.02 50.8399 28.11C50.5299 28.2 50.3599 28.53 50.4499 28.83C51.2899 31.59 49.4399 33.51 49.3599 33.59C49.1399 33.82 49.1399 34.18 49.3599 34.41Z" fill="#E22B2B"/>
<path d="M49.98 36.7598C50.941 36.7598 51.72 35.9808 51.72 35.0198C51.72 34.0588 50.941 33.2798 49.98 33.2798C49.019 33.2798 48.24 34.0588 48.24 35.0198C48.24 35.9808 49.019 36.7598 49.98 36.7598Z" fill="#FFB0B0"/>
</svg>
