<svg width="358" height="228" viewBox="0 0 358 228" fill="none" xmlns="http://www.w3.org/2000/svg">
<mask id="mask0_1_1796" style="mask-type:luminance" maskUnits="userSpaceOnUse" x="0" y="0" width="358" height="228">
<path d="M0 9.64031C119.28 43.0353 238.559 -23.7547 357.839 9.64031C357.839 79.2123 357.839 148.785 357.839 218.357C238.559 184.962 119.28 251.752 0 218.357C0 148.785 0 79.2123 0 9.64031Z" fill="white"/>
</mask>
<g mask="url(#mask0_1_1796)">
<path d="M0 113.992C119.28 147.387 238.559 80.5973 357.839 113.992C357.839 79.2083 357.839 44.4243 357.839 9.64031C238.559 -23.7547 119.28 43.0353 0 9.64031C0 44.4243 0 79.2073 0 113.992Z" fill="#F4D130"/>
</g>
<mask id="mask1_1_1796" style="mask-type:luminance" maskUnits="userSpaceOnUse" x="0" y="0" width="358" height="228">
<path d="M0 9.64031C119.28 43.0353 238.559 -23.7547 357.839 9.64031C357.839 79.2123 357.839 148.785 357.839 218.357C238.559 184.962 119.28 251.752 0 218.357C0 148.785 0 79.2123 0 9.64031Z" fill="white"/>
</mask>
<g mask="url(#mask1_1_1796)">
<path d="M0 166.176C119.28 199.571 238.559 132.781 357.839 166.176C357.839 148.781 357.839 131.386 357.839 113.991C238.559 80.5963 119.28 147.386 0 113.991C0 131.387 0 148.781 0 166.176Z" fill="#273D8C"/>
</g>
<mask id="mask2_1_1796" style="mask-type:luminance" maskUnits="userSpaceOnUse" x="0" y="0" width="358" height="228">
<path d="M0 9.64031C119.28 43.0353 238.559 -23.7547 357.839 9.64031C357.839 79.2123 357.839 148.785 357.839 218.357C238.559 184.962 119.28 251.752 0 218.357C0 148.785 0 79.2123 0 9.64031Z" fill="white"/>
</mask>
<g mask="url(#mask2_1_1796)">
<path d="M0 218.357C119.28 251.752 238.559 184.962 357.839 218.357C357.839 200.963 357.839 183.57 357.839 166.176C238.559 132.781 119.28 199.571 0 166.176C0 183.57 0 200.963 0 218.357Z" fill="#BC2035"/>
</g>
</svg>
