<svg width="128" height="128" viewBox="0 0 128 128" fill="none" xmlns="http://www.w3.org/2000/svg">
<path d="M114 54C114 26.3858 91.6142 4 64 4C36.3858 4 14 26.3858 14 54V74C14 101.614 36.3858 124 64 124C91.6142 124 114 101.614 114 74V54Z" fill="#F1F2F2"/>
<path d="M71.5 39.4999C71.5 39.4999 78.55 35.4999 88.52 36.9999C98.49 38.4999 100.5 41.4999 96.5 42.4999C92.5 43.4999 89.5 44.4999 90.5 50.4999C91.5 56.4999 71.5 39.4999 71.5 39.4999Z" fill="#48AEED"/>
<path d="M30.58 58.9899C29.49 62.8099 27.59 66.3399 25.21 69.5099C24.71 70.1699 24.21 70.8699 23.71 71.6199C22.31 73.7099 23.03 76.5699 25.3 77.7999C26.83 78.6399 28.74 78.4199 30.17 77.4199L38.03 71.8799C71.05 50.1799 90.54 67.0299 89.45 98.9999H94.57C124.3 33.7799 41.91 19.2799 30.58 58.9899Z" fill="#69BDFB"/>
<path d="M53.5 56.5C53.5 56.5 48.51 65.5 54.5 73C60.49 80.5 61.5 78.5 61.5 70.5C61.5 62.5 65.5 59.5 67.5 59.5C69.5 59.5 53.5 56.5 53.5 56.5Z" fill="#48AEED"/>
<path d="M62 55.4699C48.35 55.4299 39.5 64.4999 31.5 71.4999C28.28 74.3199 25.6 75.5599 23.55 76.0399C23.93 76.7499 24.52 77.3699 25.3 77.7899C26.84 78.6299 28.74 78.4199 30.17 77.4099L38.03 71.8799C71.05 50.1799 90.54 67.0199 89.45 98.9999C97.4 63.4999 76.5 55.4999 62 55.4699Z" fill="#C5E9FF"/>
<path d="M61.5 51.5C61.5 51.5 56.51 60.5 62.5 68C68.49 75.5 69.5 73.5 69.5 65.5C69.5 57.5 73.5 54.5 75.5 54.5C77.5 54.5 61.5 51.5 61.5 51.5Z" fill="#69BDFB"/>
<path d="M42.5 58.5C43.6046 58.5 44.5 57.6046 44.5 56.5C44.5 55.3954 43.6046 54.5 42.5 54.5C41.3954 54.5 40.5 55.3954 40.5 56.5C40.5 57.6046 41.3954 58.5 42.5 58.5Z" fill="#414042"/>
<path d="M38.8901 65.0599C38.7201 64.8499 38.4001 64.8099 38.1901 64.9899C36.5101 66.3799 34.9001 67.8199 33.3401 69.1999C32.6101 69.8499 31.8901 70.4999 31.1701 71.1199C27.9501 73.9399 25.3001 75.1299 23.3201 75.5599C23.4401 75.8899 23.6101 76.1999 23.8301 76.4899C25.9301 75.9699 28.6301 74.6799 31.8301 71.8799C32.5501 71.2499 33.2701 70.5999 34.0101 69.9499C35.5601 68.5699 37.1601 67.1399 38.8301 65.7599C39.0401 65.5899 39.0701 65.2699 38.8901 65.0599Z" fill="#414042"/>
<path d="M105 91C96.99 91 96.99 97 88.99 97C80.99 97 80.99 91 72.99 91C64.99 91 64.99 97 56.99 97C48.99 97 48.99 91 41 91C33.01 91 33 97 25 97C22.12 97 20.27 96.22 18.72 95.22C26.7 112.23 43.98 124 64 124C85.14 124 103.22 110.88 110.53 92.33C109.13 91.56 107.44 91 105 91Z" fill="#8ED4EF"/>
<path d="M105 101C96.99 101 96.99 107 88.99 107C80.99 107 80.99 101 72.99 101C64.99 101 64.99 107 56.99 107C48.99 107 48.99 101 41 101C33.49 101 33.03 106.28 26.39 106.93C35.55 117.39 49 124 64 124C81.64 124 97.16 114.86 106.05 101.04C105.72 101.01 105.37 101 105 101Z" fill="#ADDFF7"/>
<path d="M88.99 116C80.99 116 80.99 110 72.99 110C64.99 110 64.99 116 56.99 116C48.99 116 48.99 110 41 110C36.91 110 34.91 111.57 32.86 113.1C41.4 119.92 52.23 124 64 124C74.15 124 83.59 120.97 91.47 115.77C90.74 115.92 89.92 116 88.99 116Z" fill="#C5E9FF"/>
</svg>
