<svg width="128" height="128" viewBox="0 0 128 128" fill="none" xmlns="http://www.w3.org/2000/svg">
<path d="M114 54V74C114 76.19 113.86 78.35 113.59 80.47C110.62 103.39 92.13 121.46 69 123.75C67.36 123.92 65.69 124 64 124C62.31 124 60.64 123.92 59 123.75C35.87 121.46 17.38 103.39 14.41 80.47C14.14 78.35 14 76.19 14 74V54C14 26.39 36.39 4 64 4C77.8 4 90.3 9.6 99.35 18.65C108.4 27.7 114 40.2 114 54Z" fill="#F1F2F2"/>
<path d="M85 90C82.02 90 79.27 91.07 77 92.88V84H51V92.88C48.73 91.07 45.98 90 43 90C35.27 90 29 97.16 29 106C29 107.45 29.17 108.85 29.48 110.18C34.56 115.02 40.65 118.81 47.41 121.18C48.59 121.59 49.78 121.96 51 122.29C53.59 122.98 56.26 123.48 59 123.75C60.64 123.92 62.31 124 64 124C65.69 124 67.36 123.92 69 123.75C71.74 123.48 74.41 122.98 77 122.29C78.22 121.96 79.41 121.59 80.59 121.18C87.35 118.81 93.44 115.02 98.52 110.18C98.83 108.85 99 107.45 99 106C99 97.16 92.73 90 85 90Z" fill="#B25E12"/>
<path d="M82.85 76C82.85 76 96.69 91 82.85 119H70V76H82.85Z" fill="#D87A1D"/>
<path d="M45.15 76C45.15 76 31.31 91 45.15 119H58V76H45.15Z" fill="#D87A1D"/>
<path d="M73 116H81C84.31 116 87 118.69 87 122C87 123.1 86.1 124 85 124H69C67.9 124 67 123.1 67 122C67 118.69 69.69 116 73 116Z" fill="#F3A950"/>
<path d="M59 124H43C41.9 124 41 123.1 41 122C41 118.69 43.69 116 47 116H55C58.31 116 61 118.69 61 122C61 123.1 60.1 124 59 124Z" fill="#F3A950"/>
<path d="M97.74 43.1301C92.78 38.1901 86.83 35.2201 80.88 38.1901C74.93 41.1601 66 41.1601 66 41.1601V80.7001C90.79 83.6701 105.67 64.8901 107.65 56.9801C109.63 49.0701 102.69 48.0801 97.73 43.1401L97.74 43.1301Z" fill="#FFD9B6"/>
<path d="M97.74 43.1299C92.78 38.1799 86.83 35.2199 80.88 38.1799C74.93 41.1499 66 41.1499 66 41.1499V54.5999C79.24 44.7399 86.7 44.5899 90.79 46.4899C95.08 48.4799 101.5 50.4999 104.5 51.4999C107.5 52.4999 107.65 56.9599 107.65 56.9599C109.64 49.0599 102.69 48.0699 97.74 43.1299Z" fill="#D87A1D"/>
<path d="M30.26 43.1301C35.22 38.1901 41.17 35.2201 47.12 38.1901C53.07 41.1601 62 41.1601 62 41.1601V80.7001C37.21 83.6701 22.33 64.8901 20.35 56.9801C18.37 49.0701 25.31 48.0801 30.27 43.1401L30.26 43.1301Z" fill="#FFD9B6"/>
<path d="M30.26 43.1299C35.22 38.1799 41.1699 35.2199 47.1199 38.1799C53.0699 41.1499 62 41.1499 62 41.1499V54.5999C48.76 44.7399 41.2999 44.5899 37.2099 46.4899C32.9199 48.4799 26.5 50.4999 23.5 51.4999C20.5 52.4999 20.35 56.9599 20.35 56.9599C18.36 49.0599 25.31 48.0699 30.26 43.1299Z" fill="#D87A1D"/>
<path d="M75 73.9999C75 73.9999 76.5 85.4999 86 82.9999C86 82.9999 78.5 93.4999 69 79.9999C59.5 66.4999 75 73.9999 75 73.9999Z" fill="#D1D3D4"/>
<path d="M52.92 73.9999C52.92 73.9999 51.42 85.4999 41.92 82.9999C41.92 82.9999 49.42 93.4999 58.92 79.9999C68.42 66.4999 52.92 73.9999 52.92 73.9999Z" fill="#D1D3D4"/>
<path d="M75 74C75 74 72.56 72.82 70.21 72.23C73.48 90.32 85.53 83.28 85.99 83.01H86C76.5 85.5 75 74 75 74Z" fill="#E6E7E8"/>
<path d="M52.92 74C52.92 74 55.36 72.82 57.71 72.23C54.44 90.32 42.39 83.28 41.93 83.01H41.92C51.42 85.5 52.92 74 52.92 74Z" fill="#E6E7E8"/>
<path d="M84.5 93H75.5C74.67 93 74 93.67 74 94.5C74 95.33 74.67 96 75.5 96H76V98.09C76 99.7 74.69 101 73.09 101C71.48 101 70.18 99.69 70.18 98.09V84C70.18 78 75.01 74 75.01 74C71.92 68 76.36 64 78.42 60C80.47 56 76.36 54 78.42 49C80.47 44 73.01 38 64.01 38C55.01 38 47.55 44 49.6 49C51.66 54 47.55 56 49.6 60C51.66 64 56.1 68 53.01 74C53.01 74 57.84 78 57.84 84V96.92C57.84 104.15 63.7 110 70.92 110C78.15 110 84 104.14 84 96.92V96H84.5C85.33 96 86 95.33 86 94.5C86 93.67 85.33 93 84.5 93Z" fill="#F3A950"/>
<path d="M57 58.0001C56.05 53.2301 52.27 50.4901 49.64 49.1201C51.58 54.0301 47.56 56.0301 49.59 60.0001C50.98 62.6901 53.44 65.3801 53.96 68.6901C55.86 66.0801 57.84 62.2001 57 58.0001Z" fill="#EA9232"/>
<path d="M78.41 49C80.46 44 73 38 64 38C63.29 38 62.6 38.04 61.91 38.11C64.73 39.23 67.84 40.84 70 43C75 48 72 50 72 55C72 60 73 61 69 66C65 71 64 91 66 97C68 103 73.08 101 73.08 101C71.48 101 70.17 99.69 70.17 98.08V84C70.17 78 75 74 75 74C71.91 68 76.35 64 78.41 60C80.46 56 76.35 54 78.41 49Z" fill="#EA9232"/>
<path d="M71 60.9999C70.68 60.9999 70.36 60.8399 70.17 60.5499C69.86 60.0899 69.99 59.4699 70.45 59.1599L73.45 57.1599C73.91 56.8499 74.53 56.9799 74.84 57.4399C75.15 57.8999 75.02 58.5199 74.56 58.8299L71.56 60.8299C71.39 60.9399 71.2 60.9999 71.01 60.9999H71Z" fill="#414042"/>
<path d="M57 60.9999C57.32 60.9999 57.64 60.8399 57.83 60.5499C58.14 60.0899 58.01 59.4699 57.55 59.1599L54.55 57.1599C54.09 56.8499 53.47 56.9799 53.16 57.4399C52.85 57.8999 52.98 58.5199 53.44 58.8299L56.44 60.8299C56.61 60.9399 56.8 60.9999 56.99 60.9999H57Z" fill="#414042"/>
<path d="M67 78C66.81 78 66.62 77.95 66.45 77.83C64.03 76.22 61.58 77.81 61.56 77.83C61.1 78.14 60.48 78.01 60.17 77.55C59.86 77.09 59.99 76.47 60.45 76.16C60.6 76.06 64.05 73.82 67.56 76.16C68.02 76.47 68.14 77.09 67.84 77.55C67.65 77.84 67.33 78 67.01 78H67Z" fill="#EA9232"/>
<path d="M67 86C66.81 86 66.62 85.95 66.45 85.83C64.03 84.22 61.58 85.81 61.56 85.83C61.1 86.14 60.48 86.01 60.17 85.55C59.86 85.09 59.99 84.47 60.45 84.16C60.6 84.06 64.05 81.82 67.56 84.16C68.02 84.47 68.14 85.09 67.84 85.55C67.65 85.84 67.33 86 67.01 86H67Z" fill="#EA9232"/>
<path d="M67 94C66.81 94 66.62 93.95 66.45 93.83C64.03 92.22 61.58 93.81 61.56 93.83C61.1 94.14 60.48 94.01 60.17 93.55C59.86 93.09 59.99 92.47 60.45 92.16C60.6 92.06 64.05 89.82 67.56 92.16C68.02 92.47 68.14 93.09 67.84 93.55C67.65 93.84 67.33 94 67.01 94H67Z" fill="#EA9232"/>
</svg>
