<svg width="128" height="128" viewBox="0 0 128 128" fill="none" xmlns="http://www.w3.org/2000/svg">
<path d="M114 54V74C114 76.19 113.86 78.35 113.59 80.47C110.62 103.39 92.13 121.46 69 123.75C67.36 123.92 65.69 124 64 124C62.31 124 60.64 123.92 59 123.75C35.87 121.46 17.38 103.39 14.41 80.47C14.14 78.35 14 76.19 14 74V54C14 26.39 36.39 4 64 4C77.8 4 90.3 9.6 99.35 18.65C108.4 27.7 114 40.2 114 54Z" fill="#F1F2F2"/>
<path d="M85 90C82.02 90 79.27 91.07 77 92.88V76H51V92.88C48.73 91.07 45.98 90 43 90C35.27 90 29 97.16 29 106C29 107.45 29.17 108.85 29.48 110.18C34.56 115.02 40.65 118.81 47.41 121.18C48.59 121.59 49.78 121.96 51 122.29C53.59 122.98 56.26 123.48 59 123.75C60.64 123.92 62.31 124 64 124C65.69 124 67.36 123.92 69 123.75C71.74 123.48 74.41 122.98 77 122.29C78.22 121.96 79.41 121.59 80.59 121.18C87.35 118.81 93.44 115.02 98.52 110.18C98.83 108.85 99 107.45 99 106C99 97.16 92.73 90 85 90Z" fill="#D87A1D"/>
<path d="M82.85 74C82.85 74 96.69 91 82.85 119H70V74H82.85Z" fill="#EA9232"/>
<path d="M45.15 74C45.15 74 31.31 91 45.15 119H58V74H45.15Z" fill="#EA9232"/>
<path d="M73 116H81C84.31 116 87 118.69 87 122C87 123.1 86.1 124 85 124H69C67.9 124 67 123.1 67 122C67 118.69 69.69 116 73 116Z" fill="#F3A950"/>
<path d="M59 124H43C41.9 124 41 123.1 41 122C41 118.69 43.69 116 47 116H55C58.31 116 61 118.69 61 122C61 123.1 60.1 124 59 124Z" fill="#F3A950"/>
<path d="M69 37.4501C69 37.4501 75.09 29.6401 83.22 25.7301C91.34 21.8201 92.36 22.8001 85.25 47.2101C78.14 71.6201 69 37.4501 69 37.4501Z" fill="#EA9232"/>
<path d="M85 29.0001C80.5 32.5001 75 41.0001 75 41.0001L82.5 47.5001C88 32.0001 89.5 25.5001 85 29.0001Z" fill="#D87A1D"/>
<path d="M59 37.4501C59 37.4501 52.91 29.6401 44.78 25.7301C36.66 21.8201 35.64 22.8001 42.75 47.2101C49.86 71.6201 59 37.4501 59 37.4501Z" fill="#EA9232"/>
<path d="M43 29.0001C47.5 32.5001 53 41.0001 53 41.0001L45.5 47.5001C40 32.0001 38.5 25.5001 43 29.0001Z" fill="#D87A1D"/>
<path d="M92 73.01C92 73.01 85.49 73.03 74.69 78.88C73.91 81.27 71.65 83 69 83C67.22 83 65.63 82.23 64.55 81C64.34 80.78 64.16 80.55 64 80.31C63.84 80.55 63.66 80.78 63.45 81C62.37 82.23 60.78 83 59 83C56.35 83 54.09 81.27 53.31 78.88C42.51 73.03 36 73.01 36 73.01C37 71.01 40 70.01 40 70.01C37 68.02 32 70.01 32 70.01C41.03 35.72 59.86 34.86 63.42 35.01C63.81 35.03 64.19 35.03 64.58 35.01C68.14 34.86 86.97 35.72 96 70.01C96 70.01 91 68.02 88 70.01C88 70.01 91 71.01 92 73.01Z" fill="#F3A950"/>
<path d="M88 70.01C91 68.02 96 70.01 96 70.01C76 56.02 75 77 75 77C75 77.65 74.9 78.27 74.71 78.86C85.5 73.03 92 73.01 92 73.01C91 71.01 88 70.01 88 70.01Z" fill="#EBC9A0"/>
<path d="M32 70.01C32 70.01 37 68.02 40 70.01C40 70.01 37 71.01 36 73.01C36 73.01 42.5 73.03 53.28 78.86C53.09 78.27 52.99 77.65 52.99 77C52.99 77 51.99 56.02 31.99 70.01H32Z" fill="#EBC9A0"/>
<path d="M68 75C68 76.1 66.21 79 64 79C61.79 79 60 76.1 60 75C60 73.9 61.79 73 64 73C66.21 73 68 73.9 68 75Z" fill="#414042"/>
<path d="M57 58.5C57 56.567 55.433 55 53.5 55C51.567 55 50 56.567 50 58.5V60.5C50 62.433 51.567 64 53.5 64C55.433 64 57 62.433 57 60.5V58.5Z" fill="#414042"/>
<path d="M53.5 60C54.3284 60 55 59.3284 55 58.5C55 57.6716 54.3284 57 53.5 57C52.6716 57 52 57.6716 52 58.5C52 59.3284 52.6716 60 53.5 60Z" fill="white"/>
<path d="M78 58.5C78 56.567 76.433 55 74.5 55C72.567 55 71 56.567 71 58.5V60.5C71 62.433 72.567 64 74.5 64C76.433 64 78 62.433 78 60.5V58.5Z" fill="#414042"/>
<path d="M74.5 60C75.3284 60 76 59.3284 76 58.5C76 57.6716 75.3284 57 74.5 57C73.6716 57 73 57.6716 73 58.5C73 59.3284 73.6716 60 74.5 60Z" fill="white"/>
</svg>
