<svg width="128" height="128" viewBox="0 0 128 128" fill="none" xmlns="http://www.w3.org/2000/svg">
<path d="M114 54C114 26.3858 91.6142 4 64 4C36.3858 4 14 26.3858 14 54V74C14 101.614 36.3858 124 64 124C91.6142 124 114 101.614 114 74V54Z" fill="#F1F2F2"/>
<path d="M109.08 95.64C109.08 95.64 109.08 95.66 109.07 95.67C104.26 105.65 96.24 113.79 86.34 118.74L83 115.51L84.99 85.63C84.99 85.63 89.98 71.24 103.45 75.95C109.71 78.13 111.23 86.56 109.08 95.64Z" fill="#6FA760"/>
<path d="M63.5 120C73.9934 120 82.5 112.725 82.5 103.75C82.5 94.7754 73.9934 87.5 63.5 87.5C53.0066 87.5 44.5 94.7754 44.5 103.75C44.5 112.725 53.0066 120 63.5 120Z" fill="#BDEDB0"/>
<path d="M45 115.51L41.66 118.74C31.76 113.79 23.74 105.65 18.93 95.67C16.76 86.58 18.29 78.14 24.55 75.95C38.02 71.24 43.01 85.63 43.01 85.63L45 115.51Z" fill="#6FA760"/>
<path d="M92.9901 92.9099C92.7201 105.58 81.1101 113.06 87.3801 118.33C93.6501 123.6 85.7201 124 85.7201 124C76.0601 124 74.0301 122.01 74.0301 108.08C74.0301 94.1499 69.9901 90.4899 64.0001 90.4899C58.0101 90.4899 53.9701 94.1599 53.9701 108.08C53.9701 122 51.9401 124 42.2801 124C42.2801 124 34.3501 123.6 40.6201 118.33C46.8901 113.06 35.2801 105.58 35.0101 92.9099C34.7501 80.2299 37.6301 61.6799 64.0001 61.9999C90.3701 61.6799 93.2501 80.2299 92.9901 92.9099Z" fill="#75BC5E"/>
<path d="M77.21 44.45L76 41.5C73.57 41.5 72.02 42.15 70.78 42.99C70.31 43.31 69.88 43.65 69.46 44C67.96 45.25 66.64 46.5 64 46.5C60.63 46.5 59.41 44.46 57.22 42.99C55.98 42.15 54.43 41.5 52 41.5L50.63 44.5C41.92 47.3 36 52.74 36 59C36 68.11 48.54 75.5 64 75.5C79.46 75.5 92 68.11 92 59C92 52.7 86.01 47.23 77.21 44.45Z" fill="#86CC72"/>
<path d="M48 55.5C52.4183 55.5 56 51.9183 56 47.5C56 43.0817 52.4183 39.5 48 39.5C43.5817 39.5 40 43.0817 40 47.5C40 51.9183 43.5817 55.5 48 55.5Z" fill="#BDEDB0"/>
<path d="M48 50.5C49.6569 50.5 51 49.1569 51 47.5C51 45.8431 49.6569 44.5 48 44.5C46.3431 44.5 45 45.8431 45 47.5C45 49.1569 46.3431 50.5 48 50.5Z" fill="#414042"/>
<path d="M80 55.5C84.4183 55.5 88 51.9183 88 47.5C88 43.0817 84.4183 39.5 80 39.5C75.5817 39.5 72 43.0817 72 47.5C72 51.9183 75.5817 55.5 80 55.5Z" fill="#BDEDB0"/>
<path d="M80 50.5C81.6569 50.5 83 49.1569 83 47.5C83 45.8431 81.6569 44.5 80 44.5C78.3431 44.5 77 45.8431 77 47.5C77 49.1569 78.3431 50.5 80 50.5Z" fill="#414042"/>
</svg>
