<svg width="128" height="128" viewBox="0 0 128 128" fill="none" xmlns="http://www.w3.org/2000/svg">
<path d="M114 54C114 26.3858 91.6142 4 64 4C36.3858 4 14 26.3858 14 54V74C14 101.614 36.3858 124 64 124C91.6142 124 114 101.614 114 74V54Z" fill="#F1F2F2"/>
<path d="M83 60L75 89C75 89 84.46 102.6 97.93 110.71C104.68 104.48 109.7 96.41 112.2 87.29C94.32 79.81 83 60 83 60Z" fill="#E8BC42"/>
<path d="M94.21 36.07C87.1 37.07 80 46.04 80 46.04L83.05 56.01C83.05 56.01 93.2 55.01 97.26 50.03C101.32 45.05 101.32 35.08 94.21 36.08V36.07Z" fill="#F3A950"/>
<path d="M84 48C84 48 86.5 44.5 90 43C93.5 41.5 96.5 43.5 93 47C89.5 50.5 84 50 84 50V48Z" fill="#D38B3D"/>
<path d="M33.79 36.07C40.9 37.07 48 46.04 48 46.04L44.95 56.01C44.95 56.01 34.8 55.01 30.74 50.03C26.68 45.05 26.68 35.08 33.79 36.08V36.07Z" fill="#F3A950"/>
<path d="M44 48C44 48 41.5 44.5 38 43C34.5 41.5 31.5 43.5 35 47C38.5 50.5 44 50 44 50V48Z" fill="#D38B3D"/>
<path d="M50 42.4999C43.67 34.0699 42.56 25.6599 42.52 25.3099L47.48 24.6799C47.48 24.7499 48.51 32.1699 54 39.4999L50 42.4999Z" fill="#F3A950"/>
<path d="M78 42.4999C84.33 34.0699 85.44 25.6599 85.48 25.3099L80.52 24.6799C80.52 24.7499 79.49 32.1699 74 39.4999L78 42.4999Z" fill="#F3A950"/>
<path d="M64.56 34H63.45C50.22 34 39.62 45.06 40.02 58.43L40.58 77.01C40.96 89.82 51.34 100 64.01 100C76.68 100 87.06 89.82 87.44 77.01L88 58.43C88.4 45.06 77.79 34 64.57 34H64.56Z" fill="#F1C848"/>
<path d="M64 30C59.03 30 55 34.92 55 41C55 42.66 56.34 44 58 44C59.66 44 61 42.66 61 41C61 42.66 62.34 44 64 44C65.66 44 67 42.66 67 41C67 42.66 68.34 44 70 44C71.66 44 73 42.66 73 41C73 34.92 68.97 30 64 30Z" fill="#F34141"/>
<path d="M80 68C80 67.4477 79.5523 67 79 67C78.4477 67 78 67.4477 78 68V71C78 71.5523 78.4477 72 79 72C79.5523 72 80 71.5523 80 71V68Z" fill="#58595B"/>
<path d="M50 68C50 67.4477 49.5523 67 49 67C48.4477 67 48 67.4477 48 68V71C48 71.5523 48.4477 72 49 72C49.5523 72 50 71.5523 50 71V68Z" fill="#58595B"/>
<path d="M64 75C55.66 75 47.83 77.12 41 80.86C43.1 91.8 52.63 100 64 100C75.37 100 84.9 91.8 87 80.86C80.17 77.12 72.34 75 64 75Z" fill="#F34141"/>
<path d="M73.42 88.09C72.64 87.69 71.37 88.66 70.59 90.27C69.81 91.88 69.8 93.51 70.59 93.91C71.37 94.31 72.64 93.34 73.42 91.73C74.2 90.12 74.21 88.49 73.42 88.09Z" fill="#CC2F2F"/>
<path d="M54.58 88.09C55.36 87.69 56.63 88.66 57.41 90.27C58.19 91.88 58.2 93.51 57.41 93.91C56.63 94.31 55.36 93.34 54.58 91.73C53.8 90.12 53.79 88.49 54.58 88.09Z" fill="#CC2F2F"/>
<path d="M45 29C47.2091 29 49 27.2091 49 25C49 22.7909 47.2091 21 45 21C42.7909 21 41 22.7909 41 25C41 27.2091 42.7909 29 45 29Z" fill="#F34141"/>
<path d="M83 29C85.2091 29 87 27.2091 87 25C87 22.7909 85.2091 21 83 21C80.7909 21 79 22.7909 79 25C79 27.2091 80.7909 29 83 29Z" fill="#F34141"/>
<path d="M101 87.0001C103.26 87.0001 105.31 86.0601 106.76 84.5501C101.98 81.7201 97.8 78.1401 94.33 74.5901C93.49 75.8501 93 77.3701 93 79.0001C93 83.4201 96.58 87.0001 101 87.0001Z" fill="#F34141"/>
<path d="M97.9999 100C94.4899 100 91.5199 102.25 90.4399 105.39C92.7499 107.28 95.2599 109.1 97.9299 110.71C100.36 108.48 102.56 106 104.49 103.32C103.04 101.31 100.67 100 97.9999 100Z" fill="#F34141"/>
</svg>
