<svg width="358" height="229" viewBox="0 0 358 229" fill="none" xmlns="http://www.w3.org/2000/svg">
<mask id="mask0_1_1769" style="mask-type:luminance" maskUnits="userSpaceOnUse" x="0" y="0" width="358" height="229">
<path d="M0 9.64088C119.28 43.0379 238.56 -23.7561 357.839 9.64088C357.839 79.2179 357.839 148.794 357.839 218.371C238.559 184.974 119.279 251.768 0 218.371C0 148.794 0 79.2169 0 9.64088Z" fill="white"/>
</mask>
<g mask="url(#mask0_1_1769)">
<path d="M0 218.371C119.28 251.768 238.56 184.974 357.839 218.371C357.839 148.794 357.839 79.2179 357.839 9.64088C238.559 -23.7561 119.279 43.0379 0 9.64088C0 79.2169 0 148.794 0 218.371Z" fill="#419D49"/>
</g>
<mask id="mask1_1_1769" style="mask-type:luminance" maskUnits="userSpaceOnUse" x="0" y="0" width="358" height="229">
<path d="M0 9.64088C119.28 43.0379 238.56 -23.7561 357.839 9.64088C357.839 79.2179 357.839 148.794 357.839 218.371C238.559 184.974 119.279 251.768 0 218.371C0 148.794 0 79.2169 0 9.64088Z" fill="white"/>
</mask>
<g mask="url(#mask1_1_1769)">
<path d="M0 9.64087C0 79.2179 0 148.794 0 218.371C119.28 216.984 238.56 115.407 357.839 114.019C238.559 45.8289 119.279 77.8299 0 9.64087Z" fill="white"/>
</g>
<mask id="mask2_1_1769" style="mask-type:luminance" maskUnits="userSpaceOnUse" x="0" y="0" width="358" height="229">
<path d="M0 9.64088C119.28 43.0379 238.56 -23.7561 357.839 9.64088C357.839 79.2179 357.839 148.794 357.839 218.371C238.559 184.974 119.279 251.768 0 218.371C0 148.794 0 79.2169 0 9.64088Z" fill="white"/>
</mask>
<g mask="url(#mask2_1_1769)">
<path d="M0 209.285C108.896 208.019 217.793 123.247 326.689 107.443C217.793 59.7189 108.896 80.9629 0 18.6999C0 82.2279 0 145.757 0 209.285Z" fill="#F4D130"/>
</g>
<mask id="mask3_1_1769" style="mask-type:luminance" maskUnits="userSpaceOnUse" x="0" y="0" width="358" height="229">
<path d="M0 9.64088C119.28 43.0379 238.56 -23.7561 357.839 9.64088C357.839 79.2179 357.839 148.794 357.839 218.371C238.559 184.974 119.279 251.768 0 218.371C0 148.794 0 79.2169 0 9.64088Z" fill="white"/>
</mask>
<g mask="url(#mask3_1_1769)">
<path d="M0 9.64087C0 79.2179 0 148.794 0 218.371C59.641 200.286 119.281 157.152 178.922 114.019C119.281 87.5749 59.64 61.1319 0 9.64087Z" fill="#010101"/>
</g>
<mask id="mask4_1_1769" style="mask-type:luminance" maskUnits="userSpaceOnUse" x="0" y="0" width="358" height="229">
<path d="M0 9.64088C119.28 43.0379 238.56 -23.7561 357.839 9.64088C357.839 79.2179 357.839 148.794 357.839 218.371C238.559 184.974 119.279 251.768 0 218.371C0 148.794 0 79.2169 0 9.64088Z" fill="white"/>
</mask>
<g mask="url(#mask4_1_1769)">
<path d="M0 206.211C52.693 190.234 105.387 154.704 158.081 116.897C105.388 93.2349 52.694 67.2969 0 21.8049C0 83.2739 0 144.742 0 206.211Z" fill="#BC2035"/>
</g>
</svg>
