<svg width="128" height="128" viewBox="0 0 128 128" fill="none" xmlns="http://www.w3.org/2000/svg">
<path d="M114 54C114 26.3858 91.6142 4 64 4C36.3858 4 14 26.3858 14 54V74C14 101.614 36.3858 124 64 124C91.6142 124 114 101.614 114 74V54Z" fill="#F1F2F2"/>
<path fill-rule="evenodd" clip-rule="evenodd" d="M59.9237 34.0935C59.8803 32.635 58.9838 31.0124 57.5897 31.2864C55.8144 31.6356 57.4499 34.1931 57.9803 34.751C58.0529 34.9295 58.1558 35.0943 58.2844 35.238L52.785 37.4859C50.54 38.2397 48.7583 38.395 45.8857 38.1484C41.8868 37.8061 35.853 35.561 32.8255 35.561C32.8255 31.8791 30.8428 32.6457 30.2638 33.9749C29.9539 34.686 30.0679 35.0729 30.1265 35.7764C28.7447 35.8072 26.1335 37.4384 25.2935 38.2783C25.1733 38.4096 25.0462 38.5343 24.9126 38.6521C24.223 39.2227 23.6159 39.8856 23.1084 40.6221C22.763 40.3698 22.4976 39.5964 21.7862 39.2493C20.5524 38.6456 18.9984 39.8364 20.0307 41.8619C20.4913 42.7652 20.7771 42.9524 21.1653 43.5301C20.9754 44.3442 19.7822 46.045 19.2529 50.0218C19.1247 50.8662 19.041 51.7168 19.0023 52.5699C18.9761 54.6889 19.1668 55.925 19.761 57.4216C20.2288 58.5993 21.0816 60.1521 21.8944 61.0006C23.127 62.2875 23.0476 62.3824 24.8994 63.6028L26.7172 64.5895C29.5443 65.7441 32.2886 67.0427 35.529 67.0084C36.6344 66.997 37.0291 66.6874 37.6838 66.2502C38.0443 67.7941 39.4089 68.7866 40.8575 69.3296C42.522 69.9539 44.8836 69.294 46.2265 68.8475C48.9886 67.9292 50.1882 67.0155 52.4096 65.5388C53.0696 65.13 53.7054 64.6838 54.3143 64.203L54.2656 65.126C54.1726 65.5165 54.1053 65.7716 54.0309 66.1862C53.8719 66.928 53.7848 67.6831 53.7705 68.4415C53.1769 70.5438 54.1239 74.9994 54.8087 77.0584C54.9947 77.6177 55.2533 78.0293 55.2815 78.6328C55.3407 79.8959 55.5323 81.0567 55.6073 82.2929C55.6674 83.2897 55.926 84.9146 55.9325 85.952C55.9511 88.7094 56.5146 92.0541 54.7117 94.4315C54.3828 94.865 54.0945 95.1328 54.0945 95.8619C55.7325 96.2422 56.4356 96.0774 58.1514 96.3378C58.7166 96.4234 59.6022 96.7314 60.0545 96.5357C61.0351 96.1114 62.2937 93.0293 62.6096 92.0791C62.8669 91.3039 63.5755 89.275 63.5954 88.4383C63.7361 88.1352 63.7032 88.2243 63.7032 87.7852C63.9667 87.8551 63.8105 87.7852 64.0325 87.8928C64.4218 88.1046 64.7241 88.2979 65.1419 88.5041C65.5856 88.723 65.8456 88.9308 66.2617 89.1105L71.306 91.1858C72.2081 91.5346 73.0841 91.7183 74.0272 92.0253C76.8689 92.952 83.2109 94.1387 86.0136 94.1387C86.8525 95.0734 88.7649 95.9222 88.9661 96.3554C88.8635 96.8813 87.8953 98.6017 87.5835 99.1128C87.3088 99.5634 87.1237 99.9622 86.8454 100.423C86.3215 101.288 85.9433 100.651 85.9433 101.676C86.4851 101.803 87.5215 101.825 88.1123 101.882C88.8982 101.962 89.6877 102.002 90.4779 102C92.1495 102.007 92.2474 101.722 93.8101 100.479C94.72 99.7551 95.6205 99.0791 96.4994 98.3151C96.7666 98.0826 96.8785 98.0384 97.1448 97.7743L99.0333 95.997C99.989 95.0437 101.098 93.9285 101.923 92.849C102.096 92.6227 102.238 92.4149 102.436 92.1762C102.831 91.6997 103.135 91.2817 103.498 90.7579C104.919 88.7029 106.094 86.7027 106.671 84.2328C106.879 84.3843 108.199 87.1755 110.419 86.0321C111.078 85.6932 111.507 85.0454 111.735 84.3293C112.042 83.3646 112.025 82.6707 111.963 81.6479C111.791 78.8267 109.201 77.935 108.703 74.2382C108.286 71.2924 107.193 68.4824 105.507 66.0279C103.15 62.5157 99.3129 59.846 95.3769 58.4552C93.0677 57.6133 90.7107 56.908 88.3185 56.3425C79.219 54.0729 72.0187 52.5782 67.4462 43.4565C67.2602 43.0865 67.1086 42.7942 66.9406 42.453L66.5797 41.6262C66.3804 41.3167 66.5481 41.5371 66.3565 41.3746C66.3999 41.0528 66.4173 40.728 66.4077 40.4034C66.4089 40.3384 66.4142 39.8923 66.4095 39.863C66.3165 39.2903 66.5047 39.6524 66.2049 39.4363C66.4226 38.7651 66.2037 38.1397 66.0791 37.6058C66.5878 37.2197 67.0398 36.7645 67.4223 36.2535C70.9749 31.5007 67.3076 27.6315 64.8273 31.7268C64.0697 32.978 63.8554 34.3094 63.4881 35.8825C62.9115 35.4973 62.9227 35.2083 62.0891 34.9089C61.0946 34.5515 60.5809 34.897 59.9256 34.7382L59.9237 34.0935Z" fill="#C0BCD1"/>
<path fill-rule="evenodd" clip-rule="evenodd" d="M54.603 63.9113L54.5487 64.8017C54.4455 65.1787 54.3713 65.4248 54.2888 65.8247C54.1124 66.54 54.0158 67.2686 54 68C54.5827 67.7083 56.3656 65.7496 56.9105 65.0865C58.9113 62.6547 60.0269 60.6901 61.1559 57.756C61.4581 56.9707 62.224 53.7735 61.9366 53.0809C61.7843 53.018 62.1061 53.0383 61.6582 53.0025C61.5365 52.9971 61.4144 53.0004 61.2931 53.0123C61.0785 53.4597 60.9768 54.1317 60.7846 54.6248C58.88 59.5086 55.0716 63.0467 54.603 63.9113Z" fill="#4D446A"/>
<path fill-rule="evenodd" clip-rule="evenodd" d="M86 93.8381C86.7433 94.7496 88.438 95.5776 88.6163 96C89.5063 94.5856 88.6366 93.5435 88.1325 91.0105C87.9501 90.109 87.8249 89.1945 87.7578 88.2736C87.6927 87.3148 87.8339 85.7553 87.7202 85.0009C87.9965 84.7643 87.7716 84.226 87.5507 84.0858C87.4889 84.0436 87.4197 84.0165 87.3477 84.0053C87.2757 83.9945 87.2024 84.0002 87.1326 84.0222C86.8101 84.1127 86.8458 84.2463 86.7829 84.4428C86.4324 85.2645 86.6667 88.7925 86.812 89.8409C87.1002 91.9214 87.7845 92.6188 86.4228 93.5291C86.4005 93.5441 86.25 93.6421 86.2406 93.6488C86.222 93.662 86.1978 93.6792 86.1799 93.6925L86 93.8381Z" fill="#4D446A"/>
<path fill-rule="evenodd" clip-rule="evenodd" d="M63.5365 88C63.6858 87.7103 63.6509 87.7954 63.6509 87.376C63.9303 87.4425 63.7643 87.376 64 87.4789L63.6292 84.0807C63.6016 82.9633 63.737 83.157 63.3074 83C63.0175 83.1596 62.9567 82.9867 63.0261 84.1842C63.079 85.1005 63.1855 87.3571 63.5365 88Z" fill="#4D446A"/>
<path fill-rule="evenodd" clip-rule="evenodd" d="M66.9323 41.808C66.9858 41.5079 67.0069 41.2049 66.9954 40.9021C66.9969 40.8416 67.0034 40.4254 66.9977 40.398C66.8829 39.8638 67.1151 40.2016 66.7452 40C66.8183 41.875 64.8665 44.4019 65.0073 45C65.6285 44.9607 65.8087 44.404 66.1981 43.6227C66.5007 43.0321 66.7463 42.4256 66.9323 41.808Z" fill="#4D446A"/>
<path fill-rule="evenodd" clip-rule="evenodd" d="M58 34.5745C58.0747 34.7305 58.1803 34.8745 58.313 35L58.6646 34.8066C59.0093 34.6811 59.6985 34.4706 60 34.5648V34L58 34.5745Z" fill="#4D446A"/>
<path fill-rule="evenodd" clip-rule="evenodd" d="M101.085 69.0283C101.07 69.0881 100.863 68.9501 101.156 69.6099C102.759 73.2235 101.695 68.6001 101.085 69.0283Z" fill="#4D446A"/>
<path fill-rule="evenodd" clip-rule="evenodd" d="M101.841 73C102.079 72.7288 102.022 72.7101 101.853 72.3888C101.625 71.9549 101.807 72.0535 101.15 72C100.939 72.273 100.965 72.2648 101.139 72.6036C101.356 73.0249 101.283 72.9558 101.841 73Z" fill="#4D446A"/>
<path fill-rule="evenodd" clip-rule="evenodd" d="M45.6914 65.9999C46.0764 66.0028 46.4567 65.9073 46.8015 65.7213C47.0078 65.6242 47.04 65.5995 47.2379 65.4928C47.7386 65.2215 49 64.5193 49 63.8909C49 63.2623 48.6279 63.062 48.2795 62.3296C47.9614 61.6597 47.8457 61 47.3457 61C46.9624 61 46.0729 61.9127 45.7087 62.269C45.5242 62.4499 45.2676 62.5584 45.1325 62.7377C44.842 63.123 45.12 63.8931 45.1183 64.5135C45.117 64.9086 45.0788 65.1685 45.1828 65.4592C45.2586 65.6705 45.4388 65.9999 45.6914 65.9999Z" fill="white"/>
<path fill-rule="evenodd" clip-rule="evenodd" d="M39 65.9229C39.0108 66.3845 39.3396 68 39.9565 68C40.7537 68 40.5392 67.9653 41.2978 67.679C42.3479 67.2823 42.0289 66.8627 41.5705 65.9808C41.3926 65.6703 41.2522 65.3414 41.1521 65L39.5556 65.7092C39.3366 65.798 39.194 65.8238 39 65.9229Z" fill="white"/>
<path fill-rule="evenodd" clip-rule="evenodd" d="M53.3776 51.313C53.3776 51.703 53.8357 51.6176 54.2232 51.6176C54.1886 52.0289 53.9259 52.769 53.7914 53.1711C52.3033 57.611 49.0068 60.3383 45.1261 62.6443C42.4226 64.2511 40.4511 64.6909 38.1789 65.8186C37.8377 65.9882 37 66.2922 37 66.7075C37 67.4077 37.7913 66.6794 38.5879 66.3002L41.5264 65.0974C42.012 64.8999 42.4471 64.6773 42.9648 64.4659L44.9509 63.463C45.2235 63.3145 45.3756 63.2281 45.635 63.0743C48.0145 61.6628 50.7335 59.6227 52.3008 57.4098C52.5875 57.0263 52.852 56.627 53.0928 56.2135C53.2305 55.9684 53.3364 55.8049 53.4547 55.5821L54.3866 53.381C54.5115 53.0077 54.8016 52.1967 54.8375 51.7702C55.5064 52.0887 55.7347 52.3939 55.9358 52.0924C56.3389 51.4885 54.7323 51.0081 54.2223 51.0081C53.8329 51.0078 53.3776 50.9224 53.3776 51.313Z" fill="black"/>
<path fill-rule="evenodd" clip-rule="evenodd" d="M59.2602 37.9844C60.8179 37.7069 61.7497 39.3874 60.7788 40.3402C59.8704 41.2316 58.1818 41.1206 58.2068 39.14C60.1357 39.6111 59.2055 38.4043 59.2599 37.9846L59.2602 37.9844ZM57 39.1004C57 39.9673 57.0903 40.4702 57.8624 41.185C59.6286 42.8188 62 41.8194 62 39.7525C62 38.1411 60.9232 37 59.2302 37C58.2984 37 57 38.2288 57 39.1004Z" fill="#FEFEFE"/>
<path fill-rule="evenodd" clip-rule="evenodd" d="M61.5998 40.4515C62.5808 39.4723 61.6393 37.7463 60.0647 38.0314C60.0094 38.4626 60.9498 39.7022 59.0003 39.2183C58.9747 41.2526 60.6816 41.3666 61.5998 40.4515Z" fill="black"/>
</svg>
