<svg width="358" height="229" viewBox="0 0 358 229" fill="none" xmlns="http://www.w3.org/2000/svg">
<mask id="mask0_12_6663" style="mask-type:luminance" maskUnits="userSpaceOnUse" x="0" y="0" width="358" height="229">
<path d="M0 9.64088C119.278 43.0379 238.556 -23.7561 357.834 9.64088C357.834 79.2179 357.834 148.795 357.834 218.372C238.556 184.975 119.278 251.769 0 218.372C0 148.795 0 79.2189 0 9.64088Z" fill="white"/>
</mask>
<g mask="url(#mask0_12_6663)">
<path d="M0 218.372C119.278 251.769 238.556 184.975 357.834 218.372C357.834 148.795 357.834 79.2179 357.834 9.64088C238.556 -23.7561 119.278 43.0379 0 9.64088C0 79.2189 0 148.795 0 218.372Z" fill="white"/>
</g>
<mask id="mask1_12_6663" style="mask-type:luminance" maskUnits="userSpaceOnUse" x="0" y="0" width="358" height="229">
<path d="M0 9.64088C119.278 43.0379 238.556 -23.7561 357.834 9.64088C357.834 79.2179 357.834 148.795 357.834 218.372C238.556 184.975 119.278 251.769 0 218.372C0 148.795 0 79.2189 0 9.64088Z" fill="white"/>
</mask>
<g mask="url(#mask1_12_6663)">
<path d="M178.922 102.409C177.724 106.259 176.526 110.109 175.328 113.959C177.163 114.297 178.999 114.635 180.834 114.974C180.197 110.786 179.56 106.597 178.922 102.409Z" fill="#3B4EA0"/>
</g>
<mask id="mask2_12_6663" style="mask-type:luminance" maskUnits="userSpaceOnUse" x="0" y="0" width="358" height="229">
<path d="M0 9.64088C119.278 43.0379 238.556 -23.7561 357.834 9.64088C357.834 79.2179 357.834 148.795 357.834 218.372C238.556 184.975 119.278 251.769 0 218.372C0 148.795 0 79.2189 0 9.64088Z" fill="white"/>
</mask>
<g mask="url(#mask2_12_6663)">
<path d="M178.922 102.409C180.112 105.925 181.302 109.441 182.493 112.956C180.662 113.808 178.831 114.659 177 115.511C177.64 111.144 178.281 106.776 178.922 102.409Z" fill="#3B4EA0"/>
</g>
<mask id="mask3_12_6663" style="mask-type:luminance" maskUnits="userSpaceOnUse" x="0" y="0" width="358" height="229">
<path d="M0 9.64088C119.278 43.0379 238.556 -23.7561 357.834 9.64088C357.834 79.2179 357.834 148.795 357.834 218.372C238.556 184.975 119.278 251.769 0 218.372C0 148.795 0 79.2189 0 9.64088Z" fill="white"/>
</mask>
<g mask="url(#mask3_12_6663)">
<path d="M189.947 108.893C186.081 109.428 182.216 109.969 178.35 110.511C178.35 112.448 178.35 114.384 178.35 116.321C182.216 113.843 186.081 111.365 189.947 108.893Z" fill="#3B4EA0"/>
</g>
<mask id="mask4_12_6663" style="mask-type:luminance" maskUnits="userSpaceOnUse" x="0" y="0" width="358" height="229">
<path d="M0 9.64088C119.278 43.0379 238.556 -23.7561 357.834 9.64088C357.834 79.2179 357.834 148.795 357.834 218.372C238.556 184.975 119.278 251.769 0 218.372C0 148.795 0 79.2189 0 9.64088Z" fill="white"/>
</mask>
<g mask="url(#mask4_12_6663)">
<path d="M189.947 108.893C186.82 111.597 183.694 114.304 180.567 117.012C179.428 115.61 178.289 114.209 177.15 112.807C181.415 111.501 185.681 110.193 189.947 108.893Z" fill="#3B4EA0"/>
</g>
<mask id="mask5_12_6663" style="mask-type:luminance" maskUnits="userSpaceOnUse" x="0" y="0" width="358" height="229">
<path d="M0 9.64088C119.278 43.0379 238.556 -23.7561 357.834 9.64088C357.834 79.2179 357.834 148.795 357.834 218.372C238.556 184.975 119.278 251.769 0 218.372C0 148.795 0 79.2189 0 9.64088Z" fill="white"/>
</mask>
<g mask="url(#mask5_12_6663)">
<path d="M167.874 111.971C171.005 113.808 174.136 115.641 177.268 117.474C178.403 115.754 179.537 114.034 180.672 112.314C176.406 112.201 172.14 112.091 167.874 111.971Z" fill="#3B4EA0"/>
</g>
<mask id="mask6_12_6663" style="mask-type:luminance" maskUnits="userSpaceOnUse" x="0" y="0" width="358" height="229">
<path d="M0 9.64088C119.278 43.0379 238.556 -23.7561 357.834 9.64088C357.834 79.2179 357.834 148.795 357.834 218.372C238.556 184.975 119.278 251.769 0 218.372C0 148.795 0 79.2189 0 9.64088Z" fill="white"/>
</mask>
<g mask="url(#mask6_12_6663)">
<path d="M167.874 111.971C171.749 111.435 175.623 110.892 179.497 110.35C179.497 112.287 179.497 114.224 179.497 116.16C175.623 114.766 171.749 113.372 167.874 111.971Z" fill="#3B4EA0"/>
</g>
<mask id="mask7_12_6663" style="mask-type:luminance" maskUnits="userSpaceOnUse" x="0" y="0" width="358" height="229">
<path d="M0 9.64088C119.278 43.0379 238.556 -23.7561 357.834 9.64088C357.834 79.2179 357.834 148.795 357.834 218.372C238.556 184.975 119.278 251.769 0 218.372C0 148.795 0 79.2189 0 9.64088Z" fill="white"/>
</mask>
<g mask="url(#mask7_12_6663)">
<path d="M185.721 122.445C184.531 118.933 183.341 115.421 182.15 111.909C180.315 112.767 178.479 113.625 176.644 114.483C179.669 117.137 182.695 119.79 185.721 122.445Z" fill="#3B4EA0"/>
</g>
<mask id="mask8_12_6663" style="mask-type:luminance" maskUnits="userSpaceOnUse" x="0" y="0" width="358" height="229">
<path d="M0 9.64088C119.278 43.0379 238.556 -23.7561 357.834 9.64088C357.834 79.2179 357.834 148.795 357.834 218.372C238.556 184.975 119.278 251.769 0 218.372C0 148.795 0 79.2189 0 9.64088Z" fill="white"/>
</mask>
<g mask="url(#mask8_12_6663)">
<path d="M185.721 122.445C182.598 120.61 179.476 118.777 176.353 116.943C177.483 115.216 178.614 113.49 179.744 111.763C181.736 115.323 183.728 118.883 185.721 122.445Z" fill="#3B4EA0"/>
</g>
<mask id="mask9_12_6663" style="mask-type:luminance" maskUnits="userSpaceOnUse" x="0" y="0" width="358" height="229">
<path d="M0 9.64088C119.278 43.0379 238.556 -23.7561 357.834 9.64088C357.834 79.2179 357.834 148.795 357.834 218.372C238.556 184.975 119.278 251.769 0 218.372C0 148.795 0 79.2189 0 9.64088Z" fill="white"/>
</mask>
<g mask="url(#mask9_12_6663)">
<path d="M172.101 124.349C175.232 121.641 178.364 118.932 181.495 116.223C180.349 114.815 179.202 113.407 178.056 111.999C176.07 116.116 174.085 120.233 172.101 124.349Z" fill="#3B4EA0"/>
</g>
<mask id="mask10_12_6663" style="mask-type:luminance" maskUnits="userSpaceOnUse" x="0" y="0" width="358" height="229">
<path d="M0 9.64088C119.278 43.0379 238.556 -23.7561 357.834 9.64088C357.834 79.2179 357.834 148.795 357.834 218.372C238.556 184.975 119.278 251.769 0 218.372C0 148.795 0 79.2189 0 9.64088Z" fill="white"/>
</mask>
<g mask="url(#mask10_12_6663)">
<path d="M172.101 124.349C173.3 120.504 174.499 116.658 175.698 112.812C177.533 113.156 179.368 113.5 181.204 113.844C178.169 117.347 175.135 120.849 172.101 124.349Z" fill="#3B4EA0"/>
</g>
<mask id="mask11_12_6663" style="mask-type:luminance" maskUnits="userSpaceOnUse" x="0" y="0" width="358" height="229">
<path d="M0 9.64088C119.278 43.0379 238.556 -23.7561 357.834 9.64088C357.834 79.2179 357.834 148.795 357.834 218.372C238.556 184.975 119.278 251.769 0 218.372C0 148.795 0 79.2189 0 9.64088Z" fill="white"/>
</mask>
<g mask="url(#mask11_12_6663)">
<path d="M236.912 112.529C235.713 116.334 234.514 120.142 233.314 123.953C235.151 124.353 236.988 124.762 238.825 125.178C238.187 120.96 237.549 116.743 236.912 112.529Z" fill="#3B4EA0"/>
</g>
<mask id="mask12_12_6663" style="mask-type:luminance" maskUnits="userSpaceOnUse" x="0" y="0" width="358" height="229">
<path d="M0 9.64088C119.278 43.0379 238.556 -23.7561 357.834 9.64088C357.834 79.2179 357.834 148.795 357.834 218.372C238.556 184.975 119.278 251.769 0 218.372C0 148.795 0 79.2189 0 9.64088Z" fill="white"/>
</mask>
<g mask="url(#mask12_12_6663)">
<path d="M236.912 112.529C238.097 116.105 239.281 119.684 240.465 123.267C238.634 124.019 236.803 124.779 234.972 125.546C235.619 121.206 236.265 116.866 236.912 112.529Z" fill="#3B4EA0"/>
</g>
<mask id="mask13_12_6663" style="mask-type:luminance" maskUnits="userSpaceOnUse" x="0" y="0" width="358" height="229">
<path d="M0 9.64088C119.278 43.0379 238.556 -23.7561 357.834 9.64088C357.834 79.2179 357.834 148.795 357.834 218.372C238.556 184.975 119.278 251.769 0 218.372C0 148.795 0 79.2189 0 9.64088Z" fill="white"/>
</mask>
<g mask="url(#mask13_12_6663)">
<path d="M247.902 119.59C244.045 119.889 240.188 120.228 236.331 120.602C236.331 122.539 236.331 124.475 236.331 126.411C240.188 124.101 244.045 121.825 247.902 119.59Z" fill="#3B4EA0"/>
</g>
<mask id="mask14_12_6663" style="mask-type:luminance" maskUnits="userSpaceOnUse" x="0" y="0" width="358" height="229">
<path d="M0 9.64088C119.278 43.0379 238.556 -23.7561 357.834 9.64088C357.834 79.2179 357.834 148.795 357.834 218.372C238.556 184.975 119.278 251.769 0 218.372C0 148.795 0 79.2189 0 9.64088Z" fill="white"/>
</mask>
<g mask="url(#mask14_12_6663)">
<path d="M247.902 119.59C244.788 122.111 241.674 124.658 238.561 127.228C237.419 125.76 236.277 124.295 235.135 122.833C239.391 121.709 243.646 120.625 247.902 119.59Z" fill="#3B4EA0"/>
</g>
<mask id="mask15_12_6663" style="mask-type:luminance" maskUnits="userSpaceOnUse" x="0" y="0" width="358" height="229">
<path d="M0 9.64088C119.278 43.0379 238.556 -23.7561 357.834 9.64088C357.834 79.2179 357.834 148.795 357.834 218.372C238.556 184.975 119.278 251.769 0 218.372C0 148.795 0 79.2189 0 9.64088Z" fill="white"/>
</mask>
<g mask="url(#mask15_12_6663)">
<path d="M225.881 121.69C229.005 123.622 232.13 125.573 235.254 127.545C236.388 125.859 237.523 124.176 238.657 122.496C234.398 122.188 230.14 121.922 225.881 121.69Z" fill="#3B4EA0"/>
</g>
<mask id="mask16_12_6663" style="mask-type:luminance" maskUnits="userSpaceOnUse" x="0" y="0" width="358" height="229">
<path d="M0 9.64088C119.278 43.0379 238.556 -23.7561 357.834 9.64088C357.834 79.2179 357.834 148.795 357.834 218.372C238.556 184.975 119.278 251.769 0 218.372C0 148.795 0 79.2189 0 9.64088Z" fill="white"/>
</mask>
<g mask="url(#mask16_12_6663)">
<path d="M225.881 121.69C229.739 121.261 233.598 120.86 237.456 120.494C237.456 122.43 237.456 124.367 237.456 126.303C233.598 124.733 229.74 123.198 225.881 121.69Z" fill="#3B4EA0"/>
</g>
<mask id="mask17_12_6663" style="mask-type:luminance" maskUnits="userSpaceOnUse" x="0" y="0" width="358" height="229">
<path d="M0 9.64088C119.278 43.0379 238.556 -23.7561 357.834 9.64088C357.834 79.2179 357.834 148.795 357.834 218.372C238.556 184.975 119.278 251.769 0 218.372C0 148.795 0 79.2189 0 9.64088Z" fill="white"/>
</mask>
<g mask="url(#mask17_12_6663)">
<path d="M243.706 132.909C242.508 129.334 241.311 125.763 240.113 122.195C238.285 122.956 236.457 123.725 234.629 124.502C237.655 127.283 240.68 130.084 243.706 132.909Z" fill="#3B4EA0"/>
</g>
<mask id="mask18_12_6663" style="mask-type:luminance" maskUnits="userSpaceOnUse" x="0" y="0" width="358" height="229">
<path d="M0 9.64088C119.278 43.0379 238.556 -23.7561 357.834 9.64088C357.834 79.2179 357.834 148.795 357.834 218.372C238.556 184.975 119.278 251.769 0 218.372C0 148.795 0 79.2189 0 9.64088Z" fill="white"/>
</mask>
<g mask="url(#mask18_12_6663)">
<path d="M243.706 132.909C240.582 130.899 237.458 128.914 234.334 126.951C235.469 125.278 236.604 123.608 237.738 121.941C239.728 125.587 241.717 129.243 243.706 132.909Z" fill="#3B4EA0"/>
</g>
<mask id="mask19_12_6663" style="mask-type:luminance" maskUnits="userSpaceOnUse" x="0" y="0" width="358" height="229">
<path d="M0 9.64088C119.278 43.0379 238.556 -23.7561 357.834 9.64088C357.834 79.2179 357.834 148.795 357.834 218.372C238.556 184.975 119.278 251.769 0 218.372C0 148.795 0 79.2189 0 9.64088Z" fill="white"/>
</mask>
<g mask="url(#mask19_12_6663)">
<path d="M230.073 134.214C233.198 131.609 236.324 129.023 239.449 126.46C238.313 125.005 237.177 123.553 236.041 122.104C234.051 126.132 232.062 130.169 230.073 134.214Z" fill="#3B4EA0"/>
</g>
<mask id="mask20_12_6663" style="mask-type:luminance" maskUnits="userSpaceOnUse" x="0" y="0" width="358" height="229">
<path d="M0 9.64088C119.278 43.0379 238.556 -23.7561 357.834 9.64088C357.834 79.2179 357.834 148.795 357.834 218.372C238.556 184.975 119.278 251.769 0 218.372C0 148.795 0 79.2189 0 9.64088Z" fill="white"/>
</mask>
<g mask="url(#mask20_12_6663)">
<path d="M230.073 134.214C231.272 130.411 232.471 126.61 233.671 122.813C235.509 123.223 237.347 123.64 239.186 124.065C236.147 127.427 233.11 130.811 230.073 134.214Z" fill="#3B4EA0"/>
</g>
<mask id="mask21_12_6663" style="mask-type:luminance" maskUnits="userSpaceOnUse" x="0" y="0" width="358" height="229">
<path d="M0 9.64088C119.278 43.0379 238.556 -23.7561 357.834 9.64088C357.834 79.2179 357.834 148.795 357.834 218.372C238.556 184.975 119.278 251.769 0 218.372C0 148.795 0 79.2189 0 9.64088Z" fill="white"/>
</mask>
<g mask="url(#mask21_12_6663)">
<path d="M236.912 77.7629C235.713 81.5509 234.514 85.3409 233.314 89.1349C235.151 89.5499 236.988 89.9719 238.825 90.4029C238.187 86.1889 237.549 81.9749 236.912 77.7629Z" fill="#3B4EA0"/>
</g>
<mask id="mask22_12_6663" style="mask-type:luminance" maskUnits="userSpaceOnUse" x="0" y="0" width="358" height="229">
<path d="M0 9.64088C119.278 43.0379 238.556 -23.7561 357.834 9.64088C357.834 79.2179 357.834 148.795 357.834 218.372C238.556 184.975 119.278 251.769 0 218.372C0 148.795 0 79.2189 0 9.64088Z" fill="white"/>
</mask>
<g mask="url(#mask22_12_6663)">
<path d="M236.912 77.7629C238.097 81.3219 239.281 84.8839 240.465 88.4499C238.634 89.2159 236.803 89.9909 234.972 90.7729C235.619 86.4349 236.265 82.0979 236.912 77.7629Z" fill="#3B4EA0"/>
</g>
<mask id="mask23_12_6663" style="mask-type:luminance" maskUnits="userSpaceOnUse" x="0" y="0" width="358" height="229">
<path d="M0 9.64088C119.278 43.0379 238.556 -23.7561 357.834 9.64088C357.834 79.2179 357.834 148.795 357.834 218.372C238.556 184.975 119.278 251.769 0 218.372C0 148.795 0 79.2189 0 9.64088Z" fill="white"/>
</mask>
<g mask="url(#mask23_12_6663)">
<path d="M247.902 84.8029C244.045 85.1019 240.188 85.4408 236.331 85.8148C236.331 87.7518 236.331 89.6879 236.331 91.6249C240.188 89.3149 244.045 87.0379 247.902 84.8029Z" fill="#3B4EA0"/>
</g>
<mask id="mask24_12_6663" style="mask-type:luminance" maskUnits="userSpaceOnUse" x="0" y="0" width="358" height="229">
<path d="M0 9.64088C119.278 43.0379 238.556 -23.7561 357.834 9.64088C357.834 79.2179 357.834 148.795 357.834 218.372C238.556 184.975 119.278 251.769 0 218.372C0 148.795 0 79.2189 0 9.64088Z" fill="white"/>
</mask>
<g mask="url(#mask24_12_6663)">
<path d="M247.902 84.8029C244.788 87.3229 241.674 89.8679 238.561 92.4369C237.419 90.9749 236.277 89.5169 235.135 88.0609C239.391 86.9309 243.646 85.8429 247.902 84.8029Z" fill="#3B4EA0"/>
</g>
<mask id="mask25_12_6663" style="mask-type:luminance" maskUnits="userSpaceOnUse" x="0" y="0" width="358" height="229">
<path d="M0 9.64088C119.278 43.0379 238.556 -23.7561 357.834 9.64088C357.834 79.2179 357.834 148.795 357.834 218.372C238.556 184.975 119.278 251.769 0 218.372C0 148.795 0 79.2189 0 9.64088Z" fill="white"/>
</mask>
<g mask="url(#mask25_12_6663)">
<path d="M225.881 86.9029C229.005 88.8339 232.13 90.7829 235.254 92.7539C236.388 91.0739 237.523 89.3969 238.657 87.7229C234.398 87.4089 230.14 87.1399 225.881 86.9029Z" fill="#3B4EA0"/>
</g>
<mask id="mask26_12_6663" style="mask-type:luminance" maskUnits="userSpaceOnUse" x="0" y="0" width="358" height="229">
<path d="M0 9.64088C119.278 43.0379 238.556 -23.7561 357.834 9.64088C357.834 79.2179 357.834 148.795 357.834 218.372C238.556 184.975 119.278 251.769 0 218.372C0 148.795 0 79.2189 0 9.64088Z" fill="white"/>
</mask>
<g mask="url(#mask26_12_6663)">
<path d="M225.881 86.9029C229.739 86.4739 233.598 86.0729 237.456 85.7069C237.456 87.6439 237.456 89.5799 237.456 91.5169C233.598 89.9469 229.74 88.4109 225.881 86.9029Z" fill="#3B4EA0"/>
</g>
<mask id="mask27_12_6663" style="mask-type:luminance" maskUnits="userSpaceOnUse" x="0" y="0" width="358" height="229">
<path d="M0 9.64088C119.278 43.0379 238.556 -23.7561 357.834 9.64088C357.834 79.2179 357.834 148.795 357.834 218.372C238.556 184.975 119.278 251.769 0 218.372C0 148.795 0 79.2189 0 9.64088Z" fill="white"/>
</mask>
<g mask="url(#mask27_12_6663)">
<path d="M243.706 98.1219C242.508 94.5499 241.311 90.9809 240.113 87.4159C238.285 88.1739 236.457 88.9409 234.629 89.7139C237.655 92.4959 240.68 95.2979 243.706 98.1219Z" fill="#3B4EA0"/>
</g>
<mask id="mask28_12_6663" style="mask-type:luminance" maskUnits="userSpaceOnUse" x="0" y="0" width="358" height="229">
<path d="M0 9.64088C119.278 43.0379 238.556 -23.7561 357.834 9.64088C357.834 79.2179 357.834 148.795 357.834 218.372C238.556 184.975 119.278 251.769 0 218.372C0 148.795 0 79.2189 0 9.64088Z" fill="white"/>
</mask>
<g mask="url(#mask28_12_6663)">
<path d="M243.706 98.1219C240.582 96.1119 237.458 94.1269 234.334 92.1629C235.469 90.4899 236.604 88.8199 237.738 87.1529C239.728 90.7999 241.717 94.4559 243.706 98.1219Z" fill="#3B4EA0"/>
</g>
<mask id="mask29_12_6663" style="mask-type:luminance" maskUnits="userSpaceOnUse" x="0" y="0" width="358" height="229">
<path d="M0 9.64088C119.278 43.0379 238.556 -23.7561 357.834 9.64088C357.834 79.2179 357.834 148.795 357.834 218.372C238.556 184.975 119.278 251.769 0 218.372C0 148.795 0 79.2189 0 9.64088Z" fill="white"/>
</mask>
<g mask="url(#mask29_12_6663)">
<path d="M230.073 99.4269C233.198 96.8219 236.324 94.2359 239.449 91.6729C238.313 90.2179 237.177 88.7659 236.041 87.3169C234.051 91.3449 232.062 95.3819 230.073 99.4269Z" fill="#3B4EA0"/>
</g>
<mask id="mask30_12_6663" style="mask-type:luminance" maskUnits="userSpaceOnUse" x="0" y="0" width="358" height="229">
<path d="M0 9.64088C119.278 43.0379 238.556 -23.7561 357.834 9.64088C357.834 79.2179 357.834 148.795 357.834 218.372C238.556 184.975 119.278 251.769 0 218.372C0 148.795 0 79.2189 0 9.64088Z" fill="white"/>
</mask>
<g mask="url(#mask30_12_6663)">
<path d="M230.073 99.4269C231.272 95.6259 232.471 91.8289 233.671 88.0339C235.509 88.4409 237.347 88.8559 239.186 89.2779C236.147 92.6409 233.11 96.0249 230.073 99.4269Z" fill="#3B4EA0"/>
</g>
<mask id="mask31_12_6663" style="mask-type:luminance" maskUnits="userSpaceOnUse" x="0" y="0" width="358" height="229">
<path d="M0 9.64088C119.278 43.0379 238.556 -23.7561 357.834 9.64088C357.834 79.2179 357.834 148.795 357.834 218.372C238.556 184.975 119.278 251.769 0 218.372C0 148.795 0 79.2189 0 9.64088Z" fill="white"/>
</mask>
<g mask="url(#mask31_12_6663)">
<path d="M120.923 127.06C119.734 130.864 118.546 134.664 117.357 138.462C119.188 138.883 121.019 139.296 122.85 139.702C122.207 135.489 121.565 131.275 120.923 127.06Z" fill="#3B4EA0"/>
</g>
<mask id="mask32_12_6663" style="mask-type:luminance" maskUnits="userSpaceOnUse" x="0" y="0" width="358" height="229">
<path d="M0 9.64088C119.278 43.0379 238.556 -23.7561 357.834 9.64088C357.834 79.2179 357.834 148.795 357.834 218.372C238.556 184.975 119.278 251.769 0 218.372C0 148.795 0 79.2189 0 9.64088Z" fill="white"/>
</mask>
<g mask="url(#mask32_12_6663)">
<path d="M120.923 127.06C122.118 130.635 123.312 134.207 124.507 137.777C122.674 138.548 120.842 139.313 119.01 140.07C119.647 135.734 120.285 131.398 120.923 127.06Z" fill="#3B4EA0"/>
</g>
<mask id="mask33_12_6663" style="mask-type:luminance" maskUnits="userSpaceOnUse" x="0" y="0" width="358" height="229">
<path d="M0 9.64088C119.278 43.0379 238.556 -23.7561 357.834 9.64088C357.834 79.2179 357.834 148.795 357.834 218.372C238.556 184.975 119.278 251.769 0 218.372C0 148.795 0 79.2189 0 9.64088Z" fill="white"/>
</mask>
<g mask="url(#mask33_12_6663)">
<path d="M131.953 133.934C128.09 134.363 124.227 134.764 120.365 135.131C120.365 137.068 120.365 139.004 120.365 140.94C124.227 138.637 128.09 136.299 131.953 133.934Z" fill="#3B4EA0"/>
</g>
<mask id="mask34_12_6663" style="mask-type:luminance" maskUnits="userSpaceOnUse" x="0" y="0" width="358" height="229">
<path d="M0 9.64088C119.278 43.0379 238.556 -23.7561 357.834 9.64088C357.834 79.2179 357.834 148.795 357.834 218.372C238.556 184.975 119.278 251.769 0 218.372C0 148.795 0 79.2189 0 9.64088Z" fill="white"/>
</mask>
<g mask="url(#mask34_12_6663)">
<path d="M131.953 133.934C128.829 136.56 125.705 139.168 122.581 141.755C121.444 140.292 120.306 138.827 119.169 137.359C123.43 136.257 127.691 135.112 131.953 133.934Z" fill="#3B4EA0"/>
</g>
<mask id="mask35_12_6663" style="mask-type:luminance" maskUnits="userSpaceOnUse" x="0" y="0" width="358" height="229">
<path d="M0 9.64088C119.278 43.0379 238.556 -23.7561 357.834 9.64088C357.834 79.2179 357.834 148.795 357.834 218.372C238.556 184.975 119.278 251.769 0 218.372C0 148.795 0 79.2189 0 9.64088Z" fill="white"/>
</mask>
<g mask="url(#mask35_12_6663)">
<path d="M109.898 136.036C113.026 138.073 116.154 140.083 119.283 142.071C120.422 140.39 121.561 138.706 122.7 137.02C118.433 136.736 114.165 136.411 109.898 136.036Z" fill="#3B4EA0"/>
</g>
<mask id="mask36_12_6663" style="mask-type:luminance" maskUnits="userSpaceOnUse" x="0" y="0" width="358" height="229">
<path d="M0 9.64088C119.278 43.0379 238.556 -23.7561 357.834 9.64088C357.834 79.2179 357.834 148.795 357.834 218.372C238.556 184.975 119.278 251.769 0 218.372C0 148.795 0 79.2189 0 9.64088Z" fill="white"/>
</mask>
<g mask="url(#mask36_12_6663)">
<path d="M109.898 136.036C113.767 135.736 117.635 135.395 121.503 135.021C121.503 136.958 121.503 138.894 121.503 140.83C117.635 139.269 113.767 137.673 109.898 136.036Z" fill="#3B4EA0"/>
</g>
<mask id="mask37_12_6663" style="mask-type:luminance" maskUnits="userSpaceOnUse" x="0" y="0" width="358" height="229">
<path d="M0 9.64088C119.278 43.0379 238.556 -23.7561 357.834 9.64088C357.834 79.2179 357.834 148.795 357.834 218.372C238.556 184.975 119.278 251.769 0 218.372C0 148.795 0 79.2189 0 9.64088Z" fill="white"/>
</mask>
<g mask="url(#mask37_12_6663)">
<path d="M127.749 147.367C126.554 143.816 125.359 140.263 124.165 136.707C122.327 137.487 120.489 138.26 118.65 139.025C121.683 141.826 124.715 144.606 127.749 147.367Z" fill="#3B4EA0"/>
</g>
<mask id="mask38_12_6663" style="mask-type:luminance" maskUnits="userSpaceOnUse" x="0" y="0" width="358" height="229">
<path d="M0 9.64088C119.278 43.0379 238.556 -23.7561 357.834 9.64088C357.834 79.2179 357.834 148.795 357.834 218.372C238.556 184.975 119.278 251.769 0 218.372C0 148.795 0 79.2189 0 9.64088Z" fill="white"/>
</mask>
<g mask="url(#mask38_12_6663)">
<path d="M127.749 147.367C124.624 145.422 121.498 143.457 118.373 141.469C119.506 139.805 120.639 138.138 121.772 136.469C123.764 140.11 125.756 143.743 127.749 147.367Z" fill="#3B4EA0"/>
</g>
<mask id="mask39_12_6663" style="mask-type:luminance" maskUnits="userSpaceOnUse" x="0" y="0" width="358" height="229">
<path d="M0 9.64088C119.278 43.0379 238.556 -23.7561 357.834 9.64088C357.834 79.2179 357.834 148.795 357.834 218.372C238.556 184.975 119.278 251.769 0 218.372C0 148.795 0 79.2189 0 9.64088Z" fill="white"/>
</mask>
<g mask="url(#mask39_12_6663)">
<path d="M114.106 148.673C117.237 146.132 120.369 143.566 123.5 140.978C122.361 139.532 121.222 138.083 120.083 136.631C118.091 140.654 116.099 144.668 114.106 148.673Z" fill="#3B4EA0"/>
</g>
<mask id="mask40_12_6663" style="mask-type:luminance" maskUnits="userSpaceOnUse" x="0" y="0" width="358" height="229">
<path d="M0 9.64088C119.278 43.0379 238.556 -23.7561 357.834 9.64088C357.834 79.2179 357.834 148.795 357.834 218.372C238.556 184.975 119.278 251.769 0 218.372C0 148.795 0 79.2189 0 9.64088Z" fill="white"/>
</mask>
<g mask="url(#mask40_12_6663)">
<path d="M114.106 148.673C115.302 144.895 116.499 141.113 117.695 137.328C119.532 137.756 121.369 138.177 123.206 138.589C120.172 141.971 117.139 145.333 114.106 148.673Z" fill="#3B4EA0"/>
</g>
<mask id="mask41_12_6663" style="mask-type:luminance" maskUnits="userSpaceOnUse" x="0" y="0" width="358" height="229">
<path d="M0 9.64088C119.278 43.0379 238.556 -23.7561 357.834 9.64088C357.834 79.2179 357.834 148.795 357.834 218.372C238.556 184.975 119.278 251.769 0 218.372C0 148.795 0 79.2189 0 9.64088Z" fill="white"/>
</mask>
<g mask="url(#mask41_12_6663)">
<path d="M120.923 92.2949C119.734 96.0809 118.546 99.8639 117.357 103.644C119.188 104.08 121.019 104.507 122.85 104.928C122.207 100.718 121.565 96.5069 120.923 92.2949Z" fill="#3B4EA0"/>
</g>
<mask id="mask42_12_6663" style="mask-type:luminance" maskUnits="userSpaceOnUse" x="0" y="0" width="358" height="229">
<path d="M0 9.64088C119.278 43.0379 238.556 -23.7561 357.834 9.64088C357.834 79.2179 357.834 148.795 357.834 218.372C238.556 184.975 119.278 251.769 0 218.372C0 148.795 0 79.2189 0 9.64088Z" fill="white"/>
</mask>
<g mask="url(#mask42_12_6663)">
<path d="M120.923 92.2949C122.118 95.8529 123.312 99.4069 124.507 102.959C122.674 103.745 120.842 104.524 119.01 105.296C119.647 100.963 120.285 96.6299 120.923 92.2949Z" fill="#3B4EA0"/>
</g>
<mask id="mask43_12_6663" style="mask-type:luminance" maskUnits="userSpaceOnUse" x="0" y="0" width="358" height="229">
<path d="M0 9.64088C119.278 43.0379 238.556 -23.7561 357.834 9.64088C357.834 79.2179 357.834 148.795 357.834 218.372C238.556 184.975 119.278 251.769 0 218.372C0 148.795 0 79.2189 0 9.64088Z" fill="white"/>
</mask>
<g mask="url(#mask43_12_6663)">
<path d="M131.953 99.1469C128.09 99.5759 124.227 99.9769 120.365 100.344C120.365 102.281 120.365 104.217 120.365 106.154C124.227 103.85 128.09 101.512 131.953 99.1469Z" fill="#3B4EA0"/>
</g>
<mask id="mask44_12_6663" style="mask-type:luminance" maskUnits="userSpaceOnUse" x="0" y="0" width="358" height="229">
<path d="M0 9.64088C119.278 43.0379 238.556 -23.7561 357.834 9.64088C357.834 79.2179 357.834 148.795 357.834 218.372C238.556 184.975 119.278 251.769 0 218.372C0 148.795 0 79.2189 0 9.64088Z" fill="white"/>
</mask>
<g mask="url(#mask44_12_6663)">
<path d="M131.953 99.1469C128.829 101.772 125.705 104.378 122.581 106.964C121.444 105.507 120.306 104.048 119.169 102.586C123.43 101.479 127.691 100.329 131.953 99.1469Z" fill="#3B4EA0"/>
</g>
<mask id="mask45_12_6663" style="mask-type:luminance" maskUnits="userSpaceOnUse" x="0" y="0" width="358" height="229">
<path d="M0 9.64088C119.278 43.0379 238.556 -23.7561 357.834 9.64088C357.834 79.2179 357.834 148.795 357.834 218.372C238.556 184.975 119.278 251.769 0 218.372C0 148.795 0 79.2189 0 9.64088Z" fill="white"/>
</mask>
<g mask="url(#mask45_12_6663)">
<path d="M109.898 101.249C113.026 103.285 116.154 105.293 119.283 107.279C120.422 105.604 121.561 103.926 122.7 102.246C118.433 101.958 114.165 101.628 109.898 101.249Z" fill="#3B4EA0"/>
</g>
<mask id="mask46_12_6663" style="mask-type:luminance" maskUnits="userSpaceOnUse" x="0" y="0" width="358" height="229">
<path d="M0 9.64088C119.278 43.0379 238.556 -23.7561 357.834 9.64088C357.834 79.2179 357.834 148.795 357.834 218.372C238.556 184.975 119.278 251.769 0 218.372C0 148.795 0 79.2189 0 9.64088Z" fill="white"/>
</mask>
<g mask="url(#mask46_12_6663)">
<path d="M109.898 101.249C113.767 100.949 117.635 100.609 121.503 100.234C121.503 102.171 121.503 104.107 121.503 106.044C117.635 104.482 113.767 102.886 109.898 101.249Z" fill="#3B4EA0"/>
</g>
<mask id="mask47_12_6663" style="mask-type:luminance" maskUnits="userSpaceOnUse" x="0" y="0" width="358" height="229">
<path d="M0 9.64088C119.278 43.0379 238.556 -23.7561 357.834 9.64088C357.834 79.2179 357.834 148.795 357.834 218.372C238.556 184.975 119.278 251.769 0 218.372C0 148.795 0 79.2189 0 9.64088Z" fill="white"/>
</mask>
<g mask="url(#mask47_12_6663)">
<path d="M127.749 112.581C126.554 109.033 125.359 105.483 124.165 101.929C122.327 102.706 120.489 103.477 118.65 104.239C121.683 107.04 124.715 109.82 127.749 112.581Z" fill="#3B4EA0"/>
</g>
<mask id="mask48_12_6663" style="mask-type:luminance" maskUnits="userSpaceOnUse" x="0" y="0" width="358" height="229">
<path d="M0 9.64088C119.278 43.0379 238.556 -23.7561 357.834 9.64088C357.834 79.2179 357.834 148.795 357.834 218.372C238.556 184.975 119.278 251.769 0 218.372C0 148.795 0 79.2189 0 9.64088Z" fill="white"/>
</mask>
<g mask="url(#mask48_12_6663)">
<path d="M127.749 112.581C124.624 110.636 121.498 108.671 118.373 106.683C119.506 105.019 120.639 103.352 121.772 101.683C123.764 105.324 125.756 108.956 127.749 112.581Z" fill="#3B4EA0"/>
</g>
<mask id="mask49_12_6663" style="mask-type:luminance" maskUnits="userSpaceOnUse" x="0" y="0" width="358" height="229">
<path d="M0 9.64088C119.278 43.0379 238.556 -23.7561 357.834 9.64088C357.834 79.2179 357.834 148.795 357.834 218.372C238.556 184.975 119.278 251.769 0 218.372C0 148.795 0 79.2189 0 9.64088Z" fill="white"/>
</mask>
<g mask="url(#mask49_12_6663)">
<path d="M114.106 113.886C117.237 111.345 120.369 108.779 123.5 106.192C122.361 104.745 121.222 103.296 120.083 101.844C118.091 105.867 116.099 109.882 114.106 113.886Z" fill="#3B4EA0"/>
</g>
<mask id="mask50_12_6663" style="mask-type:luminance" maskUnits="userSpaceOnUse" x="0" y="0" width="358" height="229">
<path d="M0 9.64088C119.278 43.0379 238.556 -23.7561 357.834 9.64088C357.834 79.2179 357.834 148.795 357.834 218.372C238.556 184.975 119.278 251.769 0 218.372C0 148.795 0 79.2189 0 9.64088Z" fill="white"/>
</mask>
<g mask="url(#mask50_12_6663)">
<path d="M114.106 113.886C115.302 110.111 116.499 106.331 117.695 102.549C119.532 102.975 121.369 103.392 123.206 103.802C120.172 107.184 117.139 110.547 114.106 113.886Z" fill="#3B4EA0"/>
</g>
<mask id="mask51_12_6663" style="mask-type:luminance" maskUnits="userSpaceOnUse" x="0" y="0" width="358" height="229">
<path d="M0 9.64088C119.278 43.0379 238.556 -23.7561 357.834 9.64088C357.834 79.2179 357.834 148.795 357.834 218.372C238.556 184.975 119.278 251.769 0 218.372C0 148.795 0 79.2189 0 9.64088Z" fill="white"/>
</mask>
<g mask="url(#mask51_12_6663)">
<path d="M0 79.2199C119.278 112.617 238.556 45.8229 357.834 79.2199C357.834 56.0269 357.834 32.8339 357.834 9.64088C238.556 -23.7561 119.278 43.0379 0 9.64088C0 32.8339 0 56.0269 0 79.2199Z" fill="#3B4EA0"/>
</g>
<mask id="mask52_12_6663" style="mask-type:luminance" maskUnits="userSpaceOnUse" x="0" y="0" width="358" height="229">
<path d="M0 9.64088C119.278 43.0379 238.556 -23.7561 357.834 9.64088C357.834 79.2179 357.834 148.795 357.834 218.372C238.556 184.975 119.278 251.769 0 218.372C0 148.795 0 79.2189 0 9.64088Z" fill="white"/>
</mask>
<g mask="url(#mask52_12_6663)">
<path d="M0 218.372C119.278 251.769 238.556 184.975 357.834 218.372C357.834 195.184 357.834 171.995 357.834 148.807C238.556 115.41 119.278 182.204 0 148.807C0 171.995 0 195.184 0 218.372Z" fill="#3B4EA0"/>
</g>
</svg>
