<svg width="128" height="128" viewBox="0 0 128 128" fill="none" xmlns="http://www.w3.org/2000/svg">
<path d="M114 54C114 26.3858 91.6142 4 64 4C36.3858 4 14 26.3858 14 54V74C14 101.614 36.3858 124 64 124C91.6142 124 114 101.614 114 74V54Z" fill="#F1F2F2"/>
<path d="M71 105C67 96 64 81.51 64 81.51L60.72 54.33C41.24 53.8 25.19 84.79 19.62 97.04C27.95 113.06 44.7 124 64 124C68.23 124 72.34 123.47 76.27 122.47C75.51 115.89 72.91 109.31 71 105Z" fill="#EA9232"/>
<path d="M96.94 78.4L77.4 91.63C75.94 89.31 73.35 87.96 70.55 87.96H70.5C59.73 87.96 51 79.21 51 68.41C51 61.1 55.01 54.74 60.94 51.38C54.91 42.43 64.83 35 64.83 35C71.77 40.08 71.49 45.89 70.72 48.87C78.7 48.96 85.53 53.85 88.47 60.8L96.94 78.4Z" fill="#F3A950"/>
<path d="M79 40C74.22 36.42 70.51 37.11 68.3 38.26C71.63 42.39 71.33 46.51 70.72 48.87C77.47 56.7 82.67 58.45 86.59 57.37C94.13 55.3 96.94 42.78 96.94 42.78C89.88 51.56 79 40 79 40Z" fill="#F34141"/>
<path d="M96.08 94.2799L88.47 97.9099C84.89 99.6199 80.6 98.1199 78.87 94.5399L77.81 92.3699C77.69 92.1099 77.55 91.8699 77.4 91.6299L96.94 78.3999L99.67 84.0699C101.51 87.8799 99.9 92.4499 96.08 94.2799Z" fill="#FFD9B6"/>
<path d="M81.22 63.31C79.21 61.73 76.29 62.08 74.71 64.09C74.39 64.49 74.46 65.07 74.87 65.39C75.27 65.71 75.85 65.64 76.17 65.23C77.12 64.03 78.87 63.82 80.07 64.76C81.27 65.7 81.48 67.46 80.54 68.66C80.22 69.06 80.29 69.64 80.7 69.96C81.1 70.28 81.68 70.21 82 69.8C83.58 67.79 83.23 64.87 81.22 63.29V63.31Z" fill="#414042"/>
<path d="M95 87C95.5523 87 96 86.5523 96 86C96 85.4477 95.5523 85 95 85C94.4477 85 94 85.4477 94 86C94 86.5523 94.4477 87 95 87Z" fill="#414042"/>
<path d="M59.3899 42.7C51.6599 44.6 30.5299 54.24 21.9999 75.72C11.1999 102.95 29.3599 120 29.3599 120C29.3599 120 30.9999 102 42.9999 96C49.6599 92.67 54.4599 87.81 56.7299 82.26C58.5799 77.8 58.7799 72.9 56.9999 68C53.1999 57.55 60.1799 51.9499 60.8799 51.4199C60.9199 51.3899 60.9399 51.38 60.9399 51.38C58.7999 48.21 58.6699 45.23 59.3899 42.7Z" fill="#F34141"/>
</svg>
