<svg width="358" height="229" viewBox="0 0 358 229" fill="none" xmlns="http://www.w3.org/2000/svg">
<mask id="mask0_12_6386" style="mask-type:luminance" maskUnits="userSpaceOnUse" x="0" y="0" width="358" height="229">
<path d="M0 9.64088C119.282 43.0379 238.565 -23.7561 357.847 9.64088C357.847 79.2179 357.847 148.795 357.847 218.372C238.565 184.975 119.282 251.769 0 218.372C0 148.795 0 79.2189 0 9.64088Z" fill="white"/>
</mask>
<g mask="url(#mask0_12_6386)">
<path d="M33.349 225.261C130.394 238.656 227.44 198.093 324.486 211.482C275.966 176.486 227.446 154.977 178.927 133.467C130.4 168.562 81.874 203.657 33.349 225.261Z" fill="#488B41"/>
</g>
<mask id="mask1_12_6386" style="mask-type:luminance" maskUnits="userSpaceOnUse" x="0" y="0" width="358" height="229">
<path d="M0 9.64088C119.282 43.0379 238.565 -23.7561 357.847 9.64088C357.847 79.2179 357.847 148.795 357.847 218.372C238.565 184.975 119.282 251.769 0 218.372C0 148.795 0 79.2189 0 9.64088Z" fill="white"/>
</mask>
<g mask="url(#mask1_12_6386)">
<path d="M324.485 2.7509C227.44 -10.6381 130.394 29.9239 33.348 16.5299C81.874 51.5389 130.4 73.0579 178.926 94.5769C227.446 59.4729 275.966 24.3689 324.485 2.7509Z" fill="#488B41"/>
</g>
<mask id="mask2_12_6386" style="mask-type:luminance" maskUnits="userSpaceOnUse" x="0" y="0" width="358" height="229">
<path d="M0 9.64088C119.282 43.0379 238.565 -23.7561 357.847 9.64088C357.847 79.2179 357.847 148.795 357.847 218.372C238.565 184.975 119.282 251.769 0 218.372C0 148.795 0 79.2189 0 9.64088Z" fill="white"/>
</mask>
<g mask="url(#mask2_12_6386)">
<path d="M0 198.938C48.525 184.214 97.051 152.909 145.577 118.513C97.052 96.2929 48.526 70.9809 0 29.0889C0 85.7049 0 142.322 0 198.938Z" fill="#010101"/>
</g>
<mask id="mask3_12_6386" style="mask-type:luminance" maskUnits="userSpaceOnUse" x="0" y="0" width="358" height="229">
<path d="M0 9.64088C119.282 43.0379 238.565 -23.7561 357.847 9.64088C357.847 79.2179 357.847 148.795 357.847 218.372C238.565 184.975 119.282 251.769 0 218.372C0 148.795 0 79.2189 0 9.64088Z" fill="white"/>
</mask>
<g mask="url(#mask3_12_6386)">
<path d="M357.847 198.938C357.847 142.322 357.847 85.7059 357.847 29.0889C309.318 43.8079 260.79 75.1099 212.261 109.502C260.79 131.726 309.318 157.04 357.847 198.938Z" fill="#010101"/>
</g>
<mask id="mask4_12_6386" style="mask-type:luminance" maskUnits="userSpaceOnUse" x="0" y="0" width="358" height="229">
<path d="M0 9.64088C119.282 43.0379 238.565 -23.7561 357.847 9.64088C357.847 79.2179 357.847 148.795 357.847 218.372C238.565 184.975 119.282 251.769 0 218.372C0 148.795 0 79.2189 0 9.64088Z" fill="white"/>
</mask>
<g mask="url(#mask4_12_6386)">
<path d="M0 218.372C11.116 221.484 22.232 223.726 33.349 225.261C81.875 203.657 130.401 168.561 178.927 133.467C227.447 154.976 275.967 176.486 324.486 211.482C335.607 213.016 346.727 215.259 357.848 218.373C298.208 166.887 238.567 140.447 178.927 114.007C119.284 157.144 59.642 200.283 0 218.372Z" fill="#F0DA28"/>
</g>
<mask id="mask5_12_6386" style="mask-type:luminance" maskUnits="userSpaceOnUse" x="0" y="0" width="358" height="229">
<path d="M0 9.64088C119.282 43.0379 238.565 -23.7561 357.847 9.64088C357.847 79.2179 357.847 148.795 357.847 218.372C238.565 184.975 119.282 251.769 0 218.372C0 148.795 0 79.2189 0 9.64088Z" fill="white"/>
</mask>
<g mask="url(#mask5_12_6386)">
<path d="M324.485 2.75085C275.965 24.3689 227.445 59.4729 178.926 94.5769C130.4 73.0579 81.874 51.5399 33.348 16.5299C22.232 14.9959 11.116 12.7539 -0.000976562 9.64085C59.641 61.1279 119.283 87.5669 178.925 114.006C238.565 70.8689 298.206 27.7309 357.846 9.64085C346.727 6.52785 335.606 4.28485 324.485 2.75085Z" fill="#F0DA28"/>
</g>
<mask id="mask6_12_6386" style="mask-type:luminance" maskUnits="userSpaceOnUse" x="0" y="0" width="358" height="229">
<path d="M0 9.64088C119.282 43.0379 238.565 -23.7561 357.847 9.64088C357.847 79.2179 357.847 148.795 357.847 218.372C238.565 184.975 119.282 251.769 0 218.372C0 148.795 0 79.2189 0 9.64088Z" fill="white"/>
</mask>
<g mask="url(#mask6_12_6386)">
<path d="M357.847 9.64087C298.207 27.7309 238.566 70.8689 178.926 114.006C238.566 140.445 298.207 166.885 357.847 218.372C357.847 211.894 357.847 205.415 357.847 198.937C309.318 157.04 260.79 131.726 212.261 109.501C260.79 75.1089 309.318 43.8069 357.847 29.0879C357.847 22.6069 357.847 16.1239 357.847 9.64087Z" fill="#F0DA28"/>
</g>
<mask id="mask7_12_6386" style="mask-type:luminance" maskUnits="userSpaceOnUse" x="0" y="0" width="358" height="229">
<path d="M0 9.64088C119.282 43.0379 238.565 -23.7561 357.847 9.64088C357.847 79.2179 357.847 148.795 357.847 218.372C238.565 184.975 119.282 251.769 0 218.372C0 148.795 0 79.2189 0 9.64088Z" fill="white"/>
</mask>
<g mask="url(#mask7_12_6386)">
<path d="M0 29.0889C48.525 70.9809 97.051 96.2929 145.577 118.513C97.052 152.909 48.526 184.214 0 198.938C0 205.416 0 211.895 0 218.373C59.642 200.283 119.284 157.145 178.926 114.007C119.284 87.5679 59.642 61.1289 0 9.64191C0 16.1239 0 22.6069 0 29.0889Z" fill="#F0DA28"/>
</g>
</svg>
