<svg width="128" height="128" viewBox="0 0 128 128" fill="none" xmlns="http://www.w3.org/2000/svg">
<path d="M114 54C114 26.3858 91.6142 4 64 4C36.3858 4 14 26.3858 14 54V74C14 101.614 36.3858 124 64 124C91.6142 124 114 101.614 114 74V54Z" fill="#F1F2F2"/>
<path d="M73 76H55C48.37 76 43 81.37 43 88V119.38C49.38 122.35 56.5 124 64 124C71.5 124 78.62 122.35 85 119.38V88C85 81.37 79.63 76 73 76Z" fill="#EA9232"/>
<path d="M66 103L64 101L62 103H55V123.19C57.92 123.72 60.93 124 64 124C67.07 124 70.08 123.72 73 123.19V103H66Z" fill="#FFC280"/>
<path d="M86.8636 40.3946C92.2984 31.8996 93.6305 23.0467 89.839 20.621C86.0474 18.1952 78.568 23.1153 73.1331 31.6102C67.6983 40.1052 66.3661 48.9581 70.1577 51.3839C73.9493 53.8096 81.4287 48.8895 86.8636 40.3946Z" fill="#D87A1D"/>
<path d="M74.72 51.58C73.07 52.14 71.58 52.16 70.4 51.52C66.42 49.38 67.5 40.7 72.81 32.13C73.98 30.24 75.26 28.51 76.58 26.99C76.3 27.54 70.28 39.49 74.72 51.58Z" fill="#EA9232"/>
<path d="M57.8448 51.3783C61.6364 48.9526 60.3043 40.0996 54.8694 31.6047C49.4346 23.1097 41.9551 18.1897 38.1636 20.6154C34.372 23.0411 35.7041 31.8941 41.139 40.389C46.5738 48.884 54.0533 53.804 57.8448 51.3783Z" fill="#D87A1D"/>
<path d="M53.28 51.58C54.93 52.14 56.42 52.16 57.6 51.52C61.58 49.38 60.5 40.7 55.19 32.13C54.02 30.24 52.74 28.51 51.42 26.99C51.7 27.54 57.72 39.49 53.28 51.58Z" fill="#EA9232"/>
<path d="M83 88V97C83 99.76 80.76 102 78 102H68.12C66.67 102 65.34 101.02 65.06 99.6C64.69 97.68 66.15 96 68 96H76C76.55 96 77 95.55 77 95V88C77 87.45 76.55 87 76 87C75.45 87 75 87.45 75 88V94H68C66.36 94 64.91 94.81 64 96.03C63.09 94.8 61.64 94 60 94H53V88C53 87.45 52.55 87 52 87C51.45 87 51 87.45 51 88V95C51 95.55 51.45 96 52 96H59.88C61.33 96 62.66 96.98 62.94 98.4C63.31 100.32 61.85 102 60 102H50C47.24 102 45 99.76 45 97V88C45 87.45 44.55 87 44 87C43.45 87 43 87.45 43 88V97C43 100.87 46.13 104 50 104H60C61.64 104 63.09 103.19 64 101.97C64.91 103.2 66.36 104 68 104H78C81.87 104 85 100.87 85 97V88C85 87.45 84.55 87 84 87C83.45 87 83 87.45 83 88Z" fill="#D87A1D"/>
<path d="M80 63.5C80 73.16 72.84 81 64 81C55.16 81 48 73.16 48 63.5C48 53.84 55.16 41 64 41C72.84 41 80 53.84 80 63.5Z" fill="#F3A950"/>
<path d="M64 84.5C66.2091 84.5 68 82.7091 68 80.5C68 78.2909 66.2091 76.5 64 76.5C61.7909 76.5 60 78.2909 60 80.5C60 82.7091 61.7909 84.5 64 84.5Z" fill="#F3A950"/>
<path d="M66.5 71C65.52 71 64.64 71.63 64 72.65C63.36 71.63 62.48 71 61.5 71C59.57 71 58 73.46 58 76.5C58 79.54 59.57 82 61.5 82C62.01 82 62.49 81.83 62.93 81.52C63.58 81.06 64.42 81.06 65.07 81.52C65.51 81.83 65.99 82 66.5 82C68.43 82 70 79.54 70 76.5C70 73.46 68.43 71 66.5 71Z" fill="#EBC9A0"/>
<path d="M66.3 59.98C66.13 58.84 65.15 58 64 58C62.85 58 61.87 58.84 61.7 59.98L60 71H68L66.3 59.98Z" fill="#EBC9A0"/>
<path d="M72 61C73.1046 61 74 59.6569 74 58C74 56.3431 73.1046 55 72 55C70.8954 55 70 56.3431 70 58C70 59.6569 70.8954 61 72 61Z" fill="#414042"/>
<path d="M56 61C57.1046 61 58 59.6569 58 58C58 56.3431 57.1046 55 56 55C54.8954 55 54 56.3431 54 58C54 59.6569 54.8954 61 56 61Z" fill="#414042"/>
<path d="M68 71C68 72.1 66.21 75 64 75C61.79 75 60 72.1 60 71C60 69.9 61.79 69 64 69C66.21 69 68 69.9 68 71Z" fill="#414042"/>
<path d="M76.59 25.97C76.59 25.97 76.59 25.98 76.58 25.99" stroke="#CC7F33" stroke-miterlimit="10"/>
</svg>
