<svg width="358" height="229" viewBox="0 0 358 229" fill="none" xmlns="http://www.w3.org/2000/svg">
<mask id="mask0_12_4800" style="mask-type:luminance" maskUnits="userSpaceOnUse" x="0" y="0" width="358" height="229">
<path d="M0 9.64146C119.281 43.0405 238.562 -23.7575 357.844 9.64146C357.844 79.2235 357.844 148.804 357.844 218.385C238.563 184.986 119.282 251.784 0 218.385C0 148.804 0 79.2235 0 9.64146Z" fill="white"/>
</mask>
<g mask="url(#mask0_12_4800)">
<path d="M0 218.386C119.281 251.785 238.562 184.987 357.844 218.386C357.844 148.804 357.844 79.2235 357.844 9.64247C238.563 -23.7565 119.282 43.0415 0 9.64247C0 79.2235 0 148.804 0 218.386Z" fill="#BC2035"/>
</g>
<mask id="mask1_12_4800" style="mask-type:luminance" maskUnits="userSpaceOnUse" x="0" y="0" width="358" height="229">
<path d="M0 9.64146C119.281 43.0405 238.562 -23.7575 357.844 9.64146C357.844 79.2235 357.844 148.804 357.844 218.385C238.563 184.986 119.282 251.784 0 218.385C0 148.804 0 79.2235 0 9.64146Z" fill="white"/>
</mask>
<g mask="url(#mask1_12_4800)">
<mask id="mask2_12_4800" style="mask-type:luminance" maskUnits="userSpaceOnUse" x="0" y="0" width="358" height="229">
<path d="M0 9.64146C119.281 43.0405 238.562 -23.7575 357.844 9.64146C357.844 79.2235 357.844 148.804 357.844 218.385C238.563 184.986 119.282 251.784 0 218.385C0 148.804 0 79.2235 0 9.64146Z" fill="white"/>
</mask>
<g mask="url(#mask2_12_4800)">
<path d="M208.365 119.711C213.601 120.449 221.505 119.163 225.069 122.885C219.863 122.083 213.406 131.317 208.365 130.112C212.825 132.483 143.936 139.015 149.479 138.133C144.23 137.436 136.336 138.726 132.792 134.945C138.024 135.769 144.438 126.545 149.479 127.732C145.039 125.238 137.336 123.747 135.568 118.867C140.006 121.468 149.017 114.583 153.014 117.531C149.915 113.516 143.435 109.478 143.58 104.038C146.684 108.097 157.116 104.34 159.698 108.663C158.287 103.649 154.079 97.4755 155.845 92.1645C157.265 97.2175 167.776 97.0435 168.678 102.251C169.159 96.7935 167.239 89.2755 170.907 84.6095C170.446 90.0675 179.941 93.5505 178.942 99.0285C181.234 93.7915 182.482 85.6735 186.919 82.3715C184.673 87.6055 192.082 94.3035 189.167 99.3915C192.953 95.0545 196.661 87.4405 201.996 85.8095C198.161 90.1345 202.244 99.3155 198.143 103.341C203.038 100.387 208.827 94.2655 214.262 94.5275C209.344 97.4155 209.841 107.899 204.806 110.431C210.221 109.245 217.467 105.279 222.252 107.442C216.884 108.551 213.907 119.003 208.365 119.711Z" fill="#F4D130"/>
</g>
<mask id="mask3_12_4800" style="mask-type:luminance" maskUnits="userSpaceOnUse" x="0" y="0" width="358" height="229">
<path d="M0 9.64146C119.281 43.0405 238.562 -23.7575 357.844 9.64146C357.844 79.2235 357.844 148.804 357.844 218.385C238.563 184.986 119.282 251.784 0 218.385C0 148.804 0 79.2235 0 9.64146Z" fill="white"/>
</mask>
<g mask="url(#mask3_12_4800)">
<path d="M193.856 133.77C183.149 135.254 154.077 138.517 149.479 138.462C149.479 138.466 149.479 138.471 149.479 138.475C149.473 138.463 149.467 138.45 149.461 138.438C149.44 138.441 149.389 138.446 149.373 138.449C149.373 138.462 149.373 138.475 149.373 138.489C149.314 138.457 149.25 138.451 149.16 138.463C149.015 138.442 148.937 138.44 148.871 138.435C147.459 138.272 145.914 138.231 144.253 138.204C139.775 138.09 135.107 137.937 132.524 135.212C132.281 134.955 132.038 134.697 131.795 134.44C132.157 134.501 132.518 134.562 132.88 134.623C135.17 134.969 138.15 133.005 140.88 131.046C143.207 129.397 145.625 127.648 147.873 127.336C146.893 126.88 145.854 126.435 144.772 126.003C140.709 124.343 136.548 122.596 135.25 119.01C135.125 118.687 135.001 118.364 134.877 118.042C135.184 118.212 135.49 118.382 135.797 118.551C137.546 119.587 140.921 118.818 144.188 117.782C146.913 116.942 149.813 116.152 151.708 116.56C151.02 115.783 150.207 114.992 149.374 114.166C146.291 111.159 143.129 108.026 143.234 104.068C143.24 103.709 143.246 103.348 143.252 102.988C143.46 103.26 143.668 103.532 143.876 103.804C145.293 105.665 148.565 105.795 151.687 105.902C154.369 105.984 157.119 106.078 158.873 107.249C158.498 106.275 158.079 105.224 157.624 104.154C155.95 100.134 154.246 95.9794 155.539 92.0744C155.664 91.6984 155.789 91.3234 155.913 90.9474C156.01 91.3024 156.106 91.6575 156.204 92.0125C156.848 94.3455 159.699 95.5694 162.448 96.7204C164.826 97.7624 167.242 98.7974 168.43 100.55C168.451 99.4694 168.404 98.2674 168.346 97.0394C168.18 92.4844 167.992 87.8055 170.66 84.4265C170.895 84.1215 171.129 83.8165 171.364 83.5105C171.323 83.8715 171.282 84.2315 171.241 84.5925C171.035 87.1195 173.158 89.2864 175.234 91.4014C177.01 93.2284 178.867 95.0844 179.259 97.2764C179.671 96.1804 180.051 95.0104 180.425 93.8284C181.95 89.2654 183.506 84.5214 186.752 82.1124C187.079 81.8644 187.406 81.6164 187.733 81.3694C187.566 81.7434 187.399 82.1164 187.231 82.4904C186.216 84.8564 187.358 87.7324 188.48 90.4704C189.483 92.9074 190.547 95.3904 190.108 97.7124C190.838 96.7974 191.546 95.8024 192.254 94.7724C195.128 90.7884 198.042 86.6564 201.937 85.4774C202.296 85.3614 202.656 85.2444 203.015 85.1284C202.758 85.4244 202.502 85.7204 202.245 86.0174C200.457 88.0144 200.499 91.2984 200.516 94.4754C200.518 97.1994 200.564 99.9924 199.478 102.108C200.436 101.43 201.457 100.66 202.496 99.8674C206.349 96.9764 210.389 93.9444 214.303 94.1814C214.677 94.1924 215.051 94.2035 215.425 94.2155C215.087 94.4155 214.748 94.6144 214.409 94.8154C212.121 96.1754 211.013 99.4185 209.972 102.549C209.076 105.214 208.142 107.963 206.436 109.671C207.518 109.345 208.682 108.958 209.892 108.553C214.473 107.048 219.406 105.769 222.448 107.106C222.781 107.257 223.114 107.408 223.447 107.559C223.079 107.636 222.711 107.713 222.343 107.791C219.823 108.302 217.78 111.044 215.83 113.714C214.055 116.051 212.287 118.478 210.122 119.541C211.181 119.618 212.35 119.642 213.574 119.662C218.056 119.758 222.741 119.926 225.322 122.648C225.565 122.916 225.807 123.183 226.051 123.451C225.689 123.386 225.328 123.321 224.966 123.256C222.662 122.898 219.724 124.881 216.992 126.816C214.267 128.776 211.328 130.799 208.896 130.562C208.682 131.069 207.663 131.892 193.856 133.77ZM149.563 137.819C152.642 137.736 176.887 135.455 193.857 133.085C206.119 131.414 208.017 130.602 208.27 130.296C208.346 130.119 208.422 129.942 208.499 129.766C210.767 130.318 213.783 128.28 216.634 126.264C219.099 124.508 221.718 122.715 224.05 122.503C221.533 120.587 217.451 120.452 213.477 120.353C211.623 120.324 209.844 120.286 208.31 120.088C208.329 119.854 208.348 119.62 208.367 119.386C211.055 119.041 213.179 116.145 215.263 113.351C217.053 110.911 218.904 108.41 221.178 107.436C218.348 106.674 214.015 107.867 210.039 109.206C208.183 109.848 206.438 110.417 204.85 110.784C204.803 110.557 204.756 110.33 204.709 110.103C207.101 108.91 208.183 105.724 209.309 102.395C210.285 99.5354 211.266 96.6005 213.179 94.9005C209.75 95.3935 206.268 97.8674 202.893 100.416C201.288 101.631 199.769 102.768 198.289 103.649C198.164 103.469 198.039 103.29 197.915 103.11C199.893 101.212 199.856 97.9854 199.836 94.5654C199.789 91.6834 199.772 88.7134 201.064 86.5164C197.899 87.9904 195.312 91.6294 192.813 95.1304C191.654 96.7594 190.566 98.3035 189.406 99.5945C189.224 99.4755 189.042 99.3574 188.86 99.2384C190.3 96.7914 189.089 93.8814 187.858 90.8194C186.82 88.3074 185.772 85.7445 186.257 83.3895C183.758 85.8125 182.422 89.9455 181.116 93.9675C180.511 95.8125 179.924 97.5915 179.243 99.1335C179.018 99.0905 178.794 99.0474 178.57 99.0034C179.072 96.3824 176.948 94.2074 174.717 91.9164C172.846 89.9964 170.885 88.0084 170.596 85.6694C168.746 88.7504 168.886 92.8865 169.057 96.9135C169.119 98.7965 169.184 100.602 169.057 102.225C168.821 102.267 168.585 102.308 168.348 102.35C167.908 99.8744 165.08 98.6604 162.121 97.3934C159.597 96.3564 157.041 95.2164 155.916 93.2464C155.291 96.6054 156.811 100.269 158.29 103.83C158.972 105.472 159.622 107.015 160.036 108.538C159.822 108.649 159.608 108.76 159.394 108.871C158.146 106.819 154.956 106.725 151.583 106.609C148.711 106.508 145.751 106.386 143.984 104.972C144.381 108.209 147.184 110.965 149.894 113.64C151.165 114.892 152.376 116.075 153.294 117.269C153.127 117.454 152.96 117.639 152.793 117.823C151.125 116.607 147.753 117.415 144.336 118.455C141.402 119.375 138.254 120.185 136.323 119.578C137.86 122.335 141.547 123.868 145.11 125.343C146.772 126.028 148.356 126.693 149.693 127.431C149.582 127.66 149.47 127.888 149.359 128.116C147.089 127.568 144.063 129.581 141.213 131.593C138.75 133.38 136.196 135.192 133.777 135.334C136.323 137.281 140.382 137.412 144.38 137.503C146.234 137.51 148.002 137.575 149.566 137.765C149.563 137.784 149.563 137.802 149.563 137.819Z" fill="#B29B31"/>
</g>
<mask id="mask4_12_4800" style="mask-type:luminance" maskUnits="userSpaceOnUse" x="0" y="0" width="358" height="229">
<path d="M0 9.64146C119.281 43.0405 238.562 -23.7575 357.844 9.64146C357.844 79.2235 357.844 148.804 357.844 218.385C238.563 184.986 119.282 251.784 0 218.385C0 148.804 0 79.2235 0 9.64146Z" fill="white"/>
</mask>
<g mask="url(#mask4_12_4800)">
<path d="M154.08 132.327C147.804 130.595 141.528 128.825 135.251 126.987C142.027 125.941 148.803 124.816 155.579 123.649C150.555 119.759 145.531 115.845 140.507 111.894C146.975 113.182 153.443 114.407 159.91 115.601C156.743 110.025 153.577 104.441 150.411 98.8474C155.77 102.308 161.13 105.737 166.49 109.152C165.581 102.559 164.672 95.9664 163.763 89.3724C167.378 94.6144 170.993 99.8494 174.609 105.081C176.054 98.2454 177.5 91.4084 178.945 84.5704C180.376 91.0054 181.806 97.4394 183.237 103.874C186.861 97.6304 190.485 91.3884 194.109 85.1544C193.191 91.9984 192.274 98.8424 191.356 105.687C196.709 100.794 202.061 95.9164 207.413 91.0694C204.253 97.4824 201.094 103.906 197.935 110.338C204.406 107.395 210.876 104.482 217.348 101.633C212.321 106.797 207.294 111.999 202.267 117.225C209.043 116.592 215.818 116 222.594 115.488C216.311 118.77 210.028 122.12 203.744 125.509C210.027 127.248 216.31 129.026 222.594 130.872C193.48 134.219 164.366 139.024 135.252 142.371C141.527 139.08 147.803 135.723 154.08 132.327Z" fill="#F4D130"/>
</g>
<mask id="mask5_12_4800" style="mask-type:luminance" maskUnits="userSpaceOnUse" x="0" y="0" width="358" height="229">
<path d="M0 9.64146C119.281 43.0405 238.562 -23.7575 357.844 9.64146C357.844 79.2235 357.844 148.804 357.844 218.385C238.563 184.986 119.282 251.784 0 218.385C0 148.804 0 79.2235 0 9.64146Z" fill="white"/>
</mask>
<g mask="url(#mask5_12_4800)">
<path d="M222.593 131.227C193.479 134.574 164.365 139.379 135.251 142.726C135.21 142.507 135.169 142.287 135.128 142.067C141.14 138.914 147.152 135.698 153.164 132.446C147.152 130.777 141.14 129.071 135.128 127.303C135.169 127.08 135.21 126.857 135.251 126.634C141.735 125.634 148.219 124.561 154.703 123.448C149.901 119.719 145.098 115.969 140.296 112.183C140.407 111.967 140.519 111.751 140.63 111.536C146.808 112.775 152.985 113.956 159.163 115.108C156.143 109.762 153.123 104.408 150.104 99.0454C150.277 98.8794 150.45 98.7124 150.623 98.5464C155.769 101.863 160.914 105.15 166.06 108.424C165.176 102.103 164.292 95.7814 163.409 89.4604C163.617 89.3494 163.825 89.2394 164.033 89.1284C167.504 94.1514 170.976 99.1674 174.447 104.181C175.821 97.6404 177.194 91.0984 178.568 84.5574C178.798 84.5254 179.028 84.4934 179.259 84.4604C180.633 90.6174 182.006 96.7734 183.379 102.931C186.858 96.9464 190.336 90.9634 193.815 84.9884C194.016 85.0434 194.217 85.0975 194.418 85.1525C193.544 91.7145 192.67 98.2775 191.796 104.84C196.933 100.149 202.069 95.4714 207.206 90.8234C207.385 90.9444 207.564 91.0644 207.743 91.1854C204.71 97.3314 201.677 103.486 198.644 109.649C204.837 106.829 211.031 104.038 217.225 101.305C217.342 101.493 217.459 101.681 217.577 101.87C212.766 106.813 207.954 111.792 203.143 116.792C209.633 116.188 216.123 115.625 222.613 115.134C222.655 115.347 222.698 115.561 222.741 115.774C216.716 118.924 210.691 122.137 204.666 125.387C210.69 127.059 216.716 128.767 222.741 130.538C222.689 130.767 222.641 130.997 222.593 131.227ZM137.029 141.834C164.954 138.567 192.879 134.015 220.803 130.749C214.805 128.992 208.808 127.295 202.811 125.631C208.864 122.362 214.916 119.127 220.97 115.953C214.438 116.467 207.906 117.051 201.373 117.673C206.21 112.636 211.048 107.619 215.886 102.637C209.673 105.395 203.46 108.209 197.247 111.051C200.28 104.853 203.313 98.6635 206.347 92.4825C201.182 97.1565 196.017 101.859 190.853 106.575C191.743 99.9785 192.633 93.3835 193.523 86.7865C190.039 92.7915 186.554 98.8025 183.069 104.816C181.694 98.6185 180.319 92.4204 178.944 86.2234C177.556 92.8074 176.168 99.3924 174.78 105.976C171.288 100.937 167.796 95.8974 164.304 90.8504C165.2 97.2014 166.095 103.551 166.991 109.901C161.819 106.613 156.648 103.313 151.476 99.9845C154.518 105.375 157.56 110.755 160.601 116.129C154.387 114.972 148.172 113.787 141.958 112.546C146.79 116.348 151.622 120.116 156.453 123.863C149.927 124.983 143.4 126.065 136.874 127.076C142.923 128.837 148.971 130.537 155.02 132.203C149.023 135.455 143.026 138.675 137.029 141.834Z" fill="#B29B31"/>
</g>
<mask id="mask6_12_4800" style="mask-type:luminance" maskUnits="userSpaceOnUse" x="0" y="0" width="358" height="229">
<path d="M0 9.64146C119.281 43.0405 238.562 -23.7575 357.844 9.64146C357.844 79.2235 357.844 148.804 357.844 218.385C238.563 184.986 119.282 251.784 0 218.385C0 148.804 0 79.2235 0 9.64146Z" fill="white"/>
</mask>
<g mask="url(#mask6_12_4800)">
<path d="M203.621 125.524C203.62 139.149 192.542 151.674 178.945 153.594C165.303 155.519 154.272 145.943 154.273 132.302C154.272 118.729 165.303 106.189 178.945 104.263C192.542 102.343 203.621 111.936 203.621 125.524V125.524Z" fill="#F4D130"/>
</g>
<mask id="mask7_12_4800" style="mask-type:luminance" maskUnits="userSpaceOnUse" x="0" y="0" width="358" height="229">
<path d="M0 9.64146C119.281 43.0405 238.562 -23.7575 357.844 9.64146C357.844 79.2235 357.844 148.804 357.844 218.385C238.563 184.986 119.282 251.784 0 218.385C0 148.804 0 79.2235 0 9.64146Z" fill="white"/>
</mask>
<g mask="url(#mask7_12_4800)">
<path d="M178.944 153.932C165.116 155.884 153.892 146.177 153.894 132.351C153.894 118.58 165.115 105.871 178.944 103.919C192.727 101.973 203.931 111.696 203.931 125.482C203.932 139.293 192.727 151.987 178.944 153.932ZM178.944 104.619C165.516 106.515 154.577 118.872 154.58 132.261C154.58 145.694 165.512 155.146 178.944 153.25C192.331 151.361 203.224 138.995 203.225 125.576C203.225 112.173 192.331 102.729 178.944 104.619Z" fill="#B29B31"/>
</g>
<mask id="mask8_12_4800" style="mask-type:luminance" maskUnits="userSpaceOnUse" x="0" y="0" width="358" height="229">
<path d="M0 9.64146C119.281 43.0405 238.562 -23.7575 357.844 9.64146C357.844 79.2235 357.844 148.804 357.844 218.385C238.563 184.986 119.282 251.784 0 218.385C0 148.804 0 79.2235 0 9.64146Z" fill="white"/>
</mask>
<g mask="url(#mask8_12_4800)">
<path d="M0 137.109C119.281 170.508 238.562 103.71 357.844 137.109C357.844 164.201 357.844 191.294 357.844 218.386C238.563 184.987 119.282 251.785 0 218.386C0 191.293 0 164.201 0 137.109Z" fill="#234182"/>
</g>
<mask id="mask9_12_4800" style="mask-type:luminance" maskUnits="userSpaceOnUse" x="0" y="0" width="358" height="229">
<path d="M0 9.64146C119.281 43.0405 238.562 -23.7575 357.844 9.64146C357.844 79.2235 357.844 148.804 357.844 218.385C238.563 184.986 119.282 251.784 0 218.385C0 148.804 0 79.2235 0 9.64146Z" fill="white"/>
</mask>
<g mask="url(#mask9_12_4800)">
<path d="M0 141.709C11.91 145.043 23.824 155.048 35.799 156.59C47.713 158.124 59.643 151.194 71.553 151.328C83.484 151.463 95.437 158.659 107.347 157.791C119.282 156.922 131.218 147.987 143.128 146.52C155.08 145.048 166.991 151.045 178.944 149.372C190.852 147.705 202.761 138.372 214.703 136.901C226.653 135.429 238.564 141.826 250.496 140.958C262.403 140.091 274.343 131.958 286.268 132.091C298.203 132.225 310.137 140.626 322.049 142.16C334.002 143.7 345.911 138.37 357.842 141.71C357.842 137.446 357.842 133.181 357.842 128.917C345.912 125.577 334 130.907 322.049 129.367C310.135 127.833 298.204 119.431 286.268 119.298C274.341 119.164 262.405 127.298 250.496 128.165C238.565 129.034 226.651 122.636 214.703 124.108C202.763 125.579 190.853 134.911 178.944 136.579C166.991 138.252 155.082 132.255 143.128 133.727C131.217 135.194 119.284 144.129 107.347 144.998C95.437 145.865 83.485 138.669 71.553 138.535C59.645 138.401 47.712 145.332 35.799 143.797C23.822 142.255 11.912 132.25 0 128.916C0 133.18 0 137.445 0 141.709Z" fill="white"/>
</g>
<mask id="mask10_12_4800" style="mask-type:luminance" maskUnits="userSpaceOnUse" x="0" y="0" width="358" height="229">
<path d="M0 9.64146C119.281 43.0405 238.562 -23.7575 357.844 9.64146C357.844 79.2235 357.844 148.804 357.844 218.385C238.563 184.986 119.282 251.784 0 218.385C0 148.804 0 79.2235 0 9.64146Z" fill="white"/>
</mask>
<g mask="url(#mask10_12_4800)">
<path d="M0 167.282C11.91 170.616 23.824 180.622 35.799 182.165C47.713 183.699 59.643 176.769 71.553 176.902C83.484 177.036 95.437 184.232 107.347 183.365C119.282 182.496 131.218 173.56 143.128 172.093C155.08 170.62 166.991 176.618 178.944 174.945C190.852 173.278 202.761 163.945 214.703 162.474C226.653 161.003 238.564 167.4 250.496 166.532C262.403 165.665 274.343 157.532 286.268 157.665C298.203 157.798 310.137 166.2 322.049 167.734C334.002 169.273 345.911 163.943 357.842 167.283C357.842 163.019 357.842 158.754 357.842 154.49C345.912 151.15 334 156.481 322.049 154.941C310.135 153.407 298.204 145.004 286.268 144.871C274.341 144.738 262.405 152.871 250.496 153.738C238.565 154.606 226.651 148.209 214.703 149.681C202.763 151.152 190.853 160.485 178.944 162.152C166.991 163.825 155.082 157.828 143.128 159.3C131.217 160.767 119.284 169.703 107.347 170.571C95.437 171.438 83.485 164.243 71.553 164.109C59.645 163.976 47.712 170.905 35.799 169.37C23.822 167.828 11.912 157.824 0 154.489C0 158.753 0 163.018 0 167.282Z" fill="white"/>
</g>
<mask id="mask11_12_4800" style="mask-type:luminance" maskUnits="userSpaceOnUse" x="0" y="0" width="358" height="229">
<path d="M0 9.64146C119.281 43.0405 238.562 -23.7575 357.844 9.64146C357.844 79.2235 357.844 148.804 357.844 218.385C238.563 184.986 119.282 251.784 0 218.385C0 148.804 0 79.2235 0 9.64146Z" fill="white"/>
</mask>
<g mask="url(#mask11_12_4800)">
<path d="M0 192.825C11.91 196.159 23.824 206.177 35.799 207.72C47.713 209.254 59.643 202.31 71.553 202.444C83.484 202.578 95.437 209.787 107.347 208.921C119.282 208.052 131.218 199.103 143.128 197.636C155.08 196.164 166.991 202.174 178.944 200.5C190.852 198.833 202.761 189.487 214.703 188.016C226.653 186.543 238.564 192.955 250.496 192.086C262.403 191.219 274.343 183.073 286.268 183.206C298.203 183.339 310.137 191.754 322.049 193.288C334.002 194.827 345.911 189.485 357.842 192.825C357.842 188.571 357.842 184.316 357.842 180.062C345.912 176.722 334 182.047 322.049 180.508C310.135 178.974 298.204 170.577 286.268 170.443C274.341 170.309 262.405 178.44 250.496 179.306C238.565 180.175 226.651 173.781 214.703 175.253C202.763 176.725 190.853 186.052 178.944 187.72C166.991 189.393 155.082 183.4 143.128 184.872C131.217 186.339 119.284 195.271 107.347 196.14C95.437 197.007 83.485 189.815 71.553 189.681C59.645 189.547 47.712 196.474 35.799 194.939C23.822 193.397 11.912 183.397 0 180.062C0 184.317 0 188.571 0 192.825Z" fill="white"/>
</g>
<mask id="mask12_12_4800" style="mask-type:luminance" maskUnits="userSpaceOnUse" x="0" y="0" width="358" height="229">
<path d="M0 9.64146C119.281 43.0405 238.562 -23.7575 357.844 9.64146C357.844 79.2235 357.844 148.804 357.844 218.385C238.563 184.986 119.282 251.784 0 218.385C0 148.804 0 79.2235 0 9.64146Z" fill="white"/>
</mask>
<g mask="url(#mask12_12_4800)">
<path d="M187.045 68.0804C191.452 67.4934 195.859 66.9134 200.266 66.3494C200.333 65.7864 199.121 64.8454 198.084 64.8004C194.732 64.7304 192.224 66.1794 188.193 66.7644C187.81 67.2024 187.427 67.6414 187.045 68.0804Z" fill="#F4D130"/>
</g>
<mask id="mask13_12_4800" style="mask-type:luminance" maskUnits="userSpaceOnUse" x="0" y="0" width="358" height="229">
<path d="M0 9.64146C119.281 43.0405 238.562 -23.7575 357.844 9.64146C357.844 79.2235 357.844 148.804 357.844 218.385C238.563 184.986 119.282 251.784 0 218.385C0 148.804 0 79.2235 0 9.64146Z" fill="white"/>
</mask>
<g mask="url(#mask13_12_4800)">
<path d="M200.564 66.6785C195.781 67.2835 190.998 67.9085 186.214 68.5395C186.776 67.8775 187.339 67.2155 187.902 66.5545C189.853 66.1645 191.253 65.7735 192.604 65.3895C194.482 64.8715 196.165 64.4165 198.145 64.4535C199.25 64.4835 200.749 65.4805 200.603 66.3565C200.59 66.4635 200.578 66.5715 200.564 66.6785ZM187.797 67.6205C191.793 67.0865 195.79 66.5585 199.786 66.0435C199.477 65.6895 198.77 65.1825 198.018 65.1645C196.125 65.1175 194.504 65.5765 192.728 66.0835C191.333 66.4605 189.899 66.8565 188.193 67.1205C188.061 67.2875 187.929 67.4535 187.797 67.6205Z" fill="#B29B31"/>
</g>
<mask id="mask14_12_4800" style="mask-type:luminance" maskUnits="userSpaceOnUse" x="0" y="0" width="358" height="229">
<path d="M0 9.64146C119.281 43.0405 238.562 -23.7575 357.844 9.64146C357.844 79.2235 357.844 148.804 357.844 218.385C238.563 184.986 119.282 251.784 0 218.385C0 148.804 0 79.2235 0 9.64146Z" fill="white"/>
</mask>
<g mask="url(#mask14_12_4800)">
<path d="M160.68 68.6115C163.804 72.1215 169.824 74.0125 175.571 73.2335C183.361 72.1995 191.918 64.7255 202.309 61.3975C190.994 62.6715 179.678 64.0645 168.363 65.4025C163.991 63.0095 160.639 63.8345 158.371 66.0075C156.219 66.3655 154.067 66.7195 151.914 67.0695C150.977 67.6935 152.666 69.5485 153.995 69.4525C156.224 69.1775 158.452 68.8965 160.68 68.6115Z" fill="#F4D130"/>
</g>
<mask id="mask15_12_4800" style="mask-type:luminance" maskUnits="userSpaceOnUse" x="0" y="0" width="358" height="229">
<path d="M0 9.64146C119.281 43.0405 238.562 -23.7575 357.844 9.64146C357.844 79.2235 357.844 148.804 357.844 218.385C238.563 184.986 119.282 251.784 0 218.385C0 148.804 0 79.2235 0 9.64146Z" fill="white"/>
</mask>
<g mask="url(#mask15_12_4800)">
<path d="M175.654 73.6035C175.626 73.6075 175.599 73.6115 175.571 73.6155C169.716 74.3975 163.64 72.4865 160.412 68.8855C158.273 69.1935 156.135 69.4965 153.995 69.7965C152.829 69.8985 151.516 68.8065 151.312 67.8875C151.206 67.4265 151.369 67.0405 151.708 66.7845C153.929 66.4165 156.15 66.0425 158.371 65.6645C160.625 63.2865 164.576 62.9015 168.574 65.0825C179.819 63.7345 191.064 62.3355 202.309 61.0535C202.336 61.2775 202.362 61.5015 202.389 61.7245C197.625 63.2675 193.311 65.6325 189.168 67.8905C184.398 70.5225 179.88 73.0125 175.654 73.6035ZM162.409 64.3835C160.996 64.5765 159.7 65.1955 158.623 66.2335C156.387 66.6315 154.15 67.0255 151.915 67.4135C152.141 68.2825 153.226 69.1905 154.04 69.1095C156.254 68.8355 158.468 68.5565 160.681 68.2735C164.033 71.8395 169.912 73.6705 175.572 72.8915C175.6 73.0015 175.627 73.1125 175.655 73.2235C175.655 73.1095 175.655 72.9945 175.655 72.8805C179.759 72.3065 184.195 69.8715 188.901 67.2965C192.253 65.4635 195.687 63.5625 199.439 62.0935C189.081 63.2675 178.722 64.5295 168.364 65.7455C166.098 64.5855 164.137 64.1475 162.409 64.3835Z" fill="#B29B31"/>
</g>
<mask id="mask16_12_4800" style="mask-type:luminance" maskUnits="userSpaceOnUse" x="0" y="0" width="358" height="229">
<path d="M0 9.64146C119.281 43.0405 238.562 -23.7575 357.844 9.64146C357.844 79.2235 357.844 148.804 357.844 218.385C238.563 184.986 119.282 251.784 0 218.385C0 148.804 0 79.2235 0 9.64146Z" fill="white"/>
</mask>
<g mask="url(#mask16_12_4800)">
<path d="M176.029 64.2544C174.801 58.7344 170.237 56.9444 164.783 56.9814C158.431 57.0004 143.875 58.1005 134.214 56.3875C138.401 60.0255 147.164 61.0144 153.244 61.1384C159.699 61.2754 165.971 61.8424 170.949 64.8844C172.642 64.6754 174.335 64.4654 176.029 64.2544Z" fill="#F4D130"/>
</g>
<mask id="mask17_12_4800" style="mask-type:luminance" maskUnits="userSpaceOnUse" x="0" y="0" width="358" height="229">
<path d="M0 9.64146C119.281 43.0405 238.562 -23.7575 357.844 9.64146C357.844 79.2235 357.844 148.804 357.844 218.385C238.563 184.986 119.282 251.784 0 218.385C0 148.804 0 79.2235 0 9.64146Z" fill="white"/>
</mask>
<g mask="url(#mask17_12_4800)">
<path d="M176.489 64.5464C174.642 64.7874 172.796 65.0274 170.948 65.2674C165.74 62.1264 159.349 61.6255 153.207 61.4865C147.913 61.4035 138.439 60.5494 133.963 56.6544C134.082 56.4514 134.2 56.2494 134.318 56.0464C141.506 57.2864 151.417 57.0374 158.66 56.7764C161.117 56.6954 163.226 56.6185 164.825 56.5925C171.362 56.5765 175.259 59.1004 176.383 64.1254C176.419 64.2664 176.454 64.4064 176.489 64.5464ZM135.608 56.9505C140.274 60.0105 148.54 60.6875 153.292 60.7905C159.539 60.9205 166.058 61.4404 171.16 64.5914C172.631 64.3864 174.101 64.1814 175.572 63.9754C174.405 59.5244 170.757 57.2774 164.723 57.3204C163.138 57.3404 161.037 57.3904 158.623 57.4774C151.832 57.7014 142.705 57.9815 135.608 56.9505Z" fill="#B29B31"/>
</g>
<mask id="mask18_12_4800" style="mask-type:luminance" maskUnits="userSpaceOnUse" x="0" y="0" width="358" height="229">
<path d="M0 9.64146C119.281 43.0405 238.562 -23.7575 357.844 9.64146C357.844 79.2235 357.844 148.804 357.844 218.385C238.563 184.986 119.282 251.784 0 218.385C0 148.804 0 79.2235 0 9.64146Z" fill="white"/>
</mask>
<g mask="url(#mask18_12_4800)">
<path d="M171.93 68.6145C173.949 70.9095 177.089 70.3385 180.439 67.6095C183.821 64.8615 187.48 58.0015 189.23 57.6535C201.602 55.2015 216.509 48.0895 223.63 43.2845C214.597 45.5875 205.644 48.1815 196.539 49.4725C181.023 51.6545 179.171 59.0265 172.861 64.8565C172.551 66.1085 172.241 67.3615 171.93 68.6145Z" fill="#F4D130"/>
</g>
<mask id="mask19_12_4800" style="mask-type:luminance" maskUnits="userSpaceOnUse" x="0" y="0" width="358" height="229">
<path d="M0 9.64146C119.281 43.0405 238.562 -23.7575 357.844 9.64146C357.844 79.2235 357.844 148.804 357.844 218.385C238.563 184.986 119.282 251.784 0 218.385C0 148.804 0 79.2235 0 9.64146Z" fill="white"/>
</mask>
<g mask="url(#mask19_12_4800)">
<path d="M175.695 70.3484C174.112 70.5704 172.7 70.0844 171.657 68.8634C171.533 68.7214 171.551 68.5084 171.719 68.3794C171.862 68.2274 172.074 68.2114 172.198 68.3644C174.658 71.1534 178.32 68.9294 180.255 67.3434C181.845 66.0444 183.571 63.7534 185.05 61.7314C186.8 59.3844 188.193 57.5064 189.232 57.3104C201.036 54.9744 214.515 48.5485 221.697 44.1355C221.337 44.2295 220.976 44.3244 220.615 44.4194C212.783 46.4674 204.639 48.6824 196.541 49.8104C184.926 51.4524 181.155 55.9294 177.156 60.6534C175.906 62.1304 174.611 63.6654 173.074 65.0894C172.907 65.2454 172.701 65.2485 172.573 65.1075C172.449 64.9665 172.467 64.7524 172.639 64.6104C174.156 63.2154 175.425 61.7095 176.676 60.2195C180.569 55.6025 184.65 50.8084 196.541 49.1284C204.604 47.9914 212.699 45.7694 220.509 43.7234C221.53 43.4584 222.55 43.1954 223.57 42.9344C223.653 43.1404 223.737 43.3464 223.821 43.5524C216.075 48.7924 201.035 55.6514 189.275 58.0034C188.501 58.1494 187.046 60.1644 185.589 62.1044C184.067 64.1544 182.339 66.5035 180.651 67.8555C178.885 69.3005 177.193 70.1394 175.695 70.3484Z" fill="#B29B31"/>
</g>
<mask id="mask20_12_4800" style="mask-type:luminance" maskUnits="userSpaceOnUse" x="0" y="0" width="358" height="229">
<path d="M0 9.64146C119.281 43.0405 238.562 -23.7575 357.844 9.64146C357.844 79.2235 357.844 148.804 357.844 218.385C238.563 184.986 119.282 251.784 0 218.385C0 148.804 0 79.2235 0 9.64146Z" fill="white"/>
</mask>
<g mask="url(#mask20_12_4800)">
<path d="M174.321 65.5704C174.235 65.5824 174.11 65.5484 174.049 65.4504C173.947 65.2974 173.967 65.0964 174.154 64.9384C176.067 63.4494 177.835 61.7144 179.568 60.0254C180.756 58.8344 181.989 57.6504 183.236 56.5264C188.499 51.8904 194.504 50.9744 200.872 50.0574C206.269 49.2354 215.551 45.8914 221.132 43.9544C221.314 43.8844 221.497 43.8154 221.679 43.7454C221.882 43.6554 222.072 43.7784 222.091 43.9564C222.173 44.1584 222.054 44.3574 221.841 44.4074C221.646 44.4824 221.45 44.5584 221.255 44.6344C215.676 46.5754 206.348 49.9314 200.872 50.7514C194.645 51.6504 188.729 52.5664 183.649 57.0354C182.4 58.1554 181.192 59.3094 180.025 60.5024C178.275 62.2074 176.507 63.9494 174.511 65.4914C174.484 65.5214 174.405 65.5584 174.321 65.5704Z" fill="#B29B31"/>
</g>
<mask id="mask21_12_4800" style="mask-type:luminance" maskUnits="userSpaceOnUse" x="0" y="0" width="358" height="229">
<path d="M0 9.64146C119.281 43.0405 238.562 -23.7575 357.844 9.64146C357.844 79.2235 357.844 148.804 357.844 218.385C238.563 184.986 119.282 251.784 0 218.385C0 148.804 0 79.2235 0 9.64146Z" fill="white"/>
</mask>
<g mask="url(#mask21_12_4800)">
<path d="M170.553 64.8344C169.661 60.2514 165.328 59.2544 159.096 59.1494C157.395 59.1154 155.66 59.1095 153.894 59.1355C149.123 59.1315 144.165 59.0935 139.337 58.3145C138.278 58.1515 137.213 57.8284 136.17 57.5044C135.675 57.3514 135.17 57.1714 134.675 57.0174C134.75 56.7894 134.824 56.5624 134.899 56.3354C135.445 56.4844 135.942 56.6474 136.461 56.8114C137.464 57.1694 138.504 57.4694 139.544 57.6304C144.312 58.3754 149.249 58.4064 153.995 58.4364C155.724 58.4344 157.5 58.4205 159.203 58.4545C165.724 58.5715 170.258 59.6144 171.239 64.5804C171.011 64.6644 170.782 64.7494 170.553 64.8344Z" fill="#B29B31"/>
</g>
<mask id="mask22_12_4800" style="mask-type:luminance" maskUnits="userSpaceOnUse" x="0" y="0" width="358" height="229">
<path d="M0 9.64146C119.281 43.0405 238.562 -23.7575 357.844 9.64146C357.844 79.2235 357.844 148.804 357.844 218.385C238.563 184.986 119.282 251.784 0 218.385C0 148.804 0 79.2235 0 9.64146Z" fill="white"/>
</mask>
<g mask="url(#mask22_12_4800)">
<path d="M174.736 72.0754C174.175 72.1534 173.552 72.2264 172.946 72.2594C172.76 72.2714 172.611 72.1214 172.611 71.9234C172.637 71.7394 172.802 71.5714 172.984 71.5464C179.255 71.1414 183.838 68.4994 188.73 65.3894C188.899 65.2734 189.103 65.3244 189.208 65.4814C189.273 65.6434 189.231 65.8574 189.045 65.9884C184.691 68.7484 180.316 71.2944 174.736 72.0754Z" fill="#B29B31"/>
</g>
<mask id="mask23_12_4800" style="mask-type:luminance" maskUnits="userSpaceOnUse" x="0" y="0" width="358" height="229">
<path d="M0 9.64146C119.281 43.0405 238.562 -23.7575 357.844 9.64146C357.844 79.2235 357.844 148.804 357.844 218.385C238.563 184.986 119.282 251.784 0 218.385C0 148.804 0 79.2235 0 9.64146Z" fill="white"/>
</mask>
<g mask="url(#mask23_12_4800)">
<path d="M159.594 67.4305C157.02 67.7785 154.446 68.1205 151.871 68.4565C151.668 68.4835 151.517 68.3495 151.516 68.1775C151.517 67.9665 151.667 67.7875 151.871 67.7615C154.445 67.4255 157.019 67.0825 159.594 66.7355C159.788 66.7095 159.949 66.8465 159.949 67.0575C159.948 67.2285 159.788 67.4045 159.594 67.4305Z" fill="#B29B31"/>
</g>
<mask id="mask24_12_4800" style="mask-type:luminance" maskUnits="userSpaceOnUse" x="0" y="0" width="358" height="229">
<path d="M0 9.64146C119.281 43.0405 238.562 -23.7575 357.844 9.64146C357.844 79.2235 357.844 148.804 357.844 218.385C238.563 184.986 119.282 251.784 0 218.385C0 148.804 0 79.2235 0 9.64146Z" fill="white"/>
</mask>
<g mask="url(#mask24_12_4800)">
<path d="M163.033 65.7935C163.033 66.3215 162.62 66.8265 162.101 66.8975C161.534 66.9755 161.119 66.5825 161.12 66.0545C161.12 65.5175 161.536 65.0265 162.101 64.9495C162.621 64.8785 163.032 65.2575 163.033 65.7935Z" fill="#B29B31"/>
</g>
<mask id="mask25_12_4800" style="mask-type:luminance" maskUnits="userSpaceOnUse" x="0" y="0" width="358" height="229">
<path d="M0 9.64146C119.281 43.0405 238.562 -23.7575 357.844 9.64146C357.844 79.2235 357.844 148.804 357.844 218.385C238.563 184.986 119.282 251.784 0 218.385C0 148.804 0 79.2235 0 9.64146Z" fill="white"/>
</mask>
<g mask="url(#mask25_12_4800)">
<path d="M162.101 67.2354C161.355 67.3374 160.762 66.8285 160.763 66.1025C160.764 65.3685 161.352 64.7075 162.101 64.6055C162.806 64.5095 163.408 65.0075 163.408 65.7425C163.408 66.4675 162.807 67.1394 162.101 67.2354ZM162.101 65.2914C161.746 65.3404 161.449 65.6565 161.45 66.0095C161.451 66.6955 162.7 66.5255 162.7 65.8395C162.699 65.4875 162.409 65.2494 162.101 65.2914Z" fill="#B29B31"/>
</g>
</g>
</svg>
