<svg width="128" height="128" viewBox="0 0 128 128" fill="none" xmlns="http://www.w3.org/2000/svg">
<path d="M114 54C114 26.3858 91.6142 4 64 4C36.3858 4 14 26.3858 14 54V74C14 101.614 36.3858 124 64 124C91.6142 124 114 101.614 114 74V54Z" fill="#F1F2F2"/>
<path d="M85 90C82.02 90 79.27 91.07 77 92.88V76H51V92.88C48.73 91.07 45.98 90 43 90C35.27 90 29 97.16 29 106C29 107.45 29.17 108.85 29.48 110.18C34.56 115.02 40.65 118.81 47.41 121.18C48.59 121.59 49.78 121.96 51 122.29C53.59 122.98 56.26 123.48 59 123.75C60.64 123.92 62.31 124 64 124C65.69 124 67.36 123.92 69 123.75C71.74 123.48 74.41 122.98 77 122.29C78.22 121.96 79.41 121.59 80.59 121.18C87.35 118.81 93.44 115.02 98.52 110.18C98.83 108.85 99 107.45 99 106C99 97.16 92.73 90 85 90Z" fill="#BCBEC0"/>
<path d="M82.85 74C82.85 74 96.69 91 82.85 119H70V74H82.85Z" fill="#D1D3D4"/>
<path d="M45.15 74C45.15 74 31.31 91 45.15 119H58V74H45.15Z" fill="#D1D3D4"/>
<path d="M86 60C94.8366 60 102 52.8366 102 44C102 35.1634 94.8366 28 86 28C77.1634 28 70 35.1634 70 44C70 52.8366 77.1634 60 86 60Z" fill="#D1D3D4"/>
<path d="M86 53C90.9706 53 95 48.9706 95 44C95 39.0294 90.9706 35 86 35C81.0294 35 77 39.0294 77 44C77 48.9706 81.0294 53 86 53Z" fill="#BCBEC0"/>
<path d="M42 60C50.8366 60 58 52.8366 58 44C58 35.1634 50.8366 28 42 28C33.1634 28 26 35.1634 26 44C26 52.8366 33.1634 60 42 60Z" fill="#D1D3D4"/>
<path d="M42 53C46.9706 53 51 48.9706 51 44C51 39.0294 46.9706 35 42 35C37.0294 35 33 39.0294 33 44C33 48.9706 37.0294 53 42 53Z" fill="#BCBEC0"/>
<path d="M73 116H81C84.31 116 87 118.69 87 122C87 123.1 86.1 124 85 124H69C67.9 124 67 123.1 67 122C67 118.69 69.69 116 73 116Z" fill="#E6E7E8"/>
<path d="M59 124H43C41.9 124 41 123.1 41 122C41 118.69 43.69 116 47 116H55C58.31 116 61 118.69 61 122C61 123.1 60.1 124 59 124Z" fill="#E6E7E8"/>
<path d="M94 65C94 75.49 80.57 84 64 84C47.43 84 34 75.49 34 65C34 43 47.43 33 64 33C80.57 33 94 43 94 65Z" fill="#E6E7E8"/>
<path d="M71.95 57.82L71.69 55.46C71.25 51.5 67.94 48.5 64 48.5C60.06 48.5 56.74 51.5 56.31 55.46L56.05 57.82C55.54 62.45 59.13 66.5 63.74 66.5H64.26C68.87 66.5 72.46 62.45 71.95 57.82Z" fill="#939598"/>
<path d="M82 58C81.45 58 81 57.55 81 57C81 55.9 80.1 55 79 55C77.9 55 77 55.9 77 57C77 57.55 76.55 58 76 58C75.45 58 75 57.55 75 57C75 54.79 76.79 53 79 53C81.21 53 83 54.79 83 57C83 57.55 82.55 58 82 58Z" fill="#414042"/>
<path d="M52 58C51.45 58 51 57.55 51 57C51 55.9 50.1 55 49 55C47.9 55 47 55.9 47 57C47 57.55 46.55 58 46 58C45.45 58 45 57.55 45 57C45 54.79 46.79 53 49 53C51.21 53 53 54.79 53 57C53 57.55 52.55 58 52 58Z" fill="#414042"/>
<path d="M81 68C84.3137 68 87 66.6569 87 65C87 63.3431 84.3137 62 81 62C77.6863 62 75 63.3431 75 65C75 66.6569 77.6863 68 81 68Z" fill="#D1D3D4"/>
<path d="M47 68C50.3137 68 53 66.6569 53 65C53 63.3431 50.3137 62 47 62C43.6863 62 41 63.3431 41 65C41 66.6569 43.6863 68 47 68Z" fill="#D1D3D4"/>
<path d="M70 68.3601C69.45 68.3601 69 68.8101 69 69.3601C69 70.4601 68.1 71.3601 67 71.3601C65.9 71.3601 65 70.4601 65 69.3601C65 68.8101 64.55 68.3601 64 68.3601C63.45 68.3601 63 68.8101 63 69.3601C63 70.4601 62.1 71.3601 61 71.3601C59.9 71.3601 59 70.4601 59 69.3601C59 68.8101 58.55 68.3601 58 68.3601C57.45 68.3601 57 68.8101 57 69.3601C57 71.5701 58.79 73.3601 61 73.3601C62.2 73.3601 63.27 72.8201 64 71.9801C64.73 72.8201 65.8 73.3601 67 73.3601C69.21 73.3601 71 71.5701 71 69.3601C71 68.8101 70.55 68.3601 70 68.3601Z" fill="#414042"/>
</svg>
