<svg width="128" height="128" viewBox="0 0 128 128" fill="none" xmlns="http://www.w3.org/2000/svg">
<path d="M114 54V74C114 76.19 113.86 78.35 113.59 80.47C110.62 103.39 92.13 121.46 69 123.75C67.36 123.92 65.69 124 64 124C62.31 124 60.64 123.92 59 123.75C35.87 121.46 17.38 103.39 14.41 80.47C14.14 78.35 14 76.19 14 74V54C14 26.39 36.39 4 64 4C77.8 4 90.3 9.6 99.35 18.65C108.4 27.7 114 40.2 114 54Z" fill="#F1F2F2"/>
<path d="M102 65H106C106 65 113 90 94 100L90 93C90 93 106 86 102 65Z" fill="#B75F11"/>
<path d="M85 90C82.02 90 79.27 91.07 77 92.88V84H51V92.88C48.73 91.07 45.98 90 43 90C35.27 90 29 97.16 29 106C29 107.45 29.17 108.85 29.48 110.18C34.56 115.02 40.65 118.81 47.41 121.18C48.59 121.59 49.78 121.96 51 122.29C53.59 122.98 56.26 123.48 59 123.75C60.64 123.92 62.31 124 64 124C65.69 124 67.36 123.92 69 123.75C71.74 123.48 74.41 122.98 77 122.29C78.22 121.96 79.41 121.59 80.59 121.18C87.35 118.81 93.44 115.02 98.52 110.18C98.83 108.85 99 107.45 99 106C99 97.16 92.73 90 85 90Z" fill="#D87A1D"/>
<path d="M82.85 76C82.85 76 96.69 91 82.85 119H70V76H82.85Z" fill="#EA9232"/>
<path d="M45.15 76C45.15 76 31.31 91 45.15 119H58V76H45.15Z" fill="#EA9232"/>
<path d="M89 53.9999C89 53.9999 99 63.9999 89 79.9999C89 79.9999 90 75.9999 87 73.9999C87 73.9999 89 81.0299 81 86.0199C73 91.0099 68 92.0099 64 98.9999C60 92.0099 55 91.0099 47 86.0199C39 81.0299 41 73.9999 41 73.9999C38 75.9999 39 79.9999 39 79.9999C29 63.9999 39 53.9999 39 53.9999C35 54.9999 34 57.0599 34 57.0599C35 43.0899 43 38.9999 43 38.9999C40 37.9999 37 40.0899 37 40.0899C40 27.1099 55 30.1099 55 30.1099C54 26.1099 51 25.1099 51 25.1099C61 24.1199 64 29.9999 64 29.9999C64 29.9999 67 24.1199 77 25.1099C77 25.1099 74 26.1099 73 30.1099C73 30.1099 88 27.1099 91 40.0899C91 40.0899 88 37.9999 85 38.9999C85 38.9999 93 43.0899 94 57.0599C94 57.0599 93 54.9999 89 53.9999Z" fill="#F3A950"/>
<path d="M73 116H81C84.31 116 87 118.69 87 122C87 123.1 86.1 124 85 124H69C67.9 124 67 123.1 67 122C67 118.69 69.69 116 73 116Z" fill="#F3A950"/>
<path d="M59 124H43C41.9 124 41 123.1 41 122C41 118.69 43.69 116 47 116H55C58.31 116 61 118.69 61 122C61 123.1 60.1 124 59 124Z" fill="#F3A950"/>
<path d="M104 54C106.76 54 109 59 109 63C109 65.76 106.76 68 104 68C101.24 68 99 65.76 99 63C99 63 99 60 102 58C105 56 104 54 104 54Z" fill="#D87A1D"/>
<path d="M64 81C68.4183 81 72 77.4183 72 73C72 68.5817 68.4183 65 64 65C59.5817 65 56 68.5817 56 73C56 77.4183 59.5817 81 64 81Z" fill="#FFC392"/>
<path d="M79.93 50.92C79.44 46.87 76.17 43.58 72.15 43.07C68.86 42.66 65.87 44.04 64 46.37C62.27 44.21 59.57 42.87 56.57 43.01C52.24 43.21 48.57 46.64 48.06 50.97C47.76 53.56 48.54 55.96 50.02 57.77C51.5 59.58 52.1 61.91 51.47 64.13C51.21 65.05 51.13 66.05 51.28 67.09C51.71 70.05 54.08 72.47 57.02 72.92C59.96 73.37 62.76 71.87 64.11 69.48C65.47 71.89 68.21 73.4 71.25 72.91C74.05 72.46 76.34 70.24 76.88 67.45C77.11 66.24 77.03 65.07 76.71 64.01C76.03 61.81 76.68 59.46 78.09 57.65C79.5 55.84 80.25 53.47 79.94 50.92H79.93Z" fill="#FFD9B6"/>
<path d="M68 62.67C68 63.59 66.21 66 64 66C61.79 66 60 63.59 60 62.67C60 61.75 61.79 61 64 61C66.21 61 68 61.75 68 62.67Z" fill="#414042"/>
<path d="M63 63V70.94C63.43 70.5 63.8 70.01 64.1 69.48C64.35 69.93 64.66 70.34 65 70.72V63H63Z" fill="#414042"/>
<path d="M68.9999 54.9999C68.6799 54.9999 68.3599 54.8399 68.1699 54.5499C67.8599 54.0899 67.9899 53.4699 68.4499 53.1599L71.4499 51.1599C71.9099 50.8499 72.5299 50.9799 72.8399 51.4399C73.1499 51.8999 73.0199 52.5199 72.5599 52.8299L69.5599 54.8299C69.3899 54.9399 69.1999 54.9999 69.0099 54.9999H68.9999Z" fill="#414042"/>
<path d="M59.0001 54.9999C59.3201 54.9999 59.6401 54.8399 59.8301 54.5499C60.1401 54.0899 60.0101 53.4699 59.5501 53.1599L56.5501 51.1599C56.0901 50.8499 55.4701 50.9799 55.1601 51.4399C54.8501 51.8999 54.9801 52.5199 55.4401 52.8299L58.4401 54.8299C58.6101 54.9399 58.8001 54.9999 58.9901 54.9999H59.0001Z" fill="#414042"/>
</svg>
