<svg width="358" height="229" viewBox="0 0 358 229" fill="none" xmlns="http://www.w3.org/2000/svg">
<mask id="mask0_12_4654" style="mask-type:luminance" maskUnits="userSpaceOnUse" x="0" y="0" width="358" height="229">
<path d="M0 9.64146C119.269 43.0405 238.539 -23.7575 357.808 9.64146C357.808 79.2235 357.808 148.804 357.808 218.385C238.539 184.986 119.269 251.784 0 218.385C0 148.804 0 79.2235 0 9.64146Z" fill="white"/>
</mask>
<g mask="url(#mask0_12_4654)">
<path d="M0 218.386C119.269 251.785 238.539 184.987 357.808 218.386C357.808 148.804 357.808 79.2235 357.808 9.64247C238.539 -23.7565 119.269 43.0415 0 9.64247C0 79.2235 0 148.804 0 218.386Z" fill="#273D8C"/>
</g>
<mask id="mask1_12_4654" style="mask-type:luminance" maskUnits="userSpaceOnUse" x="0" y="0" width="358" height="229">
<path d="M0 9.64146C119.269 43.0405 238.539 -23.7575 357.808 9.64146C357.808 79.2235 357.808 148.804 357.808 218.385C238.539 184.986 119.269 251.784 0 218.385C0 148.804 0 79.2235 0 9.64146Z" fill="white"/>
</mask>
<g mask="url(#mask1_12_4654)">
<path d="M76.175 160.211C75.288 145.403 74.401 130.593 73.514 115.779C70.405 123.926 67.296 132.033 64.186 140.097C65.573 131.521 66.959 122.937 68.346 114.344C63.239 121.31 58.132 128.162 53.025 134.885C56.591 127.164 60.158 119.381 63.724 111.539C56.956 116.822 50.188 121.897 43.42 126.728C48.931 120.517 54.441 114.144 59.951 107.629C51.984 110.827 44.016 113.728 36.049 116.272C43.122 112.065 50.195 107.578 57.268 102.851C48.645 103.778 40.023 104.35 31.4 104.489C39.571 102.566 47.743 100.255 55.914 97.6205C41.108 95.8665 26.302 93.0495 11.496 88.7885C26.302 91.2715 41.108 92.3095 55.914 92.2855C47.743 88.6955 39.571 84.7815 31.4 80.4805C40.022 83.1205 48.645 85.3285 57.268 87.1805C50.195 81.6865 43.122 75.9545 36.049 69.9395C44.017 74.5335 51.984 78.7705 59.951 82.7095C54.441 75.6845 48.93 68.5165 43.42 61.1865C50.189 67.3825 56.956 73.3345 63.724 79.0785C60.158 70.9895 56.591 62.8425 53.025 54.6325C58.132 62.0525 63.239 69.3435 68.346 76.5215C66.959 67.8765 65.573 59.2235 64.186 50.5615C67.295 58.8285 70.404 67.0515 73.514 75.2355C74.401 60.4315 75.288 45.6245 76.175 30.8135C77.071 45.6215 77.967 60.4255 78.863 75.2275C81.966 67.0355 85.07 58.8055 88.173 50.5405C86.791 59.2015 85.408 67.8555 84.026 76.5025C89.142 69.3165 94.258 62.0345 99.375 54.6695C95.795 62.8405 92.215 70.9725 88.635 79.0585C95.407 73.3205 102.18 67.4205 108.952 61.3935C103.442 68.5855 97.931 75.6935 92.421 82.6975C100.39 78.7885 108.359 74.6635 116.328 70.3825C109.249 76.1195 102.17 81.7345 95.091 87.1835C103.711 85.3865 112.33 83.3435 120.95 81.1315C112.788 85.0265 104.625 88.7695 96.463 92.2965C111.276 92.4335 126.089 91.8585 140.903 90.9545C126.09 93.6365 111.277 95.9895 96.463 97.6305C104.625 100.328 112.788 102.809 120.95 105.138C112.33 104.571 103.711 103.834 95.091 102.852C102.17 107.623 109.249 112.23 116.328 116.713C108.359 113.858 100.39 110.845 92.421 107.616C97.931 114.152 103.442 120.585 108.952 126.934C102.18 121.934 95.407 116.808 88.635 111.518C92.215 119.362 95.795 127.161 99.375 134.92C94.259 128.142 89.143 121.281 84.026 114.323C85.408 122.914 86.791 131.497 88.173 140.074C85.069 132.008 81.966 123.907 78.863 115.769C77.967 130.587 77.071 145.401 76.175 160.211Z" fill="white"/>
</g>
<mask id="mask2_12_4654" style="mask-type:luminance" maskUnits="userSpaceOnUse" x="0" y="0" width="358" height="229">
<path d="M0 9.64146C119.269 43.0405 238.539 -23.7575 357.808 9.64146C357.808 79.2235 357.808 148.804 357.808 218.385C238.539 184.986 119.269 251.784 0 218.385C0 148.804 0 79.2235 0 9.64146Z" fill="white"/>
</mask>
<g mask="url(#mask2_12_4654)">
<path d="M0 208.366C0 210.602 0 212.837 0 215.073C119.269 208.389 238.539 101.508 357.808 94.8234C357.808 67.5484 357.808 40.2734 357.808 12.9974C238.539 44.7214 119.269 176.642 0 208.366Z" fill="white"/>
</g>
<mask id="mask3_12_4654" style="mask-type:luminance" maskUnits="userSpaceOnUse" x="0" y="0" width="358" height="229">
<path d="M0 9.64146C119.269 43.0405 238.539 -23.7575 357.808 9.64146C357.808 79.2235 357.808 148.804 357.808 218.385C238.539 184.986 119.269 251.784 0 218.385C0 148.804 0 79.2235 0 9.64146Z" fill="white"/>
</mask>
<g mask="url(#mask3_12_4654)">
<path d="M0 208.366C0 209.488 0 210.609 0 211.731C119.269 192.523 238.539 73.1184 357.808 53.9104C357.808 40.2724 357.808 26.6354 357.808 12.9974C238.539 44.7214 119.269 176.642 0 208.366Z" fill="#CD7528"/>
</g>
</svg>
