<svg width="358" height="229" viewBox="0 0 358 229" fill="none" xmlns="http://www.w3.org/2000/svg">
<mask id="mask0_12_4622" style="mask-type:luminance" maskUnits="userSpaceOnUse" x="0" y="0" width="358" height="229">
<path d="M0 9.64146C119.287 43.0405 238.574 -23.7575 357.861 9.64146C357.861 79.2235 357.861 148.804 357.861 218.385C238.574 184.986 119.287 251.784 0 218.385C0 148.804 0 79.2235 0 9.64146Z" fill="white"/>
</mask>
<g mask="url(#mask0_12_4622)">
<path d="M0 218.386C119.287 251.785 238.574 184.987 357.861 218.386C357.861 148.804 357.861 79.2235 357.861 9.64247C238.574 -23.7565 119.287 43.0415 0 9.64247C0 79.2235 0 148.804 0 218.386Z" fill="#82B0D9"/>
</g>
<mask id="mask1_12_4622" style="mask-type:luminance" maskUnits="userSpaceOnUse" x="0" y="0" width="358" height="229">
<path d="M0 9.64146C119.287 43.0405 238.574 -23.7575 357.861 9.64146C357.861 79.2235 357.861 148.804 357.861 218.385C238.574 184.986 119.287 251.784 0 218.385C0 148.804 0 79.2235 0 9.64146Z" fill="white"/>
</mask>
<g mask="url(#mask1_12_4622)">
<path d="M178.921 30.5375C176.774 37.4555 174.626 44.3735 172.478 51.2905C175.79 51.9065 179.102 52.5195 182.413 53.1335C181.249 45.6015 180.085 38.0695 178.921 30.5375Z" fill="white"/>
</g>
<mask id="mask2_12_4622" style="mask-type:luminance" maskUnits="userSpaceOnUse" x="0" y="0" width="358" height="229">
<path d="M0 9.64146C119.287 43.0405 238.574 -23.7575 357.861 9.64146C357.861 79.2235 357.861 148.804 357.861 218.385C238.574 184.986 119.287 251.784 0 218.385C0 148.804 0 79.2235 0 9.64146Z" fill="white"/>
</mask>
<g mask="url(#mask2_12_4622)">
<path d="M178.921 30.5375C181.077 36.8525 183.233 43.1685 185.39 49.4855C182.081 51.0245 178.773 52.5665 175.464 54.1065C176.616 46.2495 177.769 38.3935 178.921 30.5375Z" fill="white"/>
</g>
<mask id="mask3_12_4622" style="mask-type:luminance" maskUnits="userSpaceOnUse" x="0" y="0" width="358" height="229">
<path d="M0 9.64146C119.287 43.0405 238.574 -23.7575 357.861 9.64146C357.861 79.2235 357.861 148.804 357.861 218.385C238.574 184.986 119.287 251.784 0 218.385C0 148.804 0 79.2235 0 9.64146Z" fill="white"/>
</mask>
<g mask="url(#mask3_12_4622)">
<path d="M198.799 42.1965C191.84 43.1345 184.881 44.1105 177.922 45.0845C177.922 48.5685 177.922 52.0535 177.922 55.5385C184.881 51.0795 191.84 46.6185 198.799 42.1965Z" fill="white"/>
</g>
<mask id="mask4_12_4622" style="mask-type:luminance" maskUnits="userSpaceOnUse" x="0" y="0" width="358" height="229">
<path d="M0 9.64146C119.287 43.0405 238.574 -23.7575 357.861 9.64146C357.861 79.2235 357.861 148.804 357.861 218.385C238.574 184.986 119.287 251.784 0 218.385C0 148.804 0 79.2235 0 9.64146Z" fill="white"/>
</mask>
<g mask="url(#mask4_12_4622)">
<path d="M198.799 42.1965C193.164 47.0495 187.528 51.9265 181.894 56.8075C179.856 54.2795 177.819 51.7515 175.781 49.2245C183.454 46.8705 191.127 44.5105 198.799 42.1965Z" fill="white"/>
</g>
<mask id="mask5_12_4622" style="mask-type:luminance" maskUnits="userSpaceOnUse" x="0" y="0" width="358" height="229">
<path d="M0 9.64146C119.287 43.0405 238.574 -23.7575 357.861 9.64146C357.861 79.2235 357.861 148.804 357.861 218.385C238.574 184.986 119.287 251.784 0 218.385C0 148.804 0 79.2235 0 9.64146Z" fill="white"/>
</mask>
<g mask="url(#mask5_12_4622)">
<path d="M159.074 47.6895C164.701 51.0235 170.33 54.3334 175.957 57.6384C178.008 54.5384 180.059 51.4374 182.11 48.3384C174.431 48.1324 166.753 47.9335 159.074 47.6895Z" fill="white"/>
</g>
<mask id="mask6_12_4622" style="mask-type:luminance" maskUnits="userSpaceOnUse" x="0" y="0" width="358" height="229">
<path d="M0 9.64146C119.287 43.0405 238.574 -23.7575 357.861 9.64146C357.861 79.2235 357.861 148.804 357.861 218.385C238.574 184.986 119.287 251.784 0 218.385C0 148.804 0 79.2235 0 9.64146Z" fill="white"/>
</mask>
<g mask="url(#mask6_12_4622)">
<path d="M159.074 47.6894C166.035 46.7504 172.997 45.7744 179.959 44.7994C179.959 48.2844 179.959 51.7684 179.959 55.2534C172.997 52.7434 166.035 50.2354 159.074 47.6894Z" fill="white"/>
</g>
<mask id="mask7_12_4622" style="mask-type:luminance" maskUnits="userSpaceOnUse" x="0" y="0" width="358" height="229">
<path d="M0 9.64146C119.287 43.0405 238.574 -23.7575 357.861 9.64146C357.861 79.2235 357.861 148.804 357.861 218.385C238.574 184.986 119.287 251.784 0 218.385C0 148.804 0 79.2235 0 9.64146Z" fill="white"/>
</mask>
<g mask="url(#mask7_12_4622)">
<path d="M191.187 66.5884C189.046 60.2654 186.906 53.9435 184.766 47.6245C181.45 49.1665 178.134 50.7104 174.818 52.2524C180.275 57.0294 185.731 61.8014 191.187 66.5884Z" fill="white"/>
</g>
<mask id="mask8_12_4622" style="mask-type:luminance" maskUnits="userSpaceOnUse" x="0" y="0" width="358" height="229">
<path d="M0 9.64146C119.287 43.0405 238.574 -23.7575 357.861 9.64146C357.861 79.2235 357.861 148.804 357.861 218.385C238.574 184.986 119.287 251.784 0 218.385C0 148.804 0 79.2235 0 9.64146Z" fill="white"/>
</mask>
<g mask="url(#mask8_12_4622)">
<path d="M191.187 66.5885C185.561 63.2755 179.935 59.9775 174.308 56.6725C176.356 53.5735 178.404 50.4735 180.452 47.3735C184.03 53.7765 187.609 60.1795 191.187 66.5885Z" fill="white"/>
</g>
<mask id="mask9_12_4622" style="mask-type:luminance" maskUnits="userSpaceOnUse" x="0" y="0" width="358" height="229">
<path d="M0 9.64146C119.287 43.0405 238.574 -23.7575 357.861 9.64146C357.861 79.2235 357.861 148.804 357.861 218.385C238.574 184.986 119.287 251.784 0 218.385C0 148.804 0 79.2235 0 9.64146Z" fill="white"/>
</mask>
<g mask="url(#mask9_12_4622)">
<path d="M166.669 70.0044C172.294 65.1384 177.919 60.2564 183.544 55.3804C181.499 52.8534 179.454 50.3264 177.409 47.7994C173.828 55.2034 170.248 62.6074 166.669 70.0044Z" fill="white"/>
</g>
<mask id="mask10_12_4622" style="mask-type:luminance" maskUnits="userSpaceOnUse" x="0" y="0" width="358" height="229">
<path d="M0 9.64146C119.287 43.0405 238.574 -23.7575 357.861 9.64146C357.861 79.2235 357.861 148.804 357.861 218.385C238.574 184.986 119.287 251.784 0 218.385C0 148.804 0 79.2235 0 9.64146Z" fill="white"/>
</mask>
<g mask="url(#mask10_12_4622)">
<path d="M166.669 70.0045C168.816 63.0885 170.964 56.1715 173.112 49.2535C176.421 49.8715 179.729 50.4855 183.038 51.1025C177.581 57.4045 172.125 63.7115 166.669 70.0045Z" fill="white"/>
</g>
<mask id="mask11_12_4622" style="mask-type:luminance" maskUnits="userSpaceOnUse" x="0" y="0" width="358" height="229">
<path d="M0 9.64146C119.287 43.0405 238.574 -23.7575 357.861 9.64146C357.861 79.2235 357.861 148.804 357.861 218.385C238.574 184.986 119.287 251.784 0 218.385C0 148.804 0 79.2235 0 9.64146Z" fill="white"/>
</mask>
<g mask="url(#mask11_12_4622)">
<path d="M262.427 104.89C255.81 103.059 249.193 101.372 242.575 99.7955C241.499 103.201 240.423 106.611 239.346 110.023C247.041 108.153 254.734 106.424 262.427 104.89Z" fill="white"/>
</g>
<mask id="mask12_12_4622" style="mask-type:luminance" maskUnits="userSpaceOnUse" x="0" y="0" width="358" height="229">
<path d="M0 9.64146C119.287 43.0405 238.574 -23.7575 357.861 9.64146C357.861 79.2235 357.861 148.804 357.861 218.385C238.574 184.986 119.287 251.784 0 218.385C0 148.804 0 79.2235 0 9.64146Z" fill="white"/>
</mask>
<g mask="url(#mask12_12_4622)">
<path d="M262.427 104.89C255.81 107.363 249.193 109.98 242.575 112.707C241.499 109.487 240.423 106.27 239.346 103.057C247.041 103.509 254.734 104.102 262.427 104.89Z" fill="white"/>
</g>
<mask id="mask13_12_4622" style="mask-type:luminance" maskUnits="userSpaceOnUse" x="0" y="0" width="358" height="229">
<path d="M0 9.64146C119.287 43.0405 238.574 -23.7575 357.861 9.64146C357.861 79.2235 357.861 148.804 357.861 218.385C238.574 184.986 119.287 251.784 0 218.385C0 148.804 0 79.2235 0 9.64146Z" fill="white"/>
</mask>
<g mask="url(#mask13_12_4622)">
<path d="M248.007 125.669C248.007 118.706 248.007 111.742 248.007 104.779C244.533 105.048 241.058 105.349 237.584 105.679C241.058 112.313 244.533 118.975 248.007 125.669Z" fill="white"/>
</g>
<mask id="mask14_12_4622" style="mask-type:luminance" maskUnits="userSpaceOnUse" x="0" y="0" width="358" height="229">
<path d="M0 9.64146C119.287 43.0405 238.574 -23.7575 357.861 9.64146C357.861 79.2235 357.861 148.804 357.861 218.385C238.574 184.986 119.287 251.784 0 218.385C0 148.804 0 79.2235 0 9.64146Z" fill="white"/>
</mask>
<g mask="url(#mask14_12_4622)">
<path d="M248.007 125.669C243.917 120.35 239.827 115.077 235.737 109.842C238.553 107.525 241.369 105.225 244.185 102.946C245.459 110.516 246.733 118.091 248.007 125.669Z" fill="white"/>
</g>
<mask id="mask15_12_4622" style="mask-type:luminance" maskUnits="userSpaceOnUse" x="0" y="0" width="358" height="229">
<path d="M0 9.64146C119.287 43.0405 238.574 -23.7575 357.861 9.64146C357.861 79.2235 357.861 148.804 357.861 218.385C238.574 184.986 119.287 251.784 0 218.385C0 148.804 0 79.2235 0 9.64146Z" fill="white"/>
</mask>
<g mask="url(#mask15_12_4622)">
<path d="M248.007 85.9395C243.917 91.8915 239.827 97.8885 235.737 103.922C238.553 105.686 241.369 107.468 244.185 109.27C245.459 101.489 246.733 93.7125 248.007 85.9395Z" fill="white"/>
</g>
<mask id="mask16_12_4622" style="mask-type:luminance" maskUnits="userSpaceOnUse" x="0" y="0" width="358" height="229">
<path d="M0 9.64146C119.287 43.0405 238.574 -23.7575 357.861 9.64146C357.861 79.2235 357.861 148.804 357.861 218.385C238.574 184.986 119.287 251.784 0 218.385C0 148.804 0 79.2235 0 9.64146Z" fill="white"/>
</mask>
<g mask="url(#mask16_12_4622)">
<path d="M248.007 85.9395C248.007 92.9065 248.007 99.8745 248.007 106.842C244.533 107.111 241.058 107.412 237.584 107.742C241.058 100.445 244.533 93.1765 248.007 85.9395Z" fill="white"/>
</g>
<mask id="mask17_12_4622" style="mask-type:luminance" maskUnits="userSpaceOnUse" x="0" y="0" width="358" height="229">
<path d="M0 9.64146C119.287 43.0405 238.574 -23.7575 357.861 9.64146C357.861 79.2235 357.861 148.804 357.861 218.385C238.574 184.986 119.287 251.784 0 218.385C0 148.804 0 79.2235 0 9.64146Z" fill="white"/>
</mask>
<g mask="url(#mask17_12_4622)">
<path d="M224.676 120.313C231.294 117.423 237.911 114.61 244.528 111.912C243.449 108.688 242.37 105.466 241.292 102.247C235.753 108.2 230.215 114.229 224.676 120.313Z" fill="white"/>
</g>
<mask id="mask18_12_4622" style="mask-type:luminance" maskUnits="userSpaceOnUse" x="0" y="0" width="358" height="229">
<path d="M0 9.64146C119.287 43.0405 238.574 -23.7575 357.861 9.64146C357.861 79.2235 357.861 148.804 357.861 218.385C238.574 184.986 119.287 251.784 0 218.385C0 148.804 0 79.2235 0 9.64146Z" fill="white"/>
</mask>
<g mask="url(#mask18_12_4622)">
<path d="M224.676 120.313C228.76 114.228 232.844 108.171 236.928 102.153C239.745 103.929 242.563 105.724 245.381 107.54C238.48 111.686 231.578 115.956 224.676 120.313Z" fill="white"/>
</g>
<mask id="mask19_12_4622" style="mask-type:luminance" maskUnits="userSpaceOnUse" x="0" y="0" width="358" height="229">
<path d="M0 9.64146C119.287 43.0405 238.574 -23.7575 357.861 9.64146C357.861 79.2235 357.861 148.804 357.861 218.385C238.574 184.986 119.287 251.784 0 218.385C0 148.804 0 79.2235 0 9.64146Z" fill="white"/>
</mask>
<g mask="url(#mask19_12_4622)">
<path d="M224.676 95.7955C228.76 100.962 232.844 106.159 236.928 111.393C239.745 109.077 242.563 106.778 245.381 104.5C238.48 101.488 231.578 98.5985 224.676 95.7955Z" fill="white"/>
</g>
<mask id="mask20_12_4622" style="mask-type:luminance" maskUnits="userSpaceOnUse" x="0" y="0" width="358" height="229">
<path d="M0 9.64146C119.287 43.0405 238.574 -23.7575 357.861 9.64146C357.861 79.2235 357.861 148.804 357.861 218.385C238.574 184.986 119.287 251.784 0 218.385C0 148.804 0 79.2235 0 9.64146Z" fill="white"/>
</mask>
<g mask="url(#mask20_12_4622)">
<path d="M224.676 95.7955C231.294 97.1935 237.911 98.6705 244.528 100.261C243.449 103.66 242.37 107.062 241.292 110.467C235.753 105.508 230.215 100.624 224.676 95.7955Z" fill="white"/>
</g>
<mask id="mask21_12_4622" style="mask-type:luminance" maskUnits="userSpaceOnUse" x="0" y="0" width="358" height="229">
<path d="M0 9.64146C119.287 43.0405 238.574 -23.7575 357.861 9.64146C357.861 79.2235 357.861 148.804 357.861 218.385C238.574 184.986 119.287 251.784 0 218.385C0 148.804 0 79.2235 0 9.64146Z" fill="white"/>
</mask>
<g mask="url(#mask21_12_4622)">
<path d="M95.428 123.178C102.05 125.009 108.672 126.695 115.293 128.272C116.364 124.866 117.436 121.457 118.507 118.045C110.815 119.914 103.121 121.643 95.428 123.178Z" fill="white"/>
</g>
<mask id="mask22_12_4622" style="mask-type:luminance" maskUnits="userSpaceOnUse" x="0" y="0" width="358" height="229">
<path d="M0 9.64146C119.287 43.0405 238.574 -23.7575 357.861 9.64146C357.861 79.2235 357.861 148.804 357.861 218.385C238.574 184.986 119.287 251.784 0 218.385C0 148.804 0 79.2235 0 9.64146Z" fill="white"/>
</mask>
<g mask="url(#mask22_12_4622)">
<path d="M95.428 123.178C102.05 120.704 108.672 118.087 115.293 115.36C116.364 118.58 117.436 121.797 118.507 125.011C110.815 124.558 103.121 123.965 95.428 123.178Z" fill="white"/>
</g>
<mask id="mask23_12_4622" style="mask-type:luminance" maskUnits="userSpaceOnUse" x="0" y="0" width="358" height="229">
<path d="M0 9.64146C119.287 43.0405 238.574 -23.7575 357.861 9.64146C357.861 79.2235 357.861 148.804 357.861 218.385C238.574 184.986 119.287 251.784 0 218.385C0 148.804 0 79.2235 0 9.64146Z" fill="white"/>
</mask>
<g mask="url(#mask23_12_4622)">
<path d="M109.858 102.397C109.858 109.364 109.858 116.332 109.858 123.299C113.339 123.03 116.821 122.727 120.302 122.397C116.821 115.761 113.339 109.095 109.858 102.397Z" fill="white"/>
</g>
<mask id="mask24_12_4622" style="mask-type:luminance" maskUnits="userSpaceOnUse" x="0" y="0" width="358" height="229">
<path d="M0 9.64146C119.287 43.0405 238.574 -23.7575 357.861 9.64146C357.861 79.2235 357.861 148.804 357.861 218.385C238.574 184.986 119.287 251.784 0 218.385C0 148.804 0 79.2235 0 9.64146Z" fill="white"/>
</mask>
<g mask="url(#mask24_12_4622)">
<path d="M109.858 102.397C113.954 107.715 118.049 112.987 122.145 118.222C119.323 120.537 116.501 122.834 113.679 125.11C112.405 117.544 111.132 109.972 109.858 102.397Z" fill="white"/>
</g>
<mask id="mask25_12_4622" style="mask-type:luminance" maskUnits="userSpaceOnUse" x="0" y="0" width="358" height="229">
<path d="M0 9.64146C119.287 43.0405 238.574 -23.7575 357.861 9.64146C357.861 79.2235 357.861 148.804 357.861 218.385C238.574 184.986 119.287 251.784 0 218.385C0 148.804 0 79.2235 0 9.64146Z" fill="white"/>
</mask>
<g mask="url(#mask25_12_4622)">
<path d="M109.858 142.127C113.954 136.175 118.049 130.177 122.145 124.142C119.323 122.376 116.501 120.592 113.679 118.787C112.405 126.571 111.132 134.351 109.858 142.127Z" fill="white"/>
</g>
<mask id="mask26_12_4622" style="mask-type:luminance" maskUnits="userSpaceOnUse" x="0" y="0" width="358" height="229">
<path d="M0 9.64146C119.287 43.0405 238.574 -23.7575 357.861 9.64146C357.861 79.2235 357.861 148.804 357.861 218.385C238.574 184.986 119.287 251.784 0 218.385C0 148.804 0 79.2235 0 9.64146Z" fill="white"/>
</mask>
<g mask="url(#mask26_12_4622)">
<path d="M109.858 142.127C109.858 135.164 109.858 128.201 109.858 121.237C113.339 120.968 116.821 120.665 120.302 120.335C116.821 127.629 113.339 134.894 109.858 142.127Z" fill="white"/>
</g>
<mask id="mask27_12_4622" style="mask-type:luminance" maskUnits="userSpaceOnUse" x="0" y="0" width="358" height="229">
<path d="M0 9.64146C119.287 43.0405 238.574 -23.7575 357.861 9.64146C357.861 79.2235 357.861 148.804 357.861 218.385C238.574 184.986 119.287 251.784 0 218.385C0 148.804 0 79.2235 0 9.64146Z" fill="white"/>
</mask>
<g mask="url(#mask27_12_4622)">
<path d="M133.214 107.763C126.592 110.652 119.97 113.461 113.349 116.158C114.425 119.377 115.501 122.593 116.578 125.805C122.123 119.86 127.669 113.84 133.214 107.763Z" fill="white"/>
</g>
<mask id="mask28_12_4622" style="mask-type:luminance" maskUnits="userSpaceOnUse" x="0" y="0" width="358" height="229">
<path d="M0 9.64146C119.287 43.0405 238.574 -23.7575 357.861 9.64146C357.861 79.2235 357.861 148.804 357.861 218.385C238.574 184.986 119.287 251.784 0 218.385C0 148.804 0 79.2235 0 9.64146Z" fill="white"/>
</mask>
<g mask="url(#mask28_12_4622)">
<path d="M133.214 107.763C129.118 113.85 125.022 119.908 120.926 125.926C118.111 124.15 115.297 122.355 112.482 120.54C119.393 116.393 126.304 112.121 133.214 107.763Z" fill="white"/>
</g>
<mask id="mask29_12_4622" style="mask-type:luminance" maskUnits="userSpaceOnUse" x="0" y="0" width="358" height="229">
<path d="M0 9.64146C119.287 43.0405 238.574 -23.7575 357.861 9.64146C357.861 79.2235 357.861 148.804 357.861 218.385C238.574 184.986 119.287 251.784 0 218.385C0 148.804 0 79.2235 0 9.64146Z" fill="white"/>
</mask>
<g mask="url(#mask29_12_4622)">
<path d="M133.214 132.281C129.118 127.115 125.022 121.92 120.926 116.686C118.111 119.002 115.297 121.301 112.482 123.579C119.393 126.591 126.304 129.479 133.214 132.281Z" fill="white"/>
</g>
<mask id="mask30_12_4622" style="mask-type:luminance" maskUnits="userSpaceOnUse" x="0" y="0" width="358" height="229">
<path d="M0 9.64146C119.287 43.0405 238.574 -23.7575 357.861 9.64146C357.861 79.2235 357.861 148.804 357.861 218.385C238.574 184.986 119.287 251.784 0 218.385C0 148.804 0 79.2235 0 9.64146Z" fill="white"/>
</mask>
<g mask="url(#mask30_12_4622)">
<path d="M133.214 132.281C126.592 130.88 119.97 129.401 113.349 127.808C114.425 124.403 115.501 120.996 116.578 117.585C122.123 122.553 127.669 127.445 133.214 132.281Z" fill="white"/>
</g>
<mask id="mask31_12_4622" style="mask-type:luminance" maskUnits="userSpaceOnUse" x="0" y="0" width="358" height="229">
<path d="M0 9.64146C119.287 43.0405 238.574 -23.7575 357.861 9.64146C357.861 79.2235 357.861 148.804 357.861 218.385C238.574 184.986 119.287 251.784 0 218.385C0 148.804 0 79.2235 0 9.64146Z" fill="white"/>
</mask>
<g mask="url(#mask31_12_4622)">
<path d="M178.921 197.536C181.077 190.616 183.233 183.695 185.39 176.775C182.081 176.164 178.773 175.555 175.464 174.944C176.616 182.475 177.769 190.006 178.921 197.536Z" fill="white"/>
</g>
<mask id="mask32_12_4622" style="mask-type:luminance" maskUnits="userSpaceOnUse" x="0" y="0" width="358" height="229">
<path d="M0 9.64146C119.287 43.0405 238.574 -23.7575 357.861 9.64146C357.861 79.2235 357.861 148.804 357.861 218.385C238.574 184.986 119.287 251.784 0 218.385C0 148.804 0 79.2235 0 9.64146Z" fill="white"/>
</mask>
<g mask="url(#mask32_12_4622)">
<path d="M178.921 197.536C176.774 191.218 174.626 184.9 172.478 178.58C175.79 177.045 179.102 175.508 182.413 173.972C181.249 181.827 180.085 189.681 178.921 197.536Z" fill="white"/>
</g>
<mask id="mask33_12_4622" style="mask-type:luminance" maskUnits="userSpaceOnUse" x="0" y="0" width="358" height="229">
<path d="M0 9.64146C119.287 43.0405 238.574 -23.7575 357.861 9.64146C357.861 79.2235 357.861 148.804 357.861 218.385C238.574 184.986 119.287 251.784 0 218.385C0 148.804 0 79.2235 0 9.64146Z" fill="white"/>
</mask>
<g mask="url(#mask33_12_4622)">
<path d="M159.074 185.856C166.035 184.917 172.997 183.941 179.959 182.966C179.959 179.49 179.959 176.014 179.959 172.539C172.997 176.989 166.035 181.441 159.074 185.856Z" fill="white"/>
</g>
<mask id="mask34_12_4622" style="mask-type:luminance" maskUnits="userSpaceOnUse" x="0" y="0" width="358" height="229">
<path d="M0 9.64146C119.287 43.0405 238.574 -23.7575 357.861 9.64146C357.861 79.2235 357.861 148.804 357.861 218.385C238.574 184.986 119.287 251.784 0 218.385C0 148.804 0 79.2235 0 9.64146Z" fill="white"/>
</mask>
<g mask="url(#mask34_12_4622)">
<path d="M159.074 185.856C164.701 181.009 170.33 176.137 175.957 171.261C178.008 173.787 180.059 176.313 182.11 178.839C174.431 181.188 166.753 183.545 159.074 185.856Z" fill="white"/>
</g>
<mask id="mask35_12_4622" style="mask-type:luminance" maskUnits="userSpaceOnUse" x="0" y="0" width="358" height="229">
<path d="M0 9.64146C119.287 43.0405 238.574 -23.7575 357.861 9.64146C357.861 79.2235 357.861 148.804 357.861 218.385C238.574 184.986 119.287 251.784 0 218.385C0 148.804 0 79.2235 0 9.64146Z" fill="white"/>
</mask>
<g mask="url(#mask35_12_4622)">
<path d="M198.799 180.363C193.164 177.034 187.528 173.73 181.894 170.429C179.856 173.527 177.819 176.626 175.781 179.724C183.454 179.927 191.127 180.122 198.799 180.363Z" fill="white"/>
</g>
<mask id="mask36_12_4622" style="mask-type:luminance" maskUnits="userSpaceOnUse" x="0" y="0" width="358" height="229">
<path d="M0 9.64146C119.287 43.0405 238.574 -23.7575 357.861 9.64146C357.861 79.2235 357.861 148.804 357.861 218.385C238.574 184.986 119.287 251.784 0 218.385C0 148.804 0 79.2235 0 9.64146Z" fill="white"/>
</mask>
<g mask="url(#mask36_12_4622)">
<path d="M198.799 180.363C191.84 181.301 184.881 182.277 177.922 183.251C177.922 179.775 177.922 176.299 177.922 172.824C184.881 175.325 191.84 177.825 198.799 180.363Z" fill="white"/>
</g>
<mask id="mask37_12_4622" style="mask-type:luminance" maskUnits="userSpaceOnUse" x="0" y="0" width="358" height="229">
<path d="M0 9.64146C119.287 43.0405 238.574 -23.7575 357.861 9.64146C357.861 79.2235 357.861 148.804 357.861 218.385C238.574 184.986 119.287 251.784 0 218.385C0 148.804 0 79.2235 0 9.64146Z" fill="white"/>
</mask>
<g mask="url(#mask37_12_4622)">
<path d="M166.669 161.484C168.816 167.805 170.964 174.123 173.112 180.441C176.421 178.901 179.729 177.358 183.038 175.816C177.581 171.04 172.125 166.269 166.669 161.484Z" fill="white"/>
</g>
<mask id="mask38_12_4622" style="mask-type:luminance" maskUnits="userSpaceOnUse" x="0" y="0" width="358" height="229">
<path d="M0 9.64146C119.287 43.0405 238.574 -23.7575 357.861 9.64146C357.861 79.2235 357.861 148.804 357.861 218.385C238.574 184.986 119.287 251.784 0 218.385C0 148.804 0 79.2235 0 9.64146Z" fill="white"/>
</mask>
<g mask="url(#mask38_12_4622)">
<path d="M166.669 161.484C172.294 164.792 177.919 168.084 183.544 171.382C181.499 174.481 179.454 177.58 177.409 180.679C173.828 174.283 170.248 167.887 166.669 161.484Z" fill="white"/>
</g>
<mask id="mask39_12_4622" style="mask-type:luminance" maskUnits="userSpaceOnUse" x="0" y="0" width="358" height="229">
<path d="M0 9.64146C119.287 43.0405 238.574 -23.7575 357.861 9.64146C357.861 79.2235 357.861 148.804 357.861 218.385C238.574 184.986 119.287 251.784 0 218.385C0 148.804 0 79.2235 0 9.64146Z" fill="white"/>
</mask>
<g mask="url(#mask39_12_4622)">
<path d="M191.187 158.067C185.561 162.928 179.935 167.804 174.308 172.674C176.356 175.201 178.404 177.727 180.452 180.254C184.03 172.856 187.609 165.458 191.187 158.067Z" fill="white"/>
</g>
<mask id="mask40_12_4622" style="mask-type:luminance" maskUnits="userSpaceOnUse" x="0" y="0" width="358" height="229">
<path d="M0 9.64146C119.287 43.0405 238.574 -23.7575 357.861 9.64146C357.861 79.2235 357.861 148.804 357.861 218.385C238.574 184.986 119.287 251.784 0 218.385C0 148.804 0 79.2235 0 9.64146Z" fill="white"/>
</mask>
<g mask="url(#mask40_12_4622)">
<path d="M191.187 158.067C189.046 164.98 186.906 171.895 184.766 178.811C181.45 178.195 178.134 177.581 174.818 176.966C180.275 170.665 185.731 164.359 191.187 158.067Z" fill="white"/>
</g>
</svg>
