<svg width="128" height="128" viewBox="0 0 128 128" fill="none" xmlns="http://www.w3.org/2000/svg">
<path d="M114 54C114 26.3858 91.6142 4 64 4C36.3858 4 14 26.3858 14 54V74C14 101.614 36.3858 124 64 124C91.6142 124 114 101.614 114 74V54Z" fill="#F1F2F2"/>
<path d="M88 57C92.9706 57 97 52.9706 97 48C97 43.0294 92.9706 39 88 39C83.0294 39 79 43.0294 79 48C79 52.9706 83.0294 57 88 57Z" fill="#EA9232"/>
<path d="M88 54C91.3137 54 94 51.3137 94 48C94 44.6863 91.3137 42 88 42C84.6863 42 82 44.6863 82 48C82 51.3137 84.6863 54 88 54Z" fill="#D87A1D"/>
<path d="M40 57C44.9706 57 49 52.9706 49 48C49 43.0294 44.9706 39 40 39C35.0294 39 31 43.0294 31 48C31 52.9706 35.0294 57 40 57Z" fill="#EA9232"/>
<path d="M40 54C43.3137 54 46 51.3137 46 48C46 44.6863 43.3137 42 40 42C36.6863 42 34 44.6863 34 48C34 51.3137 36.6863 54 40 54Z" fill="#D87A1D"/>
<path d="M92.0001 97C91.0501 97 90.2101 96.32 90.0301 95.36C89.8301 94.27 90.5501 93.24 91.6401 93.04C91.7001 93.03 96.4401 92.11 98.4301 89.09C99.2901 87.79 99.5001 86.27 99.0901 84.45C98.8401 83.35 98.5501 82.21 98.2501 81.03C96.1001 72.66 93.1601 61.19 105.11 55.22C106.1 54.72 107.3 55.13 107.79 56.11C108.28 57.1 107.88 58.3 106.9 58.79C97.8301 63.32 100.01 71.82 102.12 80.03C102.43 81.24 102.73 82.42 102.99 83.56C103.65 86.47 103.23 89.07 101.75 91.3C98.8001 95.76 92.6101 96.92 92.3501 96.97C92.2301 96.99 92.1101 97 91.9901 97H92.0001Z" fill="#BA6111"/>
<path d="M85 90C82.02 90 79.27 91.07 77 92.88V84H51V92.88C48.73 91.07 45.98 90 43 90C35.27 90 29 97.16 29 106C29 107.45 29.17 108.85 29.48 110.18C34.56 115.02 40.65 118.81 47.41 121.18C48.59 121.59 49.78 121.96 51 122.29C53.59 122.98 56.26 123.48 59 123.75C60.64 123.92 62.31 124 64 124C65.69 124 67.36 123.92 69 123.75C71.74 123.48 74.41 122.98 77 122.29C78.22 121.96 79.41 121.59 80.59 121.18C87.35 118.81 93.44 115.02 98.52 110.18C98.83 108.85 99 107.45 99 106C99 97.16 92.73 90 85 90Z" fill="#D87A1D"/>
<path d="M82.85 76C82.85 76 96.69 91 82.85 119H70V76H82.85Z" fill="#EA9232"/>
<path d="M45.15 76C45.15 76 31.31 91 45.15 119H58V76H45.15Z" fill="#EA9232"/>
<path d="M73 116H81C84.31 116 87 118.69 87 122C87 123.1 86.1 124 85 124H69C67.9 124 67 123.1 67 122C67 118.69 69.69 116 73 116Z" fill="#F3A950"/>
<path d="M59 124H43C41.9 124 41 123.1 41 122C41 118.69 43.69 116 47 116H55C58.31 116 61 118.69 61 122C61 123.1 60.1 124 59 124Z" fill="#F3A950"/>
<path d="M86.45 48.95C86.48 48.47 86.5 47.99 86.5 47.5C86.5 38.3 80.98 30.4 73.08 26.91C71.8 22.7 74 19 74 19C69 19 67 24 67 24C65 21 67 17 67 17C62.08 18.64 57.84 24.31 56.47 26.3C47.75 29.4 41.5 37.72 41.5 47.5C41.5 48.34 41.55 49.17 41.64 49.99C38.71 53.57 37 57.87 37 62.5C37 74.93 49.31 85 64.5 85C79.69 85 92 74.93 92 62.5C92 57.41 89.93 52.72 86.45 48.95Z" fill="#F3A950"/>
<path d="M82.96 51.0499C82.54 46.5399 79 42.7699 74.52 42.1099C71.39 41.6499 68.49 42.6399 66.39 44.5099C65.03 45.7199 62.98 45.7199 61.63 44.5099C59.52 42.6399 56.63 41.6499 53.5 42.1099C49.02 42.7699 45.48 46.5399 45.06 51.0499C44.77 54.1699 45.92 57.0299 47.92 59.0399C49.03 60.1499 49.42 61.7699 48.84 63.2299C48.31 64.5699 48.01 65.9999 48.01 67.4999C48.01 74.9599 55.17 80.9999 64.01 80.9999C72.85 80.9999 80.01 74.9599 80.01 67.4999C80.01 66.0099 79.72 64.5699 79.18 63.2299C78.6 61.7699 79 60.1499 80.1 59.0399C82.1 57.0299 83.25 54.1699 82.96 51.0499Z" fill="#FFD9B6"/>
<path d="M77 51C77 49.3431 75.6569 48 74 48C72.3431 48 71 49.3431 71 51V52C71 53.6569 72.3431 55 74 55C75.6569 55 77 53.6569 77 52V51Z" fill="#414042"/>
<path d="M74 51C74.5523 51 75 50.5523 75 50C75 49.4477 74.5523 49 74 49C73.4477 49 73 49.4477 73 50C73 50.5523 73.4477 51 74 51Z" fill="white"/>
<path d="M57 51C57 49.3431 55.6569 48 54 48C52.3431 48 51 49.3431 51 51V52C51 53.6569 52.3431 55 54 55C55.6569 55 57 53.6569 57 52V51Z" fill="#414042"/>
<path d="M54 51C54.5523 51 55 50.5523 55 50C55 49.4477 54.5523 49 54 49C53.4477 49 53 49.4477 53 50C53 50.5523 53.4477 51 54 51Z" fill="white"/>
<path d="M64 71.9999C59.49 71.9999 55.5 69.3199 54.06 65.3399C53.87 64.8199 54.14 64.2499 54.66 64.0599C55.18 63.8699 55.75 64.1399 55.94 64.6599C57.09 67.8499 60.33 69.9999 64 69.9999C67.67 69.9999 70.91 67.8499 72.06 64.6599C72.25 64.1399 72.82 63.8699 73.34 64.0599C73.86 64.2499 74.13 64.8199 73.94 65.3399C72.5 69.3199 68.51 71.9999 64 71.9999Z" fill="#414042"/>
<path d="M65.9999 62.0001C65.6299 62.0001 65.2799 61.8001 65.0999 61.4501C64.8499 60.9601 65.0499 60.3601 65.5499 60.1101L67.5499 59.1101C68.0499 58.8601 68.6499 59.0601 68.8899 59.5601C69.1399 60.0501 68.9399 60.6501 68.4399 60.9001L66.4399 61.9001C66.2999 61.9701 66.1399 62.0101 65.9899 62.0101L65.9999 62.0001Z" fill="#414042"/>
<path d="M62 62C61.85 62 61.7 61.97 61.55 61.89L59.55 60.89C59.06 60.64 58.86 60.04 59.1 59.55C59.34 59.06 59.95 58.86 60.44 59.1L62.44 60.1C62.93 60.35 63.13 60.95 62.89 61.44C62.71 61.79 62.36 61.99 61.99 61.99L62 62Z" fill="#414042"/>
</svg>
