<svg width="358" height="229" viewBox="0 0 358 229" fill="none" xmlns="http://www.w3.org/2000/svg">
<mask id="mask0_12_4405" style="mask-type:luminance" maskUnits="userSpaceOnUse" x="0" y="0" width="358" height="229">
<path d="M0 9.64146C119.278 43.0405 238.556 -23.7575 357.834 9.64146C357.834 79.2235 357.834 148.804 357.834 218.385C238.556 184.986 119.278 251.784 0 218.385C0 148.804 0 79.2235 0 9.64146Z" fill="white"/>
</mask>
<g mask="url(#mask0_12_4405)">
<path d="M0 218.386C119.278 251.785 238.556 184.987 357.834 218.386C357.834 148.804 357.834 79.2235 357.834 9.64247C238.556 -23.7565 119.278 43.0415 0 9.64247C0 79.2235 0 148.804 0 218.386Z" fill="#2A3479"/>
</g>
<mask id="mask1_12_4405" style="mask-type:luminance" maskUnits="userSpaceOnUse" x="0" y="0" width="358" height="229">
<path d="M0 9.64146C119.278 43.0405 238.556 -23.7575 357.834 9.64146C357.834 79.2235 357.834 148.804 357.834 218.385C238.556 184.986 119.278 251.784 0 218.385C0 148.804 0 79.2235 0 9.64146Z" fill="white"/>
</mask>
<g mask="url(#mask1_12_4405)">
<path d="M91.211 201.63C89.71 195.693 88.209 189.748 86.708 183.795C82.412 188.362 78.115 192.862 73.818 197.286C75.515 191.351 77.213 185.405 78.91 179.447C72.967 181.196 67.024 182.805 61.081 184.25C65.526 180.147 69.971 175.952 74.416 171.676C68.42 170.149 62.424 168.475 56.429 166.627C62.425 165.468 68.421 164.136 74.416 162.656C69.971 158.346 65.526 153.955 61.081 149.472C67.024 151.419 72.967 153.201 78.91 154.846C77.213 148.915 75.515 142.973 73.818 137.019C78.114 141.483 82.411 145.872 86.708 150.193C88.209 144.154 89.71 138.108 91.211 132.053C92.712 137.99 94.213 143.919 95.715 149.842C100.011 145.187 104.308 140.472 108.605 135.706C106.909 141.779 105.213 147.845 103.517 153.901C109.457 151.817 115.397 149.627 121.337 147.358C116.895 152.082 112.453 156.761 108.011 161.385C114.01 162.441 120.009 163.396 126.007 164.276C120.008 166.402 114.009 168.454 108.011 170.405C112.453 174.367 116.895 178.274 121.337 182.136C115.397 181.013 109.457 179.81 103.517 178.502C105.213 184.334 106.909 190.158 108.605 195.973C104.309 191.851 100.012 187.678 95.715 183.445C94.213 189.513 92.712 195.575 91.211 201.63Z" fill="white"/>
</g>
<mask id="mask2_12_4405" style="mask-type:luminance" maskUnits="userSpaceOnUse" x="0" y="0" width="358" height="229">
<path d="M0 9.64146C119.278 43.0405 238.556 -23.7575 357.834 9.64146C357.834 79.2235 357.834 148.804 357.834 218.385C238.556 184.986 119.278 251.784 0 218.385C0 148.804 0 79.2235 0 9.64146Z" fill="white"/>
</mask>
<g mask="url(#mask2_12_4405)">
<path d="M0 122.723C119.278 156.122 238.556 89.3244 357.834 122.723C357.834 116.925 357.834 111.127 357.834 105.329C238.556 71.9305 119.278 138.728 0 105.329C0 111.128 0 116.926 0 122.723Z" fill="#F2C430"/>
</g>
</svg>
