<svg width="358" height="229" viewBox="0 0 358 229" fill="none" xmlns="http://www.w3.org/2000/svg">
<mask id="mask0_12_4378" style="mask-type:luminance" maskUnits="userSpaceOnUse" x="0" y="0" width="358" height="229">
<path d="M0 9.64146C119.281 43.0405 238.562 -23.7575 357.844 9.64146C357.844 79.2235 357.844 148.804 357.844 218.385C238.563 184.986 119.282 251.784 0 218.385C0 148.804 0 79.2235 0 9.64146Z" fill="white"/>
</mask>
<g mask="url(#mask0_12_4378)">
<path d="M178.992 9.63246C178.992 11.8465 178.992 14.0595 178.992 16.2735C178.992 17.0315 178.992 17.7895 178.992 18.5475C178.992 18.9015 178.992 19.2565 178.992 19.6115C165.752 28.0795 152.511 36.5485 139.271 44.7425C152.511 43.1615 165.752 41.3075 178.992 39.4545C178.992 41.4485 178.992 43.4415 178.992 45.4355C178.992 48.4195 178.992 51.4045 178.992 54.3895C178.992 57.3695 178.992 60.3495 178.992 63.3295C178.992 65.3145 178.992 67.2995 178.992 69.2845C165.752 71.1385 152.511 72.9925 139.271 74.5725C152.511 79.6145 165.752 84.3825 178.992 89.1505C178.992 90.2585 178.992 91.3664 178.992 92.4744C178.992 94.6924 178.992 96.9105 178.992 99.1285C178.992 99.3215 178.992 99.5154 178.992 99.7094C174.918 100.279 170.844 100.85 166.77 101.412C165.247 101.622 163.724 101.831 162.201 102.039C161.5 102.135 160.799 102.23 160.098 102.325C141.523 95.5485 122.948 88.5155 104.373 80.4715C104.373 89.7625 104.373 99.0545 104.373 108.345C102.378 108.479 100.382 108.601 98.387 108.711C95.408 108.875 92.4291 109.01 89.4501 109.114C86.4711 109.218 83.4921 109.291 80.5131 109.33C78.5211 109.356 76.5291 109.366 74.5371 109.36C74.5371 100.069 74.5371 90.7785 74.5371 81.4874C55.9651 90.7234 37.3931 98.5435 18.8211 104.188C16.5971 103.752 14.373 103.284 12.149 102.784C8.09905 101.873 4.04805 100.854 -0.00195312 99.7215C-0.00195312 139.277 -0.00195312 178.832 -0.00195312 218.388C119.279 251.787 238.56 184.989 357.842 218.388C357.842 148.806 357.842 79.2255 357.842 9.64446C298.226 -7.05054 238.609 1.28546 178.992 9.63246Z" fill="#2C3178"/>
</g>
<mask id="mask1_12_4378" style="mask-type:luminance" maskUnits="userSpaceOnUse" x="0" y="0" width="358" height="229">
<path d="M0 9.64146C119.281 43.0405 238.562 -23.7575 357.844 9.64146C357.844 79.2235 357.844 148.804 357.844 218.385C238.563 184.986 119.282 251.784 0 218.385C0 148.804 0 79.2235 0 9.64146Z" fill="white"/>
</mask>
<g mask="url(#mask1_12_4378)">
<path d="M0 69.2945C0 75.9025 0 82.5115 0 89.1205C13.214 86.2115 26.428 82.0735 39.643 76.9785C26.428 75.4645 13.214 72.9945 0 69.2945Z" fill="#2C3178"/>
</g>
<mask id="mask2_12_4378" style="mask-type:luminance" maskUnits="userSpaceOnUse" x="0" y="0" width="358" height="229">
<path d="M0 9.64146C119.281 43.0405 238.562 -23.7575 357.844 9.64146C357.844 79.2235 357.844 148.804 357.844 218.385C238.563 184.986 119.282 251.784 0 218.385C0 148.804 0 79.2235 0 9.64146Z" fill="white"/>
</mask>
<g mask="url(#mask2_12_4378)">
<path d="M104.374 18.2665C104.374 27.3705 104.374 36.4745 104.374 45.5775C122.556 35.2535 140.738 23.9605 158.92 12.4065C140.738 14.8575 122.556 17.0475 104.374 18.2665Z" fill="#2C3178"/>
</g>
<mask id="mask3_12_4378" style="mask-type:luminance" maskUnits="userSpaceOnUse" x="0" y="0" width="358" height="229">
<path d="M0 9.64146C119.281 43.0405 238.562 -23.7575 357.844 9.64146C357.844 79.2235 357.844 148.804 357.844 218.385C238.563 184.986 119.282 251.784 0 218.385C0 148.804 0 79.2235 0 9.64146Z" fill="white"/>
</mask>
<g mask="url(#mask3_12_4378)">
<path d="M74.539 19.2815C56.358 19.2285 38.1769 17.8165 19.9969 14.3375C38.1779 26.9205 56.359 37.4355 74.539 46.5935C74.539 37.4895 74.539 28.3855 74.539 19.2815Z" fill="#2C3178"/>
</g>
<mask id="mask4_12_4378" style="mask-type:luminance" maskUnits="userSpaceOnUse" x="0" y="0" width="358" height="229">
<path d="M0 9.64146C119.281 43.0405 238.562 -23.7575 357.844 9.64146C357.844 79.2235 357.844 148.804 357.844 218.385C238.563 184.986 119.282 251.784 0 218.385C0 148.804 0 79.2235 0 9.64146Z" fill="white"/>
</mask>
<g mask="url(#mask4_12_4378)">
<path d="M0 39.4645C13.214 43.1645 26.428 45.6345 39.643 47.1485C26.429 39.0385 13.215 29.9715 0 19.6745C0 26.2705 0 32.8675 0 39.4645Z" fill="#2C3178"/>
</g>
<mask id="mask5_12_4378" style="mask-type:luminance" maskUnits="userSpaceOnUse" x="0" y="0" width="358" height="229">
<path d="M0 9.64146C119.281 43.0405 238.562 -23.7575 357.844 9.64146C357.844 79.2235 357.844 148.804 357.844 218.385C238.563 184.986 119.282 251.784 0 218.385C0 148.804 0 79.2235 0 9.64146Z" fill="white"/>
</mask>
<g mask="url(#mask5_12_4378)">
<path d="M178.917 9.64246C159.039 22.3665 139.161 35.0905 119.282 46.8865C114.828 47.3025 110.375 47.6715 105.922 47.9835C125.801 36.6495 145.681 24.1805 165.561 11.5035C163.348 11.8085 161.134 12.1095 158.92 12.4085C140.738 23.9625 122.556 35.2555 104.374 45.5795C104.374 36.4755 104.374 27.3715 104.374 18.2685C102.379 18.4025 100.383 18.5245 98.3881 18.6345C98.3881 28.7275 98.3881 38.8205 98.3881 48.9135C98.3881 50.0185 98.3881 51.1235 98.3881 52.2295C98.3881 52.9655 98.3881 53.7015 98.3881 54.4375C101.371 54.2735 104.354 54.0814 107.338 53.8644C111.789 53.5404 116.239 53.1605 120.69 52.7365C122.209 52.5915 123.728 52.4415 125.246 52.2855C125.944 52.2145 126.642 52.1415 127.34 52.0685C144.557 50.2595 161.775 47.8475 178.992 45.4375C178.992 43.4435 178.992 41.4505 178.992 39.4565C165.752 41.3105 152.511 43.1645 139.271 44.7445C152.511 36.5495 165.752 28.0815 178.992 19.6135C178.992 19.2585 178.992 18.9045 178.992 18.5495C178.992 17.7915 178.992 17.0335 178.992 16.2755C178.992 14.0615 178.992 11.8475 178.992 9.63445C178.967 9.63545 178.942 9.63846 178.917 9.64246Z" fill="white"/>
</g>
<mask id="mask6_12_4378" style="mask-type:luminance" maskUnits="userSpaceOnUse" x="0" y="0" width="358" height="229">
<path d="M0 9.64146C119.281 43.0405 238.562 -23.7575 357.844 9.64146C357.844 79.2235 357.844 148.804 357.844 218.385C238.563 184.986 119.282 251.784 0 218.385C0 148.804 0 79.2235 0 9.64146Z" fill="white"/>
</mask>
<g mask="url(#mask6_12_4378)">
<path d="M74.539 19.2815C74.539 28.3855 74.539 37.4895 74.539 46.5935C56.358 37.4355 38.177 26.9205 19.997 14.3375C13.331 13.0625 6.665 11.5085 0 9.64246C19.88 25.1495 39.76 37.8735 59.64 48.7425C55.194 48.5345 50.747 48.2345 46.301 47.8315C30.867 38.7215 15.434 28.3685 0 16.3375C0 17.4505 0 18.5625 0 19.6755C13.214 29.9725 26.428 39.0395 39.643 47.1495C26.429 45.6365 13.215 43.1665 0 39.4655C0 41.4595 0 43.4524 0 45.4464C17.183 50.2574 34.365 52.9894 51.547 54.2414C53.775 54.4044 56.004 54.5414 58.232 54.6554C62.671 54.8824 67.109 55.0155 71.548 55.0655C74.537 55.0995 77.526 55.0944 80.515 55.0564C80.515 54.3204 80.515 53.5845 80.515 52.8485C80.515 52.0945 80.515 51.3394 80.515 50.5844C80.515 50.2334 80.515 49.8834 80.515 49.5324C80.515 39.4394 80.515 29.3465 80.515 19.2535C78.523 19.2775 76.531 19.2875 74.539 19.2815Z" fill="white"/>
</g>
<mask id="mask7_12_4378" style="mask-type:luminance" maskUnits="userSpaceOnUse" x="0" y="0" width="358" height="229">
<path d="M0 9.64146C119.281 43.0405 238.562 -23.7575 357.844 9.64146C357.844 79.2235 357.844 148.804 357.844 218.385C238.563 184.986 119.282 251.784 0 218.385C0 148.804 0 79.2235 0 9.64146Z" fill="white"/>
</mask>
<g mask="url(#mask7_12_4378)">
<path d="M120.689 70.6285C116.238 71.0535 111.788 71.4335 107.337 71.7565C104.354 71.9735 101.371 72.1655 98.387 72.3295C98.387 73.0605 98.387 73.7925 98.387 74.5245C98.387 75.2825 98.387 76.0405 98.387 76.7975C98.387 77.1485 98.387 77.4984 98.387 77.8494C98.387 88.1354 98.387 98.4225 98.387 108.708C100.382 108.598 102.378 108.476 104.373 108.342C104.373 99.0515 104.373 89.7595 104.373 80.4685C122.948 88.5135 141.523 95.5465 160.098 102.322C160.799 102.227 161.5 102.132 162.201 102.036C163.724 101.828 165.247 101.619 166.77 101.409C170.844 100.847 174.918 100.276 178.992 99.7065C178.992 99.5125 178.992 99.3185 178.992 99.1255C159.089 91.9634 139.186 84.8034 119.283 76.7134C123.725 76.2984 128.167 75.8385 132.609 75.3405C148.07 81.3405 163.531 86.9055 178.993 92.4715C178.993 91.3635 178.993 90.2555 178.993 89.1475C165.753 84.3795 152.512 79.6115 139.272 74.5695C152.512 72.9885 165.753 71.1345 178.993 69.2815C178.993 67.2965 178.993 65.3115 178.993 63.3265C161.776 65.7365 144.558 68.1485 127.341 69.9575C125.123 70.1935 122.906 70.4165 120.689 70.6285Z" fill="white"/>
</g>
<mask id="mask8_12_4378" style="mask-type:luminance" maskUnits="userSpaceOnUse" x="0" y="0" width="358" height="229">
<path d="M0 9.64146C119.281 43.0405 238.562 -23.7575 357.844 9.64146C357.844 79.2235 357.844 148.804 357.844 218.385C238.563 184.986 119.282 251.784 0 218.385C0 148.804 0 79.2235 0 9.64146Z" fill="white"/>
</mask>
<g mask="url(#mask8_12_4378)">
<path d="M71.548 72.9585C67.109 72.9085 62.671 72.7755 58.232 72.5485C56.709 72.4705 55.186 72.3815 53.663 72.2815C52.958 72.2345 52.252 72.1855 51.547 72.1345C34.364 70.8825 17.182 68.1505 0 63.3395C0 65.3245 0 67.3095 0 69.2945C13.214 72.9945 26.428 75.4645 39.643 76.9785C26.429 82.0735 13.215 86.2115 0 89.1205C0 92.4515 0 95.7814 0 99.1124C19.88 94.7394 39.76 87.5845 59.64 78.5725C64.083 78.7805 68.526 78.8945 72.97 78.9265C52.698 88.9205 32.425 97.2004 12.152 102.782C14.376 103.282 16.6 103.75 18.824 104.186C37.396 98.5405 55.968 90.7215 74.54 81.4855C74.54 90.7765 74.54 100.067 74.54 109.358C76.532 109.364 78.524 109.354 80.516 109.328C80.516 99.0425 80.516 88.7555 80.516 78.4695C80.516 77.3615 80.516 76.2524 80.516 75.1444C80.516 74.4134 80.516 73.6815 80.516 72.9495C77.526 72.9875 74.537 72.9915 71.548 72.9585Z" fill="white"/>
</g>
<mask id="mask9_12_4378" style="mask-type:luminance" maskUnits="userSpaceOnUse" x="0" y="0" width="358" height="229">
<path d="M0 9.64146C119.281 43.0405 238.562 -23.7575 357.844 9.64146C357.844 79.2235 357.844 148.804 357.844 218.385C238.563 184.986 119.282 251.784 0 218.385C0 148.804 0 79.2235 0 9.64146Z" fill="white"/>
</mask>
<g mask="url(#mask9_12_4378)">
<path d="M59.639 78.5714C39.759 87.5834 19.879 94.7385 -0.000976562 99.1115C-0.000976562 99.3145 -0.000976562 99.5164 -0.000976562 99.7184C4.04902 100.852 8.10002 101.871 12.15 102.781C32.422 97.1994 52.695 88.9194 72.968 78.9254C68.525 78.8934 64.083 78.7794 59.639 78.5714Z" fill="#BD1F38"/>
</g>
<mask id="mask10_12_4378" style="mask-type:luminance" maskUnits="userSpaceOnUse" x="0" y="0" width="358" height="229">
<path d="M0 9.64146C119.281 43.0405 238.562 -23.7575 357.844 9.64146C357.844 79.2235 357.844 148.804 357.844 218.385C238.563 184.986 119.282 251.784 0 218.385C0 148.804 0 79.2235 0 9.64146Z" fill="white"/>
</mask>
<g mask="url(#mask10_12_4378)">
<path d="M0 16.3365C15.434 28.3675 30.867 38.7205 46.301 47.8305C50.747 48.2335 55.194 48.5344 59.64 48.7414C39.76 37.8734 19.88 25.1485 0 9.64146C0 11.8735 0 14.1045 0 16.3365Z" fill="#BD1F38"/>
</g>
<mask id="mask11_12_4378" style="mask-type:luminance" maskUnits="userSpaceOnUse" x="0" y="0" width="358" height="229">
<path d="M0 9.64146C119.281 43.0405 238.562 -23.7575 357.844 9.64146C357.844 79.2235 357.844 148.804 357.844 218.385C238.563 184.986 119.282 251.784 0 218.385C0 148.804 0 79.2235 0 9.64146Z" fill="white"/>
</mask>
<g mask="url(#mask11_12_4378)">
<path d="M178.917 9.64246C174.465 10.2665 170.013 10.8895 165.561 11.5025C145.682 24.1795 125.802 36.6485 105.922 47.9825C110.376 47.6705 114.829 47.3015 119.282 46.8855C139.161 35.0905 159.039 22.3665 178.917 9.64246Z" fill="#BD1F38"/>
</g>
<mask id="mask12_12_4378" style="mask-type:luminance" maskUnits="userSpaceOnUse" x="0" y="0" width="358" height="229">
<path d="M0 9.64146C119.281 43.0405 238.562 -23.7575 357.844 9.64146C357.844 79.2235 357.844 148.804 357.844 218.385C238.563 184.986 119.282 251.784 0 218.385C0 148.804 0 79.2235 0 9.64146Z" fill="white"/>
</mask>
<g mask="url(#mask12_12_4378)">
<path d="M119.282 76.7164C139.185 84.8064 159.088 91.9664 178.991 99.1284C178.991 96.9104 178.991 94.6924 178.991 92.4744C163.53 86.9094 148.069 81.3444 132.607 75.3434C128.166 75.8404 123.724 76.3014 119.282 76.7164Z" fill="#BD1F38"/>
</g>
<mask id="mask13_12_4378" style="mask-type:luminance" maskUnits="userSpaceOnUse" x="0" y="0" width="358" height="229">
<path d="M0 9.64146C119.281 43.0405 238.562 -23.7575 357.844 9.64146C357.844 79.2235 357.844 148.804 357.844 218.385C238.563 184.986 119.282 251.784 0 218.385C0 148.804 0 79.2235 0 9.64146Z" fill="white"/>
</mask>
<g mask="url(#mask13_12_4378)">
<path d="M80.515 19.2515C80.515 29.3445 80.515 39.4384 80.515 49.5304C80.515 49.8814 80.515 50.2315 80.515 50.5825C80.515 51.3375 80.515 52.0925 80.515 52.8465C80.515 53.5825 80.515 54.3185 80.515 55.0545C77.526 55.0935 74.537 55.0975 71.548 55.0635C67.109 55.0135 62.671 54.8805 58.232 54.6535C56.004 54.5395 53.775 54.4024 51.547 54.2394C34.364 52.9874 17.182 50.2555 0 45.4445C0 51.4095 0 57.3745 0 63.3395C17.183 68.1505 34.365 70.8825 51.547 72.1345C52.252 72.1855 52.958 72.2345 53.663 72.2815C55.186 72.3815 56.709 72.4705 58.232 72.5485C62.671 72.7755 67.109 72.9085 71.548 72.9585C74.537 72.9925 77.526 72.9875 80.515 72.9495C80.515 73.6815 80.515 74.4124 80.515 75.1444C80.515 76.2524 80.515 77.3615 80.515 78.4695C80.515 88.7565 80.515 99.0425 80.515 109.328C83.494 109.289 86.473 109.217 89.452 109.112C92.431 109.008 95.41 108.873 98.389 108.709C98.389 98.4225 98.389 88.1365 98.389 77.8505C98.389 77.4995 98.389 77.1495 98.389 76.7985C98.389 76.0405 98.389 75.2825 98.389 74.5255C98.389 73.7935 98.389 73.0625 98.389 72.3305C101.372 72.1665 104.355 71.9745 107.339 71.7575C111.79 71.4335 116.24 71.0534 120.691 70.6294C122.908 70.4184 125.124 70.1944 127.341 69.9614C144.558 68.1524 161.776 65.7415 178.993 63.3305C178.993 60.3505 178.993 57.3704 178.993 54.3904C178.993 51.4054 178.993 48.4215 178.993 45.4365C161.776 47.8475 144.558 50.2585 127.341 52.0675C126.643 52.1415 125.945 52.2135 125.247 52.2845C123.728 52.4395 122.209 52.5905 120.691 52.7355C116.24 53.1605 111.79 53.5405 107.339 53.8635C104.356 54.0805 101.373 54.2725 98.389 54.4365C98.389 53.7005 98.389 52.9645 98.389 52.2285C98.389 51.1235 98.389 50.0175 98.389 48.9125C98.389 38.8195 98.389 28.7265 98.389 18.6335C92.431 18.9595 86.473 19.1745 80.515 19.2515Z" fill="#BD1F38"/>
</g>
<mask id="mask14_12_4378" style="mask-type:luminance" maskUnits="userSpaceOnUse" x="0" y="0" width="358" height="229">
<path d="M0 9.64146C119.281 43.0405 238.562 -23.7575 357.844 9.64146C357.844 79.2235 357.844 148.804 357.844 218.385C238.563 184.986 119.282 251.784 0 218.385C0 148.804 0 79.2235 0 9.64146Z" fill="white"/>
</mask>
<g mask="url(#mask14_12_4378)">
<path d="M248.403 62.3095C251.637 62.0615 254.871 61.8424 258.105 61.6554C259.115 58.5154 260.125 55.3795 261.135 52.2455C262.135 55.2755 263.135 58.3095 264.134 61.3465C267.366 61.2015 270.599 61.0925 273.831 61.0225C271.216 62.9855 268.601 64.9735 265.985 66.9855C266.982 70.0305 267.979 73.0795 268.976 76.1315C266.362 74.3075 263.748 72.5085 261.135 70.7305C258.502 72.7775 255.869 74.8465 253.236 76.9365C254.246 73.7825 255.256 70.6315 256.266 67.4835C253.645 65.7385 251.024 64.0145 248.403 62.3095Z" fill="white"/>
</g>
<mask id="mask15_12_4378" style="mask-type:luminance" maskUnits="userSpaceOnUse" x="0" y="0" width="358" height="229">
<path d="M0 9.64146C119.281 43.0405 238.562 -23.7575 357.844 9.64146C357.844 79.2235 357.844 148.804 357.844 218.385C238.563 184.986 119.282 251.784 0 218.385C0 148.804 0 79.2235 0 9.64146Z" fill="white"/>
</mask>
<g mask="url(#mask15_12_4378)">
<path d="M252.712 63.4035C254.849 63.2575 256.987 63.1235 259.124 63.0055C259.794 60.9335 260.464 58.8624 261.134 56.7934C261.789 58.7944 262.445 60.7975 263.1 62.8015C265.239 62.7005 267.377 62.6155 269.516 62.5465C267.792 63.8645 266.068 65.1925 264.344 66.5315C264.999 68.5445 265.655 70.5585 266.31 72.5745C264.584 71.3805 262.859 70.1975 261.134 69.0245C259.394 70.3755 257.654 71.7365 255.913 73.1075C256.577 71.0245 257.242 68.9425 257.906 66.8615C256.175 65.6995 254.444 64.5475 252.712 63.4035Z" fill="#BD1F38"/>
</g>
<mask id="mask16_12_4378" style="mask-type:luminance" maskUnits="userSpaceOnUse" x="0" y="0" width="358" height="229">
<path d="M0 9.64146C119.281 43.0405 238.562 -23.7575 357.844 9.64146C357.844 79.2235 357.844 148.804 357.844 218.385C238.563 184.986 119.282 251.784 0 218.385C0 148.804 0 79.2235 0 9.64146Z" fill="white"/>
</mask>
<g mask="url(#mask16_12_4378)">
<path d="M209.478 105.556C212.718 105.142 215.957 104.741 219.197 104.356C220.207 101.15 221.217 97.9464 222.227 94.7444C223.226 97.7154 224.224 100.687 225.222 103.661C228.463 103.298 231.704 102.955 234.946 102.635C232.329 104.795 229.713 106.97 227.096 109.158C228.088 112.135 229.081 115.114 230.073 118.096C227.458 116.47 224.843 114.857 222.227 113.256C219.61 115.461 216.994 117.677 214.377 119.902C215.373 116.694 216.368 113.486 217.363 110.28C214.734 108.696 212.106 107.122 209.478 105.556Z" fill="white"/>
</g>
<mask id="mask17_12_4378" style="mask-type:luminance" maskUnits="userSpaceOnUse" x="0" y="0" width="358" height="229">
<path d="M0 9.64146C119.281 43.0405 238.562 -23.7575 357.844 9.64146C357.844 79.2235 357.844 148.804 357.844 218.385C238.563 184.986 119.282 251.784 0 218.385C0 148.804 0 79.2235 0 9.64146Z" fill="white"/>
</mask>
<g mask="url(#mask17_12_4378)">
<path d="M213.801 106.403C215.943 106.138 218.085 105.878 220.226 105.626C220.893 103.51 221.559 101.395 222.226 99.2805C222.886 101.241 223.546 103.204 224.205 105.167C226.357 104.923 228.509 104.688 230.661 104.462C228.921 105.907 227.181 107.358 225.441 108.814C226.105 110.784 226.769 112.753 227.433 114.725C225.697 113.643 223.961 112.568 222.225 111.497C220.485 112.969 218.745 114.446 217.005 115.927C217.675 113.802 218.345 111.678 219.015 109.555C217.278 108.5 215.54 107.449 213.801 106.403Z" fill="#BD1F38"/>
</g>
<mask id="mask18_12_4378" style="mask-type:luminance" maskUnits="userSpaceOnUse" x="0" y="0" width="358" height="229">
<path d="M0 9.64146C119.281 43.0405 238.562 -23.7575 357.844 9.64146C357.844 79.2235 357.844 148.804 357.844 218.385C238.563 184.986 119.282 251.784 0 218.385C0 148.804 0 79.2235 0 9.64146Z" fill="white"/>
</mask>
<g mask="url(#mask18_12_4378)">
<path d="M283.124 90.3645C286.012 90.3715 288.899 90.4125 291.787 90.4905C292.684 87.7725 293.581 85.0565 294.478 82.3455C295.365 85.1195 296.252 87.8965 297.139 90.6785C300.016 90.8035 302.894 90.9665 305.772 91.1715C303.443 92.6885 301.113 94.2335 298.784 95.8025C299.68 98.5995 300.575 101.399 301.471 104.203C299.14 102.378 296.809 100.579 294.478 98.8065C292.137 100.415 289.796 102.05 287.456 103.707C288.353 100.967 289.25 98.2305 290.147 95.4975C287.806 93.7635 285.465 92.0535 283.124 90.3645Z" fill="white"/>
</g>
<mask id="mask19_12_4378" style="mask-type:luminance" maskUnits="userSpaceOnUse" x="0" y="0" width="358" height="229">
<path d="M0 9.64146C119.281 43.0405 238.562 -23.7575 357.844 9.64146C357.844 79.2235 357.844 148.804 357.844 218.385C238.563 184.986 119.282 251.784 0 218.385C0 148.804 0 79.2235 0 9.64146Z" fill="white"/>
</mask>
<g mask="url(#mask19_12_4378)">
<path d="M286.972 91.6304C288.887 91.6554 290.802 91.6964 292.716 91.7534C293.303 89.9574 293.891 88.1635 294.479 86.3705C295.064 88.2045 295.649 90.0394 296.234 91.8774C298.147 91.9554 300.06 92.0495 301.973 92.1615C300.425 93.1985 298.877 94.2455 297.328 95.3055C297.913 97.1395 298.498 98.9754 299.083 100.813C297.548 99.6204 296.013 98.4384 294.478 97.2684C292.929 98.3304 291.379 99.4044 289.83 100.488C290.424 98.6924 291.018 96.8974 291.612 95.1044C290.065 93.9354 288.519 92.7774 286.972 91.6304Z" fill="#BD1F38"/>
</g>
<mask id="mask20_12_4378" style="mask-type:luminance" maskUnits="userSpaceOnUse" x="0" y="0" width="358" height="229">
<path d="M0 9.64146C119.281 43.0405 238.562 -23.7575 357.844 9.64146C357.844 79.2235 357.844 148.804 357.844 218.385C238.563 184.986 119.282 251.784 0 218.385C0 148.804 0 79.2235 0 9.64146Z" fill="white"/>
</mask>
<g mask="url(#mask20_12_4378)">
<path d="M246.982 162.958C250.578 162.673 254.174 162.423 257.77 162.213C258.892 158.724 260.013 155.24 261.134 151.759C262.241 155.125 263.347 158.495 264.454 161.869C268.057 161.71 271.661 161.596 275.264 161.53C272.351 163.704 269.438 165.911 266.526 168.146C267.634 171.529 268.742 174.915 269.851 178.306C266.946 176.281 264.04 174.286 261.135 172.318C258.223 174.585 255.312 176.878 252.401 179.196C253.508 175.694 254.614 172.195 255.721 168.699C252.808 166.762 249.895 164.849 246.982 162.958Z" fill="white"/>
</g>
<mask id="mask21_12_4378" style="mask-type:luminance" maskUnits="userSpaceOnUse" x="0" y="0" width="358" height="229">
<path d="M0 9.64146C119.281 43.0405 238.562 -23.7575 357.844 9.64146C357.844 79.2235 357.844 148.804 357.844 218.385C238.563 184.986 119.282 251.784 0 218.385C0 148.804 0 79.2235 0 9.64146Z" fill="white"/>
</mask>
<g mask="url(#mask21_12_4378)">
<path d="M251.776 164.174C254.158 164.007 256.54 163.855 258.922 163.722C259.659 161.416 260.397 159.111 261.134 156.808C261.865 159.035 262.597 161.265 263.328 163.496C265.706 163.385 268.083 163.293 270.461 163.222C268.542 164.683 266.624 166.157 264.705 167.643C265.441 169.882 266.176 172.122 266.912 174.365C264.986 173.036 263.06 171.72 261.134 170.416C259.208 171.918 257.281 173.432 255.355 174.957C256.094 172.64 256.833 170.324 257.571 168.01C255.64 166.719 253.709 165.441 251.776 164.174Z" fill="#BD1F38"/>
</g>
</svg>
