<svg width="128" height="128" viewBox="0 0 128 128" fill="none" xmlns="http://www.w3.org/2000/svg">
<path d="M114 54C114 26.3858 91.6142 4 64 4C36.3858 4 14 26.3858 14 54V74C14 101.614 36.3858 124 64 124C91.6142 124 114 101.614 114 74V54Z" fill="#F1F2F2"/>
<path d="M88 103C87.75 103 87.5 102.91 87.3 102.72C86.9 102.34 86.89 101.7 87.28 101.31L95.28 93.0599C95.56 92.7699 95.98 92.6799 96.35 92.8199L99.78 94.1099L104.06 90.2599L105.01 83.8699C105.09 83.3199 105.6 82.9499 106.15 83.0299C106.7 83.1099 107.07 83.6199 106.99 84.1699L105.99 90.9199C105.96 91.1499 105.84 91.3599 105.67 91.5199L100.67 96.0199C100.39 96.2699 100 96.3399 99.65 96.2099L96.26 94.9399L88.72 102.72C88.52 102.92 88.26 103.02 88 103.02V103Z" fill="#995A1C"/>
<path d="M64 102C80.5685 102 94 90.8071 94 77C94 63.1929 80.5685 52 64 52C47.4315 52 34 63.1929 34 77C34 90.8071 47.4315 102 64 102Z" fill="#EA9232"/>
<path d="M64 102C76.7025 102 87 90.8071 87 77C87 63.1929 76.7025 52 64 52C51.2975 52 41 63.1929 41 77C41 90.8071 51.2975 102 64 102Z" fill="#D87A1D"/>
<path d="M64 102C73.665 102 81.5 90.8071 81.5 77C81.5 63.1929 73.665 52 64 52C54.335 52 46.5 63.1929 46.5 77C46.5 90.8071 54.335 102 64 102Z" fill="#EA9A4B"/>
<path d="M21.29 100C22.58 102.11 24.01 104.11 25.59 106H102.41C103.99 104.11 105.42 102.11 106.71 100H21.29Z" fill="#B26E24"/>
<path d="M53 99C53 97.3431 51.6569 96 50 96C48.3431 96 47 97.3431 47 99V107C47 108.657 48.3431 110 50 110C51.6569 110 53 108.657 53 107V99Z" fill="#F3A950"/>
<path d="M59 99C59 97.3431 57.6569 96 56 96C54.3431 96 53 97.3431 53 99V107C53 108.657 54.3431 110 56 110C57.6569 110 59 108.657 59 107V99Z" fill="#F3A950"/>
<path d="M75 99C75 97.3431 73.6569 96 72 96C70.3431 96 69 97.3431 69 99V107C69 108.657 70.3431 110 72 110C73.6569 110 75 108.657 75 107V99Z" fill="#F3A950"/>
<path d="M81 99C81 97.3431 79.6569 96 78 96C76.3431 96 75 97.3431 75 99V107C75 108.657 76.3431 110 78 110C79.6569 110 81 108.657 81 107V99Z" fill="#F3A950"/>
<path d="M45 103C45 107.42 41.42 111 37 111C37 106.58 40.58 103 45 103Z" fill="#85CC71"/>
<path d="M78 71.5C77.45 71.5 77 71.95 77 72.5C77 73.05 76.55 73.5 76 73.5C75.45 73.5 75 73.05 75 72.5C75 71.95 74.55 71.5 74 71.5C73.45 71.5 73 71.95 73 72.5C73 74.15 74.35 75.5 76 75.5C77.65 75.5 79 74.15 79 72.5C79 71.95 78.55 71.5 78 71.5Z" fill="#414042"/>
<path d="M68 75.5C69.65 75.5 71 74.15 71 72.5C71 71.95 70.55 71.5 70 71.5C69.45 71.5 69 71.95 69 72.5C69 73.05 68.55 73.5 68 73.5C67.45 73.5 67 73.05 67 72.5C67 71.95 66.55 71.5 66 71.5C65.45 71.5 65 71.95 65 72.5C65 74.15 66.35 75.5 68 75.5Z" fill="#414042"/>
<path d="M60 75.5C61.65 75.5 63 74.15 63 72.5C63 71.95 62.55 71.5 62 71.5C61.45 71.5 61 71.95 61 72.5C61 73.05 60.55 73.5 60 73.5C59.45 73.5 59 73.05 59 72.5C59 71.95 58.55 71.5 58 71.5C57.45 71.5 57 71.95 57 72.5C57 74.15 58.35 75.5 60 75.5Z" fill="#414042"/>
<path d="M55 72.5C55 71.95 54.55 71.5 54 71.5C53.45 71.5 53 71.95 53 72.5C53 73.05 52.55 73.5 52 73.5C51.45 73.5 51 73.05 51 72.5C51 71.95 50.55 71.5 50 71.5C49.45 71.5 49 71.95 49 72.5C49 74.15 50.35 75.5 52 75.5C53.65 75.5 55 74.15 55 72.5Z" fill="#414042"/>
<path d="M74 77.5C73.45 77.5 73 77.95 73 78.5C73 79.05 72.55 79.5 72 79.5C71.45 79.5 71 79.05 71 78.5C71 77.95 70.55 77.5 70 77.5C69.45 77.5 69 77.95 69 78.5C69 80.15 70.35 81.5 72 81.5C73.65 81.5 75 80.15 75 78.5C75 77.95 74.55 77.5 74 77.5Z" fill="#414042"/>
<path d="M62 77.5C61.45 77.5 61 77.95 61 78.5C61 80.15 62.35 81.5 64 81.5C65.65 81.5 67 80.15 67 78.5C67 77.95 66.55 77.5 66 77.5C65.45 77.5 65 77.95 65 78.5C65 79.05 64.55 79.5 64 79.5C63.45 79.5 63 79.05 63 78.5C63 77.95 62.55 77.5 62 77.5Z" fill="#414042"/>
<path d="M59 78.5C59 77.95 58.55 77.5 58 77.5C57.45 77.5 57 77.95 57 78.5C57 79.05 56.55 79.5 56 79.5C55.45 79.5 55 79.05 55 78.5C55 77.95 54.55 77.5 54 77.5C53.45 77.5 53 77.95 53 78.5C53 80.15 54.35 81.5 56 81.5C57.65 81.5 59 80.15 59 78.5Z" fill="#414042"/>
<path d="M70 83.5C69.45 83.5 69 83.95 69 84.5C69 85.05 68.55 85.5 68 85.5C67.45 85.5 67 85.05 67 84.5C67 83.95 66.55 83.5 66 83.5C65.45 83.5 65 83.95 65 84.5C65 86.15 66.35 87.5 68 87.5C69.65 87.5 71 86.15 71 84.5C71 83.95 70.55 83.5 70 83.5Z" fill="#414042"/>
<path d="M63 84.5C63 83.95 62.55 83.5 62 83.5C61.45 83.5 61 83.95 61 84.5C61 85.05 60.55 85.5 60 85.5C59.45 85.5 59 85.05 59 84.5C59 83.95 58.55 83.5 58 83.5C57.45 83.5 57 83.95 57 84.5C57 86.15 58.35 87.5 60 87.5C61.65 87.5 63 86.15 63 84.5Z" fill="#414042"/>
<path d="M66 89.5C65.45 89.5 65 89.95 65 90.5C65 91.05 64.55 91.5 64 91.5C63.45 91.5 63 91.05 63 90.5C63 89.95 62.55 89.5 62 89.5C61.45 89.5 61 89.95 61 90.5C61 92.15 62.35 93.5 64 93.5C65.65 93.5 67 92.15 67 90.5C67 89.95 66.55 89.5 66 89.5Z" fill="#414042"/>
<path d="M64 66C78.3594 66 90 56.3741 90 44.5C90 32.6259 78.3594 23 64 23C49.6406 23 38 32.6259 38 44.5C38 56.3741 49.6406 66 64 66Z" fill="#F3A950"/>
<path d="M74 21.1199C69 18.0099 64 22.3499 64 22.3499C64 22.3499 59 18.0099 54 21.1199C49 24.2299 40 24.2299 36 20.2899C36 20.2899 36 39.9999 64 39.9999C92 39.9999 92 20.2899 92 20.2899C88 24.2299 79 24.2299 74 21.1199Z" fill="#F34141"/>
<path d="M54 50C59.5228 50 64 45.5228 64 40C64 34.4772 59.5228 30 54 30C48.4772 30 44 34.4772 44 40C44 45.5228 48.4772 50 54 50Z" fill="#FFD9B6"/>
<path d="M74 50C79.5228 50 84 45.5228 84 40C84 34.4772 79.5228 30 74 30C68.4772 30 64 34.4772 64 40C64 45.5228 68.4772 50 74 50Z" fill="#FFD9B6"/>
<path d="M74 43C75.1046 43 76 41.6569 76 40C76 38.3431 75.1046 37 74 37C72.8954 37 72 38.3431 72 40C72 41.6569 72.8954 43 74 43Z" fill="#414042"/>
<path d="M54 43C55.1046 43 56 41.6569 56 40C56 38.3431 55.1046 37 54 37C52.8954 37 52 38.3431 52 40C52 41.6569 52.8954 43 54 43Z" fill="#414042"/>
<path d="M62.79 40.69L59.23 47.1C58.85 47.79 58.95 48.63 59.5 49.23L62.34 52.3C63.21 53.24 64.79 53.24 65.66 52.3L68.51 49.22C69.05 48.63 69.16 47.8 68.78 47.11L65.22 40.69C64.71 39.77 63.3 39.77 62.79 40.69Z" fill="#F34141"/>
</svg>
