<svg width="128" height="128" viewBox="0 0 128 128" fill="none" xmlns="http://www.w3.org/2000/svg">
<path d="M114 54C114 26.3858 91.6142 4 64 4C36.3858 4 14 26.3858 14 54V74C14 101.614 36.3858 124 64 124C91.6142 124 114 101.614 114 74V54Z" fill="#F1F2F2"/>
<path d="M104.1 104.13C104.1 104.13 101.01 99.46 97.01 100.49C97.01 100.49 98.01 90.27 88.02 87.2C78.03 84.13 79.03 118.9 79.03 118.9C79.03 118.9 87.83 120.81 91.92 123.44" fill="#808285"/>
<path d="M23.9 104.13C23.9 104.13 26.99 99.46 30.99 100.49C30.99 100.49 29.99 90.27 39.98 87.2C49.97 84.13 48.97 118.9 48.97 118.9C48.97 118.9 40.17 120.81 36.08 123.44" fill="#808285"/>
<path d="M73.9999 83H53.9999V121H73.9999V83Z" fill="#D1D3D4"/>
<path d="M75.9599 67H52.0399C22.1399 75 46.0599 118 46.0599 118C45.0599 121 48.0499 124 54.0299 124C60.0099 124 62.9999 123 62.9999 120C62.9999 117 58.0199 115 58.0199 115L55.0299 95C55.0299 90.03 59.0499 86 63.9999 86C68.9499 86 72.9699 90.03 72.9699 95L69.9799 115C69.9799 115 64.9999 117 64.9999 120C64.9999 123 67.9899 124 73.9699 124C79.9499 124 82.9399 121 81.9399 118C81.9399 118 105.86 75 75.9599 67Z" fill="#939598"/>
<path d="M103.255 117.044C106.585 111.694 106.935 105.895 104.038 104.091C101.14 102.288 96.0915 105.162 92.7615 110.512C89.4315 115.862 89.0811 121.661 91.9787 123.465C94.8763 125.268 99.9248 122.394 103.255 117.044Z" fill="#D1D3D4"/>
<path d="M87.1199 24.11C81.0399 23.12 77.9999 29.08 77.9999 29.08L89.1399 41C100.28 35.04 93.1899 25.11 87.1099 24.11H87.1199Z" fill="#939598"/>
<path d="M40.88 24.11C46.96 23.12 50 29.08 50 29.08L38.86 41C27.72 35.04 34.81 25.11 40.89 24.11H40.88Z" fill="#939598"/>
<path d="M36.0258 123.465C38.9235 121.661 38.573 115.862 35.243 110.512C31.913 105.163 26.8645 102.288 23.9669 104.091C21.0692 105.895 21.4197 111.694 24.7497 117.044C28.0797 122.394 33.1282 125.269 36.0258 123.465Z" fill="#D1D3D4"/>
<path d="M94 58C94 68.49 80.57 77 64 77C47.43 77 34 68.49 34 58C34 36 47.43 26 64 26C80.57 26 94 36 94 58Z" fill="#E6E7E8"/>
<path d="M64 72C49.58 72 37.47 65.97 34 57.8V58C34 68.49 47.43 77 64 77C80.57 77 94 68.49 94 58V57.8C90.53 65.97 78.42 72 64 72Z" fill="#D1D3D4"/>
<path d="M68.9999 55C68.9999 56.1 66.7599 59 63.9999 59C61.2399 59 58.9999 56.1 58.9999 55C58.9999 53.9 61.2399 53 63.9999 53C66.7599 53 68.9999 53.9 68.9999 55Z" fill="#414042"/>
<path d="M83.9199 45.8899L80.1099 42.0799C77.3399 39.3099 72.8499 39.3099 70.0799 42.0799C67.3099 44.8499 67.3099 49.3399 70.0799 52.1099L73.8899 55.9199C76.6599 58.6899 81.1499 58.6899 83.9199 55.9199C86.6899 53.1499 86.6899 48.6599 83.9199 45.8899Z" fill="#6D6E71"/>
<path d="M44.0799 45.8899L47.8899 42.0799C50.6599 39.3099 55.1499 39.3099 57.9199 42.0799C60.6899 44.8499 60.6899 49.3399 57.9199 52.1099L54.1099 55.9199C51.3399 58.6899 46.8499 58.6899 44.0799 55.9199C41.3099 53.1499 41.3099 48.6599 44.0799 45.8899Z" fill="#6D6E71"/>
<path d="M51.9999 50C53.1045 50 53.9999 49.1046 53.9999 48C53.9999 46.8954 53.1045 46 51.9999 46C50.8954 46 49.9999 46.8954 49.9999 48C49.9999 49.1046 50.8954 50 51.9999 50Z" fill="#414042"/>
<path d="M75.9999 50C77.1045 50 77.9999 49.1046 77.9999 48C77.9999 46.8954 77.1045 46 75.9999 46C74.8954 46 73.9999 46.8954 73.9999 48C73.9999 49.1046 74.8954 50 75.9999 50Z" fill="#414042"/>
<path d="M69.9999 61C69.4499 61 68.9999 61.45 68.9999 62C68.9999 63.1 68.0999 64 66.9999 64C65.8999 64 64.9999 63.1 64.9999 62V57C64.9999 56.45 64.5499 56 63.9999 56C63.4499 56 62.9999 56.45 62.9999 57V62C62.9999 63.1 62.0999 64 60.9999 64C59.8999 64 58.9999 63.1 58.9999 62C58.9999 61.45 58.5499 61 57.9999 61C57.4499 61 56.9999 61.45 56.9999 62C56.9999 64.21 58.7899 66 60.9999 66C62.1999 66 63.2699 65.46 63.9999 64.62C64.7299 65.46 65.7999 66 66.9999 66C69.2099 66 70.9999 64.21 70.9999 62C70.9999 61.45 70.5499 61 69.9999 61Z" fill="#414042"/>
</svg>
