<svg width="128" height="128" viewBox="0 0 128 128" fill="none" xmlns="http://www.w3.org/2000/svg">
<path d="M114 54C114 26.3858 91.6142 4 64 4C36.3858 4 14 26.3858 14 54V74C14 101.614 36.3858 124 64 124C91.6142 124 114 101.614 114 74V54Z" fill="#F1F2F2"/>
<path d="M51 94H57V118C57 121.31 54.31 124 51 124V94Z" fill="#83CFFC"/>
<path d="M57 90H63V114C63 117.31 60.31 120 57 120V90Z" fill="#69BDFB"/>
<path d="M63 86H69V110C69 113.31 66.31 116 63 116V86Z" fill="#48AEED"/>
<path d="M68 31H80V73.34C80 83.64 71.64 92 61.34 92H52V47C52 38.17 59.17 31 68 31Z" fill="#FF6161"/>
<path d="M61.34 83.0001H52V92.0001H61.34C71.64 92.0001 80 83.6401 80 73.3401V64.3401C80 74.6401 71.64 83.0001 61.34 83.0001Z" fill="#FF4A4A"/>
<path d="M80 31H86C92.62 31 98 36.38 98 43H80V31Z" fill="#F1C848"/>
<path d="M80 43H94C94 47.42 90.42 51 86 51H80V43Z" fill="#E0B63F"/>
<path d="M69 40C70.1046 40 71 39.1046 71 38C71 36.8954 70.1046 36 69 36C67.8954 36 67 36.8954 67 38C67 39.1046 67.8954 40 69 40Z" fill="#414042"/>
<path d="M89.85 89L93 81.6L90.11 79.79L84 89H16.3C16.94 91.06 17.72 93.07 18.62 95H109.38C110.28 93.07 111.06 91.06 111.7 89H89.85Z" fill="#C98441"/>
<path d="M42 79.5001V107.5C55.25 107.5 66 96.7501 66 83.5001V58.7201C66 56.9101 64.41 55.4901 62.62 55.7401C50.97 57.3801 42 67.4001 42 79.5001Z" fill="#FF9999"/>
<path d="M62.62 55.7401C61.02 55.9601 59.48 56.3501 58 56.8701V76.5001C58 86.9401 51.32 95.8301 42 99.1201V107.5C55.25 107.5 66 96.7501 66 83.5001V58.7201C66 56.9101 64.41 55.4801 62.62 55.7401Z" fill="#FF8383"/>
</svg>
