<svg width="128" height="128" viewBox="0 0 128 128" fill="none" xmlns="http://www.w3.org/2000/svg">
<path d="M114 54C114 26.3858 91.6142 4 64 4C36.3858 4 14 26.3858 14 54V74C14 101.614 36.3858 124 64 124C91.6142 124 114 101.614 114 74V54Z" fill="#F1F2F2"/>
<path d="M111.6 89.32C109.86 94.74 107.22 99.75 103.85 104.18C98.63 102.38 92.22 97.7 86.53 91.1C77.14 80.19 73.32 68.17 77.99 64.24C82.67 60.32 94.07 65.99 103.47 76.9C107.04 81.05 109.81 85.36 111.6 89.32Z" fill="#414042"/>
<path d="M41.47 91.1C35.78 97.7 29.37 102.38 24.15 104.18C20.78 99.75 18.14 94.74 16.4 89.32C18.19 85.36 20.96 81.05 24.53 76.9C33.93 65.99 45.33 60.32 50.01 64.24C54.68 68.17 50.86 80.19 41.47 91.1Z" fill="#414042"/>
<path d="M89.03 68.82C84.93 63.36 84.09 56.26 86.12 49.75C86.69 47.92 86.99 45.99 86.99 44C86.99 32.4 76.69 23 63.99 23C51.29 23 40.99 32.4 40.99 44C40.99 45.99 41.29 47.92 41.86 49.75C43.89 56.26 43.05 63.37 38.95 68.82C34.59 74.63 31.98 81.99 31.98 90C31.98 108.78 46.31 123 63.98 123C81.65 123 95.98 108.78 95.98 90C95.98 81.99 93.37 74.63 89.01 68.82H89.03Z" fill="#58595B"/>
<path d="M82.4 67.69C79.28 63.73 79.17 58.31 81.55 53.87C82.52 52.05 83 49.88 83 47.09C83 40.13 79 36.16 75 37.15C72.83 37.69 70 39.14 71 47.09C72 55.04 64 54.05 64 54.05C64 54.05 56 55.04 57 47.09C58 39.14 55.17 37.69 53 37.15C49 36.16 45 40.13 45 47.09C45 49.88 45.48 52.05 46.45 53.87C48.83 58.31 48.72 63.73 45.6 67.69C40.91 73.66 38 81.9 38 91C38 104.72 44.59 117.05 53.98 122.3C57.13 123.4 60.5 124 64 124C67.5 124 70.87 123.4 74.02 122.3C83.41 117.05 90 104.72 90 91C90 81.9 87.09 73.66 82.4 67.69Z" fill="#E6E7E8"/>
<path d="M72 53C72 55.21 68.42 59 64 59C59.58 59 56 55.21 56 53C56 50.79 59.58 49 64 49C68.42 49 72 50.79 72 53Z" fill="#F1C848"/>
<path d="M50.5 49C51.8807 49 53 47.433 53 45.5C53 43.567 51.8807 42 50.5 42C49.1193 42 48 43.567 48 45.5C48 47.433 49.1193 49 50.5 49Z" fill="#414042"/>
<path d="M77.5 49C78.8807 49 80 47.433 80 45.5C80 43.567 78.8807 42 77.5 42C76.1193 42 75 43.567 75 45.5C75 47.433 76.1193 49 77.5 49Z" fill="#414042"/>
<path d="M43 110C36 110 31 114.48 31 120C31 122.21 32.79 124 35 124H51C53.21 124 55 122.21 55 120C55 114.48 50 110 43 110Z" fill="#F1C848"/>
<path d="M85 110C78 110 73 114.48 73 120C73 122.21 74.79 124 77 124H93C95.21 124 97 122.21 97 120C97 114.48 92 110 85 110Z" fill="#F1C848"/>
</svg>
