<svg width="128" height="128" viewBox="0 0 128 128" fill="none" xmlns="http://www.w3.org/2000/svg">
<path d="M114 54V74C114 76.19 113.86 78.35 113.59 80.47C110.62 103.39 92.13 121.46 69 123.75C67.36 123.92 65.69 124 64 124C62.31 124 60.64 123.92 59 123.75C35.87 121.46 17.38 103.39 14.41 80.47C14.14 78.35 14 76.19 14 74V54C14 26.39 36.39 4 64 4C77.8 4 90.3 9.6 99.35 18.65C108.4 27.7 114 40.2 114 54Z" fill="#F1F2F2"/>
<path d="M85 90C82.02 90 79.27 91.07 77 92.88V84H51V92.88C48.73 91.07 45.98 90 43 90C35.27 90 29 97.16 29 106C29 107.45 29.17 108.85 29.48 110.18C34.56 115.02 40.65 118.81 47.41 121.18C48.59 121.59 49.78 121.96 51 122.29C53.59 122.98 56.26 123.48 59 123.75C60.64 123.92 62.31 124 64 124C65.69 124 67.36 123.92 69 123.75C71.74 123.48 74.41 122.98 77 122.29C78.22 121.96 79.41 121.59 80.59 121.18C87.35 118.81 93.44 115.02 98.52 110.18C98.83 108.85 99 107.45 99 106C99 97.16 92.73 90 85 90Z" fill="#D87A1D"/>
<path d="M52 81H76V101C76 107.62 70.62 113 64 113C57.38 113 52 107.62 52 101V81Z" fill="#E6E7E8"/>
<path d="M82.85 76C82.85 76 96.69 91 82.85 119H70V76H82.85Z" fill="#EA9232"/>
<path d="M45.15 76C45.15 76 31.31 91 45.15 119H58V76H45.15Z" fill="#EA9232"/>
<path d="M73 116H81C84.31 116 87 118.69 87 122C87 123.1 86.1 124 85 124H69C67.9 124 67 123.1 67 122C67 118.69 69.69 116 73 116Z" fill="#F3A950"/>
<path d="M59 124H43C41.9 124 41 123.1 41 122C41 118.69 43.69 116 47 116H55C58.31 116 61 118.69 61 122C61 123.1 60.1 124 59 124Z" fill="#F3A950"/>
<path d="M88.52 89.39C88.13 87.04 87.55 85 86.9 83.26C85.69 85.3 83.17 87.59 78 89C78 89 83.31 91.65 88.52 89.39Z" fill="#58595B"/>
<path d="M77.8201 97.6599C77.8201 97.6599 82.0501 102.96 88.4001 102.4C88.8101 99.9999 88.9901 97.7599 89.0001 95.6799C87.1401 97.2399 83.7701 98.6699 77.8201 97.6599Z" fill="#58595B"/>
<path d="M77.8 106.91C77.95 107.2 80.39 111.87 85.33 113.38C86.05 111.55 86.64 109.79 87.12 108.09C84.95 108.62 81.93 108.55 77.8 106.91Z" fill="#58595B"/>
<path d="M89.87 30.1299C78.95 29.1399 72 34.0999 72 34.0999L86.89 49.9899C93.84 42.0399 89.87 30.1199 89.87 30.1199V30.1299Z" fill="#EA9232"/>
<path d="M78.65 35.36C80.71 34.66 83.43 34.05 86.66 34.01C87.05 36.37 87.31 39.99 86.15 43.38L78.65 35.37V35.36Z" fill="#D87A1D"/>
<path d="M38.13 30.1299C49.05 29.1399 56 34.0999 56 34.0999L41.11 49.9899C34.16 42.0399 38.13 30.1199 38.13 30.1199V30.1299Z" fill="#EA9232"/>
<path d="M49.35 35.36C47.29 34.66 44.57 34.05 41.34 34.01C40.95 36.37 40.69 39.99 41.85 43.38L49.35 35.37V35.36Z" fill="#D87A1D"/>
<path d="M39.48 89.39C39.87 87.04 40.45 85 41.1 83.26C42.31 85.3 44.83 87.59 50 89C50 89 44.69 91.65 39.48 89.39Z" fill="#58595B"/>
<path d="M50.18 97.6599C50.18 97.6599 45.95 102.96 39.6 102.4C39.19 99.9999 39.01 97.7599 39 95.6799C40.86 97.2399 44.23 98.6699 50.18 97.6599Z" fill="#58595B"/>
<path d="M50.2 106.91C50.05 107.2 47.61 111.87 42.67 113.38C41.95 111.55 41.36 109.79 40.88 108.09C43.05 108.62 46.07 108.55 50.2 106.91Z" fill="#58595B"/>
<path d="M93 59C93 72.81 80.02 84 64 84C47.98 84 35 72.81 35 59C35 45.19 47.98 30 64 30C80.02 30 93 45.19 93 59Z" fill="#F3A950"/>
<path d="M64 60C53.79 60 45.37 68.65 44.16 77.23C49.35 81.43 56.33 84 64 84C71.67 84 78.65 81.43 83.84 77.23C82.63 68.65 74.21 60 64 60Z" fill="#F1F2F2"/>
<path d="M64 60C62.64 60 61.31 60.15 60.02 60.44C60.24 62.44 61.94 64 64 64C66.06 64 67.76 62.44 67.98 60.44C66.69 60.15 65.36 60 64 60Z" fill="#58595B"/>
<path d="M78 60C77.45 60 77 59.55 77 59V56C77 55.45 77.45 55 78 55C78.55 55 79 55.45 79 56V59C79 59.55 78.55 60 78 60Z" fill="#58595B"/>
<path d="M50 60C49.45 60 49 59.55 49 59V56C49 55.45 49.45 55 50 55C50.55 55 51 55.45 51 56V59C51 59.55 50.55 60 50 60Z" fill="#58595B"/>
<path d="M69 65.5C68.45 65.5 68 65.95 68 66.5C68 67.33 67.33 68 66.5 68C65.67 68 65 67.33 65 66.5V63C65 62.45 64.55 62 64 62C63.45 62 63 62.45 63 63V66.5C63 67.33 62.33 68 61.5 68C60.67 68 60 67.33 60 66.5C60 65.95 59.55 65.5 59 65.5C58.45 65.5 58 65.95 58 66.5C58 68.43 59.57 70 61.5 70C62.48 70 63.36 69.59 64 68.94C64.64 69.59 65.52 70 66.5 70C68.43 70 70 68.43 70 66.5C70 65.95 69.55 65.5 69 65.5Z" fill="#58595B"/>
<path d="M74.3 32.1501C73.42 37.1701 72 40.0001 72 40.0001C70.69 36.9401 69.95 33.5101 69.54 30.6101C71.18 30.9701 72.77 31.4901 74.3 32.1501Z" fill="#58595B"/>
<path d="M66.9 30.16C66.37 38.25 64 43 64 43C62.11 38.6 61.41 33.4 61.15 30.16C62.09 30.05 63.04 30 64 30C64.96 30 65.94 30.06 66.9 30.16Z" fill="#58595B"/>
<path d="M58.55 30.5901C57.71 36.5801 56 40.0001 56 40.0001C54.91 37.4601 54.22 34.6601 53.78 32.1201C55.31 31.4601 56.91 30.9501 58.55 30.5901Z" fill="#58595B"/>
<path d="M92.97 57.9399C90.41 58.4699 87.57 59.3199 85 60.6599C85 60.6599 87.72 62.3199 92.54 63.4099C92.85 61.9799 93 60.4999 93 58.9999C93 58.6499 92.99 58.2999 92.97 57.9399Z" fill="#58595B"/>
<path d="M92.31 53.4C91.91 51.67 91.32 49.95 90.55 48.28C88.87 49.35 86.83 51.34 85 55C85 55 87.83 52.87 92.31 53.4Z" fill="#58595B"/>
<path d="M84 67C85.37 69.74 86.86 71.55 88.23 72.73C89.22 71.45 90.06 70.09 90.75 68.66C86.6 68.95 84 67 84 67Z" fill="#58595B"/>
<path d="M35.03 57.9399C37.59 58.4699 40.43 59.3199 43 60.6599C43 60.6599 40.28 62.3199 35.46 63.4099C35.15 61.9799 35 60.4999 35 58.9999C35 58.6499 35.01 58.2999 35.03 57.9399Z" fill="#58595B"/>
<path d="M35.6899 53.4C36.0899 51.67 36.6799 49.95 37.4499 48.28C39.1299 49.35 41.1699 51.34 42.9999 55C42.9999 55 40.1699 52.87 35.6899 53.4Z" fill="#58595B"/>
<path d="M44 67C42.63 69.74 41.14 71.55 39.77 72.73C38.78 71.45 37.94 70.09 37.25 68.66C41.4 68.95 44 67 44 67Z" fill="#58595B"/>
</svg>
