<svg width="358" height="229" viewBox="0 0 358 229" fill="none" xmlns="http://www.w3.org/2000/svg">
<mask id="mask0_3_4256" style="mask-type:luminance" maskUnits="userSpaceOnUse" x="0" y="0" width="358" height="229">
<path d="M0 9.64088C119.283 43.0379 238.568 -23.7561 357.852 9.64088C357.852 79.2179 357.852 148.794 357.852 218.371C238.569 184.974 119.284 251.768 0 218.371C0 148.794 0 79.2169 0 9.64088Z" fill="white"/>
</mask>
<g mask="url(#mask0_3_4256)">
<path d="M0 218.371C119.283 251.768 238.568 184.974 357.852 218.371C357.852 148.794 357.852 79.2179 357.852 9.64088C238.569 -23.7561 119.284 43.0379 0 9.64088C0 79.2169 0 148.794 0 218.371Z" fill="#AF2025"/>
</g>
<mask id="mask1_3_4256" style="mask-type:luminance" maskUnits="userSpaceOnUse" x="0" y="0" width="358" height="229">
<path d="M0 9.64088C119.283 43.0379 238.568 -23.7561 357.852 9.64088C357.852 79.2179 357.852 148.794 357.852 218.371C238.569 184.974 119.284 251.768 0 218.371C0 148.794 0 79.2169 0 9.64088Z" fill="white"/>
</mask>
<g mask="url(#mask1_3_4256)">
<path d="M0 114.019C57.99 130.255 115.979 122.811 173.969 114.712C173.969 79.9189 173.969 45.1269 173.969 10.3339C115.979 18.4329 57.99 25.8759 0 9.64088C0 44.4329 0 79.2259 0 114.019Z" fill="white"/>
</g>
<mask id="mask2_3_4256" style="mask-type:luminance" maskUnits="userSpaceOnUse" x="0" y="0" width="358" height="229">
<path d="M0 9.64088C119.283 43.0379 238.568 -23.7561 357.852 9.64088C357.852 79.2179 357.852 148.794 357.852 218.371C238.569 184.974 119.284 251.768 0 218.371C0 148.794 0 79.2169 0 9.64088Z" fill="white"/>
</mask>
<g mask="url(#mask2_3_4256)">
<path d="M73.945 32.3089C82.638 32.3489 91.331 32.0759 100.023 31.5689C100.023 57.6669 100.023 83.7659 100.023 109.864C91.331 110.371 82.638 110.643 73.945 110.604C73.945 84.5049 73.945 58.4069 73.945 32.3089Z" fill="#AF2025"/>
</g>
<mask id="mask3_3_4256" style="mask-type:luminance" maskUnits="userSpaceOnUse" x="0" y="0" width="358" height="229">
<path d="M0 9.64088C119.283 43.0379 238.568 -23.7561 357.852 9.64088C357.852 79.2179 357.852 148.794 357.852 218.371C238.569 184.974 119.284 251.768 0 218.371C0 148.794 0 79.2169 0 9.64088Z" fill="white"/>
</mask>
<g mask="url(#mask3_3_4256)">
<path d="M47.83 57.2679C73.934 59.4989 100.037 58.2139 126.139 55.5149C126.139 64.2139 126.139 72.9119 126.139 81.6119C100.037 84.3119 73.934 85.5959 47.83 83.3649C47.83 74.6659 47.83 65.9669 47.83 57.2679Z" fill="#AF2025"/>
</g>
</svg>
