<svg width="358" height="229" viewBox="0 0 358 229" fill="none" xmlns="http://www.w3.org/2000/svg">
<mask id="mask0_12_6292" style="mask-type:luminance" maskUnits="userSpaceOnUse" x="0" y="0" width="358" height="229">
<path d="M0.00075 9.64146C119.273 43.0405 238.547 -23.7575 357.819 9.64146C357.819 79.2235 357.819 148.804 357.819 218.385C238.547 184.986 119.273 251.784 0.00075 218.385C-0.00025 148.804 -0.00025 79.2235 0.00075 9.64146Z" fill="white"/>
</mask>
<g mask="url(#mask0_12_6292)">
<path d="M0.00075 218.386C119.273 251.785 238.547 184.987 357.819 218.386C357.819 148.804 357.819 79.2234 357.819 9.64244C238.547 -23.7566 119.273 43.0414 0.00075 9.64244C-0.00025 79.2234 -0.00025 148.804 0.00075 218.386Z" fill="#BC2035"/>
</g>
<mask id="mask1_12_6292" style="mask-type:luminance" maskUnits="userSpaceOnUse" x="0" y="0" width="358" height="229">
<path d="M0.00075 9.64146C119.273 43.0405 238.547 -23.7575 357.819 9.64146C357.819 79.2235 357.819 148.804 357.819 218.385C238.547 184.986 119.273 251.784 0.00075 218.385C-0.00025 148.804 -0.00025 79.2235 0.00075 9.64146Z" fill="white"/>
</mask>
<g mask="url(#mask1_12_6292)">
<path d="M0.000762939 9.64148C82.7948 102.407 165.588 146.892 248.383 210.125C284.862 207.328 321.341 208.17 357.82 218.385C275.026 125.619 192.231 81.1355 109.437 17.9015C72.9578 20.6995 36.4798 19.8565 0.000762939 9.64148Z" fill="white"/>
</g>
<mask id="mask2_12_6292" style="mask-type:luminance" maskUnits="userSpaceOnUse" x="0" y="0" width="358" height="229">
<path d="M0.00075 9.64146C119.273 43.0405 238.547 -23.7575 357.819 9.64146C357.819 79.2235 357.819 148.804 357.819 218.385C238.547 184.986 119.273 251.784 0.00075 218.385C-0.00025 148.804 -0.00025 79.2235 0.00075 9.64146Z" fill="white"/>
</mask>
<g mask="url(#mask2_12_6292)">
<path d="M18.2177 13.9905C101.02 100.035 183.822 142.709 266.624 209.056C290.948 208.106 315.271 209.2 339.596 214.035C256.792 127.992 173.99 85.3205 91.1858 18.9715C66.8628 19.9205 42.5407 18.8265 18.2177 13.9905Z" fill="#010101"/>
</g>
</svg>
