<svg width="128" height="128" viewBox="0 0 128 128" fill="none" xmlns="http://www.w3.org/2000/svg">
<path d="M114 54C114 26.3858 91.6142 4 64 4C36.3858 4 14 26.3858 14 54V74C14 101.614 36.3858 124 64 124C91.6142 124 114 101.614 114 74V54Z" fill="#F1F2F2"/>
<path d="M18.17 94C25.88 111.66 43.5 124 64 124C84.5 124 102.12 111.66 109.83 94H18.17Z" fill="#D87A1D"/>
<path d="M47 69H46.56C42.38 69 39 65.61 39 61.44C39 57.33 35.67 54 31.56 54H26.5C22.91 54 20 56.91 20 60.5C20 64.09 22.91 67 26.5 67C27.88 67 29 68.12 29 69.5C29 77.66 35.31 84.35 50.24 86.69C51.58 86.9 52.95 87 54.31 87H78L47 69Z" fill="#EA9232"/>
<path d="M47 69H46.56C42.39 69 39 65.61 39 61.44C39 59.38 38.17 57.52 36.82 56.18C35.48 54.83 33.62 54 31.56 54H29.5C30.19 54 30.82 54.28 31.27 54.73C31.72 55.18 32 55.81 32 56.5C32 60.78 33.74 64.66 36.54 67.46C39.34 70.26 43.22 72 47.5 72H51.31L47 69Z" fill="#BA6111"/>
<path d="M28.5 61C29.3284 61 30 60.3284 30 59.5C30 58.6716 29.3284 58 28.5 58C27.6716 58 27 58.6716 27 59.5C27 60.3284 27.6716 61 28.5 61Z" fill="#414042"/>
<path d="M67 88V94H109.83C110.68 92.06 111.41 90.06 112.01 88H67Z" fill="#BA6111"/>
<path d="M57.92 85H64.89C70.19 85 74.5 89.31 74.5 94.61C74.5 95.93 73.43 97 72.11 97H65.24C60.41 97 56.49 93.08 56.49 88.25V86.41C56.49 85.63 57.13 84.99 57.91 84.99L57.92 85Z" fill="#F3A950"/>
<path d="M103 88H94C94 92.97 98.03 97 103 97H108.4C109.21 95.43 109.95 93.82 110.59 92.17C109 89.66 106.19 88 103 88Z" fill="#F3A950"/>
<path d="M80.26 48C65.3 48 52.72 56.57 47 69.5L53.03 76.31C59.61 83.74 61.07 88 71 88H112.01C113.31 83.56 114 78.86 114 74V70.34C108.36 57.2 95.38 48 80.26 48Z" fill="#F3A950"/>
<path d="M97.67 57.41L100.34 54.0099C99.78 53.6399 99.2 53.2799 98.62 52.9399L96.09 56.1699L94.85 57.75L91.56 61.9399L76.69 60.08L74.43 54.9L73.62 53.07L71.82 48.95C71.16 49.1 70.5 49.2699 69.86 49.4599L71.71 53.6899C67.68 55.2599 58.8 60.02 54.06 72.65C53.87 73.17 54.13 73.74 54.65 73.94C54.76 73.98 54.88 74 55 74C55.4 74 55.79 73.7499 55.94 73.3499C60.39 61.4799 68.89 56.98 72.52 55.54L74.9 60.99L64.1 83.57C63.86 84.07 64.07 84.66 64.57 84.9C64.71 84.97 64.85 85 65 85C65.37 85 65.73 84.79 65.9 84.43L76.59 62.08L91.13 63.9L94.06 83H96.09L93.06 63.2799L96.42 59C100.31 62.36 106.99 69.9999 109.01 84.1399C109.08 84.6399 109.51 85 110 85C110.05 85 110.09 84.9999 110.14 84.9899C110.69 84.9099 111.07 84.41 110.99 83.86C108.86 68.93 101.84 60.94 97.67 57.41Z" fill="#D87A1D"/>
<path d="M71 82.0001C65.6 82.0001 64.75 80.9701 60.67 76.0401C59.76 74.9401 58.72 73.6901 57.52 72.3301L50.31 63.5701C49.04 65.4201 47.93 67.4001 47 69.5001L53.03 76.3101C59.61 83.7401 61.07 88.0001 71 88.0001H112.01C112.58 86.0501 113.03 84.0501 113.36 82.0001H71Z" fill="#D87A1D"/>
<path d="M38 102C40.2091 102 42 101.105 42 100C42 98.8954 40.2091 98 38 98C35.7909 98 34 98.8954 34 100C34 101.105 35.7909 102 38 102Z" fill="#BA6111"/>
<path d="M81 112C82.1046 112 83 111.328 83 110.5C83 109.672 82.1046 109 81 109C79.8954 109 79 109.672 79 110.5C79 111.328 79.8954 112 81 112Z" fill="#BA6111"/>
<path d="M94 104C95.6569 104 97 103.328 97 102.5C97 101.672 95.6569 101 94 101C92.3431 101 91 101.672 91 102.5C91 103.328 92.3431 104 94 104Z" fill="#BA6111"/>
<path d="M60 116C61.6569 116 63 115.328 63 114.5C63 113.672 61.6569 113 60 113C58.3431 113 57 113.672 57 114.5C57 115.328 58.3431 116 60 116Z" fill="#BA6111"/>
<path d="M63 105C65.2091 105 67 104.328 67 103.5C67 102.672 65.2091 102 63 102C60.7909 102 59 102.672 59 103.5C59 104.328 60.7909 105 63 105Z" fill="#BA6111"/>
</svg>
