<svg width="358" height="229" viewBox="0 0 358 229" fill="none" xmlns="http://www.w3.org/2000/svg">
<mask id="mask0_3_4224" style="mask-type:luminance" maskUnits="userSpaceOnUse" x="0" y="0" width="358" height="229">
<path d="M0 9.64088C119.28 43.0379 238.562 -23.7561 357.842 9.64088C357.842 79.2179 357.842 148.794 357.842 218.371C238.562 184.974 119.28 251.768 0 218.371C0 148.794 0 79.2169 0 9.64088Z" fill="white"/>
</mask>
<g mask="url(#mask0_3_4224)">
<path d="M0 218.371C119.28 251.768 238.562 184.974 357.842 218.371C357.842 148.794 357.842 79.2179 357.842 9.64088C238.562 -23.7561 119.28 43.0379 0 9.64088C0 79.2169 0 148.794 0 218.371Z" fill="#7DA5D7"/>
</g>
<mask id="mask1_3_4224" style="mask-type:luminance" maskUnits="userSpaceOnUse" x="0" y="0" width="358" height="229">
<path d="M0 9.64088C119.28 43.0379 238.562 -23.7561 357.842 9.64088C357.842 79.2179 357.842 148.794 357.842 218.371C238.562 184.974 119.28 251.768 0 218.371C0 148.794 0 79.2169 0 9.64088Z" fill="white"/>
</mask>
<g mask="url(#mask1_3_4224)">
<path fill-rule="evenodd" clip-rule="evenodd" d="M343.514 57.6759C340.077 54.5789 336.642 51.5579 333.205 48.6089C329.778 50.3759 326.351 52.2129 322.924 54.1179C324.237 50.4869 325.55 46.8669 326.863 43.2559C323.435 40.4029 320.009 37.6189 316.582 34.8979C320.815 35.3619 325.048 35.9229 329.281 36.5909C330.589 32.9959 331.897 29.4109 333.205 25.8369C334.527 29.8639 335.85 33.9019 337.173 37.9519C341.406 38.7459 345.641 39.6509 349.873 40.6769C346.446 42.1919 343.019 43.7849 339.592 45.4519C340.9 49.5159 342.206 53.5899 343.514 57.6759Z" fill="#F4D130"/>
</g>
<mask id="mask2_3_4224" style="mask-type:luminance" maskUnits="userSpaceOnUse" x="0" y="0" width="358" height="229">
<path d="M0 9.64088C119.28 43.0379 238.562 -23.7561 357.842 9.64088C357.842 79.2179 357.842 148.794 357.842 218.371C238.562 184.974 119.28 251.768 0 218.371C0 148.794 0 79.2169 0 9.64088Z" fill="white"/>
</mask>
<g mask="url(#mask2_3_4224)">
<path fill-rule="evenodd" clip-rule="evenodd" d="M311.532 143.782C308.108 141.112 304.683 138.504 301.26 135.952C297.822 138.118 294.387 140.34 290.951 142.614C292.256 138.842 293.56 135.077 294.865 131.32C291.438 128.852 288.011 126.437 284.584 124.07C288.826 124.098 293.068 124.2 297.311 124.386C298.627 120.644 299.944 116.91 301.26 113.184C302.565 117.058 303.869 120.939 305.174 124.829C309.425 125.123 313.677 125.507 317.928 125.989C314.484 127.942 311.038 129.96 307.594 132.038C308.907 135.944 310.22 139.858 311.532 143.782Z" fill="#F4D130"/>
</g>
<mask id="mask3_3_4224" style="mask-type:luminance" maskUnits="userSpaceOnUse" x="0" y="0" width="358" height="229">
<path d="M0 9.64088C119.28 43.0379 238.562 -23.7561 357.842 9.64088C357.842 79.2179 357.842 148.794 357.842 218.371C238.562 184.974 119.28 251.768 0 218.371C0 148.794 0 79.2169 0 9.64088Z" fill="white"/>
</mask>
<g mask="url(#mask3_3_4224)">
<path fill-rule="evenodd" clip-rule="evenodd" d="M343.514 128.015C340.077 124.917 336.642 121.896 333.205 118.947C329.778 120.714 326.351 122.552 322.924 124.457C324.237 120.826 325.55 117.205 326.863 113.594C323.435 110.75 320.009 107.974 316.582 105.262C320.815 105.722 325.048 106.279 329.281 106.942C330.589 103.343 331.897 99.7539 333.205 96.1749C334.527 100.207 335.85 104.249 337.173 108.303C341.406 109.101 345.641 110.011 349.873 111.041C346.446 112.547 343.019 114.131 339.592 115.79C340.9 119.854 342.206 123.929 343.514 128.015Z" fill="#F4D130"/>
</g>
<mask id="mask4_3_4224" style="mask-type:luminance" maskUnits="userSpaceOnUse" x="0" y="0" width="358" height="229">
<path d="M0 9.64088C119.28 43.0379 238.562 -23.7561 357.842 9.64088C357.842 79.2179 357.842 148.794 357.842 218.371C238.562 184.974 119.28 251.768 0 218.371C0 148.794 0 79.2169 0 9.64088Z" fill="white"/>
</mask>
<g mask="url(#mask4_3_4224)">
<path fill-rule="evenodd" clip-rule="evenodd" d="M206.02 193.801C202.592 191.898 199.166 190.007 195.739 188.124C192.303 190.942 188.866 193.769 185.43 196.598C186.735 192.617 188.039 188.635 189.344 184.655C185.908 182.781 182.471 180.912 179.035 179.043C183.277 178.458 187.519 177.873 191.762 177.297C193.088 173.306 194.412 169.316 195.739 165.326C197.053 168.955 198.366 172.586 199.68 176.218C203.912 175.641 208.147 175.078 212.379 174.539C208.943 177.319 205.508 180.115 202.072 182.922C203.388 186.546 204.704 190.173 206.02 193.801Z" fill="#F4D130"/>
</g>
<mask id="mask5_3_4224" style="mask-type:luminance" maskUnits="userSpaceOnUse" x="0" y="0" width="358" height="229">
<path d="M0 9.64088C119.28 43.0379 238.562 -23.7561 357.842 9.64088C357.842 79.2179 357.842 148.794 357.842 218.371C238.562 184.974 119.28 251.768 0 218.371C0 148.794 0 79.2169 0 9.64088Z" fill="white"/>
</mask>
<g mask="url(#mask5_3_4224)">
<path fill-rule="evenodd" clip-rule="evenodd" d="M222.188 119.597C225.624 121.555 229.059 123.532 232.496 125.535C235.933 122.829 239.37 120.148 242.806 117.497C241.48 121.411 240.156 125.33 238.829 129.252C242.272 131.276 245.718 133.328 249.163 135.413C244.911 135.733 240.661 136.103 236.41 136.514C235.105 140.444 233.801 144.378 232.496 148.316C231.188 144.646 229.88 140.979 228.573 137.316C224.325 137.774 220.077 138.266 215.829 138.785C219.263 136.021 222.695 133.275 226.128 130.551C224.814 126.895 223.5 123.245 222.188 119.597Z" fill="#F4D130"/>
</g>
<mask id="mask6_3_4224" style="mask-type:luminance" maskUnits="userSpaceOnUse" x="0" y="0" width="358" height="229">
<path d="M0 9.64088C119.28 43.0379 238.562 -23.7561 357.842 9.64088C357.842 79.2179 357.842 148.794 357.842 218.371C238.562 184.974 119.28 251.768 0 218.371C0 148.794 0 79.2169 0 9.64088Z" fill="white"/>
</mask>
<g mask="url(#mask6_3_4224)">
<path fill-rule="evenodd" clip-rule="evenodd" d="M259.762 64.3359C263.189 66.5029 266.616 68.7069 270.044 70.9539C273.481 68.4949 276.917 66.0769 280.354 63.7069C279.046 67.5089 277.738 71.3169 276.43 75.1329C279.868 77.4289 283.303 79.7709 286.739 82.1619C282.496 82.1039 278.254 82.1229 274.01 82.2099C272.688 86.0459 271.365 89.8899 270.044 93.7389C268.739 89.9709 267.435 86.2089 266.129 82.4529C261.897 82.6279 257.662 82.8639 253.43 83.1529C256.866 80.5729 260.303 78.0279 263.739 75.5229C262.413 71.7879 261.087 68.0589 259.762 64.3359Z" fill="#F4D130"/>
</g>
<mask id="mask7_3_4224" style="mask-type:luminance" maskUnits="userSpaceOnUse" x="0" y="0" width="358" height="229">
<path d="M0 9.64088C119.28 43.0379 238.562 -23.7561 357.842 9.64088C357.842 79.2179 357.842 148.794 357.842 218.371C238.562 184.974 119.28 251.768 0 218.371C0 148.794 0 79.2169 0 9.64088Z" fill="white"/>
</mask>
<g mask="url(#mask7_3_4224)">
<path fill-rule="evenodd" clip-rule="evenodd" d="M291.375 53.0219C294.808 55.4609 298.241 57.9519 301.674 60.5009C305.092 58.3479 308.511 56.2509 311.93 54.2159C310.625 57.8909 309.321 61.5749 308.016 65.2679C311.443 67.8909 314.87 70.5719 318.297 73.3189C314.055 72.8229 309.813 72.4249 305.57 72.1179C304.261 75.8389 302.953 79.5689 301.646 83.3059C300.333 79.4169 299.018 75.5359 297.705 71.6639C293.463 71.4819 289.221 71.3829 284.978 71.3599C288.415 69.0329 291.85 66.7559 295.287 64.5319C293.983 60.6879 292.679 56.8509 291.375 53.0219Z" fill="#F4D130"/>
</g>
<mask id="mask8_3_4224" style="mask-type:luminance" maskUnits="userSpaceOnUse" x="0" y="0" width="358" height="229">
<path d="M0 9.64088C119.28 43.0379 238.562 -23.7561 357.842 9.64088C357.842 79.2179 357.842 148.794 357.842 218.371C238.562 184.974 119.28 251.768 0 218.371C0 148.794 0 79.2169 0 9.64088Z" fill="white"/>
</mask>
<g mask="url(#mask8_3_4224)">
<path fill-rule="evenodd" clip-rule="evenodd" d="M259.762 143.467C263.189 145.644 266.616 147.859 270.044 150.115C273.481 147.645 276.917 145.218 280.354 142.837C279.046 146.648 277.738 150.465 276.43 154.289C279.868 156.587 283.303 158.93 286.739 161.323C282.496 161.265 278.254 161.284 274.01 161.371C272.688 165.194 271.365 169.024 270.044 172.861C268.739 169.106 267.435 165.358 266.129 161.615C261.897 161.79 257.662 162.026 253.43 162.315C256.866 159.734 260.303 157.188 263.739 154.681C262.413 150.936 261.087 147.199 259.762 143.467Z" fill="#F4D130"/>
</g>
<mask id="mask9_3_4224" style="mask-type:luminance" maskUnits="userSpaceOnUse" x="0" y="0" width="358" height="229">
<path d="M0 9.64088C119.28 43.0379 238.562 -23.7561 357.842 9.64088C357.842 79.2179 357.842 148.794 357.842 218.371C238.562 184.974 119.28 251.768 0 218.371C0 148.794 0 79.2169 0 9.64088Z" fill="white"/>
</mask>
<g mask="url(#mask9_3_4224)">
<path fill-rule="evenodd" clip-rule="evenodd" d="M222.188 155.989C225.624 157.942 229.059 159.916 232.496 161.914C235.933 159.212 239.37 156.536 242.806 153.889C241.48 157.799 240.156 161.713 238.829 165.632C242.272 167.662 245.718 169.72 249.163 171.811C244.911 172.125 240.661 172.489 236.41 172.894C235.105 176.824 233.801 180.758 232.496 184.696C231.188 181.026 229.88 177.359 228.573 173.696C224.325 174.159 220.077 174.657 215.829 175.182C219.263 172.412 222.695 169.661 226.128 166.93C224.814 163.279 223.5 159.632 222.188 155.989Z" fill="#F4D130"/>
</g>
<mask id="mask10_3_4224" style="mask-type:luminance" maskUnits="userSpaceOnUse" x="0" y="0" width="358" height="229">
<path d="M0 9.64088C119.28 43.0379 238.562 -23.7561 357.842 9.64088C357.842 79.2179 357.842 148.794 357.842 218.371C238.562 184.974 119.28 251.768 0 218.371C0 148.794 0 79.2169 0 9.64088Z" fill="white"/>
</mask>
<g mask="url(#mask10_3_4224)">
<path d="M0 99.1099C59.643 115.809 119.287 107.459 178.93 99.1089C178.93 69.2859 178.93 39.4629 178.93 9.63988C119.287 17.9899 59.643 26.3409 0 9.64088C0 39.4639 0 69.2869 0 99.1099Z" fill="#2B3279"/>
</g>
<mask id="mask11_3_4224" style="mask-type:luminance" maskUnits="userSpaceOnUse" x="0" y="0" width="358" height="229">
<path d="M0 9.64088C119.28 43.0379 238.562 -23.7561 357.842 9.64088C357.842 79.2179 357.842 148.794 357.842 218.371C238.562 184.974 119.28 251.768 0 218.371C0 148.794 0 79.2169 0 9.64088Z" fill="white"/>
</mask>
<g mask="url(#mask11_3_4224)">
<path d="M158.92 12.4059C105.946 46.0279 52.974 77.4399 0 89.0919C0 92.4309 0 95.7709 0 99.1099C6.67 100.977 13.338 102.531 20.008 103.807C72.982 87.4489 125.955 53.5399 178.93 19.6309C178.93 16.2999 178.93 12.9699 178.93 9.63889C172.26 10.5729 165.59 11.5069 158.92 12.4059Z" fill="white"/>
</g>
<mask id="mask12_3_4224" style="mask-type:luminance" maskUnits="userSpaceOnUse" x="0" y="0" width="358" height="229">
<path d="M0 9.64088C119.28 43.0379 238.562 -23.7561 357.842 9.64088C357.842 79.2179 357.842 148.794 357.842 218.371C238.562 184.974 119.28 251.768 0 218.371C0 148.794 0 79.2169 0 9.64088Z" fill="white"/>
</mask>
<g mask="url(#mask12_3_4224)">
<path d="M0 9.64088C0 12.9719 0 16.3029 0 19.6329C52.973 60.9569 105.946 82.5209 158.92 101.875C165.59 100.976 172.26 100.042 178.93 99.1079C178.93 95.7689 178.93 92.4289 178.93 89.0899C125.955 70.0229 72.982 50.9559 20.008 14.3379C13.339 13.0619 6.669 11.5079 0 9.64088Z" fill="white"/>
</g>
<mask id="mask13_3_4224" style="mask-type:luminance" maskUnits="userSpaceOnUse" x="0" y="0" width="358" height="229">
<path d="M0 9.64088C119.28 43.0379 238.562 -23.7561 357.842 9.64088C357.842 79.2179 357.842 148.794 357.842 218.371C238.562 184.974 119.28 251.768 0 218.371C0 148.794 0 79.2169 0 9.64088Z" fill="white"/>
</mask>
<g mask="url(#mask13_3_4224)">
<path d="M74.541 19.2799C74.541 29.2159 74.541 39.1529 74.541 49.0889C49.695 49.0159 24.848 46.4069 0 39.4499C0 49.3929 0 59.3369 0 69.2809C24.848 76.2379 49.694 78.8469 74.541 78.9199C74.541 88.8629 74.541 98.8069 74.541 108.75C84.48 108.779 94.42 108.403 104.359 107.736C104.359 97.7929 104.359 87.8489 104.359 77.9059C129.216 76.2389 154.072 72.7589 178.929 69.2789C178.929 59.3359 178.929 49.3919 178.929 39.4479C154.072 42.9279 129.216 46.4079 104.359 48.0749C104.359 38.1379 104.359 28.2019 104.359 18.2659C94.42 18.9329 84.481 19.3089 74.541 19.2799Z" fill="white"/>
</g>
<mask id="mask14_3_4224" style="mask-type:luminance" maskUnits="userSpaceOnUse" x="0" y="0" width="358" height="229">
<path d="M0 9.64088C119.28 43.0379 238.562 -23.7561 357.842 9.64088C357.842 79.2179 357.842 148.794 357.842 218.371C238.562 184.974 119.28 251.768 0 218.371C0 148.794 0 79.2169 0 9.64088Z" fill="white"/>
</mask>
<g mask="url(#mask14_3_4224)">
<path d="M80.506 19.2489C80.506 31.1749 80.506 43.0999 80.506 55.0249C53.67 55.3719 26.836 52.9299 0 45.4159C0 51.3759 0 57.3369 0 63.2969C26.836 70.8109 53.672 73.2529 80.506 72.9059C80.506 84.8439 80.506 96.7809 80.506 108.718C86.467 108.641 92.428 108.426 98.389 108.099C98.389 96.1619 98.389 84.2249 98.389 72.2869C125.235 70.8129 152.083 67.0549 178.93 63.2959C178.93 57.3359 178.93 51.3749 178.93 45.4149C152.083 49.1739 125.235 52.9319 98.389 54.4059C98.389 42.4809 98.389 30.5549 98.389 18.6299C92.428 18.9579 86.467 19.1719 80.506 19.2489Z" fill="#C01F41"/>
</g>
<mask id="mask15_3_4224" style="mask-type:luminance" maskUnits="userSpaceOnUse" x="0" y="0" width="358" height="229">
<path d="M0 9.64088C119.28 43.0379 238.562 -23.7561 357.842 9.64088C357.842 79.2179 357.842 148.794 357.842 218.371C238.562 184.974 119.28 251.768 0 218.371C0 148.794 0 79.2169 0 9.64088Z" fill="white"/>
</mask>
<g mask="url(#mask15_3_4224)">
<path fill-rule="evenodd" clip-rule="evenodd" d="M105.961 47.9649C110.405 47.6529 114.851 47.2839 119.295 46.8689C139.172 35.0769 159.052 22.3579 178.93 9.63889C174.479 10.2619 170.03 10.8849 165.578 11.4979C145.705 24.1699 125.834 36.6339 105.961 47.9649Z" fill="#C01F41"/>
</g>
<mask id="mask16_3_4224" style="mask-type:luminance" maskUnits="userSpaceOnUse" x="0" y="0" width="358" height="229">
<path d="M0 9.64088C119.28 43.0379 238.562 -23.7561 357.842 9.64088C357.842 79.2179 357.842 148.794 357.842 218.371C238.562 184.974 119.28 251.768 0 218.371C0 148.794 0 79.2169 0 9.64088Z" fill="white"/>
</mask>
<g mask="url(#mask16_3_4224)">
<path d="M0 16.2949C15.442 28.3369 30.884 38.6989 46.326 47.8169C50.761 48.2189 55.196 48.5189 59.633 48.7259C39.755 37.8619 19.878 25.1429 0 9.64088C0 11.8589 0 14.0769 0 16.2949Z" fill="#C01F41"/>
</g>
<mask id="mask17_3_4224" style="mask-type:luminance" maskUnits="userSpaceOnUse" x="0" y="0" width="358" height="229">
<path d="M0 9.64088C119.28 43.0379 238.562 -23.7561 357.842 9.64088C357.842 79.2179 357.842 148.794 357.842 218.371C238.562 184.974 119.28 251.768 0 218.371C0 148.794 0 79.2169 0 9.64088Z" fill="white"/>
</mask>
<g mask="url(#mask17_3_4224)">
<path fill-rule="evenodd" clip-rule="evenodd" d="M178.93 99.1079C178.93 96.8809 178.93 94.6549 178.93 92.4279C163.487 86.8729 148.045 81.3179 132.604 75.3279C128.168 75.8249 123.731 76.2849 119.295 76.6989C139.172 84.7879 159.052 91.9479 178.93 99.1079Z" fill="#C01F41"/>
</g>
<mask id="mask18_3_4224" style="mask-type:luminance" maskUnits="userSpaceOnUse" x="0" y="0" width="358" height="229">
<path d="M0 9.64088C119.28 43.0379 238.562 -23.7561 357.842 9.64088C357.842 79.2179 357.842 148.794 357.842 218.371C238.562 184.974 119.28 251.768 0 218.371C0 148.794 0 79.2169 0 9.64088Z" fill="white"/>
</mask>
<g mask="url(#mask18_3_4224)">
<path d="M59.633 78.5559C39.755 87.5719 19.878 94.7319 0 99.1099C4.441 100.354 8.883 101.458 13.324 102.434C33.202 96.8589 53.081 88.7089 72.959 78.9109C68.517 78.8779 64.075 78.7639 59.633 78.5559Z" fill="#C01F41"/>
</g>
</svg>
