<svg width="358" height="229" viewBox="0 0 358 229" fill="none" xmlns="http://www.w3.org/2000/svg">
<mask id="mask0_12_6265" style="mask-type:luminance" maskUnits="userSpaceOnUse" x="0" y="0" width="358" height="229">
<path d="M0 9.64146C119.281 43.0405 238.562 -23.7575 357.843 9.64146C357.843 79.2235 357.843 148.804 357.843 218.385C238.563 184.986 119.281 251.784 0 218.385C0 148.804 0 79.2235 0 9.64146Z" fill="white"/>
</mask>
<g mask="url(#mask0_12_6265)">
<path d="M0 218.386C119.281 251.785 238.562 184.987 357.843 218.386C357.843 213.035 357.843 207.684 357.843 202.333C238.563 168.934 119.281 235.732 0 202.333C0 207.684 0 213.034 0 218.386Z" fill="#CB2128"/>
</g>
<mask id="mask1_12_6265" style="mask-type:luminance" maskUnits="userSpaceOnUse" x="0" y="0" width="358" height="229">
<path d="M0 9.64146C119.281 43.0405 238.562 -23.7575 357.843 9.64146C357.843 79.2235 357.843 148.804 357.843 218.385C238.563 184.986 119.281 251.784 0 218.385C0 148.804 0 79.2235 0 9.64146Z" fill="white"/>
</mask>
<g mask="url(#mask1_12_6265)">
<path d="M0 202.333C119.281 235.732 238.562 168.934 357.843 202.333C357.843 196.982 357.843 191.632 357.843 186.281C238.563 152.882 119.281 219.68 0 186.281C0 191.632 0 196.982 0 202.333Z" fill="white"/>
</g>
<mask id="mask2_12_6265" style="mask-type:luminance" maskUnits="userSpaceOnUse" x="0" y="0" width="358" height="229">
<path d="M0 9.64146C119.281 43.0405 238.562 -23.7575 357.843 9.64146C357.843 79.2235 357.843 148.804 357.843 218.385C238.563 184.986 119.281 251.784 0 218.385C0 148.804 0 79.2235 0 9.64146Z" fill="white"/>
</mask>
<g mask="url(#mask2_12_6265)">
<path d="M0 186.281C119.281 219.68 238.562 152.882 357.843 186.281C357.843 180.933 357.843 175.585 357.843 170.238C238.563 136.839 119.281 203.637 0 170.238C0 175.585 0 180.933 0 186.281Z" fill="#CB2128"/>
</g>
<mask id="mask3_12_6265" style="mask-type:luminance" maskUnits="userSpaceOnUse" x="0" y="0" width="358" height="229">
<path d="M0 9.64146C119.281 43.0405 238.562 -23.7575 357.843 9.64146C357.843 79.2235 357.843 148.804 357.843 218.385C238.563 184.986 119.281 251.784 0 218.385C0 148.804 0 79.2235 0 9.64146Z" fill="white"/>
</mask>
<g mask="url(#mask3_12_6265)">
<path d="M0 170.238C119.281 203.637 238.562 136.839 357.843 170.238C357.843 164.883 357.843 159.528 357.843 154.173C238.563 120.774 119.281 187.572 0 154.173C0 159.527 0 164.883 0 170.238Z" fill="white"/>
</g>
<mask id="mask4_12_6265" style="mask-type:luminance" maskUnits="userSpaceOnUse" x="0" y="0" width="358" height="229">
<path d="M0 9.64146C119.281 43.0405 238.562 -23.7575 357.843 9.64146C357.843 79.2235 357.843 148.804 357.843 218.385C238.563 184.986 119.281 251.784 0 218.385C0 148.804 0 79.2235 0 9.64146Z" fill="white"/>
</mask>
<g mask="url(#mask4_12_6265)">
<path d="M0 154.173C119.281 187.572 238.562 120.774 357.843 154.173C357.843 148.818 357.843 143.463 357.843 138.108C238.563 104.709 119.281 171.507 0 138.108C0 143.463 0 148.818 0 154.173Z" fill="#CB2128"/>
</g>
<mask id="mask5_12_6265" style="mask-type:luminance" maskUnits="userSpaceOnUse" x="0" y="0" width="358" height="229">
<path d="M0 9.64146C119.281 43.0405 238.562 -23.7575 357.843 9.64146C357.843 79.2235 357.843 148.804 357.843 218.385C238.563 184.986 119.281 251.784 0 218.385C0 148.804 0 79.2235 0 9.64146Z" fill="white"/>
</mask>
<g mask="url(#mask5_12_6265)">
<path d="M0 138.107C119.281 171.506 238.562 104.708 357.843 138.107C357.843 132.761 357.843 127.414 357.843 122.068C238.563 88.6695 119.281 155.467 0 122.068C0 127.414 0 132.761 0 138.107Z" fill="white"/>
</g>
<mask id="mask6_12_6265" style="mask-type:luminance" maskUnits="userSpaceOnUse" x="0" y="0" width="358" height="229">
<path d="M0 9.64146C119.281 43.0405 238.562 -23.7575 357.843 9.64146C357.843 79.2235 357.843 148.804 357.843 218.385C238.563 184.986 119.281 251.784 0 218.385C0 148.804 0 79.2235 0 9.64146Z" fill="white"/>
</mask>
<g mask="url(#mask6_12_6265)">
<path d="M0 122.068C119.281 155.467 238.562 88.6695 357.843 122.068C357.843 116.709 357.843 111.349 357.843 105.99C238.563 72.5915 119.281 139.389 0 105.99C0 111.349 0 116.709 0 122.068Z" fill="#CB2128"/>
</g>
<mask id="mask7_12_6265" style="mask-type:luminance" maskUnits="userSpaceOnUse" x="0" y="0" width="358" height="229">
<path d="M0 9.64146C119.281 43.0405 238.562 -23.7575 357.843 9.64146C357.843 79.2235 357.843 148.804 357.843 218.385C238.563 184.986 119.281 251.784 0 218.385C0 148.804 0 79.2235 0 9.64146Z" fill="white"/>
</mask>
<g mask="url(#mask7_12_6265)">
<path d="M0 105.99C119.281 139.389 238.562 72.5915 357.843 105.99C357.843 100.638 357.843 95.2855 357.843 89.9335C238.563 56.5345 119.281 123.332 0 89.9335C0 95.2855 0 100.638 0 105.99Z" fill="white"/>
</g>
<mask id="mask8_12_6265" style="mask-type:luminance" maskUnits="userSpaceOnUse" x="0" y="0" width="358" height="229">
<path d="M0 9.64146C119.281 43.0405 238.562 -23.7575 357.843 9.64146C357.843 79.2235 357.843 148.804 357.843 218.385C238.563 184.986 119.281 251.784 0 218.385C0 148.804 0 79.2235 0 9.64146Z" fill="white"/>
</mask>
<g mask="url(#mask8_12_6265)">
<path d="M0 89.9335C119.281 123.332 238.562 56.5345 357.843 89.9335C357.843 84.5875 357.843 79.2415 357.843 73.8945C238.563 40.4955 119.281 107.293 0 73.8945C0 79.2415 0 84.5875 0 89.9335Z" fill="#CB2128"/>
</g>
<mask id="mask9_12_6265" style="mask-type:luminance" maskUnits="userSpaceOnUse" x="0" y="0" width="358" height="229">
<path d="M0 9.64146C119.281 43.0405 238.562 -23.7575 357.843 9.64146C357.843 79.2235 357.843 148.804 357.843 218.385C238.563 184.986 119.281 251.784 0 218.385C0 148.804 0 79.2235 0 9.64146Z" fill="white"/>
</mask>
<g mask="url(#mask9_12_6265)">
<path d="M0 73.8944C119.281 107.293 238.562 40.4954 357.843 73.8944C357.843 68.5394 357.843 63.1844 357.843 57.8294C238.563 24.4305 119.281 91.2284 0 57.8294C0 63.1844 0 68.5394 0 73.8944Z" fill="white"/>
</g>
<mask id="mask10_12_6265" style="mask-type:luminance" maskUnits="userSpaceOnUse" x="0" y="0" width="358" height="229">
<path d="M0 9.64146C119.281 43.0405 238.562 -23.7575 357.843 9.64146C357.843 79.2235 357.843 148.804 357.843 218.385C238.563 184.986 119.281 251.784 0 218.385C0 148.804 0 79.2235 0 9.64146Z" fill="white"/>
</mask>
<g mask="url(#mask10_12_6265)">
<path d="M0 57.8294C119.281 91.2284 238.562 24.4305 357.843 57.8294C357.843 52.4744 357.843 47.1194 357.843 41.7644C238.563 8.36545 119.281 75.1634 0 41.7644C0 47.1194 0 52.4744 0 57.8294Z" fill="#CB2128"/>
</g>
<mask id="mask11_12_6265" style="mask-type:luminance" maskUnits="userSpaceOnUse" x="0" y="0" width="358" height="229">
<path d="M0 9.64146C119.281 43.0405 238.562 -23.7575 357.843 9.64146C357.843 79.2235 357.843 148.804 357.843 218.385C238.563 184.986 119.281 251.784 0 218.385C0 148.804 0 79.2235 0 9.64146Z" fill="white"/>
</mask>
<g mask="url(#mask11_12_6265)">
<path d="M0 41.7644C119.281 75.1634 238.562 8.36545 357.843 41.7644C357.843 36.4134 357.843 31.0624 357.843 25.7124C238.563 -7.68655 119.281 59.1114 0 25.7124C0 31.0624 0 36.4134 0 41.7644Z" fill="white"/>
</g>
<mask id="mask12_12_6265" style="mask-type:luminance" maskUnits="userSpaceOnUse" x="0" y="0" width="358" height="229">
<path d="M0 9.64146C119.281 43.0405 238.562 -23.7575 357.843 9.64146C357.843 79.2235 357.843 148.804 357.843 218.385C238.563 184.986 119.281 251.784 0 218.385C0 148.804 0 79.2235 0 9.64146Z" fill="white"/>
</mask>
<g mask="url(#mask12_12_6265)">
<path d="M0 25.7124C119.281 59.1114 238.562 -7.68656 357.843 25.7124C357.843 20.3554 357.843 14.9994 357.843 9.64244C238.563 -23.7566 119.281 43.0414 0 9.64244C0 14.9984 0 20.3554 0 25.7124Z" fill="#CB2128"/>
</g>
<mask id="mask13_12_6265" style="mask-type:luminance" maskUnits="userSpaceOnUse" x="0" y="0" width="358" height="229">
<path d="M0 9.64146C119.281 43.0405 238.562 -23.7575 357.843 9.64146C357.843 79.2235 357.843 148.804 357.843 218.385C238.563 184.986 119.281 251.784 0 218.385C0 148.804 0 79.2235 0 9.64146Z" fill="white"/>
</mask>
<g mask="url(#mask13_12_6265)">
<path d="M0 122.068C54.475 137.321 108.95 131.676 163.426 124.221C163.426 86.7455 163.426 49.2705 163.426 11.7945C108.95 19.2495 54.475 24.8945 0 9.64148C0 47.1175 0 84.5935 0 122.068Z" fill="#2C3661"/>
</g>
<mask id="mask14_12_6265" style="mask-type:luminance" maskUnits="userSpaceOnUse" x="0" y="0" width="358" height="229">
<path d="M0 9.64146C119.281 43.0405 238.562 -23.7575 357.843 9.64146C357.843 79.2235 357.843 148.804 357.843 218.385C238.563 184.986 119.281 251.784 0 218.385C0 148.804 0 79.2235 0 9.64146Z" fill="white"/>
</mask>
<g mask="url(#mask14_12_6265)">
<path d="M14.752 25.6735C15.218 27.1935 15.685 28.7125 16.15 30.2295C17.639 30.5385 19.128 30.8335 20.617 31.1145C19.415 31.7605 18.214 32.3965 17.012 33.0235C17.47 34.5325 17.927 36.0415 18.385 37.5485C17.174 36.4315 15.963 35.3055 14.752 34.1705C13.544 34.7895 12.335 35.3985 11.127 35.9975C11.599 34.6895 12.071 33.3805 12.543 32.0695C11.335 30.9275 10.128 29.7765 8.92 28.6155C10.4 28.9695 11.881 29.3085 13.361 29.6345C13.825 28.3145 14.289 26.9945 14.752 25.6735Z" fill="white"/>
</g>
<mask id="mask15_12_6265" style="mask-type:luminance" maskUnits="userSpaceOnUse" x="0" y="0" width="358" height="229">
<path d="M0 9.64146C119.281 43.0405 238.562 -23.7575 357.843 9.64146C357.843 79.2235 357.843 148.804 357.843 218.385C238.563 184.986 119.281 251.784 0 218.385C0 148.804 0 79.2235 0 9.64146Z" fill="white"/>
</mask>
<g mask="url(#mask15_12_6265)">
<path d="M14.752 44.4484C15.218 45.9594 15.685 47.4694 16.15 48.9774C17.639 49.2864 19.128 49.5814 20.617 49.8624C19.415 50.5034 18.214 51.1354 17.012 51.7584C17.47 53.2764 17.927 54.7934 18.385 56.3084C17.174 55.1924 15.963 54.0664 14.752 52.9314C13.544 53.5504 12.335 54.1594 11.127 54.7584C11.599 53.4414 12.071 52.1234 12.543 50.8044C11.335 49.6664 10.128 48.5194 8.92 47.3634C10.4 47.7174 11.881 48.0564 13.361 48.3824C13.825 47.0714 14.289 45.7614 14.752 44.4484Z" fill="white"/>
</g>
<mask id="mask16_12_6265" style="mask-type:luminance" maskUnits="userSpaceOnUse" x="0" y="0" width="358" height="229">
<path d="M0 9.64146C119.281 43.0405 238.562 -23.7575 357.843 9.64146C357.843 79.2235 357.843 148.804 357.843 218.385C238.563 184.986 119.281 251.784 0 218.385C0 148.804 0 79.2235 0 9.64146Z" fill="white"/>
</mask>
<g mask="url(#mask16_12_6265)">
<path d="M14.752 63.2004C15.218 64.7144 15.685 66.2274 16.15 67.7394C17.639 68.0484 19.128 68.3434 20.617 68.6244C19.415 69.2704 18.214 69.9064 17.012 70.5334C17.47 72.0474 17.927 73.5594 18.385 75.0714C17.174 73.9544 15.963 72.8284 14.752 71.6934C13.544 72.3124 12.335 72.9214 11.127 73.5204C11.599 72.2084 12.071 70.8944 12.543 69.5794C11.335 68.4374 10.128 67.2864 8.92 66.1254C10.4 66.4794 11.881 66.8184 13.361 67.1444C13.825 65.8304 14.289 64.5164 14.752 63.2004Z" fill="white"/>
</g>
<mask id="mask17_12_6265" style="mask-type:luminance" maskUnits="userSpaceOnUse" x="0" y="0" width="358" height="229">
<path d="M0 9.64146C119.281 43.0405 238.562 -23.7575 357.843 9.64146C357.843 79.2235 357.843 148.804 357.843 218.385C238.563 184.986 119.281 251.784 0 218.385C0 148.804 0 79.2235 0 9.64146Z" fill="white"/>
</mask>
<g mask="url(#mask17_12_6265)">
<path d="M14.752 81.9614C15.218 83.4754 15.685 84.9884 16.15 86.4994C17.639 86.8084 19.128 87.1034 20.617 87.3844C19.415 88.0334 18.214 88.6754 17.012 89.3064C17.47 90.8114 17.927 92.3154 18.385 93.8184C17.174 92.7104 15.963 91.5934 14.752 90.4664C13.544 91.0764 12.335 91.6764 11.127 92.2674C11.599 90.9634 12.071 89.6594 12.543 88.3524C11.335 87.2064 10.128 86.0504 8.92 84.8854C10.4 85.2394 11.881 85.5784 13.361 85.9044C13.825 84.5914 14.289 83.2774 14.752 81.9614Z" fill="white"/>
</g>
<mask id="mask18_12_6265" style="mask-type:luminance" maskUnits="userSpaceOnUse" x="0" y="0" width="358" height="229">
<path d="M0 9.64146C119.281 43.0405 238.562 -23.7575 357.843 9.64146C357.843 79.2235 357.843 148.804 357.843 218.385C238.563 184.986 119.281 251.784 0 218.385C0 148.804 0 79.2235 0 9.64146Z" fill="white"/>
</mask>
<g mask="url(#mask18_12_6265)">
<path d="M14.752 100.722C15.218 102.241 15.685 103.758 16.15 105.274C17.639 105.583 19.128 105.878 20.617 106.159C19.415 106.8 18.214 107.432 17.012 108.055C17.47 109.569 17.927 111.081 18.385 112.592C17.174 111.476 15.963 110.35 14.752 109.215C13.544 109.834 12.335 110.443 11.127 111.042C11.599 109.73 12.071 108.416 12.543 107.101C11.335 105.964 10.128 104.817 8.92 103.66C10.4 104.014 11.881 104.353 13.361 104.679C13.825 103.361 14.289 102.042 14.752 100.722Z" fill="white"/>
</g>
<mask id="mask19_12_6265" style="mask-type:luminance" maskUnits="userSpaceOnUse" x="0" y="0" width="358" height="229">
<path d="M0 9.64146C119.281 43.0405 238.562 -23.7575 357.843 9.64146C357.843 79.2235 357.843 148.804 357.843 218.385C238.563 184.986 119.281 251.784 0 218.385C0 148.804 0 79.2235 0 9.64146Z" fill="white"/>
</mask>
<g mask="url(#mask19_12_6265)">
<path d="M27.82 37.9844C28.266 39.4744 28.712 40.9634 29.158 42.4514C30.66 42.6824 32.161 42.9014 33.662 43.1064C32.46 43.8234 31.259 44.5314 30.057 45.2314C30.511 46.7114 30.966 48.1904 31.42 49.6684C30.22 48.6224 29.021 47.5664 27.82 46.5034C26.618 47.1834 25.417 47.8554 24.215 48.5184C24.673 47.1864 25.13 45.8524 25.588 44.5184C24.386 43.4344 23.184 42.3424 21.981 41.2414C23.474 41.5144 24.967 41.7744 26.46 42.0204C26.913 40.6764 27.366 39.3314 27.82 37.9844Z" fill="white"/>
</g>
<mask id="mask20_12_6265" style="mask-type:luminance" maskUnits="userSpaceOnUse" x="0" y="0" width="358" height="229">
<path d="M0 9.64146C119.281 43.0405 238.562 -23.7575 357.843 9.64146C357.843 79.2235 357.843 148.804 357.843 218.385C238.563 184.986 119.281 251.784 0 218.385C0 148.804 0 79.2235 0 9.64146Z" fill="white"/>
</mask>
<g mask="url(#mask20_12_6265)">
<path d="M27.82 56.7595C28.266 58.2445 28.712 59.7295 29.158 61.2135C30.66 61.4445 32.161 61.6635 33.662 61.8695C32.46 62.5815 31.259 63.2855 30.057 63.9805C30.511 65.4605 30.966 66.9395 31.42 68.4175C30.22 67.3755 29.021 66.3245 27.82 65.2655C26.618 65.9415 25.417 66.6095 24.215 67.2675C24.673 65.9355 25.13 64.6025 25.588 63.2675C24.386 62.1885 23.184 61.1005 21.981 60.0035C23.474 60.2765 24.967 60.5365 26.46 60.7825C26.913 59.4425 27.366 58.1015 27.82 56.7595Z" fill="white"/>
</g>
<mask id="mask21_12_6265" style="mask-type:luminance" maskUnits="userSpaceOnUse" x="0" y="0" width="358" height="229">
<path d="M0 9.64146C119.281 43.0405 238.562 -23.7575 357.843 9.64146C357.843 79.2235 357.843 148.804 357.843 218.385C238.563 184.986 119.281 251.784 0 218.385C0 148.804 0 79.2235 0 9.64146Z" fill="white"/>
</mask>
<g mask="url(#mask21_12_6265)">
<path d="M27.82 75.5195C28.266 77.0055 28.712 78.4905 29.158 79.9735C30.66 80.2055 32.161 80.4235 33.662 80.6295C32.46 81.3375 31.259 82.0365 30.057 82.7275C30.511 84.2165 30.966 85.7045 31.42 87.1905C30.22 86.1395 29.021 85.0805 27.82 84.0115C26.618 84.6965 25.417 85.3725 24.215 86.0405C24.673 84.6995 25.13 83.3575 25.588 82.0145C24.386 80.9395 23.184 79.8555 21.981 78.7635C23.474 79.0365 24.967 79.2965 26.46 79.5425C26.913 78.2025 27.366 76.8625 27.82 75.5195Z" fill="white"/>
</g>
<mask id="mask22_12_6265" style="mask-type:luminance" maskUnits="userSpaceOnUse" x="0" y="0" width="358" height="229">
<path d="M0 9.64146C119.281 43.0405 238.562 -23.7575 357.843 9.64146C357.843 79.2235 357.843 148.804 357.843 218.385C238.563 184.986 119.281 251.784 0 218.385C0 148.804 0 79.2235 0 9.64146Z" fill="white"/>
</mask>
<g mask="url(#mask22_12_6265)">
<path d="M27.82 94.2944C28.266 95.7754 28.712 97.2564 29.158 98.7344C30.66 98.9654 32.161 99.1844 33.662 99.3894C32.46 100.101 31.259 100.806 30.057 101.501C30.511 102.981 30.966 104.46 31.42 105.938C30.22 104.887 29.021 103.828 27.82 102.759C26.618 103.444 25.417 104.12 24.215 104.788C24.673 103.456 25.13 102.122 25.588 100.788C24.386 99.7084 23.184 98.6214 21.981 97.5244C23.474 97.7974 24.967 98.0574 26.46 98.3034C26.913 96.9684 27.366 95.6324 27.82 94.2944Z" fill="white"/>
</g>
<mask id="mask23_12_6265" style="mask-type:luminance" maskUnits="userSpaceOnUse" x="0" y="0" width="358" height="229">
<path d="M0 9.64146C119.281 43.0405 238.562 -23.7575 357.843 9.64146C357.843 79.2235 357.843 148.804 357.843 218.385C238.563 184.986 119.281 251.784 0 218.385C0 148.804 0 79.2235 0 9.64146Z" fill="white"/>
</mask>
<g mask="url(#mask23_12_6265)">
<path d="M41.023 29.8774C41.495 31.3494 41.967 32.8205 42.439 34.2905C43.928 34.4465 45.418 34.5894 46.908 34.7224C45.7 35.4874 44.493 36.2444 43.285 36.9944C43.748 38.4574 44.211 39.9194 44.674 41.3804C43.457 40.3864 42.24 39.3845 41.024 38.3745C39.831 39.1205 38.637 39.8584 37.444 40.5894C37.901 39.2294 38.359 37.8684 38.817 36.5054C37.615 35.4924 36.414 34.4705 35.212 33.4415C36.691 33.6355 38.172 33.8165 39.651 33.9865C40.108 32.6175 40.565 31.2484 41.023 29.8774Z" fill="white"/>
</g>
<mask id="mask24_12_6265" style="mask-type:luminance" maskUnits="userSpaceOnUse" x="0" y="0" width="358" height="229">
<path d="M0 9.64146C119.281 43.0405 238.562 -23.7575 357.843 9.64146C357.843 79.2235 357.843 148.804 357.843 218.385C238.563 184.986 119.281 251.784 0 218.385C0 148.804 0 79.2235 0 9.64146Z" fill="white"/>
</mask>
<g mask="url(#mask24_12_6265)">
<path d="M41.023 48.6525C41.495 50.1155 41.967 51.5775 42.439 53.0385C43.928 53.1945 45.418 53.3375 46.908 53.4705C45.7 54.2315 44.493 54.9845 43.285 55.7305C43.748 57.2025 44.211 58.6725 44.674 60.1425C43.457 59.1485 42.24 58.1465 41.024 57.1365C39.831 57.8825 38.637 58.6205 37.444 59.3515C37.901 57.9825 38.359 56.6125 38.817 55.2415C37.615 54.2325 36.414 53.2155 35.212 52.1895C36.691 52.3835 38.172 52.5645 39.651 52.7345C40.108 51.3745 40.565 50.0135 41.023 48.6525Z" fill="white"/>
</g>
<mask id="mask25_12_6265" style="mask-type:luminance" maskUnits="userSpaceOnUse" x="0" y="0" width="358" height="229">
<path d="M0 9.64146C119.281 43.0405 238.562 -23.7575 357.843 9.64146C357.843 79.2235 357.843 148.804 357.843 218.385C238.563 184.986 119.281 251.784 0 218.385C0 148.804 0 79.2235 0 9.64146Z" fill="white"/>
</mask>
<g mask="url(#mask25_12_6265)">
<path d="M41.023 67.4045C41.495 68.8715 41.967 70.3365 42.439 71.8005C43.928 71.9565 45.418 72.0995 46.908 72.2325C45.7 72.9975 44.493 73.7545 43.285 74.5045C43.748 75.9715 44.211 77.4385 44.674 78.9025C43.457 77.9085 42.24 76.9065 41.024 75.8965C39.831 76.6425 38.637 77.3805 37.444 78.1115C37.901 76.7475 38.359 75.3815 38.817 74.0145C37.615 73.0015 36.414 71.9795 35.212 70.9505C36.691 71.1445 38.172 71.3255 39.651 71.4955C40.108 70.1335 40.565 68.7695 41.023 67.4045Z" fill="white"/>
</g>
<mask id="mask26_12_6265" style="mask-type:luminance" maskUnits="userSpaceOnUse" x="0" y="0" width="358" height="229">
<path d="M0 9.64146C119.281 43.0405 238.562 -23.7575 357.843 9.64146C357.843 79.2235 357.843 148.804 357.843 218.385C238.563 184.986 119.281 251.784 0 218.385C0 148.804 0 79.2235 0 9.64146Z" fill="white"/>
</mask>
<g mask="url(#mask26_12_6265)">
<path d="M41.023 86.1655C41.495 87.6315 41.967 89.0965 42.439 90.5605C43.928 90.7165 45.418 90.8595 46.908 90.9925C45.7 91.7625 44.493 92.5235 43.285 93.2785C43.748 94.7365 44.211 96.1945 44.674 97.6515C43.457 96.6665 42.24 95.6735 41.024 94.6725C39.831 95.4095 38.637 96.1395 37.444 96.8605C37.901 95.5055 38.359 94.1485 38.817 92.7905C37.615 91.7725 36.414 90.7465 35.212 89.7125C36.691 89.9065 38.172 90.0875 39.651 90.2575C40.108 88.8935 40.565 87.5305 41.023 86.1655Z" fill="white"/>
</g>
<mask id="mask27_12_6265" style="mask-type:luminance" maskUnits="userSpaceOnUse" x="0" y="0" width="358" height="229">
<path d="M0 9.64146C119.281 43.0405 238.562 -23.7575 357.843 9.64146C357.843 79.2235 357.843 148.804 357.843 218.385C238.563 184.986 119.281 251.784 0 218.385C0 148.804 0 79.2235 0 9.64146Z" fill="white"/>
</mask>
<g mask="url(#mask27_12_6265)">
<path d="M41.023 104.927C41.495 106.398 41.967 107.867 42.439 109.336C43.928 109.492 45.418 109.635 46.908 109.768C45.7 110.529 44.493 111.282 43.285 112.027C43.748 113.494 44.211 114.96 44.674 116.425C43.457 115.431 42.24 114.429 41.024 113.419C39.831 114.165 38.637 114.903 37.444 115.634C37.901 114.27 38.359 112.904 38.817 111.538C37.615 110.529 36.414 109.512 35.212 108.486C36.691 108.68 38.172 108.861 39.651 109.031C40.108 107.664 40.565 106.296 41.023 104.927Z" fill="white"/>
</g>
<mask id="mask28_12_6265" style="mask-type:luminance" maskUnits="userSpaceOnUse" x="0" y="0" width="358" height="229">
<path d="M0 9.64146C119.281 43.0405 238.562 -23.7575 357.843 9.64146C357.843 79.2235 357.843 148.804 357.843 218.385C238.563 184.986 119.281 251.784 0 218.385C0 148.804 0 79.2235 0 9.64146Z" fill="white"/>
</mask>
<g mask="url(#mask28_12_6265)">
<path d="M54.111 40.8875C54.569 42.3365 55.026 43.7835 55.484 45.2305C56.981 45.3205 58.479 45.3985 59.978 45.4675C58.77 46.2935 57.563 47.1125 56.355 47.9245C56.818 49.3625 57.281 50.7995 57.744 52.2365C56.533 51.3005 55.322 50.3574 54.111 49.4064C52.912 50.2014 51.713 50.9894 50.513 51.7704C50.977 50.3944 51.44 49.0174 51.904 47.6384C50.687 46.6704 49.47 45.6944 48.254 44.7114C49.752 44.8374 51.25 44.9515 52.748 45.0555C53.202 43.6665 53.657 42.2785 54.111 40.8875Z" fill="white"/>
</g>
<mask id="mask29_12_6265" style="mask-type:luminance" maskUnits="userSpaceOnUse" x="0" y="0" width="358" height="229">
<path d="M0 9.64146C119.281 43.0405 238.562 -23.7575 357.843 9.64146C357.843 79.2235 357.843 148.804 357.843 218.385C238.563 184.986 119.281 251.784 0 218.385C0 148.804 0 79.2235 0 9.64146Z" fill="white"/>
</mask>
<g mask="url(#mask29_12_6265)">
<path d="M54.111 59.6625C54.569 61.1065 55.026 62.5505 55.484 63.9925C56.981 64.0825 58.479 64.1605 59.978 64.2295C58.77 65.0515 57.563 65.8655 56.355 66.6735C56.818 68.1115 57.281 69.5485 57.744 70.9855C56.533 70.0535 55.322 69.1155 54.111 68.1695C52.912 68.9605 51.713 69.7435 50.513 70.5195C50.977 69.1435 51.44 67.7665 51.904 66.3875C50.687 65.4235 49.47 64.4525 48.254 63.4735C49.752 63.5995 51.25 63.7135 52.748 63.8165C53.202 62.4325 53.657 61.0485 54.111 59.6625Z" fill="white"/>
</g>
<mask id="mask30_12_6265" style="mask-type:luminance" maskUnits="userSpaceOnUse" x="0" y="0" width="358" height="229">
<path d="M0 9.64146C119.281 43.0405 238.562 -23.7575 357.843 9.64146C357.843 79.2235 357.843 148.804 357.843 218.385C238.563 184.986 119.281 251.784 0 218.385C0 148.804 0 79.2235 0 9.64146Z" fill="white"/>
</mask>
<g mask="url(#mask30_12_6265)">
<path d="M54.111 78.4244C54.569 79.8684 55.026 81.3114 55.484 82.7534C56.981 82.8434 58.479 82.9214 59.978 82.9904C58.77 83.8074 57.563 84.6174 56.355 85.4214C56.818 86.8684 57.281 88.3144 57.744 89.7594C56.533 88.8194 55.322 87.8714 54.111 86.9174C52.912 87.7164 51.713 88.5084 50.513 89.2934C50.977 87.9084 51.44 86.5224 51.904 85.1344C50.687 84.1754 49.47 83.2084 48.254 82.2334C49.752 82.3594 51.25 82.4734 52.748 82.5764C53.202 81.1934 53.657 79.8084 54.111 78.4244Z" fill="white"/>
</g>
<mask id="mask31_12_6265" style="mask-type:luminance" maskUnits="userSpaceOnUse" x="0" y="0" width="358" height="229">
<path d="M0 9.64146C119.281 43.0405 238.562 -23.7575 357.843 9.64146C357.843 79.2235 357.843 148.804 357.843 218.385C238.563 184.986 119.281 251.784 0 218.385C0 148.804 0 79.2235 0 9.64146Z" fill="white"/>
</mask>
<g mask="url(#mask31_12_6265)">
<path d="M54.111 97.1984C54.569 98.6374 55.026 100.076 55.484 101.513C56.981 101.603 58.479 101.681 59.978 101.75C58.77 102.572 57.563 103.386 56.355 104.194C56.818 105.632 57.281 107.069 57.744 108.506C56.533 107.566 55.322 106.618 54.111 105.664C52.912 106.463 51.713 107.255 50.513 108.04C50.977 106.664 51.44 105.286 51.904 103.908C50.687 102.944 49.47 101.973 48.254 100.994C49.752 101.12 51.25 101.234 52.748 101.338C53.202 99.9594 53.657 98.5794 54.111 97.1984Z" fill="white"/>
</g>
<mask id="mask32_12_6265" style="mask-type:luminance" maskUnits="userSpaceOnUse" x="0" y="0" width="358" height="229">
<path d="M0 9.64146C119.281 43.0405 238.562 -23.7575 357.843 9.64146C357.843 79.2235 357.843 148.804 357.843 218.385C238.563 184.986 119.281 251.784 0 218.385C0 148.804 0 79.2235 0 9.64146Z" fill="white"/>
</mask>
<g mask="url(#mask32_12_6265)">
<path d="M67.34 31.5854C67.815 33.0174 68.29 34.4474 68.766 35.8774C70.239 35.9054 71.709 35.9244 73.182 35.9344C71.97 36.7984 70.759 37.6565 69.547 38.5085C70.03 39.9335 70.515 41.3564 71 42.7794C69.779 41.8864 68.56 40.9885 67.34 40.0835C66.141 40.9325 64.942 41.7744 63.742 42.6104C64.197 41.2094 64.652 39.8084 65.107 38.4054C63.916 37.4974 62.726 36.5834 61.535 35.6624C63.016 35.7234 64.497 35.7734 65.978 35.8134C66.433 34.4044 66.886 32.9954 67.34 31.5854Z" fill="white"/>
</g>
<mask id="mask33_12_6265" style="mask-type:luminance" maskUnits="userSpaceOnUse" x="0" y="0" width="358" height="229">
<path d="M0 9.64146C119.281 43.0405 238.562 -23.7575 357.843 9.64146C357.843 79.2235 357.843 148.804 357.843 218.385C238.563 184.986 119.281 251.784 0 218.385C0 148.804 0 79.2235 0 9.64146Z" fill="white"/>
</mask>
<g mask="url(#mask33_12_6265)">
<path d="M67.34 50.3605C67.815 51.7835 68.29 53.2055 68.766 54.6255C70.239 54.6535 71.709 54.6725 73.182 54.6825C71.97 55.5425 70.759 56.3965 69.547 57.2435C70.03 58.6765 70.515 60.1085 71 61.5395C69.779 60.6465 68.56 59.7485 67.34 58.8435C66.141 59.6925 64.942 60.5345 63.742 61.3705C64.197 59.9615 64.652 58.5515 65.107 57.1405C63.916 56.2365 62.726 55.3265 61.535 54.4105C63.016 54.4715 64.497 54.5215 65.978 54.5615C66.433 53.1615 66.886 51.7615 67.34 50.3605Z" fill="white"/>
</g>
<mask id="mask34_12_6265" style="mask-type:luminance" maskUnits="userSpaceOnUse" x="0" y="0" width="358" height="229">
<path d="M0 9.64146C119.281 43.0405 238.562 -23.7575 357.843 9.64146C357.843 79.2235 357.843 148.804 357.843 218.385C238.563 184.986 119.281 251.784 0 218.385C0 148.804 0 79.2235 0 9.64146Z" fill="white"/>
</mask>
<g mask="url(#mask34_12_6265)">
<path d="M67.34 69.1124C67.815 70.5384 68.29 71.9634 68.766 73.3864C70.239 73.4144 71.709 73.4334 73.182 73.4434C71.97 74.3074 70.759 75.1654 69.547 76.0174C70.03 77.4464 70.515 78.8734 71 80.3004C69.779 79.4074 68.56 78.5094 67.34 77.6044C66.141 78.4534 64.942 79.2954 63.742 80.1314C64.197 78.7264 64.652 77.3204 65.107 75.9144C63.916 75.0064 62.726 74.0924 61.535 73.1714C63.016 73.2324 64.497 73.2824 65.978 73.3224C66.433 71.9204 66.886 70.5164 67.34 69.1124Z" fill="white"/>
</g>
<mask id="mask35_12_6265" style="mask-type:luminance" maskUnits="userSpaceOnUse" x="0" y="0" width="358" height="229">
<path d="M0 9.64146C119.281 43.0405 238.562 -23.7575 357.843 9.64146C357.843 79.2235 357.843 148.804 357.843 218.385C238.563 184.986 119.281 251.784 0 218.385C0 148.804 0 79.2235 0 9.64146Z" fill="white"/>
</mask>
<g mask="url(#mask35_12_6265)">
<path d="M67.34 87.8735C67.815 89.2995 68.29 90.7245 68.766 92.1475C70.239 92.1755 71.709 92.1945 73.182 92.2045C71.97 93.0735 70.759 93.9355 69.547 94.7915C70.03 96.2115 70.515 97.6305 71 99.0485C69.779 98.1645 68.56 97.2755 67.34 96.3785C66.141 97.2185 64.942 98.0515 63.742 98.8785C64.197 97.4825 64.652 96.0855 65.107 94.6875C63.916 93.7745 62.726 92.8565 61.535 91.9315C63.016 91.9925 64.497 92.0425 65.978 92.0825C66.433 90.6805 66.886 89.2785 67.34 87.8735Z" fill="white"/>
</g>
<mask id="mask36_12_6265" style="mask-type:luminance" maskUnits="userSpaceOnUse" x="0" y="0" width="358" height="229">
<path d="M0 9.64146C119.281 43.0405 238.562 -23.7575 357.843 9.64146C357.843 79.2235 357.843 148.804 357.843 218.385C238.563 184.986 119.281 251.784 0 218.385C0 148.804 0 79.2235 0 9.64146Z" fill="white"/>
</mask>
<g mask="url(#mask36_12_6265)">
<path d="M67.34 106.634C67.815 108.064 68.29 109.493 68.766 110.922C70.239 110.95 71.709 110.969 73.182 110.979C71.97 111.839 70.759 112.692 69.547 113.54C70.03 114.969 70.515 116.396 71 117.823C69.779 116.93 68.56 116.032 67.34 115.127C66.141 115.976 64.942 116.818 63.742 117.654C64.197 116.249 64.652 114.843 65.107 113.437C63.916 112.533 62.726 111.624 61.535 110.707C63.016 110.768 64.497 110.818 65.978 110.858C66.433 109.45 66.886 108.043 67.34 106.634Z" fill="white"/>
</g>
<mask id="mask37_12_6265" style="mask-type:luminance" maskUnits="userSpaceOnUse" x="0" y="0" width="358" height="229">
<path d="M0 9.64146C119.281 43.0405 238.562 -23.7575 357.843 9.64146C357.843 79.2235 357.843 148.804 357.843 218.385C238.563 184.986 119.281 251.784 0 218.385C0 148.804 0 79.2235 0 9.64146Z" fill="white"/>
</mask>
<g mask="url(#mask37_12_6265)">
<path d="M80.438 41.5275C80.892 42.9415 81.346 44.3535 81.801 45.7655C83.293 45.7415 84.785 45.7085 86.278 45.6675C85.076 46.5815 83.875 47.4905 82.673 48.3935C83.12 49.7965 83.569 51.1995 84.017 52.6015C82.824 51.7555 81.631 50.9045 80.439 50.0465C79.237 50.9345 78.034 51.8165 76.832 52.6925C77.281 51.2795 77.73 49.8655 78.18 48.4505C76.978 47.5775 75.775 46.6995 74.573 45.8145C76.065 45.8185 77.557 45.8135 79.05 45.8005C79.51 44.3765 79.974 42.9525 80.438 41.5275Z" fill="white"/>
</g>
<mask id="mask38_12_6265" style="mask-type:luminance" maskUnits="userSpaceOnUse" x="0" y="0" width="358" height="229">
<path d="M0 9.64146C119.281 43.0405 238.562 -23.7575 357.843 9.64146C357.843 79.2235 357.843 148.804 357.843 218.385C238.563 184.986 119.281 251.784 0 218.385C0 148.804 0 79.2235 0 9.64146Z" fill="white"/>
</mask>
<g mask="url(#mask38_12_6265)">
<path d="M80.438 60.3024C80.892 61.7114 81.346 63.1194 81.801 64.5274C83.293 64.5034 84.785 64.4704 86.278 64.4294C85.076 65.3384 83.875 66.2424 82.673 67.1414C83.12 68.5444 83.569 69.9474 84.017 71.3494C82.824 70.5074 81.631 69.6614 80.439 68.8074C79.237 69.6904 78.034 70.5684 76.832 71.4404C77.281 70.0274 77.73 68.6134 78.18 67.1984C76.978 66.3304 75.775 65.4554 74.573 64.5754C76.065 64.5794 77.557 64.5744 79.05 64.5614C79.51 63.1424 79.974 61.7224 80.438 60.3024Z" fill="white"/>
</g>
<mask id="mask39_12_6265" style="mask-type:luminance" maskUnits="userSpaceOnUse" x="0" y="0" width="358" height="229">
<path d="M0 9.64146C119.281 43.0405 238.562 -23.7575 357.843 9.64146C357.843 79.2235 357.843 148.804 357.843 218.385C238.563 184.986 119.281 251.784 0 218.385C0 148.804 0 79.2235 0 9.64146Z" fill="white"/>
</mask>
<g mask="url(#mask39_12_6265)">
<path d="M80.438 79.0635C80.892 80.4725 81.346 81.8805 81.801 83.2875C83.293 83.2635 84.785 83.2305 86.278 83.1895C85.076 84.0945 83.875 84.9945 82.673 85.8885C83.12 87.3005 83.569 88.7125 84.017 90.1225C82.824 89.2715 81.631 88.4165 80.439 87.5545C79.237 88.4465 78.034 89.3325 76.832 90.2135C77.281 88.7915 77.73 87.3685 78.18 85.9445C76.978 85.0805 75.775 84.2105 74.573 83.3355C76.065 83.3395 77.557 83.3345 79.05 83.3215C79.51 81.9035 79.974 80.4835 80.438 79.0635Z" fill="white"/>
</g>
<mask id="mask40_12_6265" style="mask-type:luminance" maskUnits="userSpaceOnUse" x="0" y="0" width="358" height="229">
<path d="M0 9.64146C119.281 43.0405 238.562 -23.7575 357.843 9.64146C357.843 79.2235 357.843 148.804 357.843 218.385C238.563 184.986 119.281 251.784 0 218.385C0 148.804 0 79.2235 0 9.64146Z" fill="white"/>
</mask>
<g mask="url(#mask40_12_6265)">
<path d="M80.438 97.8375C80.892 99.2425 81.346 100.645 81.801 102.048C83.293 102.024 84.785 101.991 86.278 101.95C85.076 102.86 83.875 103.764 82.673 104.663C83.12 106.066 83.569 107.469 84.017 108.871C82.824 108.02 81.631 107.165 80.439 106.303C79.237 107.195 78.034 108.081 76.832 108.962C77.281 107.548 77.73 106.134 78.18 104.72C76.978 103.851 75.775 102.977 74.573 102.097C76.065 102.101 77.557 102.096 79.05 102.083C79.51 100.669 79.974 99.2545 80.438 97.8375Z" fill="white"/>
</g>
<mask id="mask41_12_6265" style="mask-type:luminance" maskUnits="userSpaceOnUse" x="0" y="0" width="358" height="229">
<path d="M0 9.64146C119.281 43.0405 238.562 -23.7575 357.843 9.64146C357.843 79.2235 357.843 148.804 357.843 218.385C238.563 184.986 119.281 251.784 0 218.385C0 148.804 0 79.2235 0 9.64146Z" fill="white"/>
</mask>
<g mask="url(#mask41_12_6265)">
<path d="M93.639 31.2665C94.102 32.6655 94.567 34.0655 95.03 35.4635C96.51 35.3925 97.991 35.3155 99.471 35.2305C98.272 36.1715 97.073 37.1075 95.873 38.0395C96.345 39.4325 96.817 40.8245 97.289 42.2155C96.072 41.4025 94.855 40.5855 93.639 39.7625C92.446 40.6925 91.252 41.6175 90.059 42.5375C90.508 41.1045 90.955 39.6715 91.405 38.2375C90.203 37.4125 89.001 36.5835 87.799 35.7485C89.289 35.7025 90.778 35.6475 92.269 35.5865C92.725 34.1475 93.182 32.7075 93.639 31.2665Z" fill="white"/>
</g>
<mask id="mask42_12_6265" style="mask-type:luminance" maskUnits="userSpaceOnUse" x="0" y="0" width="358" height="229">
<path d="M0 9.64146C119.281 43.0405 238.562 -23.7575 357.843 9.64146C357.843 79.2235 357.843 148.804 357.843 218.385C238.563 184.986 119.281 251.784 0 218.385C0 148.804 0 79.2235 0 9.64146Z" fill="white"/>
</mask>
<g mask="url(#mask42_12_6265)">
<path d="M93.639 50.0414C94.102 51.4324 94.567 52.8224 95.03 54.2124C96.51 54.1414 97.991 54.0644 99.471 53.9794C98.272 54.9164 97.073 55.8485 95.873 56.7755C96.345 58.1765 96.817 59.5774 97.289 60.9774C96.072 60.1644 94.855 59.3474 93.639 58.5244C92.446 59.4544 91.252 60.3795 90.059 61.2995C90.508 59.8585 90.955 58.4164 91.405 56.9734C90.203 56.1534 89.001 55.3274 87.799 54.4964C89.289 54.4504 90.778 54.3954 92.269 54.3344C92.725 52.9044 93.182 51.4734 93.639 50.0414Z" fill="white"/>
</g>
<mask id="mask43_12_6265" style="mask-type:luminance" maskUnits="userSpaceOnUse" x="0" y="0" width="358" height="229">
<path d="M0 9.64146C119.281 43.0405 238.562 -23.7575 357.843 9.64146C357.843 79.2235 357.843 148.804 357.843 218.385C238.563 184.986 119.281 251.784 0 218.385C0 148.804 0 79.2235 0 9.64146Z" fill="white"/>
</mask>
<g mask="url(#mask43_12_6265)">
<path d="M93.639 68.7935C94.102 70.1875 94.567 71.5815 95.03 72.9735C96.51 72.9025 97.991 72.8255 99.471 72.7405C98.272 73.6815 97.073 74.6175 95.873 75.5495C96.345 76.9465 96.817 78.3425 97.289 79.7385C96.072 78.9255 94.855 78.1085 93.639 77.2855C92.446 78.2155 91.252 79.1405 90.059 80.0605C90.508 78.6235 90.955 77.1865 91.405 75.7485C90.203 74.9235 89.001 74.0945 87.799 73.2595C89.289 73.2135 90.778 73.1585 92.269 73.0975C92.725 71.6635 93.182 70.2285 93.639 68.7935Z" fill="white"/>
</g>
<mask id="mask44_12_6265" style="mask-type:luminance" maskUnits="userSpaceOnUse" x="0" y="0" width="358" height="229">
<path d="M0 9.64146C119.281 43.0405 238.562 -23.7575 357.843 9.64146C357.843 79.2235 357.843 148.804 357.843 218.385C238.563 184.986 119.281 251.784 0 218.385C0 148.804 0 79.2235 0 9.64146Z" fill="white"/>
</mask>
<g mask="url(#mask44_12_6265)">
<path d="M93.639 87.5544C94.102 88.9484 94.567 90.3415 95.03 91.7345C96.51 91.6635 97.991 91.5864 99.471 91.5014C98.272 92.4464 97.073 93.3874 95.873 94.3234C96.345 95.7114 96.817 97.0995 97.289 98.4865C96.072 97.6825 94.855 96.8734 93.639 96.0604C92.446 96.9814 91.252 97.8974 90.059 98.8094C90.508 97.3814 90.955 95.9525 91.405 94.5235C90.203 93.6935 89.001 92.8594 87.799 92.0204C89.289 91.9744 90.778 91.9204 92.269 91.8584C92.725 90.4244 93.182 88.9904 93.639 87.5544Z" fill="white"/>
</g>
<mask id="mask45_12_6265" style="mask-type:luminance" maskUnits="userSpaceOnUse" x="0" y="0" width="358" height="229">
<path d="M0 9.64146C119.281 43.0405 238.562 -23.7575 357.843 9.64146C357.843 79.2235 357.843 148.804 357.843 218.385C238.563 184.986 119.281 251.784 0 218.385C0 148.804 0 79.2235 0 9.64146Z" fill="white"/>
</mask>
<g mask="url(#mask45_12_6265)">
<path d="M93.639 106.315C94.102 107.713 94.567 109.111 95.03 110.508C96.51 110.437 97.991 110.36 99.471 110.275C98.272 111.212 97.073 112.144 95.873 113.071C96.345 114.468 96.817 115.864 97.289 117.26C96.072 116.447 94.855 115.63 93.639 114.807C92.446 115.737 91.252 116.662 90.059 117.582C90.508 116.145 90.955 114.708 91.405 113.27C90.203 112.449 89.001 111.624 87.799 110.793C89.289 110.747 90.778 110.692 92.269 110.631C92.725 109.194 93.182 107.755 93.639 106.315Z" fill="white"/>
</g>
<mask id="mask46_12_6265" style="mask-type:luminance" maskUnits="userSpaceOnUse" x="0" y="0" width="358" height="229">
<path d="M0 9.64146C119.281 43.0405 238.562 -23.7575 357.843 9.64146C357.843 79.2235 357.843 148.804 357.843 218.385C238.563 184.986 119.281 251.784 0 218.385C0 148.804 0 79.2235 0 9.64146Z" fill="white"/>
</mask>
<g mask="url(#mask46_12_6265)">
<path d="M106.709 40.3804C107.172 41.7664 107.636 43.1514 108.1 44.5364C109.598 44.4254 111.096 44.3074 112.594 44.1844C111.387 45.1644 110.178 46.1414 108.971 47.1144C109.425 48.4914 109.88 49.8684 110.334 51.2444C109.125 50.4664 107.918 49.6854 106.709 48.8994C105.507 49.8574 104.306 50.8124 103.104 51.7614C103.567 50.3204 104.032 48.8774 104.495 47.4354C103.296 46.6344 102.097 45.8304 100.897 45.0214C102.385 44.9324 103.876 44.8354 105.364 44.7324C105.813 43.2824 106.261 41.8314 106.709 40.3804Z" fill="white"/>
</g>
<mask id="mask47_12_6265" style="mask-type:luminance" maskUnits="userSpaceOnUse" x="0" y="0" width="358" height="229">
<path d="M0 9.64146C119.281 43.0405 238.562 -23.7575 357.843 9.64146C357.843 79.2235 357.843 148.804 357.843 218.385C238.563 184.986 119.281 251.784 0 218.385C0 148.804 0 79.2235 0 9.64146Z" fill="white"/>
</mask>
<g mask="url(#mask47_12_6265)">
<path d="M106.709 59.1545C107.172 60.5365 107.636 61.9175 108.1 63.2975C109.598 63.1865 111.096 63.0685 112.594 62.9455C111.387 63.9215 110.178 64.8935 108.971 65.8625C109.425 67.2395 109.88 68.6165 110.334 69.9925C109.125 69.2195 107.918 68.4425 106.709 67.6605C105.507 68.6145 104.306 69.5645 103.104 70.5095C103.567 69.0685 104.032 67.6255 104.495 66.1835C103.296 65.3875 102.097 64.5875 100.897 63.7825C102.385 63.6935 103.876 63.5965 105.364 63.4935C105.813 62.0475 106.261 60.6015 106.709 59.1545Z" fill="white"/>
</g>
<mask id="mask48_12_6265" style="mask-type:luminance" maskUnits="userSpaceOnUse" x="0" y="0" width="358" height="229">
<path d="M0 9.64146C119.281 43.0405 238.562 -23.7575 357.843 9.64146C357.843 79.2235 357.843 148.804 357.843 218.385C238.563 184.986 119.281 251.784 0 218.385C0 148.804 0 79.2235 0 9.64146Z" fill="white"/>
</mask>
<g mask="url(#mask48_12_6265)">
<path d="M106.709 77.9155C107.172 79.2965 107.636 80.6775 108.1 82.0585C109.598 81.9475 111.096 81.8295 112.594 81.7065C111.387 82.6785 110.178 83.6455 108.971 84.6095C109.425 85.9955 109.88 87.3805 110.334 88.7665C109.125 87.9845 107.918 87.1985 106.709 86.4085C105.507 87.3715 104.306 88.3295 103.104 89.2835C103.567 87.8335 104.032 86.3825 104.495 84.9295C103.296 84.1385 102.097 83.3425 100.897 82.5425C102.385 82.4535 103.876 82.3565 105.364 82.2535C105.813 80.8085 106.261 79.3625 106.709 77.9155Z" fill="white"/>
</g>
<mask id="mask49_12_6265" style="mask-type:luminance" maskUnits="userSpaceOnUse" x="0" y="0" width="358" height="229">
<path d="M0 9.64146C119.281 43.0405 238.562 -23.7575 357.843 9.64146C357.843 79.2235 357.843 148.804 357.843 218.385C238.563 184.986 119.281 251.784 0 218.385C0 148.804 0 79.2235 0 9.64146Z" fill="white"/>
</mask>
<g mask="url(#mask49_12_6265)">
<path d="M106.709 96.6904C107.172 98.0674 107.636 99.4434 108.1 100.819C109.598 100.708 111.096 100.59 112.594 100.467C111.387 101.443 110.178 102.415 108.971 103.384C109.425 104.761 109.88 106.138 110.334 107.514C109.125 106.732 107.918 105.946 106.709 105.156C105.507 106.119 104.306 107.077 103.104 108.031C103.567 106.59 104.032 105.147 104.495 103.704C103.296 102.908 102.097 102.108 100.897 101.304C102.385 101.215 103.876 101.118 105.364 101.015C105.813 99.5744 106.261 98.1324 106.709 96.6904Z" fill="white"/>
</g>
<mask id="mask50_12_6265" style="mask-type:luminance" maskUnits="userSpaceOnUse" x="0" y="0" width="358" height="229">
<path d="M0 9.64146C119.281 43.0405 238.562 -23.7575 357.843 9.64146C357.843 79.2235 357.843 148.804 357.843 218.385C238.563 184.986 119.281 251.784 0 218.385C0 148.804 0 79.2235 0 9.64146Z" fill="white"/>
</mask>
<g mask="url(#mask50_12_6265)">
<path d="M119.957 29.3984C120.423 30.7744 120.89 32.1504 121.355 33.5264C122.835 33.3834 124.316 33.2354 125.796 33.0834C124.594 34.0794 123.391 35.0724 122.189 36.0624C122.647 37.4344 123.105 38.8044 123.562 40.1754C122.36 39.4194 121.158 38.6594 119.957 37.8954C118.767 38.8844 117.575 39.8704 116.385 40.8524C116.831 39.3964 117.277 37.9404 117.723 36.4834C116.524 35.7204 115.325 34.9534 114.125 34.1834C115.614 34.0574 117.104 33.9244 118.594 33.7874C119.048 32.3244 119.502 30.8614 119.957 29.3984Z" fill="white"/>
</g>
<mask id="mask51_12_6265" style="mask-type:luminance" maskUnits="userSpaceOnUse" x="0" y="0" width="358" height="229">
<path d="M0 9.64146C119.281 43.0405 238.562 -23.7575 357.843 9.64146C357.843 79.2235 357.843 148.804 357.843 218.385C238.563 184.986 119.281 251.784 0 218.385C0 148.804 0 79.2235 0 9.64146Z" fill="white"/>
</mask>
<g mask="url(#mask51_12_6265)">
<path d="M119.957 48.1725C120.423 49.5405 120.89 50.9075 121.355 52.2745C122.835 52.1315 124.316 51.9835 125.796 51.8315C124.594 52.8235 123.391 53.8125 122.189 54.7975C122.647 56.1775 123.105 57.5575 123.562 58.9365C122.36 58.1795 121.158 57.4195 119.957 56.6565C118.767 57.6455 117.575 58.6315 116.385 59.6135C116.831 58.1495 117.277 56.6845 117.723 55.2185C116.524 54.4595 115.325 53.6975 114.125 52.9305C115.614 52.8045 117.104 52.6715 118.594 52.5345C119.048 51.0815 119.502 49.6275 119.957 48.1725Z" fill="white"/>
</g>
<mask id="mask52_12_6265" style="mask-type:luminance" maskUnits="userSpaceOnUse" x="0" y="0" width="358" height="229">
<path d="M0 9.64146C119.281 43.0405 238.562 -23.7575 357.843 9.64146C357.843 79.2235 357.843 148.804 357.843 218.385C238.563 184.986 119.281 251.784 0 218.385C0 148.804 0 79.2235 0 9.64146Z" fill="white"/>
</mask>
<g mask="url(#mask52_12_6265)">
<path d="M119.957 66.9255C120.423 68.2965 120.89 69.6665 121.355 71.0365C122.835 70.8935 124.316 70.7455 125.796 70.5935C124.594 71.5895 123.391 72.5825 122.189 73.5725C122.647 74.9475 123.105 76.3235 123.562 77.6975C122.36 76.9415 121.158 76.1815 119.957 75.4175C118.767 76.4065 117.575 77.3925 116.385 78.3745C116.831 76.9145 117.277 75.4545 117.723 73.9935C116.524 73.2305 115.325 72.4635 114.125 71.6935C115.614 71.5675 117.104 71.4345 118.594 71.2975C119.048 69.8405 119.502 68.3835 119.957 66.9255Z" fill="white"/>
</g>
<mask id="mask53_12_6265" style="mask-type:luminance" maskUnits="userSpaceOnUse" x="0" y="0" width="358" height="229">
<path d="M0 9.64146C119.281 43.0405 238.562 -23.7575 357.843 9.64146C357.843 79.2235 357.843 148.804 357.843 218.385C238.563 184.986 119.281 251.784 0 218.385C0 148.804 0 79.2235 0 9.64146Z" fill="white"/>
</mask>
<g mask="url(#mask53_12_6265)">
<path d="M119.957 85.6865C120.423 87.0575 120.89 88.4275 121.355 89.7965C122.835 89.6535 124.316 89.5055 125.796 89.3535C124.594 90.3535 123.391 91.3515 122.189 92.3455C122.647 93.7125 123.105 95.0785 123.562 96.4455C122.36 95.6975 121.158 94.9465 119.957 94.1925C118.767 95.1725 117.575 96.1505 116.385 97.1235C116.831 95.6725 117.277 94.2205 117.723 92.7685C116.524 92.0005 115.325 91.2295 114.125 90.4555C115.614 90.3295 117.104 90.1965 118.594 90.0595C119.048 88.6005 119.502 87.1435 119.957 85.6865Z" fill="white"/>
</g>
<mask id="mask54_12_6265" style="mask-type:luminance" maskUnits="userSpaceOnUse" x="0" y="0" width="358" height="229">
<path d="M0 9.64146C119.281 43.0405 238.562 -23.7575 357.843 9.64146C357.843 79.2235 357.843 148.804 357.843 218.385C238.563 184.986 119.281 251.784 0 218.385C0 148.804 0 79.2235 0 9.64146Z" fill="white"/>
</mask>
<g mask="url(#mask54_12_6265)">
<path d="M119.957 104.448C120.423 105.823 120.89 107.198 121.355 108.572C122.835 108.429 124.316 108.281 125.796 108.129C124.594 109.121 123.391 110.109 122.189 111.095C122.647 112.47 123.105 113.846 123.562 115.22C122.36 114.463 121.158 113.703 119.957 112.94C118.767 113.929 117.575 114.915 116.385 115.897C116.831 114.437 117.277 112.977 117.723 111.516C116.524 110.757 115.325 109.995 114.125 109.229C115.614 109.103 117.104 108.97 118.594 108.833C119.048 107.371 119.502 105.91 119.957 104.448Z" fill="white"/>
</g>
<mask id="mask55_12_6265" style="mask-type:luminance" maskUnits="userSpaceOnUse" x="0" y="0" width="358" height="229">
<path d="M0 9.64146C119.281 43.0405 238.562 -23.7575 357.843 9.64146C357.843 79.2235 357.843 148.804 357.843 218.385C238.563 184.986 119.281 251.784 0 218.385C0 148.804 0 79.2235 0 9.64146Z" fill="white"/>
</mask>
<g mask="url(#mask55_12_6265)">
<path d="M133.027 37.9194C133.484 39.2874 133.941 40.6544 134.398 42.0214C135.887 41.8524 137.377 41.6784 138.867 41.5004C137.674 42.5234 136.48 43.5434 135.287 44.5624C135.736 45.9224 136.183 47.2824 136.633 48.6414C135.431 47.9094 134.23 47.1744 133.028 46.4374C131.821 47.4454 130.612 48.4504 129.405 49.4534C129.868 47.9924 130.331 46.5304 130.794 45.0674C129.601 44.3174 128.407 43.5644 127.214 42.8084C128.689 42.6534 130.163 42.4944 131.638 42.3314C132.101 40.8614 132.563 39.3904 133.027 37.9194Z" fill="white"/>
</g>
<mask id="mask56_12_6265" style="mask-type:luminance" maskUnits="userSpaceOnUse" x="0" y="0" width="358" height="229">
<path d="M0 9.64146C119.281 43.0405 238.562 -23.7575 357.843 9.64146C357.843 79.2235 357.843 148.804 357.843 218.385C238.563 184.986 119.281 251.784 0 218.385C0 148.804 0 79.2235 0 9.64146Z" fill="white"/>
</mask>
<g mask="url(#mask56_12_6265)">
<path d="M133.027 56.6945C133.484 58.0575 133.941 59.4205 134.398 60.7835C135.887 60.6145 137.377 60.4405 138.867 60.2625C137.674 61.2815 136.48 62.2975 135.287 63.3115C135.736 64.6715 136.183 66.0315 136.633 67.3905C135.431 66.6625 134.23 65.9325 133.028 65.1995C131.821 66.2025 130.612 67.2035 129.405 68.2015C129.868 66.7405 130.331 65.2785 130.794 63.8155C129.601 63.0695 128.407 62.3215 127.214 61.5695C128.689 61.4145 130.163 61.2555 131.638 61.0925C132.101 59.6275 132.563 58.1605 133.027 56.6945Z" fill="white"/>
</g>
<mask id="mask57_12_6265" style="mask-type:luminance" maskUnits="userSpaceOnUse" x="0" y="0" width="358" height="229">
<path d="M0 9.64146C119.281 43.0405 238.562 -23.7575 357.843 9.64146C357.843 79.2235 357.843 148.804 357.843 218.385C238.563 184.986 119.281 251.784 0 218.385C0 148.804 0 79.2235 0 9.64146Z" fill="white"/>
</mask>
<g mask="url(#mask57_12_6265)">
<path d="M133.027 75.4554C133.484 76.8184 133.941 78.1814 134.398 79.5434C135.887 79.3744 137.377 79.2004 138.867 79.0224C137.674 80.0364 136.48 81.0484 135.287 82.0584C135.736 83.4274 136.183 84.7954 136.633 86.1644C135.431 85.4274 134.23 84.6884 133.028 83.9474C131.821 84.9594 130.612 85.9694 129.405 86.9764C129.868 85.5054 130.331 84.0354 130.794 82.5634C129.601 81.8224 128.407 81.0785 127.214 80.3315C128.689 80.1765 130.163 80.0174 131.638 79.8544C132.101 78.3884 132.563 76.9224 133.027 75.4554Z" fill="white"/>
</g>
<mask id="mask58_12_6265" style="mask-type:luminance" maskUnits="userSpaceOnUse" x="0" y="0" width="358" height="229">
<path d="M0 9.64146C119.281 43.0405 238.562 -23.7575 357.843 9.64146C357.843 79.2235 357.843 148.804 357.843 218.385C238.563 184.986 119.281 251.784 0 218.385C0 148.804 0 79.2235 0 9.64146Z" fill="white"/>
</mask>
<g mask="url(#mask58_12_6265)">
<path d="M133.027 94.2294C133.484 95.5884 133.941 96.9464 134.398 98.3044C135.887 98.1354 137.377 97.9614 138.867 97.7834C137.674 98.8024 136.48 99.8184 135.287 100.832C135.736 102.192 136.183 103.552 136.633 104.912C135.431 104.175 134.23 103.436 133.028 102.695C131.821 103.708 130.612 104.717 129.405 105.724C129.868 104.263 130.331 102.8 130.794 101.338C129.601 100.592 128.407 99.8444 127.214 99.0924C128.689 98.9374 130.163 98.7784 131.638 98.6154C132.101 97.1544 132.563 95.6924 133.027 94.2294Z" fill="white"/>
</g>
<mask id="mask59_12_6265" style="mask-type:luminance" maskUnits="userSpaceOnUse" x="0" y="0" width="358" height="229">
<path d="M0 9.64146C119.281 43.0405 238.562 -23.7575 357.843 9.64146C357.843 79.2235 357.843 148.804 357.843 218.385C238.563 184.986 119.281 251.784 0 218.385C0 148.804 0 79.2235 0 9.64146Z" fill="white"/>
</mask>
<g mask="url(#mask59_12_6265)">
<path d="M146.229 26.4645C146.702 27.8255 147.173 29.1865 147.645 30.5465C149.125 30.3585 150.606 30.1675 152.086 29.9735C150.887 31.0025 149.688 32.0295 148.489 33.0555C148.953 34.4125 149.416 35.7695 149.879 37.1255C148.662 36.4055 147.445 35.6845 146.229 34.9605C145.036 35.9875 143.842 37.0125 142.649 38.0355C143.106 36.5635 143.565 35.0905 144.022 33.6175C142.82 32.8945 141.619 32.1695 140.417 31.4415C141.896 31.2635 143.377 31.0815 144.857 30.8965C145.313 29.4195 145.771 27.9425 146.229 26.4645Z" fill="white"/>
</g>
<mask id="mask60_12_6265" style="mask-type:luminance" maskUnits="userSpaceOnUse" x="0" y="0" width="358" height="229">
<path d="M0 9.64146C119.281 43.0405 238.562 -23.7575 357.843 9.64146C357.843 79.2235 357.843 148.804 357.843 218.385C238.563 184.986 119.281 251.784 0 218.385C0 148.804 0 79.2235 0 9.64146Z" fill="white"/>
</mask>
<g mask="url(#mask60_12_6265)">
<path d="M146.229 45.2385C146.702 46.5905 147.173 47.9425 147.645 49.2945C149.125 49.1065 150.606 48.9155 152.086 48.7215C150.887 49.7455 149.688 50.7695 148.489 51.7905C148.953 53.1565 149.416 54.5215 149.879 55.8865C148.662 55.1665 147.445 54.4455 146.229 53.7215C145.036 54.7485 143.842 55.7735 142.649 56.7965C143.106 55.3155 143.565 53.8345 144.022 52.3525C142.82 51.6335 141.619 50.9125 140.417 50.1895C141.896 50.0115 143.377 49.8295 144.857 49.6445C145.313 48.1765 145.771 46.7075 146.229 45.2385Z" fill="white"/>
</g>
<mask id="mask61_12_6265" style="mask-type:luminance" maskUnits="userSpaceOnUse" x="0" y="0" width="358" height="229">
<path d="M0 9.64146C119.281 43.0405 238.562 -23.7575 357.843 9.64146C357.843 79.2235 357.843 148.804 357.843 218.385C238.563 184.986 119.281 251.784 0 218.385C0 148.804 0 79.2235 0 9.64146Z" fill="white"/>
</mask>
<g mask="url(#mask61_12_6265)">
<path d="M146.229 63.9915C146.702 65.3465 147.173 66.7015 147.645 68.0565C149.125 67.8685 150.606 67.6775 152.086 67.4835C150.887 68.5125 149.688 69.5395 148.489 70.5655C148.953 71.9265 149.416 73.2875 149.879 74.6485C148.662 73.9285 147.445 73.2075 146.229 72.4835C145.036 73.5105 143.842 74.5355 142.649 75.5585C143.106 74.0815 143.565 72.6045 144.022 71.1275C142.82 70.4045 141.619 69.6795 140.417 68.9515C141.896 68.7735 143.377 68.5915 144.857 68.4065C145.313 66.9355 145.771 65.4635 146.229 63.9915Z" fill="white"/>
</g>
<mask id="mask62_12_6265" style="mask-type:luminance" maskUnits="userSpaceOnUse" x="0" y="0" width="358" height="229">
<path d="M0 9.64146C119.281 43.0405 238.562 -23.7575 357.843 9.64146C357.843 79.2235 357.843 148.804 357.843 218.385C238.563 184.986 119.281 251.784 0 218.385C0 148.804 0 79.2235 0 9.64146Z" fill="white"/>
</mask>
<g mask="url(#mask62_12_6265)">
<path d="M146.229 82.7524C146.702 84.1074 147.173 85.4625 147.645 86.8165C149.125 86.6285 150.606 86.4375 152.086 86.2435C150.887 87.2765 149.688 88.3084 148.489 89.3384C148.953 90.6914 149.416 92.0434 149.879 93.3954C148.662 92.6844 147.445 91.9714 146.229 91.2574C145.036 92.2754 143.842 93.2924 142.649 94.3064C143.106 92.8384 143.565 91.3704 144.022 89.9014C142.82 89.1734 141.619 88.4444 140.417 87.7124C141.896 87.5344 143.377 87.3524 144.857 87.1674C145.313 85.6964 145.771 84.2244 146.229 82.7524Z" fill="white"/>
</g>
<mask id="mask63_12_6265" style="mask-type:luminance" maskUnits="userSpaceOnUse" x="0" y="0" width="358" height="229">
<path d="M0 9.64146C119.281 43.0405 238.562 -23.7575 357.843 9.64146C357.843 79.2235 357.843 148.804 357.843 218.385C238.563 184.986 119.281 251.784 0 218.385C0 148.804 0 79.2235 0 9.64146Z" fill="white"/>
</mask>
<g mask="url(#mask63_12_6265)">
<path d="M146.229 101.512C146.702 102.871 147.173 104.231 147.645 105.59C149.125 105.402 150.606 105.211 152.086 105.017C150.887 106.041 149.688 107.064 148.489 108.085C148.953 109.446 149.416 110.807 149.879 112.168C148.662 111.448 147.445 110.727 146.229 110.003C145.036 111.03 143.842 112.055 142.649 113.078C143.106 111.601 143.565 110.124 144.022 108.647C142.82 107.928 141.619 107.208 140.417 106.484C141.896 106.306 143.377 106.124 144.857 105.939C145.313 104.466 145.771 102.989 146.229 101.512Z" fill="white"/>
</g>
</svg>
