<svg width="358" height="229" viewBox="0 0 358 229" fill="none" xmlns="http://www.w3.org/2000/svg">
<mask id="mask0_3_4117" style="mask-type:luminance" maskUnits="userSpaceOnUse" x="0" y="0" width="358" height="229">
<path d="M0 9.64088C119.281 43.0379 238.562 -23.7561 357.844 9.64088C357.844 79.2179 357.844 148.794 357.844 218.371C238.563 184.974 119.282 251.768 0 218.371C0 148.794 0 79.2169 0 9.64088Z" fill="white"/>
</mask>
<g mask="url(#mask0_3_4117)">
<path d="M0 113.993C119.281 147.39 238.562 80.5959 357.844 113.993C357.844 79.2089 357.844 44.4249 357.844 9.64088C238.563 -23.7561 119.282 43.0379 0 9.64088C0 44.4249 0 79.2079 0 113.993Z" fill="#C01F41"/>
</g>
<mask id="mask1_3_4117" style="mask-type:luminance" maskUnits="userSpaceOnUse" x="0" y="0" width="358" height="229">
<path d="M0 9.64088C119.281 43.0379 238.562 -23.7561 357.844 9.64088C357.844 79.2179 357.844 148.794 357.844 218.371C238.563 184.974 119.282 251.768 0 218.371C0 148.794 0 79.2169 0 9.64088Z" fill="white"/>
</mask>
<g mask="url(#mask1_3_4117)">
<path d="M0 218.371C119.281 251.768 238.562 184.974 357.844 218.371C357.844 183.579 357.844 148.786 357.844 113.993C238.563 80.5959 119.282 147.39 0 113.993C0 148.785 0 183.578 0 218.371Z" fill="#3C9446"/>
</g>
<mask id="mask2_3_4117" style="mask-type:luminance" maskUnits="userSpaceOnUse" x="0" y="0" width="358" height="229">
<path d="M0 9.64088C119.281 43.0379 238.562 -23.7561 357.844 9.64088C357.844 79.2179 357.844 148.794 357.844 218.371C238.563 184.974 119.282 251.768 0 218.371C0 148.794 0 79.2169 0 9.64088Z" fill="white"/>
</mask>
<g mask="url(#mask2_3_4117)">
<path d="M0 9.64088C0 79.2179 0 148.794 0 218.371C67.479 202.472 134.959 154.507 202.439 110.758C134.959 84.9299 67.48 63.3179 0 9.64088Z" fill="#010101"/>
</g>
<mask id="mask3_3_4117" style="mask-type:luminance" maskUnits="userSpaceOnUse" x="0" y="0" width="358" height="229">
<path d="M0 9.64088C119.281 43.0379 238.562 -23.7561 357.844 9.64088C357.844 79.2179 357.844 148.794 357.844 218.371C238.563 184.974 119.282 251.768 0 218.371C0 148.794 0 79.2169 0 9.64088Z" fill="white"/>
</mask>
<g mask="url(#mask3_3_4117)">
<path d="M0 132.688C119.281 166.085 238.562 99.2909 357.844 132.688C357.844 120.242 357.844 107.796 357.844 95.3499C238.563 61.9529 119.282 128.747 0 95.3499C0 107.796 0 120.242 0 132.688Z" fill="#010101"/>
</g>
<mask id="mask4_3_4117" style="mask-type:luminance" maskUnits="userSpaceOnUse" x="0" y="0" width="358" height="229">
<path d="M0 9.64088C119.281 43.0379 238.562 -23.7561 357.844 9.64088C357.844 79.2179 357.844 148.794 357.844 218.371C238.563 184.974 119.282 251.768 0 218.371C0 148.794 0 79.2169 0 9.64088Z" fill="white"/>
</mask>
<g mask="url(#mask4_3_4117)">
<path d="M0 203.528C57.893 189.892 115.785 152.655 173.678 114.726C115.785 92.9619 57.893 70.5049 0 24.4479C0 84.1419 0 143.834 0 203.528Z" fill="#F5CC2B"/>
</g>
<mask id="mask5_3_4117" style="mask-type:luminance" maskUnits="userSpaceOnUse" x="0" y="0" width="358" height="229">
<path d="M0 9.64088C119.281 43.0379 238.562 -23.7561 357.844 9.64088C357.844 79.2179 357.844 148.794 357.844 218.371C238.563 184.974 119.282 251.768 0 218.371C0 148.794 0 79.2169 0 9.64088Z" fill="white"/>
</mask>
<g mask="url(#mask5_3_4117)">
<path d="M0 119.516C119.281 152.913 238.562 86.1189 357.844 119.516C357.844 115.852 357.844 112.189 357.844 108.526C238.563 75.1289 119.282 141.923 0 108.526C0 112.189 0 115.852 0 119.516Z" fill="#F5CC2B"/>
</g>
<mask id="mask6_3_4117" style="mask-type:luminance" maskUnits="userSpaceOnUse" x="0" y="0" width="358" height="229">
<path d="M0 9.64088C119.281 43.0379 238.562 -23.7561 357.844 9.64088C357.844 79.2179 357.844 148.794 357.844 218.371C238.563 184.974 119.282 251.768 0 218.371C0 148.794 0 79.2169 0 9.64088Z" fill="white"/>
</mask>
<g mask="url(#mask6_3_4117)">
<path d="M0 191.17C49.906 179.417 99.812 150.126 149.72 117.971C99.813 98.6749 49.907 76.5159 0 36.8189C0 88.2689 0 139.72 0 191.17Z" fill="#010101"/>
</g>
<mask id="mask7_3_4117" style="mask-type:luminance" maskUnits="userSpaceOnUse" x="0" y="0" width="358" height="229">
<path d="M0 9.64088C119.281 43.0379 238.562 -23.7561 357.844 9.64088C357.844 79.2179 357.844 148.794 357.844 218.371C238.563 184.974 119.282 251.768 0 218.371C0 148.794 0 79.2169 0 9.64088Z" fill="white"/>
</mask>
<g mask="url(#mask7_3_4117)">
<mask id="mask8_3_4117" style="mask-type:luminance" maskUnits="userSpaceOnUse" x="0" y="0" width="358" height="229">
<path d="M0 9.64088C119.281 43.0379 238.562 -23.7561 357.844 9.64088C357.844 79.2179 357.844 148.794 357.844 218.371C238.563 184.974 119.282 251.768 0 218.371C0 148.794 0 79.2169 0 9.64088Z" fill="white"/>
</mask>
<g mask="url(#mask8_3_4117)">
<path d="M42.307 141.952C42.307 145.919 42.307 149.886 42.307 153.852C52.643 155.166 72.967 147.679 72.969 122.045C72.971 96.6979 51.278 91.2669 44.831 90.3809C38.34 90.0379 18.304 91.3489 18.304 112.021C18.304 133.137 37.945 138.248 41.806 138.402C45.703 138.944 60.19 136.394 58.561 120.561C58.562 124.973 53.541 134.255 42.967 133.211C32.444 132.121 25.879 123.059 25.877 115.352C25.878 107.602 32.234 98.4599 43.362 99.6079C54.479 100.724 62.659 110.766 62.66 120.74C62.658 130.667 54.772 143.228 42.307 141.952Z" fill="#F5CE30"/>
</g>
<mask id="mask9_3_4117" style="mask-type:luminance" maskUnits="userSpaceOnUse" x="0" y="0" width="358" height="229">
<path d="M0 9.64088C119.281 43.0379 238.562 -23.7561 357.844 9.64088C357.844 79.2179 357.844 148.794 357.844 218.371C238.563 184.974 119.282 251.768 0 218.371C0 148.794 0 79.2169 0 9.64088Z" fill="white"/>
</mask>
<g mask="url(#mask9_3_4117)">
<path d="M33.238 125.365C33.437 125.523 33.636 125.681 33.836 125.839C33.834 125.779 38.738 115.545 51.93 108.601C50.25 109.405 41.42 113.089 33.238 125.365Z" fill="#F5CE30"/>
</g>
<mask id="mask10_3_4117" style="mask-type:luminance" maskUnits="userSpaceOnUse" x="0" y="0" width="358" height="229">
<path d="M0 9.64088C119.281 43.0379 238.562 -23.7561 357.844 9.64088C357.844 79.2179 357.844 148.794 357.844 218.371C238.563 184.974 119.282 251.768 0 218.371C0 148.794 0 79.2169 0 9.64088Z" fill="white"/>
</mask>
<g mask="url(#mask10_3_4117)">
<path d="M33.926 126.115C33.662 125.909 33.397 125.703 33.133 125.496C36.702 119.815 42.863 112.581 51.612 108.543C49.035 109.878 46.644 111.486 44.514 113.196C46.536 111.581 48.912 110 51.612 108.543C51.744 108.612 51.876 108.682 52.008 108.751C39.046 115.574 34.072 125.788 34.047 125.946C34.007 126.003 33.966 126.059 33.926 126.115ZM37.945 119.559C36.081 121.621 34.63 123.661 33.423 125.492C33.528 125.537 33.635 125.582 33.74 125.628C34.047 125.025 35.315 122.603 37.945 119.559Z" fill="#F5CE30"/>
</g>
<mask id="mask11_3_4117" style="mask-type:luminance" maskUnits="userSpaceOnUse" x="0" y="0" width="358" height="229">
<path d="M0 9.64088C119.281 43.0379 238.562 -23.7561 357.844 9.64088C357.844 79.2179 357.844 148.794 357.844 218.371C238.563 184.974 119.282 251.768 0 218.371C0 148.794 0 79.2169 0 9.64088Z" fill="white"/>
</mask>
<g mask="url(#mask11_3_4117)">
<path d="M34.496 123.614C34.496 123.614 32.999 120.284 34.338 119.098C35.659 117.88 35.05 122.847 35.05 122.847C35.253 122.597 35.455 122.346 35.658 122.095C35.658 122.095 34.709 118.163 35.736 117.492C36.728 116.832 36.239 121.211 36.237 121.211C36.445 120.975 36.654 120.739 36.863 120.503C36.863 120.503 36.211 116.714 37.152 116.145C38.155 115.586 37.548 119.681 37.548 119.681C37.777 119.432 38.005 119.182 38.234 118.933C38.234 118.933 37.734 115.351 38.938 114.654C40.151 113.964 39.043 118.004 39.043 118.004C39.315 117.752 39.588 117.499 39.86 117.245C39.86 117.245 39.544 113.986 40.547 113.364C41.54 112.739 40.678 116.426 40.678 116.426C40.913 116.198 41.149 115.97 41.383 115.742C41.381 115.742 41.181 112.7 42.148 112.129C43.122 111.537 42.253 114.995 42.253 114.995C42.5 114.783 42.746 114.571 42.992 114.359C42.992 114.359 42.807 111.32 44.038 110.875C45.255 110.391 43.836 113.683 43.836 113.683C44.107 113.465 44.376 113.246 44.646 113.028C44.646 113.028 44.938 109.53 45.992 109.303C47.041 109.069 45.49 112.37 45.49 112.37C45.745 112.193 46.001 112.016 46.256 111.838C46.256 111.838 46.67 108.851 47.805 108.606C48.965 108.34 47.092 111.28 47.092 111.28C47.338 111.113 47.584 110.945 47.83 110.777C47.83 110.777 48.701 107.844 49.775 107.612C50.856 107.354 48.649 110.338 48.648 110.335C48.891 110.189 49.135 110.041 49.378 109.894C49.378 109.894 50.567 107.28 51.559 107.158C52.507 107.056 50.46 109.324 50.46 109.324C50.765 109.162 51.069 109.001 51.374 108.838C51.372 108.839 52.956 106.129 53.485 107.042C54.029 107.947 51.279 109.02 51.277 109.016C50.978 109.169 50.679 109.323 50.38 109.475C50.382 109.48 53.669 108.164 54.083 108.972C54.479 109.799 49.536 109.945 49.536 109.933C49.275 110.097 49.014 110.261 48.753 110.424C48.755 110.429 52.058 109.79 51.664 110.57C51.249 111.386 47.987 110.928 47.987 110.923C47.731 111.09 47.477 111.257 47.221 111.424C47.221 111.43 50.539 110.887 50.063 111.606C49.641 112.34 46.413 111.999 46.413 111.994C46.158 112.186 45.903 112.378 45.648 112.57C45.648 112.575 48.861 112.028 48.41 112.972C47.907 113.91 44.25 113.52 44.25 113.514C43.954 113.773 43.657 114.033 43.361 114.292C43.36 114.298 46.747 113.45 46.483 114.331C46.231 115.209 42.305 115.299 42.305 115.291C42.008 115.544 41.712 115.797 41.416 116.05C41.417 116.057 45.093 115.206 44.011 116.226C42.885 117.236 40.309 117.259 40.308 117.256C39.948 117.641 39.587 118.025 39.227 118.408C39.226 118.415 42.858 116.638 42.358 117.803C41.831 118.978 38.231 119.402 38.233 119.395C38.004 119.661 37.776 119.926 37.547 120.191C37.547 120.197 40.808 118.697 40.493 119.709C40.178 120.719 36.701 121.435 36.701 121.428C36.494 121.669 36.285 121.909 36.078 122.149C36.077 122.157 39.94 120.348 39.596 121.445C39.281 122.587 35.657 122.96 35.657 122.953C35.489 123.172 35.323 123.39 35.155 123.609C35.156 123.615 38.708 122.022 38.734 123.017C38.788 124.005 34.575 124.461 34.574 124.452C34.549 124.173 34.523 123.893 34.496 123.614Z" fill="#F5CE30"/>
</g>
<mask id="mask12_3_4117" style="mask-type:luminance" maskUnits="userSpaceOnUse" x="0" y="0" width="358" height="229">
<path d="M0 9.64088C119.281 43.0379 238.562 -23.7561 357.844 9.64088C357.844 79.2179 357.844 148.794 357.844 218.371C238.563 184.974 119.282 251.768 0 218.371C0 148.794 0 79.2169 0 9.64088Z" fill="white"/>
</mask>
<g mask="url(#mask12_3_4117)">
<path d="M54.084 127.46C53.885 127.578 53.686 127.695 53.486 127.812C53.487 127.748 48.62 116.533 35.445 106.949C37.072 108.092 45.91 113.531 54.084 127.46Z" fill="#F5CE30"/>
</g>
<mask id="mask13_3_4117" style="mask-type:luminance" maskUnits="userSpaceOnUse" x="0" y="0" width="358" height="229">
<path d="M0 9.64088C119.281 43.0379 238.562 -23.7561 357.844 9.64088C357.844 79.2179 357.844 148.794 357.844 218.371C238.563 184.974 119.282 251.768 0 218.371C0 148.794 0 79.2169 0 9.64088Z" fill="white"/>
</mask>
<g mask="url(#mask13_3_4117)">
<path d="M53.407 128.071C53.381 128.008 53.354 127.944 53.328 127.881C53.274 127.711 48.305 116.502 35.341 107.08C35.384 107.068 35.429 107.056 35.472 107.044C35.463 107.012 35.454 106.98 35.446 106.948C35.482 106.906 35.517 106.864 35.552 106.821C35.578 106.85 35.658 106.887 35.737 106.95C44.514 112.777 50.649 121.217 54.27 127.379C53.983 127.611 53.695 127.841 53.407 128.071V128.071ZM48.227 119.109C51.517 123.354 53.193 126.713 53.565 127.553C53.72 127.468 53.877 127.383 54.032 127.298C52.51 124.887 50.567 122.015 48.227 119.109Z" fill="#F5CE30"/>
</g>
<mask id="mask14_3_4117" style="mask-type:luminance" maskUnits="userSpaceOnUse" x="0" y="0" width="358" height="229">
<path d="M0 9.64088C119.281 43.0379 238.562 -23.7561 357.844 9.64088C357.844 79.2179 357.844 148.794 357.844 218.371C238.563 184.974 119.282 251.768 0 218.371C0 148.794 0 79.2169 0 9.64088Z" fill="white"/>
</mask>
<g mask="url(#mask14_3_4117)">
<path d="M52.826 125.454C52.826 125.454 54.349 122.429 53.012 120.972C51.692 119.487 52.276 124.575 52.273 124.575C52.079 124.284 51.885 123.993 51.692 123.702C51.689 123.702 52.643 119.962 51.613 119.083C50.567 118.219 51.068 122.698 51.068 122.698C50.866 122.42 50.664 122.143 50.462 121.865C50.462 121.865 51.124 118.208 50.145 117.447C49.193 116.69 49.802 120.907 49.802 120.907C49.556 120.611 49.31 120.314 49.064 120.017C49.064 120.017 49.617 116.54 48.413 115.6C47.226 114.669 48.255 118.925 48.255 118.925C47.999 118.619 47.744 118.313 47.489 118.007C47.489 118.007 47.83 114.814 46.829 113.991C45.834 113.168 46.67 117.025 46.672 117.025C46.438 116.75 46.201 116.475 45.967 116.2C45.964 116.2 46.18 113.2 45.15 112.429C44.202 111.644 45.15 115.283 45.15 115.283C44.886 115.02 44.622 114.758 44.358 114.494C44.358 114.494 44.545 111.492 43.286 110.798C42.075 110.071 43.52 113.65 43.522 113.65C43.25 113.378 42.977 113.105 42.705 112.832C42.705 112.832 42.443 109.279 41.387 108.841C40.339 108.397 41.835 112.003 41.835 112.003C41.583 111.775 41.329 111.547 41.077 111.319C41.077 111.319 40.681 108.251 39.548 107.778C38.37 107.277 40.259 110.596 40.26 110.594C40.005 110.376 39.75 110.158 39.495 109.94C39.495 109.94 38.687 106.84 37.552 106.385C36.48 105.911 38.685 109.338 38.687 109.336C38.45 109.141 38.211 108.946 37.974 108.75C37.977 108.75 36.786 105.897 35.819 105.578C34.815 105.278 36.893 107.964 36.892 107.962C36.587 107.739 36.283 107.516 35.978 107.293C35.978 107.293 34.42 104.268 33.875 105.071C33.347 105.868 36.055 107.491 36.057 107.487C36.362 107.702 36.666 107.916 36.971 108.13C36.971 108.136 33.664 106.154 33.268 106.879C32.845 107.625 37.841 108.775 37.841 108.761C38.096 108.977 38.351 109.192 38.607 109.407C38.606 109.413 35.319 108.111 35.713 108.97C36.081 109.864 39.339 110.061 39.337 110.055C39.601 110.275 39.865 110.494 40.129 110.713C40.128 110.719 36.838 109.514 37.234 110.318C37.658 111.138 40.921 111.448 40.92 111.443C41.181 111.687 41.441 111.931 41.702 112.174C41.702 112.179 38.501 110.991 38.941 112.023C39.416 113.059 43.077 113.401 43.075 113.395C43.388 113.716 43.702 114.036 44.015 114.356C44.014 114.362 40.577 112.831 40.868 113.768C41.183 114.704 45.046 115.572 45.045 115.564C45.335 115.876 45.625 116.188 45.915 116.499C45.914 116.505 42.256 114.922 43.365 116.16C44.437 117.39 47.067 117.934 47.068 117.931C47.421 118.387 47.772 118.843 48.124 119.297C48.125 119.304 44.517 116.803 45.019 118.068C45.517 119.346 49.066 120.485 49.066 120.479C49.312 120.792 49.558 121.105 49.804 121.417C49.803 121.422 46.54 119.269 46.857 120.343C47.172 121.416 50.65 122.829 50.649 122.823C50.851 123.105 51.053 123.387 51.255 123.669C51.255 123.676 47.41 121.093 47.728 122.257C48.074 123.464 51.695 124.566 51.695 124.559C51.863 124.811 52.029 125.064 52.197 125.316C52.198 125.322 48.651 123.014 48.626 124.004C48.573 124.981 52.75 126.282 52.751 126.274C52.774 126.002 52.8 125.728 52.826 125.454Z" fill="#F5CE30"/>
</g>
</g>
</svg>
