<svg width="128" height="128" viewBox="0 0 128 128" fill="none" xmlns="http://www.w3.org/2000/svg">
<path d="M114 54C114 26.3858 91.6142 4 64 4C36.3858 4 14 26.3858 14 54V74C14 101.614 36.3858 124 64 124C91.6142 124 114 101.614 114 74V54Z" fill="#F1F2F2"/>
<path d="M105 91C96.99 91 96.99 97 88.99 97C80.99 97 80.99 91 72.99 91C64.99 91 64.99 97 56.99 97C48.99 97 48.99 91 41 91C33.01 91 33 97 25 97C22.12 97 20.27 96.22 18.72 95.22C26.7 112.23 43.98 124 64 124C85.14 124 103.22 110.88 110.53 92.33C109.13 91.56 107.44 91 105 91Z" fill="#8ED4EF"/>
<path d="M105 101C96.99 101 96.99 107 88.99 107C80.99 107 80.99 101 72.99 101C64.99 101 64.99 107 56.99 107C48.99 107 48.99 101 41 101C33.49 101 33.03 106.28 26.39 106.93C35.55 117.39 49 124 64 124C81.64 124 97.16 114.86 106.05 101.04C105.72 101.01 105.37 101 105 101Z" fill="#ADDFF7"/>
<path d="M88.99 116C80.99 116 80.99 110 72.99 110C64.99 110 64.99 116 56.99 116C48.99 116 48.99 110 41 110C36.91 110 34.91 111.57 32.86 113.1C41.4 119.92 52.23 124 64 124C74.15 124 83.59 120.97 91.47 115.77C90.74 115.92 89.92 116 88.99 116Z" fill="#C5E9FF"/>
<path d="M70.57 26.67C70.57 26.67 64.89 27.5 64.69 34C64.5 40.5 53.5 38.5 47.5 54.5C41.5 70.5 42.5 75.5 40.5 78.5C39.5 79.5 37.5 79.5 34.5 79.5C31.5 79.5 30.5 81.5 30.5 81.5C31.5 72.5 39 72 39 72C41.06 51.22 50.11 37.24 60.9 30.59C59.17 27.12 56 25 56 25C62.58 21.35 68.08 24.63 70.57 26.67Z" fill="#939598"/>
<path d="M73.5 43.5C73.84 49.23 72.87 53.63 71.43 56.95C68.62 63.49 64 65.83 64 65.83C64.7 62.86 64.73 60.2 64.42 57.91C63.63 51.97 60.5 48.5 60.5 48.5C43.5 54.5 46.64 68.63 46.64 68.63C45.2 70.83 44.5 72.5 44.5 72.5C50.5 75.5 48.5 84.5 48.5 84.5C47.5 82.5 45.5 82.5 43.17 81.5C40.85 80.5 40.5 78.5 40.5 78.5C42.5 75.5 41.5 70.5 47.5 54.5C53.5 38.5 64.5 40.5 64.69 34C64.89 27.5 70.57 26.67 70.57 26.67C80.8 24.55 91.22 28.52 98 39C85.5 39.5 73.5 43.5 73.5 43.5Z" fill="#808285"/>
<path d="M64.42 57.91C62.99 58.1 61.67 58.29 60.5 58.5C53.61 59.75 49.07 64.93 46.64 68.63C46.64 68.63 43.5 54.5 60.5 48.5C60.5 48.5 63.63 51.97 64.42 57.91Z" fill="#E6E7E8"/>
<path d="M98 39C96.17 51.83 82.78 55.25 71.43 56.95C72.87 53.63 73.84 49.23 73.5 43.5C73.5 43.5 85.5 39.5 98 39Z" fill="#E6E7E8"/>
<path d="M86.5 36C87.3284 36 88 35.3284 88 34.5C88 33.6716 87.3284 33 86.5 33C85.6716 33 85 33.6716 85 34.5C85 35.3284 85.6716 36 86.5 36Z" fill="#414042"/>
</svg>
